<svg xmlns="http://www.w3.org/2000/svg" width="180" height="52" viewBox="0 0 180 52" fill="none">
  <path d="M179.001 46.0031C179.001 48.7743 176.709 51.0189 173.875 51.0189H6.13316C3.30023 51.0189 1.00073 48.7743 1.00073 46.0031V6.00357C1.00073 3.23374 3.30023 0.981201 6.13316 0.981201H173.874C176.709 0.981201 178.999 3.23374 178.999 6.00357L179.001 46.0031Z" fill="black"/>
  <path d="M173.334 1.04163C176.421 1.04163 178.932 3.49051 178.932 6.50001V45.5C178.932 48.5095 176.421 50.9584 173.334 50.9584H6.6674C3.58073 50.9584 1.06907 48.5095 1.06907 45.5V6.50001C1.06907 3.49051 3.58073 1.04163 6.6674 1.04163H173.334ZM173.334 7.62939e-06H6.6674C3.0024 7.62939e-06 0.000732422 2.92663 0.000732422 6.50001V45.5C0.000732422 49.0734 3.0024 52 6.6674 52H173.334C176.999 52 180.001 49.0734 180.001 45.5V6.50001C180.001 2.92663 176.999 7.62939e-06 173.334 7.62939e-06Z" fill="#A6A6A6"/>
  <path d="M40.1712 25.7191C40.1325 21.5292 43.6899 19.4908 43.8525 19.3959C41.8379 16.532 38.7152 16.1407 37.6179 16.1095C34.9952 15.8404 32.4512 17.6396 31.1152 17.6396C29.7525 17.6396 27.6952 16.1355 25.4779 16.1797C22.6245 16.2226 19.9552 17.8333 18.4912 20.3345C15.4699 25.4344 17.7232 32.9289 20.6179 37.0512C22.0659 39.0701 23.7579 41.3243 25.9725 41.245C28.1392 41.1579 28.9485 39.8982 31.5632 39.8982C34.1539 39.8982 34.9139 41.245 37.1725 41.1943C39.4979 41.1579 40.9619 39.1663 42.3592 37.1292C44.0325 34.8152 44.7045 32.5363 44.7312 32.4193C44.6765 32.4011 40.2152 30.741 40.1712 25.7191Z" fill="white"/>
  <path d="M35.9045 13.3977C37.0699 11.9768 37.8672 10.0437 37.6459 8.08203C35.9592 8.15483 33.8499 9.21953 32.6352 10.6092C31.5605 11.8338 30.6005 13.841 30.8485 15.7286C32.7432 15.8664 34.6885 14.7965 35.9045 13.3977Z" fill="white"/>
  <path d="M65.4007 13.0116C65.4007 14.5417 64.93 15.6935 63.99 16.467C63.1194 17.1807 61.882 17.5382 60.2794 17.5382C59.4847 17.5382 58.8047 17.5044 58.2354 17.4368V9.07646C58.978 8.95946 59.778 8.89966 60.642 8.89966C62.1687 8.89966 63.3194 9.22336 64.0954 9.87076C64.9647 10.6027 65.4007 11.6492 65.4007 13.0116ZM63.9274 13.0493C63.9274 12.0574 63.658 11.2969 63.1194 10.7665C62.5807 10.2374 61.794 9.97216 60.758 9.97216C60.318 9.97216 59.9434 10.0008 59.6327 10.0606V16.4163C59.8047 16.4423 60.1194 16.454 60.5767 16.454C61.646 16.454 62.4714 16.1641 63.0527 15.5843C63.634 15.0045 63.9274 14.1595 63.9274 13.0493Z" fill="white"/>
  <path d="M73.2126 14.3479C73.2126 15.2904 72.9366 16.0626 72.3846 16.6684C71.806 17.2911 71.0393 17.6018 70.082 17.6018C69.1593 17.6018 68.4246 17.3041 67.8766 16.7061C67.33 16.1094 67.0566 15.3567 67.0566 14.4493C67.0566 13.5003 67.338 12.7216 67.9033 12.1171C68.4686 11.5126 69.2286 11.2097 70.186 11.2097C71.1086 11.2097 71.85 11.5074 72.4113 12.1041C72.9446 12.6839 73.2126 13.4327 73.2126 14.3479ZM71.7633 14.3921C71.7633 13.8266 71.638 13.3417 71.3886 12.9374C71.0953 12.4486 70.678 12.2042 70.1353 12.2042C69.574 12.2042 69.1473 12.4486 68.854 12.9374C68.6033 13.3417 68.4793 13.8344 68.4793 14.4168C68.4793 14.9823 68.6046 15.4672 68.854 15.8715C69.1566 16.3603 69.578 16.6047 70.122 16.6047C70.6553 16.6047 71.074 16.3564 71.3753 15.8585C71.634 15.4464 71.7633 14.9576 71.7633 14.3921Z" fill="white"/>
  <path d="M83.6872 11.3345L81.7206 17.4627H80.4406L79.6259 14.8016C79.4192 14.1373 79.2512 13.4769 79.1206 12.8217H79.0952C78.9739 13.4951 78.8059 14.1542 78.5899 14.8016L77.7246 17.4627H76.4299L74.5806 11.3345H76.0166L76.7272 14.2478C76.8992 14.9368 77.0406 15.5933 77.1539 16.2147H77.1792C77.2832 15.7025 77.4552 15.0499 77.6979 14.2608L78.5899 11.3358H79.7286L80.5832 14.1984C80.7899 14.8965 80.9579 15.5686 81.0872 16.216H81.1259C81.2206 15.5855 81.3632 14.9134 81.5526 14.1984L82.3152 11.3358H83.6872V11.3345Z" fill="white"/>
  <path d="M90.9312 17.4627H89.5339V13.9527C89.5339 12.8711 89.1125 12.3303 88.2672 12.3303C87.8525 12.3303 87.5179 12.4785 87.2579 12.7762C87.0005 13.0739 86.8699 13.4249 86.8699 13.8266V17.4614H85.4725V13.0856C85.4725 12.5474 85.4552 11.9637 85.4219 11.3319H86.6499L86.7152 12.29H86.7539C86.9165 11.9923 87.1592 11.7466 87.4779 11.5503C87.8565 11.3215 88.2805 11.2058 88.7445 11.2058C89.3312 11.2058 89.8192 11.3904 90.2072 11.7609C90.6899 12.2146 90.9312 12.8919 90.9312 13.7915V17.4627Z" fill="white"/>
  <path d="M94.7847 17.4628H93.3887V8.52271H94.7847V17.4628Z" fill="white"/>
  <path d="M103.011 14.3479C103.011 15.2904 102.735 16.0626 102.183 16.6684C101.605 17.2911 100.837 17.6018 99.8806 17.6018C98.9566 17.6018 98.2219 17.3041 97.6752 16.7061C97.1286 16.1094 96.8552 15.3567 96.8552 14.4493C96.8552 13.5003 97.1366 12.7216 97.7019 12.1171C98.2672 11.5126 99.0272 11.2097 99.9832 11.2097C100.907 11.2097 101.647 11.5074 102.21 12.1041C102.743 12.6839 103.011 13.4327 103.011 14.3479ZM101.561 14.3921C101.561 13.8266 101.435 13.3417 101.186 12.9374C100.894 12.4486 100.475 12.2042 99.9339 12.2042C99.3712 12.2042 98.9446 12.4486 98.6526 12.9374C98.4019 13.3417 98.2779 13.8344 98.2779 14.4168C98.2779 14.9823 98.4032 15.4672 98.6526 15.8715C98.9552 16.3603 99.3766 16.6047 99.9206 16.6047C100.454 16.6047 100.871 16.3564 101.173 15.8585C101.433 15.4464 101.561 14.9576 101.561 14.3921Z" fill="white"/>
  <path d="M109.774 17.4627H108.519L108.415 16.7568H108.377C107.947 17.3197 107.335 17.6018 106.541 17.6018C105.947 17.6018 105.467 17.4159 105.106 17.0467C104.778 16.7113 104.614 16.294 104.614 15.7987C104.614 15.0499 104.934 14.4792 105.578 14.084C106.221 13.6888 107.125 13.4951 108.289 13.5042V13.3898C108.289 12.5825 107.854 12.1795 106.983 12.1795C106.363 12.1795 105.817 12.3316 105.345 12.6332L105.061 11.7388C105.645 11.3865 106.366 11.2097 107.217 11.2097C108.859 11.2097 109.683 12.0547 109.683 13.7447V16.0015C109.683 16.6138 109.714 17.1013 109.774 17.4627ZM108.323 15.3567V14.4116C106.782 14.3856 106.011 14.7977 106.011 15.6466C106.011 15.9664 106.099 16.2056 106.279 16.3655C106.459 16.5254 106.689 16.6047 106.962 16.6047C107.269 16.6047 107.555 16.5098 107.817 16.3213C108.079 16.1315 108.241 15.891 108.301 15.5959C108.315 15.5296 108.323 15.449 108.323 15.3567Z" fill="white"/>
  <path d="M117.714 17.4628H116.474L116.409 16.4787H116.37C115.974 17.2275 115.299 17.6019 114.351 17.6019C113.594 17.6019 112.963 17.312 112.463 16.7322C111.963 16.1524 111.714 15.3997 111.714 14.4754C111.714 13.4835 111.985 12.6801 112.529 12.0665C113.055 11.4945 113.701 11.2085 114.469 11.2085C115.313 11.2085 115.903 11.4854 116.239 12.0405H116.266V8.52271H117.665V15.8118C117.665 16.4085 117.681 16.9584 117.714 17.4628ZM116.266 14.8784V13.8566C116.266 13.6798 116.253 13.5368 116.227 13.4276C116.149 13.1 115.979 12.8244 115.722 12.6021C115.462 12.3798 115.149 12.268 114.787 12.268C114.266 12.268 113.858 12.4695 113.558 12.8738C113.261 13.2781 113.11 13.7942 113.11 14.4247C113.11 15.0305 113.253 15.5219 113.539 15.9002C113.842 16.3032 114.25 16.5047 114.761 16.5047C115.219 16.5047 115.586 16.337 115.865 16.0003C116.134 15.6896 116.266 15.3152 116.266 14.8784Z" fill="white"/>
  <path d="M129.665 14.3479C129.665 15.2904 129.389 16.0626 128.837 16.6684C128.258 17.2911 127.493 17.6018 126.534 17.6018C125.613 17.6018 124.878 17.3041 124.329 16.7061C123.782 16.1094 123.509 15.3567 123.509 14.4493C123.509 13.5003 123.79 12.7216 124.355 12.1171C124.921 11.5126 125.681 11.2097 126.639 11.2097C127.561 11.2097 128.303 11.5074 128.863 12.1041C129.397 12.6839 129.665 13.4327 129.665 14.3479ZM128.217 14.3921C128.217 13.8266 128.091 13.3417 127.842 12.9374C127.547 12.4486 127.131 12.2042 126.587 12.2042C126.027 12.2042 125.601 12.4486 125.306 12.9374C125.055 13.3417 124.931 13.8344 124.931 14.4168C124.931 14.9823 125.057 15.4672 125.306 15.8715C125.609 16.3603 126.03 16.6047 126.574 16.6047C127.107 16.6047 127.527 16.3564 127.829 15.8585C128.086 15.4464 128.217 14.9576 128.217 14.3921Z" fill="white"/>
  <path d="M137.178 17.4627H135.782V13.9527C135.782 12.8711 135.361 12.3303 134.514 12.3303C134.099 12.3303 133.765 12.4785 133.506 12.7762C133.247 13.0739 133.118 13.4249 133.118 13.8266V17.4614H131.719V13.0856C131.719 12.5474 131.703 11.9637 131.67 11.3319H132.897L132.962 12.29H133.001C133.165 11.9923 133.407 11.7466 133.725 11.5503C134.105 11.3215 134.527 11.2058 134.993 11.2058C135.578 11.2058 136.066 11.3904 136.454 11.7609C136.938 12.2146 137.178 12.8919 137.178 13.7915V17.4627Z" fill="white"/>
  <path d="M146.582 12.355H145.043V15.332C145.043 16.0886 145.317 16.4669 145.858 16.4669C146.109 16.4669 146.317 16.4461 146.481 16.4032L146.517 17.4367C146.241 17.5381 145.878 17.5888 145.431 17.5888C144.879 17.5888 144.45 17.425 144.139 17.0974C143.827 16.7698 143.673 16.2186 143.673 15.4451V12.355H142.754V11.3345H143.673V10.2113L145.042 9.80835V11.3332H146.581V12.355H146.582Z" fill="white"/>
  <path d="M153.979 17.4628H152.581V13.9788C152.581 12.8803 152.159 12.3304 151.315 12.3304C150.667 12.3304 150.225 12.6489 149.982 13.2859C149.941 13.4198 149.917 13.5836 149.917 13.776V17.4615H148.521V8.52271H149.917V12.216H149.943C150.383 11.5439 151.014 11.2085 151.831 11.2085C152.41 11.2085 152.889 11.3931 153.269 11.7636C153.742 12.2251 153.979 12.9115 153.979 13.8189V17.4628Z" fill="white"/>
  <path d="M161.61 14.1087C161.61 14.3531 161.591 14.5585 161.558 14.7262H157.367C157.386 15.332 157.586 15.7935 157.974 16.1133C158.329 16.3993 158.786 16.5423 159.346 16.5423C159.966 16.5423 160.531 16.4461 161.041 16.2524L161.259 17.1988C160.663 17.451 159.962 17.5771 159.15 17.5771C158.177 17.5771 157.41 17.2976 156.855 16.7386C156.298 16.1796 156.022 15.4295 156.022 14.4883C156.022 13.564 156.279 12.7944 156.798 12.1808C157.339 11.5256 158.071 11.198 158.995 11.198C159.899 11.198 160.586 11.5256 161.05 12.1808C161.425 12.7008 161.61 13.3443 161.61 14.1087ZM160.277 13.7564C160.287 13.3521 160.195 13.0037 160.006 12.7099C159.763 12.3316 159.394 12.1418 158.894 12.1418C158.438 12.1418 158.066 12.3264 157.782 12.6969C157.55 12.992 157.413 13.3443 157.367 13.7564H160.277Z" fill="white"/>
  <path d="M71.5274 40.9552H68.4994L66.8407 35.8735H61.0754L59.4954 40.9552H56.5474L62.2594 23.6548H65.7874L71.5274 40.9552ZM66.3407 33.7415L64.8407 29.224C64.682 28.7625 64.3847 27.6757 63.946 25.9649H63.8927C63.718 26.7007 63.4367 27.7875 63.05 29.224L61.5767 33.7415H66.3407Z" fill="white"/>
  <path d="M86.2166 34.5645C86.2166 36.6861 85.6286 38.3631 84.4526 39.5942C83.3993 40.6901 82.0913 41.2374 80.5299 41.2374C78.8446 41.2374 77.6339 40.6472 76.8966 39.4668H76.8433V46.0383H74.0006V32.5872C74.0006 31.2534 73.9646 29.8845 73.8953 28.4805H76.3953L76.5539 30.4578H76.6073C77.5553 28.968 78.9939 28.2244 80.9246 28.2244C82.4339 28.2244 83.6939 28.8055 84.7019 29.969C85.7126 31.1338 86.2166 32.6652 86.2166 34.5645ZM83.3206 34.6659C83.3206 33.4517 83.0406 32.4507 82.4779 31.6629C81.8633 30.8413 81.0379 30.4305 80.0033 30.4305C79.3019 30.4305 78.6646 30.6593 78.0953 31.1104C77.5246 31.5654 77.1513 32.1595 76.9766 32.8953C76.8886 33.2385 76.8446 33.5193 76.8446 33.7403V35.8203C76.8446 36.7277 77.1299 37.4934 77.7006 38.1187C78.2713 38.744 79.0126 39.056 79.9246 39.056C80.9953 39.056 81.8286 38.653 82.4246 37.8496C83.0219 37.0449 83.3206 35.9841 83.3206 34.6659Z" fill="white"/>
  <path d="M100.933 34.5645C100.933 36.6861 100.345 38.3631 99.1675 39.5942C98.1155 40.6901 96.8075 41.2374 95.2461 41.2374C93.5608 41.2374 92.3501 40.6472 91.6141 39.4668H91.5608V46.0383H88.7181V32.5872C88.7181 31.2534 88.6821 29.8845 88.6128 28.4805H91.1128L91.2715 30.4578H91.3248C92.2715 28.968 93.7101 28.2244 95.6421 28.2244C97.1501 28.2244 98.4101 28.8055 99.4208 29.969C100.427 31.1338 100.933 32.6652 100.933 34.5645ZM98.0368 34.6659C98.0368 33.4517 97.7555 32.4507 97.1928 31.6629C96.5781 30.8413 95.7555 30.4305 94.7195 30.4305C94.0168 30.4305 93.3808 30.6593 92.8101 31.1104C92.2395 31.5654 91.8675 32.1595 91.6928 32.8953C91.6061 33.2385 91.5608 33.5193 91.5608 33.7403V35.8203C91.5608 36.7277 91.8461 37.4934 92.4141 38.1187C92.9848 38.7427 93.7261 39.056 94.6408 39.056C95.7115 39.056 96.5448 38.653 97.1408 37.8496C97.7381 37.0449 98.0368 35.9841 98.0368 34.6659Z" fill="white"/>
  <path d="M117.386 36.1037C117.386 37.5753 116.862 38.7726 115.81 39.6969C114.654 40.707 113.045 41.2114 110.977 41.2114C109.067 41.2114 107.537 40.8526 106.378 40.1337L107.037 37.8236C108.285 38.5594 109.654 38.9286 111.146 38.9286C112.217 38.9286 113.05 38.692 113.649 38.2214C114.245 37.7508 114.542 37.119 114.542 36.3312C114.542 35.6292 114.297 35.0377 113.805 34.558C113.315 34.0783 112.498 33.6324 111.357 33.2203C108.25 32.0906 106.698 30.4357 106.698 28.2595C106.698 26.8373 107.242 25.6712 108.331 24.7638C109.417 23.8551 110.865 23.4014 112.675 23.4014C114.29 23.4014 115.631 23.6757 116.702 24.223L115.991 26.4824C114.991 25.952 113.861 25.6868 112.595 25.6868C111.595 25.6868 110.814 25.9273 110.254 26.4057C109.781 26.8334 109.543 27.3547 109.543 27.9722C109.543 28.656 109.814 29.2215 110.358 29.6661C110.831 30.0769 111.691 30.5215 112.939 31.0012C114.466 31.6005 115.587 32.3012 116.309 33.1046C117.027 33.9054 117.386 34.9077 117.386 36.1037Z" fill="white"/>
  <path d="M126.785 30.5604H123.651V36.6171C123.651 38.1576 124.203 38.9272 125.31 38.9272C125.818 38.9272 126.239 38.8843 126.573 38.7985L126.651 40.9032C126.091 41.1073 125.354 41.21 124.441 41.21C123.318 41.21 122.441 40.8759 121.807 40.209C121.177 39.5408 120.859 38.4202 120.859 36.8459V30.5578H118.993V28.4778H120.859V26.1937L123.651 25.3721V28.4778H126.785V30.5604Z" fill="white"/>
  <path d="M140.922 34.6151C140.922 36.5326 140.359 38.1069 139.237 39.338C138.059 40.6055 136.497 41.2373 134.549 41.2373C132.671 41.2373 131.177 40.6302 130.062 39.416C128.947 38.2018 128.39 36.6691 128.39 34.8218C128.39 32.8887 128.963 31.3053 130.114 30.0742C131.262 28.8418 132.811 28.2256 134.759 28.2256C136.637 28.2256 138.147 28.8327 139.287 30.0482C140.378 31.2273 140.922 32.7496 140.922 34.6151ZM137.973 34.7048C137.973 33.5543 137.721 32.5676 137.21 31.7447C136.614 30.7489 135.762 30.2523 134.658 30.2523C133.515 30.2523 132.647 30.7502 132.051 31.7447C131.541 32.5689 131.289 33.5712 131.289 34.7568C131.289 35.9073 131.541 36.894 132.051 37.7156C132.666 38.7114 133.525 39.208 134.633 39.208C135.718 39.208 136.57 38.701 137.185 37.6896C137.709 36.8511 137.973 35.854 137.973 34.7048Z" fill="white"/>
  <path d="M150.162 30.918C149.881 30.8673 149.581 30.8413 149.266 30.8413C148.266 30.8413 147.493 31.2092 146.949 31.9463C146.475 32.5963 146.238 33.4179 146.238 34.4098V40.9553H143.397L143.423 32.4091C143.423 30.9713 143.387 29.6622 143.317 28.4818H145.793L145.897 30.8686H145.975C146.275 30.0483 146.749 29.3879 147.397 28.8926C148.03 28.4467 148.714 28.2244 149.451 28.2244C149.714 28.2244 149.951 28.2426 150.162 28.2751V30.918Z" fill="white"/>
  <path d="M162.875 34.1276C162.875 34.6242 162.842 35.0428 162.771 35.3847H154.243C154.277 36.6171 154.689 37.5596 155.481 38.2096C156.199 38.7907 157.129 39.0819 158.27 39.0819C159.533 39.0819 160.685 38.8856 161.721 38.4917L162.166 40.4157C160.955 40.9305 159.526 41.1866 157.877 41.1866C155.893 41.1866 154.335 40.6172 153.202 39.4797C152.071 38.3422 151.505 36.8147 151.505 34.8985C151.505 33.0174 152.031 31.4509 153.086 30.2016C154.19 28.8678 155.682 28.2009 157.559 28.2009C159.403 28.2009 160.799 28.8678 161.747 30.2016C162.498 31.2611 162.875 32.5715 162.875 34.1276ZM160.165 33.4087C160.183 32.5871 159.998 31.8773 159.613 31.278C159.121 30.5071 158.365 30.1223 157.347 30.1223C156.418 30.1223 155.662 30.498 155.085 31.252C154.611 31.8513 154.33 32.5702 154.243 33.4074H160.165V33.4087Z" fill="white"/>
</svg>