<svg xmlns="http://www.w3.org/2000/svg" width="180" height="52" viewBox="0 0 180 52" fill="none">
  <path d="M173.333 52H6.66667C3.00167 52 0 49.0734 0 45.5V6.50001C0 2.92663 3.00167 6.67572e-06 6.66667 6.67572e-06H173.333C176.998 6.67572e-06 180 2.92663 180 6.50001V45.5C180 49.0734 176.998 52 173.333 52Z" fill="black"/>
  <path d="M173.333 1.04163C176.42 1.04163 178.932 3.49051 178.932 6.50001V45.5C178.932 48.5095 176.42 50.9584 173.333 50.9584H6.66667C3.58 50.9584 1.06833 48.5095 1.06833 45.5V6.50001C1.06833 3.49051 3.58 1.04163 6.66667 1.04163H173.333ZM173.333 6.67572e-06H6.66667C3.00167 6.67572e-06 0 2.92663 0 6.50001V45.5C0 49.0734 3.00167 52 6.66667 52H173.333C176.998 52 180 49.0734 180 45.5V6.50001C180 2.92663 176.998 6.67572e-06 173.333 6.67572e-06Z" fill="#A6A6A6"/>
  <path d="M13.914 9.80045C13.5223 10.2002 13.2957 10.8226 13.2957 11.6286V40.3781C13.2957 41.1841 13.5223 41.8064 13.914 42.2062L14.0107 42.2939L30.534 26.1902V25.8099L14.0107 9.7062L13.914 9.80045Z" fill="url(#paint0_linear_2333_17756)"/>
  <path d="M36.0356 31.5608L30.5339 26.1902V25.8099L36.0423 20.4393L36.1656 20.5092L42.6889 24.128C44.5506 25.155 44.5506 26.845 42.6889 27.8785L36.1656 31.4909L36.0356 31.5608Z" fill="url(#paint1_linear_2333_17756)"/>
  <path d="M36.1657 31.491L30.5341 26.0001L13.9141 42.2062C14.5324 42.84 15.5407 42.9163 16.6874 42.2826L36.1657 31.491Z" fill="url(#paint2_linear_2333_17756)"/>
  <path d="M36.1657 20.5091L16.6874 9.71751C15.5407 9.09026 14.5324 9.16663 13.9141 9.80038L30.5341 26L36.1657 20.5091Z" fill="url(#paint3_linear_2333_17756)"/>
  <path d="M63.2239 13.3169C63.2239 14.4024 62.8905 15.2718 62.2339 15.9202C61.4789 16.6888 60.4955 17.0756 59.2905 17.0756C58.1389 17.0756 57.1555 16.6823 56.3489 15.9072C55.5405 15.1207 55.1372 14.1554 55.1372 13.0001C55.1372 11.8447 55.5405 10.8794 56.3489 10.0994C57.1555 9.31781 58.1389 8.92456 59.2905 8.92456C59.8639 8.92456 60.4105 9.03994 60.9322 9.25444C61.4522 9.47056 61.8755 9.76306 62.1822 10.1238L61.4855 10.8096C60.9505 10.1937 60.2222 9.88981 59.2905 9.88981C58.4505 9.88981 57.7222 10.1758 57.1039 10.7527C56.4922 11.3312 56.1855 12.0803 56.1855 13.0001C56.1855 13.9198 56.4922 14.6754 57.1039 15.2539C57.7222 15.8243 58.4505 16.1168 59.2905 16.1168C60.1822 16.1168 60.9322 15.8243 61.5239 15.2474C61.9139 14.8656 62.1355 14.3391 62.1939 13.6663H59.2905V12.7271H63.1639C63.2105 12.9302 63.2239 13.1268 63.2239 13.3169Z" fill="white" stroke="white" stroke-width="0.0533333" stroke-miterlimit="10"/>
  <path d="M69.3688 10.0604H65.7304V12.5304H69.0104V13.4696H65.7304V15.9396H69.3688V16.8968H64.7004V9.10327H69.3688V10.0604Z" fill="white" stroke="white" stroke-width="0.0533333" stroke-miterlimit="10"/>
  <path d="M73.7055 16.8968H72.6755V10.0604H70.4438V9.10327H75.9388V10.0604H73.7055V16.8968Z" fill="white" stroke="white" stroke-width="0.0533333" stroke-miterlimit="10"/>
  <path d="M79.9155 16.8968V9.10327H80.9439V16.8968H79.9155Z" fill="white" stroke="white" stroke-width="0.0533333" stroke-miterlimit="10"/>
  <path d="M85.5021 16.8968H84.4805V10.0604H82.2405V9.10327H87.7421V10.0604H85.5021V16.8968Z" fill="white" stroke="white" stroke-width="0.0533333" stroke-miterlimit="10"/>
  <path d="M98.1456 15.8942C97.3573 16.6823 96.3806 17.0756 95.2156 17.0756C94.0439 17.0756 93.0673 16.6823 92.2789 15.8942C91.4923 15.1077 91.1006 14.1424 91.1006 13.0001C91.1006 11.8577 91.4923 10.8924 92.2789 10.1059C93.0673 9.31781 94.0439 8.92456 95.2156 8.92456C96.3739 8.92456 97.3506 9.31781 98.1389 10.1124C98.9323 10.9054 99.3239 11.8642 99.3239 13.0001C99.3239 14.1424 98.9323 15.1077 98.1456 15.8942ZM93.0406 15.2409C93.6339 15.8243 94.3556 16.1168 95.2156 16.1168C96.0689 16.1168 96.7973 15.8243 97.3839 15.2409C97.9756 14.6576 98.2756 13.9084 98.2756 13.0001C98.2756 12.0917 97.9756 11.3426 97.3839 10.7592C96.7973 10.1758 96.0689 9.88331 95.2156 9.88331C94.3556 9.88331 93.6339 10.1758 93.0406 10.7592C92.4489 11.3426 92.1489 12.0917 92.1489 13.0001C92.1489 13.9084 92.4489 14.6576 93.0406 15.2409Z" fill="white" stroke="white" stroke-width="0.0533333" stroke-miterlimit="10"/>
  <path d="M100.769 16.8968V9.10327H102.019L105.905 15.1645H105.95L105.905 13.6663V9.10327H106.934V16.8968H105.86L101.79 10.5365H101.745L101.79 12.0413V16.8968H100.769Z" fill="white" stroke="white" stroke-width="0.0533333" stroke-miterlimit="10"/>
  <path d="M90.8474 28.2783C87.7157 28.2783 85.1574 30.602 85.1574 33.8082C85.1574 36.9883 87.7157 39.3364 90.8474 39.3364C93.9857 39.3364 96.544 36.9883 96.544 33.8082C96.544 30.602 93.9857 28.2783 90.8474 28.2783ZM90.8474 37.1589C89.129 37.1589 87.6507 35.776 87.6507 33.8082C87.6507 31.8143 89.129 30.4558 90.8474 30.4558C92.5657 30.4558 94.0507 31.8143 94.0507 33.8082C94.0507 35.776 92.5657 37.1589 90.8474 37.1589ZM78.4324 28.2783C75.294 28.2783 72.7424 30.602 72.7424 33.8082C72.7424 36.9883 75.294 39.3364 78.4324 39.3364C81.569 39.3364 84.1224 36.9883 84.1224 33.8082C84.1224 30.602 81.569 28.2783 78.4324 28.2783ZM78.4324 37.1589C76.7124 37.1589 75.229 35.776 75.229 33.8082C75.229 31.8143 76.7124 30.4558 78.4324 30.4558C80.1507 30.4558 81.629 31.8143 81.629 33.8082C81.629 35.776 80.1507 37.1589 78.4324 37.1589ZM63.659 29.9732V32.3229H69.414C69.2457 33.6359 68.7957 34.6012 68.1057 35.2739C67.2657 36.0864 65.9574 36.9883 63.659 36.9883C60.1174 36.9883 57.344 34.2014 57.344 30.7483C57.344 27.2952 60.1174 24.5083 63.659 24.5083C65.574 24.5083 66.9674 25.2379 67.9957 26.1837L69.694 24.5278C68.2557 23.1888 66.3424 22.1602 63.659 22.1602C58.8024 22.1602 54.7207 26.013 54.7207 30.7483C54.7207 35.4835 58.8024 39.3364 63.659 39.3364C66.284 39.3364 68.2557 38.4979 69.8057 36.9249C71.394 35.3763 71.889 33.1988 71.889 31.4405C71.889 30.8945 71.8424 30.3924 71.759 29.9732H63.659ZM124.069 31.7948C123.601 30.5582 122.156 28.2783 119.212 28.2783C116.296 28.2783 113.867 30.5192 113.867 33.8082C113.867 36.9054 116.271 39.3364 119.492 39.3364C122.097 39.3364 123.601 37.7878 124.219 36.8859L122.286 35.6298C121.641 36.5495 120.762 37.1589 119.492 37.1589C118.231 37.1589 117.326 36.595 116.746 35.4835L124.331 32.4237L124.069 31.7948ZM116.336 33.6359C116.271 31.5039 118.034 30.4119 119.297 30.4119C120.287 30.4119 121.127 30.8945 121.407 31.5852L116.336 33.6359ZM110.171 39H112.664V22.75H110.171V39ZM106.087 29.51H106.004C105.444 28.8633 104.376 28.2783 103.022 28.2783C100.182 28.2783 97.5857 30.7093 97.5857 33.826C97.5857 36.9249 100.182 39.3364 103.022 39.3364C104.376 39.3364 105.444 38.7465 106.004 38.0803H106.087V38.8733C106.087 40.9874 104.929 42.1233 103.061 42.1233C101.537 42.1233 100.592 41.0508 100.202 40.1489L98.034 41.0313C98.659 42.497 100.314 44.3008 103.061 44.3008C105.984 44.3008 108.451 42.6238 108.451 38.5434V28.6147H106.087V29.51ZM103.236 37.1589C101.517 37.1589 100.079 35.7565 100.079 33.826C100.079 31.8777 101.517 30.4558 103.236 30.4558C104.929 30.4558 106.264 31.8777 106.264 33.826C106.264 35.7565 104.929 37.1589 103.236 37.1589ZM135.742 22.75H129.779V39H132.266V32.8429H135.742C138.504 32.8429 141.212 30.8945 141.212 27.7957C141.212 24.6984 138.497 22.75 135.742 22.75ZM135.807 30.5825H132.266V25.0104H135.807C137.664 25.0104 138.724 26.5135 138.724 27.7957C138.724 29.0534 137.664 30.5825 135.807 30.5825ZM151.179 28.2474C149.382 28.2474 147.514 29.0209 146.746 30.7353L148.952 31.6372C149.427 30.7353 150.301 30.4428 151.224 30.4428C152.514 30.4428 153.822 31.1984 153.842 32.5325V32.7032C153.392 32.4497 152.429 32.0743 151.244 32.0743C148.867 32.0743 146.446 33.3499 146.446 35.7305C146.446 37.908 148.392 39.3104 150.581 39.3104C152.254 39.3104 153.177 38.5743 153.757 37.7179H153.842V38.974H156.244V32.7405C156.244 29.8594 154.037 28.2474 151.179 28.2474ZM150.879 37.1524C150.066 37.1524 148.932 36.7592 148.932 35.776C148.932 34.5183 150.346 34.0357 151.569 34.0357C152.664 34.0357 153.177 34.2713 153.842 34.5817C153.647 36.0864 152.319 37.1524 150.879 37.1524ZM164.994 28.6033L162.136 35.6477H162.051L159.096 28.6033H156.414L160.854 38.4475L158.321 43.9254H160.919L167.761 28.6033H164.994ZM142.579 39H145.072V22.75H142.579V39Z" fill="white"/>
  <defs>
    <linearGradient id="paint0_linear_2333_17756" x1="29.0669" y1="40.6775" x2="7.25678" y2="18.3081" gradientUnits="userSpaceOnUse">
      <stop stop-color="#00A0FF"/>
      <stop offset="0.0066" stop-color="#00A1FF"/>
      <stop offset="0.2601" stop-color="#00BEFF"/>
      <stop offset="0.5122" stop-color="#00D2FF"/>
      <stop offset="0.7604" stop-color="#00DFFF"/>
      <stop offset="1" stop-color="#00E3FF"/>
    </linearGradient>
    <linearGradient id="paint1_linear_2333_17756" x1="45.1131" y1="25.9982" x2="12.8506" y2="25.9982" gradientUnits="userSpaceOnUse">
      <stop stop-color="#FFE000"/>
      <stop offset="0.4087" stop-color="#FFBD00"/>
      <stop offset="0.7754" stop-color="#FFA500"/>
      <stop offset="1" stop-color="#FF9C00"/>
    </linearGradient>
    <linearGradient id="paint2_linear_2333_17756" x1="33.1034" y1="23.0152" x2="3.52709" y2="-7.3195" gradientUnits="userSpaceOnUse">
      <stop stop-color="#FF3A44"/>
      <stop offset="1" stop-color="#C31162"/>
    </linearGradient>
    <linearGradient id="paint3_linear_2333_17756" x1="9.73046" y1="51.7709" x2="22.9376" y2="38.2253" gradientUnits="userSpaceOnUse">
      <stop stop-color="#32A071"/>
      <stop offset="0.0685" stop-color="#2DA771"/>
      <stop offset="0.4762" stop-color="#15CF74"/>
      <stop offset="0.8009" stop-color="#06E775"/>
      <stop offset="1" stop-color="#00F076"/>
    </linearGradient>
  </defs>
</svg>