<svg width="64" height="64" viewBox="0 0 64 64" fill="none" xmlns="http://www.w3.org/2000/svg">
<rect width="64" height="64" rx="4.33898" fill="#00658B"/>
<path d="M23.535 35.196C23.535 34.9417 23.5933 34.8146 23.7098 34.8146C23.8263 34.8146 23.8846 34.9576 23.8846 35.2436C23.8846 35.4979 23.8263 35.625 23.7098 35.625C23.5933 35.625 23.535 35.482 23.535 35.196ZM18.2278 20.8633C18.0795 20.8633 18.0054 20.6833 18.0054 20.3231C18.0795 20.2066 18.1378 20.143 18.1801 20.1324C18.2437 20.1218 18.2914 20.1589 18.3231 20.2436C18.3655 20.3284 18.3867 20.4396 18.3867 20.5773C18.3867 20.768 18.3337 20.8633 18.2278 20.8633ZM19.2448 19.5127C19.2342 19.5127 19.1706 19.4544 19.0541 19.3379V19.1949C19.0647 19.1737 19.0806 19.1472 19.1017 19.1155C19.1335 19.0731 19.1547 19.0413 19.1653 19.0201C19.1865 18.9883 19.2077 18.9725 19.2289 18.9725C19.2395 18.9725 19.303 19.0572 19.4195 19.2267C19.3348 19.4068 19.2765 19.5021 19.2448 19.5127ZM18.1325 21.5625C18.1325 21.5731 18.1272 21.589 18.1166 21.6102C18.1166 21.6314 18.1113 21.6525 18.1007 21.6737C18.1007 21.6949 18.0901 21.7267 18.0689 21.7691C18.0583 21.8008 18.0477 21.8379 18.0371 21.8803C17.9524 21.679 17.91 21.5678 17.91 21.5466C17.91 21.5254 17.9365 21.4513 17.9895 21.3241C18.0001 21.3453 18.0159 21.3718 18.0371 21.4036C18.0689 21.4248 18.0901 21.4513 18.1007 21.483C18.1219 21.5042 18.1325 21.5307 18.1325 21.5625ZM19.6897 19.7828C19.6791 19.7828 19.6685 19.7775 19.6579 19.7669C19.6473 19.7564 19.6261 19.7352 19.5943 19.7034C19.5731 19.661 19.5573 19.6345 19.5467 19.6239C19.6208 19.518 19.6738 19.4597 19.7056 19.4491L19.785 19.5604V19.5763C19.7638 19.6822 19.732 19.7511 19.6897 19.7828ZM31.8613 25.8686C31.9248 25.9852 31.8931 26.0593 31.7659 26.0911C31.6706 26.1229 31.6017 26.0752 31.5594 25.9481C31.5382 25.8633 31.5223 25.7945 31.5117 25.7415C31.4905 25.625 31.4376 25.5932 31.3528 25.6462C31.2363 25.7309 31.1568 25.8104 31.1145 25.8845C31.0509 26.0011 31.0085 26.1494 30.9873 26.3294C31.0615 26.4036 31.1409 26.536 31.2257 26.7267C31.2681 26.6631 31.3157 26.6472 31.3687 26.679C31.4534 26.732 31.4534 26.8538 31.3687 27.0445C31.3581 27.0551 31.3528 27.071 31.3528 27.0922C31.3528 27.1027 31.3475 27.1133 31.3369 27.1239C31.3369 27.1345 31.3369 27.1557 31.3369 27.1875C31.3475 27.2193 31.3528 27.2458 31.3528 27.2669C31.3528 27.3305 31.3316 27.4258 31.2892 27.553C31.2151 27.8178 31.2098 28.0879 31.2734 28.3633C31.284 28.4057 31.2892 28.4693 31.2892 28.554C31.2892 28.6917 31.2257 28.7606 31.0986 28.7606C30.982 28.7606 30.9238 28.6917 30.9238 28.554C30.9238 28.5328 30.9238 28.4905 30.9238 28.4269C30.9344 28.3633 30.9397 28.3157 30.9397 28.2839V28.0297C30.8337 28.5487 30.606 29.0201 30.2564 29.4439C30.2564 29.4544 30.2564 29.4809 30.2564 29.5233C30.267 29.5657 30.2723 29.5922 30.2723 29.6027C30.2935 29.7299 30.3041 29.8252 30.3041 29.8888V29.9364C30.4842 30.3919 30.5001 30.7256 30.3517 30.9375C30.2246 31.107 30.1558 31.2924 30.1452 31.4936C30.0392 31.4725 29.9068 31.5572 29.7479 31.7479C29.5996 31.928 29.4778 32.1239 29.3825 32.3358C29.2977 32.9078 29.303 33.321 29.3984 33.5752C29.409 33.6176 29.3825 33.6705 29.3189 33.7341C29.3189 33.7553 29.3136 33.7871 29.303 33.8294C29.303 33.8612 29.303 33.8877 29.303 33.9089L29.3984 34.6716C29.4725 34.8305 29.499 35.0106 29.4778 35.2119C29.4778 35.233 29.4778 35.2701 29.4778 35.3231C29.4884 35.3761 29.4937 35.4131 29.4937 35.4343C29.5573 35.6144 29.5784 35.8898 29.5573 36.2606C29.5996 36.822 29.5731 37.2405 29.4778 37.5159C29.3825 37.4417 29.3454 37.2564 29.3666 36.9597C29.3984 36.6525 29.4037 36.4619 29.3825 36.3877C29.3401 36.2924 29.3136 36.2023 29.303 36.1176C29.2924 36.0222 29.2924 35.9004 29.303 35.7521C29.3136 35.6038 29.3189 35.5138 29.3189 35.482C29.3189 35.4502 29.3136 35.4078 29.303 35.3549C29.303 35.3019 29.303 35.2648 29.303 35.2436C29.303 35.233 29.2924 35.2172 29.2712 35.196C29.2606 35.1642 29.2501 35.143 29.2395 35.1324V34.608C29.2395 34.5657 29.2342 34.4968 29.2236 34.4015C29.213 34.3061 29.2077 34.2373 29.2077 34.1949L29.1918 34.1631V34.1314C29.1812 34.1102 29.1759 34.0731 29.1759 34.0201L29.1282 33.8294C29.1282 33.8083 29.1176 33.7818 29.0965 33.75C29.0753 33.7182 29.0647 33.697 29.0647 33.6864C29.1388 33.6441 29.1494 33.5646 29.0965 33.4481C29.0541 33.3316 29.0382 33.2521 29.0488 33.2097C29.07 33.1991 29.0806 33.178 29.0806 33.1462C29.1547 32.9873 29.1706 32.7648 29.1282 32.4788C29.0859 32.1928 28.9693 32.0604 28.7787 32.0816C28.7892 31.8379 28.7734 31.7214 28.731 31.732C28.6462 31.7532 28.5774 31.9809 28.5244 32.4152C28.4926 32.6165 28.4926 32.7648 28.5244 32.8602C28.4079 32.8814 28.3337 32.8602 28.302 32.7966C28.2702 32.733 28.2596 32.6536 28.2702 32.5583C28.2914 32.4523 28.2808 32.3517 28.2384 32.2564C28.1537 32.553 28.1113 32.7225 28.1113 32.7648C28.1007 32.8496 28.0954 33.2415 28.0954 33.9407C28.0954 33.9725 28.106 34.0254 28.1272 34.0996C28.1484 34.1631 28.159 34.2055 28.159 34.2267C28.1695 34.2691 28.1642 34.3273 28.1431 34.4015L28.0318 34.4174C27.9895 34.3538 27.9683 34.2955 27.9683 34.2426V33.9407V33.9566C27.9577 33.9672 27.9312 33.9725 27.8888 33.9725C27.8782 33.9619 27.8623 33.9513 27.8412 33.9407C27.82 33.9195 27.8041 33.9089 27.7935 33.9089C27.7935 33.8983 27.7882 33.8877 27.7776 33.8771C27.7776 33.8559 27.7776 33.84 27.7776 33.8294C27.7776 33.8189 27.7829 33.8136 27.7935 33.8136V33.75C27.8147 33.697 27.8253 33.5858 27.8253 33.4163C27.8253 33.4057 27.8253 33.4004 27.8253 33.4004L27.8412 33.3686C27.8412 33.358 27.8412 33.3475 27.8412 33.3369C27.8517 33.3157 27.857 33.2998 27.857 33.2892V33.2733C27.8465 33.2521 27.8412 33.2362 27.8412 33.2256V33.0032C27.8517 32.9502 27.8517 32.9025 27.8412 32.8602V32.733L27.7776 32.6695C27.767 32.6801 27.7405 32.7066 27.6981 32.7489C27.6664 32.7913 27.6452 32.8231 27.6346 32.8443C27.571 33.1197 27.534 33.3263 27.5234 33.464C27.5128 33.6441 27.5075 33.9195 27.5075 34.2902H27.4598C27.5234 34.8199 27.5657 35.2172 27.5869 35.482C27.5869 35.535 27.571 35.5773 27.5392 35.6091C27.4863 35.6409 27.4439 35.6462 27.4121 35.625C27.3804 35.5932 27.3645 35.5508 27.3645 35.4979C27.3856 34.7775 27.3962 34.232 27.3962 33.8612C27.3962 33.6811 27.3592 33.4799 27.285 33.2574C27.2744 33.2256 27.2479 33.1939 27.2056 33.1621C27.1738 33.1197 27.142 33.0985 27.1102 33.0985C27.0149 33.0985 26.946 33.1409 26.9037 33.2256C26.7659 33.4799 26.7448 33.8241 26.8401 34.2585C26.8613 34.3008 26.8719 34.3379 26.8719 34.3697C26.8719 34.4333 26.856 34.4809 26.8242 34.5127C26.7818 34.5551 26.7395 34.5551 26.6971 34.5127C26.6547 34.4703 26.6335 34.4227 26.6335 34.3697C26.6441 34.2955 26.6547 34.1843 26.6653 34.036C26.6759 33.8877 26.6865 33.7765 26.6971 33.7023C26.6971 33.5964 26.6865 33.5222 26.6653 33.4799C26.5806 33.3422 26.5117 33.2733 26.4587 33.2733C26.3422 33.2733 26.2469 33.321 26.1727 33.4163C26.1304 33.4905 26.1039 33.5381 26.0933 33.5593C26.0827 33.6758 26.0721 33.8612 26.0615 34.1155C26.0615 34.3591 26.0615 34.5392 26.0615 34.6557C26.0615 34.804 26.0403 34.8994 25.9979 34.9417C25.9767 34.9735 25.9556 34.9523 25.9344 34.8782C25.9344 34.8676 25.9291 34.857 25.9185 34.8464L25.9026 34.7669C25.839 34.5551 25.7861 34.4227 25.7437 34.3697C25.7119 34.3061 25.6748 34.3061 25.6325 34.3697C25.5901 34.4227 25.5424 34.5551 25.4895 34.7669C25.4153 35.0318 25.3253 35.0689 25.2193 34.8782C25.1876 34.8146 25.1399 34.7087 25.0763 34.5604V34.5763C25.0763 34.608 25.0922 34.6557 25.124 34.7193C25.1558 34.7722 25.1717 34.8146 25.1717 34.8464C25.1823 34.8994 25.1664 34.9629 25.124 35.0371C25.1028 35.0583 25.071 35.0689 25.0287 35.0689C24.9969 35.0689 24.9704 35.0636 24.9492 35.053C24.8856 34.9894 24.8645 34.9258 24.8856 34.8623C24.928 34.6292 24.9545 34.4491 24.9651 34.322C24.8274 34.1314 24.7003 34.1472 24.5837 34.3697C24.4248 34.6663 24.3719 35.1059 24.4248 35.6886C24.446 35.9746 24.4884 36.4036 24.552 36.9756C24.552 37.0074 24.552 37.0445 24.552 37.0869C24.5626 37.1292 24.5679 37.1663 24.5679 37.1981C24.5679 37.929 24.5626 38.3422 24.552 38.4375C24.5414 38.4587 24.5255 38.4958 24.5043 38.5487C24.4937 38.5911 24.4831 38.6229 24.4725 38.6441C24.4513 38.6758 24.4407 38.7447 24.4407 38.8506V38.8347C24.1865 38.6335 24.0859 38.125 24.1388 37.3093V37.0869C24.2024 36.483 24.2236 35.821 24.2024 35.1006C24.1918 34.4544 24.0859 34.1102 23.8846 34.0678C23.8104 34.0678 23.7416 34.1155 23.678 34.2108C23.6039 34.3379 23.5191 34.5498 23.4238 34.8464C23.3814 35.0053 23.3126 35.1112 23.2172 35.1642C23.2066 35.1536 23.1854 35.1483 23.1537 35.1483C23.1219 35.1377 23.0954 35.1165 23.0742 35.0847C23.0636 35.053 23.053 34.9947 23.0424 34.91V34.7987C22.9471 35.0424 22.8941 35.2119 22.8835 35.3072C22.8941 35.3496 22.8994 35.4184 22.8994 35.5138H23.0265C22.9948 35.6621 22.9577 35.858 22.9153 36.1017C22.9153 36.1335 22.8676 36.5678 22.7723 37.4047C22.7511 37.7648 22.7511 38.3316 22.7723 39.1049C22.7935 39.1684 22.8041 39.2161 22.8041 39.2479C22.8253 39.0784 22.8359 38.9513 22.8359 38.8665C22.8359 38.803 22.8359 38.7394 22.8359 38.6758C22.8359 38.6017 22.8359 38.5169 22.8359 38.4216C22.8359 38.3157 22.8359 38.2309 22.8359 38.1674C22.8465 38.3263 22.8623 38.607 22.8835 39.0095C22.9153 39.4121 22.9418 39.7193 22.963 39.9311V39.9947C22.963 40.3019 22.9206 40.4555 22.8359 40.4555V40.4396C22.8359 40.429 22.8306 40.4237 22.82 40.4237V41.2818C22.8094 41.8326 22.7511 42.0869 22.6452 42.0445C22.5392 41.9703 22.4863 41.6631 22.4863 41.1229C22.4863 40.7945 22.4969 40.3125 22.5181 39.6769C22.4863 39.6769 22.4598 39.6663 22.4386 39.6451C22.428 39.7193 22.4015 39.7405 22.3592 39.7087C22.285 39.6345 22.2373 39.4439 22.2162 39.1366C22.2162 39.1261 22.2109 39.1102 22.2003 39.089C22.2003 39.0678 22.195 39.036 22.1844 38.9936C22.1844 38.9513 22.1844 38.9089 22.1844 38.8665C22.1844 38.9195 22.1791 39.0095 22.1685 39.1366C22.1685 39.2532 22.1685 39.3432 22.1685 39.4068L22.2162 42.2193C22.2267 42.59 22.232 43.1462 22.232 43.8877C22.232 44.6716 22.1738 45.0636 22.0573 45.0636C21.9407 45.0636 21.8825 44.6451 21.8825 43.8083C21.8825 43.2468 21.8931 42.4047 21.9142 41.2818C21.9142 41.197 21.9142 41.0646 21.9142 40.8845C21.9248 40.7044 21.9301 40.572 21.9301 40.4873C21.909 40.339 21.8984 40.2278 21.8984 40.1536C21.8984 40.09 21.909 39.9947 21.9301 39.8676V39.089C21.9195 38.4428 21.8825 38.1197 21.8189 38.1197C21.7871 38.1197 21.7448 38.1886 21.6918 38.3263C21.5965 38.5699 21.517 38.4958 21.4534 38.1038C21.4429 38.0614 21.427 37.9873 21.4058 37.8814C21.3952 37.7648 21.3846 37.6907 21.374 37.6589C21.3104 37.5318 21.2628 37.4841 21.231 37.5159C21.2204 37.5477 21.2045 37.6695 21.1833 37.8814C21.1939 38.1144 21.2204 38.4057 21.2628 38.7553C21.3051 39.1049 21.3263 39.3591 21.3263 39.518C21.3263 39.6663 21.284 39.7458 21.1992 39.7564C21.1992 39.8835 21.1939 39.9735 21.1833 40.0265C21.1727 40.2066 21.1409 40.3708 21.088 40.5191C21.1304 40.5085 21.1621 40.5297 21.1833 40.5826C21.2045 40.6356 21.2045 40.7044 21.1833 40.7892C21.1409 40.9587 21.0721 40.964 20.9767 40.8051C20.9662 40.6674 20.982 40.5826 21.0244 40.5508C20.9609 40.4449 20.9291 40.2542 20.9291 39.9788V39.2479V38.9301C20.8443 38.7712 20.8284 38.5752 20.8814 38.3422C20.9238 38.1621 20.9503 38.0085 20.9609 37.8814C20.9609 37.4788 20.9556 37.1875 20.945 37.0074C20.945 36.9439 20.9397 36.8962 20.9291 36.8644C20.7914 36.4407 20.7119 36.0752 20.6907 35.768C20.6801 35.4608 20.7066 35.2489 20.7702 35.1324C20.8443 35.0053 20.9132 34.8782 20.9767 34.7511C21.0509 34.6239 21.1039 34.5233 21.1356 34.4491C21.1674 34.3644 21.1356 34.2161 21.0403 34.0042C21.0403 34.1102 21.035 34.2055 21.0244 34.2902C21.0138 34.3644 21.0032 34.428 20.9926 34.4809C20.9926 34.5339 20.982 34.571 20.9609 34.5922C20.9503 34.6133 20.9344 34.6186 20.9132 34.608C20.8814 34.5763 20.8602 34.5498 20.8496 34.5286C20.8284 34.6769 20.7914 34.7511 20.7384 34.7511C20.6325 34.7511 20.5795 34.5657 20.5795 34.1949C20.5901 34.1843 20.6007 34.1631 20.6113 34.1314C20.6325 34.0996 20.6484 34.0731 20.659 34.0519C20.6801 34.0201 20.696 33.9989 20.7066 33.9883C20.7278 33.9777 20.7543 33.9989 20.7861 34.0519V33.7182C20.8073 33.2945 20.8284 32.9873 20.8496 32.7966C20.9026 32.2246 20.9132 31.6684 20.8814 31.1282C20.8179 29.8888 20.839 28.7712 20.945 27.7754C20.945 27.3517 20.9344 26.7267 20.9132 25.9004C20.9132 25.7839 20.8867 25.6991 20.8337 25.6462C20.696 25.5085 20.6537 25.3072 20.7066 25.0424C20.6854 24.9364 20.6642 24.8411 20.6431 24.7564C20.5901 24.8623 20.5583 24.91 20.5477 24.8994L20.4206 24.6451C20.4524 24.5498 20.4736 24.4915 20.4842 24.4703C20.4312 24.4174 20.3676 24.3909 20.2935 24.3909C20.2299 24.4015 20.1611 24.518 20.0869 24.7405C20.0551 24.857 20.0392 24.9947 20.0392 25.1536C20.0498 25.2807 20.0604 25.4767 20.071 25.7415C20.0922 25.9958 20.1028 26.1864 20.1028 26.3136C20.1028 26.4407 20.0869 26.5254 20.0551 26.5678C20.0445 26.589 20.0234 26.5996 19.9916 26.5996C19.9598 26.5996 19.9333 26.589 19.9121 26.5678C19.8804 26.5042 19.8645 26.4195 19.8645 26.3136C19.8645 26.2606 19.8751 26.1917 19.8962 26.107C19.9916 25.3337 19.9704 24.7352 19.8327 24.3114C19.8115 24.2585 19.7797 24.2055 19.7373 24.1525C19.695 24.089 19.6579 24.0625 19.6261 24.0731C19.5202 24.1049 19.4566 24.2002 19.4354 24.3591C19.3507 24.804 19.3083 25.1536 19.3083 25.4078L19.356 28.3157C19.356 28.4004 19.3348 28.4746 19.2924 28.5381C19.2501 28.5805 19.2077 28.5752 19.1653 28.5222C19.1335 28.4693 19.1176 28.3951 19.1176 28.2998V28.2839C19.0435 28.2097 19.0064 28.0138 19.0064 27.696C19.0064 27.4735 19.017 27.1398 19.0382 26.6949C19.07 25.9852 19.0223 25.5932 18.8952 25.5191C18.8422 25.4873 18.7998 25.5455 18.7681 25.6939C18.7469 25.7786 18.731 25.8739 18.7204 25.9799V26.107C18.7204 26.1494 18.7098 26.2129 18.6886 26.2977V26.5678C18.6886 26.9915 18.6992 27.6165 18.7204 28.4428C18.7416 28.9301 18.7522 29.2955 18.7522 29.5392C18.7522 30.0689 18.6939 30.3337 18.5774 30.3337C18.5244 30.3337 18.4767 30.2489 18.4344 30.0794C18.4026 29.91 18.3867 29.714 18.3867 29.4915C18.3867 29.4809 18.4026 28.9195 18.4344 27.8072C18.445 27.4894 18.4503 27.0074 18.4503 26.3612C18.4397 25.9375 18.3973 25.7203 18.3231 25.7097C18.2914 25.6991 18.249 25.7415 18.196 25.8369C18.1113 25.9852 18.0371 25.9375 17.9736 25.6939C17.9736 25.6833 17.9577 25.6356 17.9259 25.5508C17.9047 25.4661 17.8888 25.4131 17.8782 25.3919C17.8147 25.3072 17.7723 25.2807 17.7511 25.3125C17.7087 25.3761 17.6876 25.5191 17.6876 25.7415C17.6876 25.8263 17.6876 25.9481 17.6876 26.107C17.6981 26.2659 17.7034 26.3824 17.7034 26.4566C17.7034 26.7214 17.6981 26.8962 17.6876 26.9809C17.6452 27.214 17.6028 27.3305 17.5604 27.3305C17.4863 27.3305 17.4492 27.2034 17.4492 26.9491C17.4386 26.6737 17.4439 26.2712 17.4651 25.7415C17.4757 25.4555 17.4386 25.1006 17.3539 24.6769C17.2797 24.2426 17.2426 24.0095 17.2426 23.9777C17.2003 23.554 17.2479 23.1621 17.3856 22.8019C17.534 22.4417 17.7299 22.2034 17.9736 22.0869C17.8994 22.0657 17.8729 22.0339 17.8941 21.9915C17.9259 21.928 18.0424 21.875 18.2437 21.8326C18.2649 21.8326 18.2861 21.8273 18.3073 21.8167V21.8008C18.2649 21.5678 18.2755 21.3718 18.339 21.2129C18.4132 21.0434 18.5244 20.9481 18.6727 20.9269H18.8475C18.9852 20.9375 19.107 20.8898 19.213 20.7839C19.3189 20.678 19.4037 20.5191 19.4672 20.3072C19.5202 20.1271 19.5679 20.0265 19.6102 20.0053C19.6632 19.9841 19.7373 20.0265 19.8327 20.1324C20.0022 20.3337 20.1664 20.3602 20.3253 20.2119C20.4312 20.1271 20.5159 20.1642 20.5795 20.3231C20.6748 20.5561 20.8126 20.6833 20.9926 20.7044H21.0244C21.0456 20.6939 21.0721 20.678 21.1039 20.6568C21.1462 20.6356 21.1727 20.6197 21.1833 20.6091C21.2045 20.5985 21.2363 20.5879 21.2787 20.5773C21.3316 20.5667 21.3687 20.5614 21.3899 20.5614C21.4111 20.5614 21.4429 20.5614 21.4852 20.5614C21.5276 20.5508 21.5594 20.5455 21.5806 20.5455C21.6017 20.5244 21.6176 20.5032 21.6282 20.482C21.607 20.482 21.5753 20.482 21.5329 20.482C21.4905 20.4714 21.4587 20.4661 21.4376 20.4661C21.321 20.4767 21.2257 20.4767 21.1515 20.4661C21.0774 20.4555 21.0244 20.4449 20.9926 20.4343C20.9609 20.4131 20.945 20.3866 20.945 20.3549C20.9662 20.2489 21.1462 20.196 21.4852 20.196C21.6229 20.196 21.8083 20.2066 22.0414 20.2277C22.4121 20.2595 22.7564 20.2489 23.0742 20.196C23.9429 20.0583 24.7585 20.0583 25.5212 20.196C26.2945 20.3231 26.7659 20.5455 26.9354 20.8633C26.9884 20.9481 27.0043 21.0381 26.9831 21.1335C28.2013 21.4089 29.0541 21.8167 29.5414 22.357C29.4884 22.2405 29.4884 22.1716 29.5414 22.1504C29.6367 22.108 29.7426 22.1716 29.8592 22.3411C29.9227 22.4258 29.981 22.5371 30.034 22.6748C30.1399 22.8972 30.267 23.0773 30.4153 23.215C30.6272 23.4163 30.8284 23.6864 31.0191 24.0254C31.4429 24.2797 31.6706 24.6345 31.7024 25.09C31.7236 25.4396 31.7765 25.6991 31.8613 25.8686ZM20.8814 23.8665C20.9344 24.1102 20.9873 24.3061 21.0403 24.4544C21.1568 24.2955 21.2204 24.0678 21.231 23.7712C21.231 23.75 21.2469 23.5964 21.2787 23.3104C21.2257 23.2786 21.2045 23.2256 21.2151 23.1515C21.1409 23.1303 21.0827 23.1409 21.0403 23.1833C20.8602 23.321 20.8073 23.5487 20.8814 23.8665ZM21.0562 26.9809C21.1727 26.2288 21.3263 25.6674 21.517 25.2966C21.3899 25.233 21.2998 25.3072 21.2469 25.5191C21.1304 26.0911 21.0668 26.483 21.0562 26.6949V26.9809ZM21.9937 20.6409L22.1208 20.5455C22.0043 20.5032 21.856 20.482 21.6759 20.482C21.6971 20.5244 21.713 20.5508 21.7236 20.5614H21.7871C21.8083 20.572 21.8401 20.5879 21.8825 20.6091C21.9354 20.6197 21.9725 20.6303 21.9937 20.6409ZM22.7723 26.4566C22.7935 26.5625 22.8094 26.6472 22.82 26.7108C22.82 26.7002 22.8147 26.6737 22.8041 26.6314C22.8041 26.589 22.8041 26.5625 22.8041 26.5519C22.8041 26.5307 22.7935 26.4989 22.7723 26.4566ZM24.5361 23.1515V23.1833V23.1515C24.5784 23.1515 24.6049 23.1356 24.6155 23.1038V23.072V23.1038C24.5731 23.1038 24.5467 23.1197 24.5361 23.1515ZM24.409 23.3739L24.3931 23.358V23.3739H24.409ZM27.9842 33.5752C27.9842 33.5222 27.9842 33.4481 27.9842 33.3527C27.9948 33.2574 28.0001 33.1833 28.0001 33.1303C28.0001 33.1091 27.9895 33.0561 27.9683 32.9714V33.035V33.2256V33.3051V33.3686V33.4163V33.5116V33.5434C27.9683 33.554 27.9736 33.5646 27.9842 33.5752ZM28.9693 25.9958C29.0329 25.8475 29.0435 25.6939 29.0011 25.535C28.9587 25.3549 28.9534 25.1642 28.9852 24.9629C28.9429 24.91 28.7998 24.7616 28.5562 24.518C28.4715 24.6875 28.4291 24.9311 28.4291 25.2489C28.4397 25.3337 28.4503 25.4608 28.4609 25.6303C28.482 25.7892 28.4926 25.9057 28.4926 25.9799C28.4926 26.1388 28.4873 26.2341 28.4767 26.2659C28.4556 26.3506 28.3973 26.393 28.302 26.393C28.2384 26.393 28.1854 26.3453 28.1431 26.25C28.1325 26.2288 28.1272 26.16 28.1272 26.0434C28.1272 25.9481 28.1325 25.7521 28.1431 25.4555C28.1537 25.1483 28.1537 24.9152 28.1431 24.7564C28.1431 24.714 28.0954 24.608 28.0001 24.4386C27.9153 24.2797 27.8517 24.179 27.8094 24.1366C27.7352 24.0307 27.6717 23.9777 27.6187 23.9777C27.5869 23.9777 27.5498 23.9989 27.5075 24.0413C27.4651 24.0837 27.4386 24.1208 27.428 24.1525C27.4068 24.2479 27.4068 24.4015 27.428 24.6133C27.4386 24.6557 27.4492 24.714 27.4598 24.7881C27.481 24.8623 27.4916 24.9205 27.4916 24.9629C27.4916 25.0583 27.481 25.1218 27.4598 25.1536C27.4068 25.2383 27.3592 25.2807 27.3168 25.2807C27.285 25.2807 27.2267 25.2383 27.142 25.1536C27.1102 25.1218 27.1049 25.0847 27.1261 25.0424C27.1685 24.9258 27.1632 24.6398 27.1102 24.1843C27.0784 23.8983 27.0996 23.6494 27.1738 23.4375C27.1526 23.4269 27.1155 23.4216 27.0626 23.4216C27.0096 23.4216 26.9725 23.4163 26.9513 23.4057C26.9301 23.66 26.9195 23.8506 26.9195 23.9777C26.9195 24.2426 26.9037 24.4386 26.8719 24.5657C26.8083 24.7881 26.7395 24.7987 26.6653 24.5975C26.6653 24.5869 26.66 24.571 26.6494 24.5498C26.607 24.4862 26.5753 24.4544 26.5541 24.4544C26.5117 24.4756 26.4905 24.5498 26.4905 24.6769C26.4905 24.7934 26.4852 24.9682 26.4746 25.2013C26.464 25.4237 26.4534 25.5932 26.4429 25.7097C26.4429 25.8475 26.4164 25.9216 26.3634 25.9322C26.321 25.9428 26.284 25.8792 26.2522 25.7415C26.2416 25.7097 26.231 25.6674 26.2204 25.6144C26.2098 25.5614 26.2045 25.5191 26.2045 25.4873C26.1939 25.4025 26.178 25.3443 26.1568 25.3125C26.1462 25.2807 26.1145 25.2913 26.0615 25.3443C25.9556 25.482 25.892 25.4396 25.8708 25.2172C25.8602 25.1324 25.8496 25 25.839 24.8199C25.8284 24.6398 25.8231 24.5445 25.8231 24.5339C25.8231 24.3114 25.7861 24.179 25.7119 24.1366C25.6166 24.0837 25.5477 24.1631 25.5054 24.375C25.4736 24.4386 25.4471 24.4703 25.4259 24.4703C25.3835 24.4597 25.3623 24.3962 25.3623 24.2797C25.3623 24.1314 25.3412 24.0519 25.2988 24.0413C25.267 24.0307 25.2458 24.0413 25.2352 24.0731C25.2246 24.0943 25.2034 24.1419 25.1717 24.2161C25.0234 24.5763 24.9969 25.0212 25.0922 25.5508C25.1452 25.9428 25.1717 26.1652 25.1717 26.2182C25.1717 26.4195 25.1293 26.5466 25.0445 26.5996H24.9651C24.8486 26.483 24.8115 26.2129 24.8539 25.7892C24.9174 25.3125 24.9068 24.8729 24.8221 24.4703C24.8115 24.4386 24.7479 24.1949 24.6314 23.7394C24.5784 23.5699 24.4778 23.4958 24.3295 23.5169L24.2977 23.5487C24.2448 23.6017 24.213 23.6441 24.2024 23.6758V23.7394V23.7553L24.1865 23.7712V23.8665V24.0572V24.2479V24.3273V24.3909V24.4386V24.5339V24.5657C24.1865 24.5763 24.1918 24.5869 24.2024 24.5975V24.6133C24.2024 24.6981 24.213 24.7616 24.2342 24.804C24.2342 24.8994 24.213 24.9576 24.1706 24.9788C24.16 24.9894 24.1335 24.9947 24.0912 24.9947C24.0806 24.9841 24.0647 24.9735 24.0435 24.9629C24.0329 24.9523 24.0223 24.947 24.0117 24.947C24.0117 24.9364 24.0064 24.9258 23.9958 24.9152C23.9958 24.8941 23.9958 24.8782 23.9958 24.8676V24.8358C23.9958 24.8252 23.9958 24.8146 23.9958 24.804C24.0064 24.7934 24.0117 24.7828 24.0117 24.7722C24.0329 24.7193 24.0435 24.6133 24.0435 24.4544C24.0435 24.4439 24.0435 24.4333 24.0435 24.4227C24.0541 24.4121 24.0594 24.4015 24.0594 24.3909V24.3273V24.3114C24.0488 24.3114 24.0329 24.3061 24.0117 24.2955C23.9799 24.285 23.9534 24.3008 23.9323 24.3432C23.9217 24.3856 23.9111 24.4386 23.9005 24.5021C23.8793 24.5869 23.8687 24.7034 23.8687 24.8517C23.9852 25 24.0753 25.1695 24.1388 25.3602C24.1388 25.3708 24.1388 25.3866 24.1388 25.4078C24.1494 25.4184 24.1547 25.429 24.1547 25.4396C24.1547 25.4502 24.1547 25.4608 24.1547 25.4714C24.1653 25.482 24.1706 25.4926 24.1706 25.5032V25.6144V25.8051C24.16 25.8157 24.1547 25.8263 24.1547 25.8369C24.1547 25.8475 24.16 25.8527 24.1706 25.8527C24.0859 26.0646 24.0117 26.2182 23.9481 26.3136C23.8952 26.3877 23.8157 26.4195 23.7098 26.4089C23.5721 26.3877 23.482 26.4301 23.4397 26.536V27.8072C23.4397 27.8708 23.4503 27.9608 23.4715 28.0773C23.4926 28.1939 23.5032 28.2733 23.5032 28.3157C23.5032 28.4004 23.4926 28.5169 23.4715 28.6652C23.4503 28.6758 23.4238 28.6864 23.392 28.697C23.3602 28.6017 23.3443 28.4905 23.3443 28.3633C23.3443 28.1621 23.3443 27.8655 23.3443 27.4735C23.3549 27.0816 23.3602 26.7902 23.3602 26.5996C23.3073 26.6208 23.2596 26.6155 23.2172 26.5837C23.1642 26.4883 23.1272 26.4301 23.106 26.4089C23.0954 26.3877 23.0636 26.3877 23.0106 26.4089C22.9895 26.6419 22.9789 26.8114 22.9789 26.9174V27.8708C23.0318 28.3686 23.0636 28.8983 23.0742 29.4597C23.0954 30.7733 23.1378 31.732 23.2013 32.3358C23.2119 32.3888 23.1801 32.5477 23.106 32.8125C23.6462 32.7595 24.1706 32.643 24.6791 32.4629C24.7003 32.41 24.7267 32.3729 24.7585 32.3517C24.7797 32.3305 24.8856 32.2669 25.0763 32.161C25.2246 32.0869 25.3094 31.9544 25.3306 31.7638C25.3517 31.6578 25.3729 31.5678 25.3941 31.4936C25.4471 31.3241 25.5848 31.2288 25.8073 31.2076C25.9662 31.1864 26.0933 31.1176 26.1886 31.0011C26.2522 30.9057 26.3316 30.8845 26.427 30.9375C26.4693 30.9693 26.517 30.9852 26.57 30.9852C26.6229 30.8898 26.6918 30.8104 26.7765 30.7468L26.7924 30.7309H26.8083C26.8295 30.7203 26.856 30.7044 26.8878 30.6833C26.9301 30.6621 26.9619 30.6462 26.9831 30.6356C26.9619 30.6144 26.9513 30.5932 26.9513 30.572C26.9513 30.5614 26.9619 30.5455 26.9831 30.5244C27.0043 30.5032 27.0202 30.4926 27.0308 30.4926C27.0414 30.4926 27.052 30.4979 27.0626 30.5085C27.0731 30.5191 27.0837 30.5297 27.0943 30.5402C27.1155 30.5508 27.1314 30.5614 27.142 30.572C27.1526 30.572 27.1579 30.572 27.1579 30.572L27.1897 30.5561L27.2056 30.5402C27.2162 30.5402 27.2267 30.5402 27.2373 30.5402C27.2479 30.5614 27.2638 30.5614 27.285 30.5402C27.2956 30.5402 27.3115 30.5402 27.3327 30.5402C27.3539 30.5297 27.3698 30.5244 27.3804 30.5244C27.3909 30.5244 27.4015 30.5297 27.4121 30.5402C27.4333 30.5402 27.4492 30.5402 27.4598 30.5402C27.4704 30.5402 27.4863 30.5455 27.5075 30.5561C27.5287 30.5561 27.5445 30.5561 27.5551 30.5561C27.5551 30.5455 27.5498 30.5297 27.5392 30.5085C27.4969 30.5297 27.4704 30.5402 27.4598 30.5402C27.428 30.5297 27.3751 30.4767 27.3009 30.3814C27.3115 30.3708 27.3327 30.3496 27.3645 30.3178C27.3962 30.286 27.4174 30.2648 27.428 30.2542C27.2267 29.7352 27.338 29.3644 27.7617 29.1419C28.1325 28.9407 28.3867 28.84 28.5244 28.84C28.5138 28.554 28.5562 28.2362 28.6515 27.8866C28.6515 27.8655 28.6621 27.839 28.6833 27.8072C28.7045 27.7648 28.7151 27.733 28.7151 27.7119C28.6727 27.6271 28.6462 27.5636 28.6356 27.5212C28.5191 27.1398 28.6145 26.7691 28.9217 26.4089C28.8899 26.3559 28.8793 26.2977 28.8899 26.2341C28.9005 26.1811 28.927 26.1017 28.9693 25.9958ZM29.9227 25.9004C29.9227 25.8898 29.9333 25.8739 29.9545 25.8527C29.9757 25.8316 29.9863 25.8157 29.9863 25.8051C29.9651 25.7839 29.9227 25.7574 29.8592 25.7256C29.7956 25.6939 29.7532 25.6727 29.732 25.6621C29.7215 25.6727 29.7003 25.6886 29.6685 25.7097C29.5731 25.7945 29.4725 25.8792 29.3666 25.964C29.3242 25.9958 29.2924 26.0381 29.2712 26.0911L29.4619 25.9958C29.5996 25.9322 29.7532 25.9004 29.9227 25.9004ZM24.3931 31.2235C24.4778 31.2235 24.552 31.2553 24.6155 31.3189C24.6897 31.3718 24.7267 31.4354 24.7267 31.5095C24.7267 31.6578 24.6526 31.732 24.5043 31.732C24.4195 31.732 24.3401 31.7002 24.2659 31.6366C24.1918 31.5625 24.16 31.4883 24.1706 31.4142C24.1706 31.2871 24.2448 31.2235 24.3931 31.2235ZM24.2977 32.2405C24.3083 32.2299 24.3189 32.2193 24.3295 32.2087C24.3401 32.1875 24.356 32.1663 24.3772 32.1451C24.409 32.1239 24.4301 32.108 24.4407 32.0975C24.4619 32.1186 24.4884 32.1504 24.5202 32.1928C24.552 32.2352 24.5784 32.2669 24.5996 32.2881C24.589 32.2987 24.5731 32.3146 24.552 32.3358C24.5308 32.357 24.5149 32.3729 24.5043 32.3835C24.4937 32.3835 24.4831 32.3835 24.4725 32.3835C24.4301 32.3623 24.3719 32.3146 24.2977 32.2405ZM25.0763 31.16C25.1081 31.1282 25.1399 31.0911 25.1717 31.0487C25.1823 31.0593 25.1929 31.0752 25.2034 31.0964C25.2246 31.1176 25.2405 31.1388 25.2511 31.16C25.2723 31.1705 25.2829 31.1811 25.2829 31.1917L25.2193 31.2712C25.1346 31.2182 25.0869 31.1811 25.0763 31.16ZM33.1642 32.3517C33.1642 32.3411 33.1748 32.3093 33.196 32.2564C33.2278 32.1928 33.2543 32.1345 33.2755 32.0816C33.2861 32.1239 33.302 32.1875 33.3231 32.2722C33.3549 32.3464 33.3761 32.4047 33.3867 32.447C33.3761 32.4576 33.3655 32.4788 33.3549 32.5106C33.3231 32.5953 33.302 32.6324 33.2914 32.6218C33.2808 32.6112 33.2649 32.59 33.2437 32.5583C33.2331 32.5265 33.2172 32.4894 33.196 32.447C33.1854 32.4047 33.1748 32.3729 33.1642 32.3517ZM36.5488 31.4301C36.5488 31.3983 36.5488 31.3718 36.5488 31.3506C36.5488 31.3294 36.5806 31.2447 36.6441 31.0964C36.6441 31.1176 36.6547 31.1547 36.6759 31.2076C36.6971 31.2606 36.7077 31.2977 36.7077 31.3189C36.7077 31.3294 36.6759 31.4513 36.6123 31.6843C36.6017 31.6419 36.5912 31.5943 36.5806 31.5413C36.57 31.4883 36.5594 31.4513 36.5488 31.4301ZM39.1865 42.1557V42.1716C39.1865 42.3093 39.1494 42.3782 39.0753 42.3782C38.9799 42.3782 38.9428 42.3093 38.964 42.1716C38.9746 42.1398 38.9852 42.0869 38.9958 42.0127C39.017 41.9491 39.0329 41.8909 39.0435 41.8379C39.0541 41.785 39.0594 41.7373 39.0594 41.6949C39.07 41.6949 39.07 41.6472 39.0594 41.5519C39.0594 41.4672 39.0594 41.4195 39.0594 41.4089C39.07 41.4725 39.0859 41.589 39.107 41.7585C39.1388 41.928 39.1653 42.0604 39.1865 42.1557ZM38.2331 41.822C38.2331 41.8326 38.2331 41.8485 38.2331 41.8697C38.2437 41.9015 38.249 41.9227 38.249 41.9333C38.249 41.965 38.2596 42.0127 38.2808 42.0763C38.302 42.1398 38.3126 42.1928 38.3126 42.2352C38.3126 42.2987 38.2967 42.357 38.2649 42.41C38.2649 42.4311 38.2331 42.4364 38.1695 42.4258C38.1272 42.3517 38.1113 42.2934 38.1219 42.2511C38.1325 42.2087 38.1484 42.1398 38.1695 42.0445C38.2013 41.9491 38.2225 41.875 38.2331 41.822ZM37.5975 31.5413C37.7988 31.8591 37.8623 32.4735 37.7882 33.3845C37.7564 33.8612 37.6981 34.0943 37.6134 34.0837C37.5498 34.0837 37.4969 33.8877 37.4545 33.4958C37.4651 33.3686 37.4598 33.1833 37.4386 32.9396C37.4174 32.696 37.4121 32.4576 37.4227 32.2246C37.4333 31.9915 37.4916 31.7638 37.5975 31.5413ZM37.4545 34.4174C37.5392 34.3114 37.624 34.3644 37.7087 34.5763C37.8147 34.8517 37.7935 35.0371 37.6452 35.1324C37.5816 35.1642 37.5075 35.1748 37.4227 35.1642C37.3592 35.1006 37.3274 35.0371 37.3274 34.9735C37.2638 35.0371 37.1897 35.0689 37.1049 35.0689C36.9142 35.0477 36.8189 34.947 36.8189 34.7669C36.8189 34.5975 36.9142 34.5127 37.1049 34.5127C37.2532 34.5127 37.3486 34.5869 37.3909 34.7352C37.4545 34.608 37.4757 34.5021 37.4545 34.4174ZM48.1166 26.5201C48.0636 26.5731 48.0477 26.6208 48.0689 26.6631C48.0265 26.7902 48.0001 26.928 47.9895 27.0763C47.9895 27.214 47.9895 27.3782 47.9895 27.5689C48.0001 27.7489 48.0053 27.8866 48.0053 27.982V29.3326C48.0053 29.5763 47.9948 29.7352 47.9736 29.8093C47.8676 29.8411 47.82 29.7987 47.8306 29.6822C47.8306 29.6716 47.8306 29.661 47.8306 29.6504C47.8306 28.9725 47.8253 28.464 47.8147 28.125C47.8147 27.733 47.7882 27.447 47.7352 27.2669V27.1239C47.7882 26.8909 47.82 26.7691 47.8306 26.7585C47.8623 26.7055 47.8676 26.6631 47.8465 26.6314C47.8253 26.5996 47.8041 26.5784 47.7829 26.5678C47.7723 26.5572 47.7458 26.5519 47.7034 26.5519C47.6611 26.5413 47.6346 26.536 47.624 26.536H47.5445C47.5445 26.6208 47.5445 26.7373 47.5445 26.8856C47.5551 27.0339 47.5604 27.1504 47.5604 27.2352C47.5604 27.4682 47.5498 27.6218 47.5287 27.696C47.5075 27.7066 47.481 27.7119 47.4492 27.7119C47.428 27.7119 47.4174 27.7013 47.4174 27.6801C47.3645 27.6377 47.3486 27.5583 47.3698 27.4417C47.3698 27.4311 47.3698 27.4205 47.3698 27.41C47.3803 27.3888 47.3856 27.3729 47.3856 27.3623V27.2511C47.3856 27.1981 47.3592 27.1451 47.3062 27.0922C47.3062 26.965 47.2903 26.8697 47.2585 26.8061V26.6155C47.2691 26.5095 47.2056 26.4354 47.0678 26.393C47.0467 26.393 47.0255 26.3983 47.0043 26.4089C46.9937 26.4195 46.9778 26.4407 46.9566 26.4725C46.946 26.4936 46.9354 26.5095 46.9248 26.5201C46.9142 26.5413 46.8984 26.5572 46.8772 26.5678C46.856 26.5784 46.8295 26.5837 46.7977 26.5837C46.7659 26.5837 46.7448 26.5837 46.7342 26.5837C46.7024 26.5731 46.6865 26.5837 46.6865 26.6155H46.5912C46.5382 26.5201 46.4905 26.4725 46.4481 26.4725C46.4481 26.4301 46.4323 26.4036 46.4005 26.393C46.3793 26.2553 46.2575 26.1811 46.035 26.1705C45.8231 26.1494 45.6748 26.0434 45.5901 25.8527C45.5689 25.7998 45.463 25.6303 45.2723 25.3443C45.0922 25.0477 44.9969 24.7881 44.9863 24.5657C44.9757 24.4915 44.9863 24.4439 45.0181 24.4227C45.0287 24.4227 45.0392 24.4174 45.0498 24.4068C45.0604 24.3962 45.071 24.3803 45.0816 24.3591C45.1028 24.3273 45.124 24.2955 45.1452 24.2638C45.177 24.1896 45.1981 24.1155 45.2087 24.0413C45.2193 23.9672 45.2299 23.9142 45.2405 23.8824C45.1981 23.84 45.1664 23.7977 45.1452 23.7553C45.1346 23.7341 45.1187 23.7023 45.0975 23.66C45.0869 23.6176 45.0763 23.5858 45.0657 23.5646C44.9704 23.7447 44.9174 23.9195 44.9068 24.089C44.9068 24.1737 44.9068 24.2691 44.9068 24.375C44.9174 24.4703 44.928 24.5816 44.9386 24.7087C44.9492 24.8252 44.9545 24.9152 44.9545 24.9788C44.9545 24.9894 44.9598 25.0106 44.9704 25.0424C44.981 25.0636 44.981 25.0794 44.9704 25.09C44.9598 25.1112 44.9439 25.143 44.9227 25.1854C44.9015 25.2277 44.8856 25.2542 44.8751 25.2648C44.8751 25.2542 44.8592 25.2277 44.8274 25.1854C44.7956 25.143 44.7797 25.1112 44.7797 25.09C44.7797 25.0159 44.785 24.91 44.7956 24.7722C44.8168 24.6239 44.8274 24.5127 44.8274 24.4386C44.8274 24.3008 44.8009 24.1525 44.7479 23.9936C44.7267 23.9513 44.695 23.9089 44.6526 23.8665C44.6102 23.8241 44.5784 23.8083 44.5573 23.8189C44.4619 23.84 44.3931 23.9036 44.3507 24.0095C44.3083 24.1049 44.2871 24.232 44.2871 24.3909V25.09C44.2977 25.1642 44.303 25.5561 44.303 26.2659C44.3136 26.965 44.3295 27.6483 44.3507 28.3157C44.3825 28.983 44.4248 29.3803 44.4778 29.5074C44.5202 29.6239 44.4937 29.7193 44.3984 29.7934C44.3136 29.857 44.2183 29.8517 44.1123 29.7775C44.0382 29.7246 44.0117 29.6398 44.0329 29.5233C44.1388 29.1631 44.1918 27.4576 44.1918 24.4068C44.1918 24.3856 44.1865 24.3432 44.1759 24.2797C44.1759 24.2161 44.1759 24.1684 44.1759 24.1366C44.1759 24.0837 44.1653 23.9936 44.1441 23.8665C44.1441 23.8877 44.1388 23.9248 44.1282 23.9777C44.1282 24.0307 44.1282 24.0731 44.1282 24.1049C44.1282 24.285 44.07 24.375 43.9534 24.375C43.8581 24.375 43.7998 24.2902 43.7787 24.1208C43.7787 24.0678 43.7681 23.983 43.7469 23.8665C43.7363 23.7394 43.7257 23.6441 43.7151 23.5805C43.6303 23.6441 43.588 23.7447 43.588 23.8824C43.588 23.9883 43.6145 24.2797 43.6674 24.7564C43.6674 24.7775 43.6727 24.804 43.6833 24.8358C43.7045 24.8676 43.7151 24.8941 43.7151 24.9152C43.7151 24.9788 43.6992 25.0318 43.6674 25.0741C43.6568 25.0847 43.6356 25.0953 43.6039 25.1059C43.5721 25.1059 43.5509 25.1006 43.5403 25.09C43.4873 25.0159 43.4609 24.9629 43.4609 24.9311C43.4609 24.8994 43.4662 24.857 43.4767 24.804C43.4979 24.7511 43.5085 24.714 43.5085 24.6928C43.5085 24.5127 43.4979 24.3803 43.4767 24.2955C43.4662 24.2426 43.4185 24.2055 43.3337 24.1843C43.2808 24.1843 43.2331 24.2161 43.1907 24.2797C43.1378 24.3644 43.1113 24.4439 43.1113 24.518C43.0901 24.7405 43.0848 25.1907 43.0954 25.8686C43.1166 26.5466 43.1642 26.9968 43.2384 27.2193C43.2702 27.304 43.2596 27.3888 43.2066 27.4735C43.196 27.4841 43.159 27.4894 43.0954 27.4894C43.0424 27.4894 43.0106 27.4841 43.0001 27.4735C42.9471 27.4205 42.9206 27.3358 42.9206 27.2193C42.9948 26.1811 43.0318 25.3496 43.0318 24.7246C43.0318 24.6292 42.9895 24.2002 42.9047 23.4375C42.8729 23.3316 42.8517 23.2627 42.8412 23.2309C42.7882 23.2309 42.7405 23.1991 42.6981 23.1356H42.6823C42.6081 23.125 42.5498 23.1462 42.5075 23.1991C42.4757 23.2521 42.4492 23.3263 42.428 23.4216C42.3539 23.7818 42.3751 24.1631 42.4916 24.5657C42.5128 24.6716 42.5075 24.7616 42.4757 24.8358C42.4757 24.8464 42.4598 24.8517 42.428 24.8517C42.4068 24.8517 42.3803 24.8517 42.3486 24.8517C42.3168 24.8517 42.2956 24.8464 42.285 24.8358C42.2003 24.7828 42.1738 24.6928 42.2056 24.5657C42.3433 23.983 42.3803 23.5011 42.3168 23.1197C42.2744 22.8972 42.1738 22.7648 42.0149 22.7225C41.9513 22.8072 41.909 22.8761 41.8878 22.929C41.7606 23.215 41.7077 23.464 41.7289 23.6758C41.7606 23.8771 41.7183 23.9777 41.6017 23.9777C41.517 23.9777 41.4746 23.8877 41.4746 23.7076C41.4746 23.6864 41.4693 23.66 41.4587 23.6282C41.4587 23.5964 41.4587 23.5752 41.4587 23.5646C41.4587 23.4375 41.4164 23.3633 41.3316 23.3422C41.2469 23.321 41.1727 23.3633 41.1092 23.4693C40.9503 23.7235 40.839 23.7182 40.7755 23.4534C40.7437 23.3263 40.6748 23.268 40.5689 23.2786C40.463 23.2892 40.3835 23.3527 40.3306 23.4693C40.2882 23.5964 40.2882 23.7818 40.3306 24.0254C40.3517 24.1631 40.32 24.232 40.2352 24.232C40.1081 24.232 40.0445 24.1737 40.0445 24.0572C40.0445 24.0254 40.0498 23.9725 40.0604 23.8983C40.0816 23.8136 40.0869 23.75 40.0763 23.7076C40.0763 23.6864 40.071 23.6282 40.0604 23.5328C40.0604 23.4375 40.0551 23.3686 40.0445 23.3263C40.034 23.2839 39.9969 23.2415 39.9333 23.1991C39.8803 23.1568 39.8062 23.1356 39.7109 23.1356C39.7003 23.1356 39.6897 23.1356 39.6791 23.1356L39.6473 23.1197C39.5414 23.3316 39.4248 23.5222 39.2977 23.6917L39.2024 23.8347C39.2553 23.8771 39.2606 23.9354 39.2183 24.0095C39.1123 24.232 39.16 24.4333 39.3613 24.6133C39.5096 24.7616 39.499 24.8888 39.3295 24.9947C39.1494 25.1112 39.0647 25.286 39.0753 25.5191C39.0859 25.6674 39.0647 25.8686 39.0117 26.1229L38.964 25.9799C38.9534 25.9481 38.9323 25.9057 38.9005 25.8527C38.8687 25.7892 38.8422 25.7415 38.821 25.7097C38.7998 25.7203 38.7681 25.7415 38.7257 25.7733C38.6833 25.7945 38.6462 25.8157 38.6145 25.8369C38.5827 25.858 38.5668 25.8792 38.5668 25.9004V26.5519V26.7267L38.4556 26.7426C38.445 26.732 38.4291 26.679 38.4079 26.5837C38.3867 26.4883 38.3602 26.3453 38.3284 26.1547C38.3073 25.964 38.2914 25.821 38.2808 25.7256C38.2808 25.6833 38.2596 25.6409 38.2172 25.5985C38.0795 25.4926 37.9895 25.4396 37.9471 25.4396C37.9047 25.4396 37.857 25.4608 37.8041 25.5032C37.7617 25.5455 37.7299 25.5932 37.7087 25.6462C37.571 25.9852 37.5392 26.393 37.6134 26.8697C37.624 26.9227 37.6452 26.9968 37.677 27.0922C37.7087 27.1769 37.7246 27.2405 37.7246 27.2828C37.7458 27.3994 37.7352 27.4947 37.6928 27.5689C37.6823 27.59 37.6452 27.6059 37.5816 27.6165C37.5181 27.6271 37.481 27.6218 37.4704 27.6006C37.4068 27.5371 37.3751 27.4417 37.3751 27.3146C37.3751 27.1239 37.3856 26.8273 37.4068 26.4248C37.3433 26.6261 37.2638 26.8326 37.1685 27.0445C36.9354 27.5424 36.7818 27.9343 36.7077 28.2203C36.6971 28.2521 36.6176 28.3157 36.4693 28.411C36.4693 28.6335 36.4534 28.803 36.4217 28.9195C36.4428 28.9513 36.4534 29.0042 36.4534 29.0784C36.4534 29.1419 36.4746 29.2161 36.517 29.3008C36.5382 29.3432 36.5594 29.3803 36.5806 29.4121C36.6017 29.4439 36.6176 29.465 36.6282 29.4756C36.6388 29.4756 36.6494 29.4809 36.66 29.4915C36.6706 29.5021 36.6759 29.518 36.6759 29.5392C36.6759 29.5498 36.6759 29.5763 36.6759 29.6186C36.6547 29.7775 36.6282 29.8941 36.5965 29.9682C36.5965 29.9788 36.5965 29.9947 36.5965 30.0159C36.607 30.0371 36.6176 30.053 36.6282 30.0636C36.6282 30.4343 36.5753 30.6197 36.4693 30.6197C36.4164 30.6197 36.3793 30.5508 36.3581 30.4131L36.1674 30.6991C36.3793 30.7839 36.4587 31.0805 36.4058 31.589C36.3952 31.6737 36.3793 31.7955 36.3581 31.9544C36.3369 32.1027 36.321 32.214 36.3104 32.2881C36.9672 32.786 37.1579 33.1727 36.8825 33.4481C36.7871 33.4693 36.7659 33.5011 36.8189 33.5434C36.8507 33.5646 36.8931 33.5699 36.946 33.5593C36.9248 33.6229 36.8931 33.6758 36.8507 33.7182C36.8083 33.75 36.7712 33.7712 36.7395 33.7818C36.7077 33.7818 36.6865 33.7924 36.6759 33.8136C36.6653 33.8241 36.6759 33.8453 36.7077 33.8771C36.7395 33.8983 36.803 33.9407 36.8984 34.0042C36.8666 34.0678 36.8242 34.0837 36.7712 34.0519C36.7183 34.0201 36.6706 34.0095 36.6282 34.0201C36.5859 34.0201 36.5753 34.0678 36.5965 34.1631C36.7236 34.2161 36.7077 34.3538 36.5488 34.5763C36.4005 34.7881 36.3846 34.9417 36.5011 35.0371C36.4164 35.0371 36.3104 35.0583 36.1833 35.1006C36.1833 35.1324 36.1833 35.1907 36.1833 35.2754C36.1939 35.3602 36.1992 35.4184 36.1992 35.4502C36.2734 35.5561 36.3528 35.6462 36.4376 35.7203C36.5011 35.5508 36.6229 35.4873 36.803 35.5297C36.856 35.6356 36.8825 35.768 36.8825 35.9269C36.8931 35.9375 36.909 35.9428 36.9301 35.9428C36.9513 35.9428 36.9672 35.9481 36.9778 35.9587C37.0943 36.0222 37.1579 36.1176 37.1685 36.2447C37.1897 36.3612 37.1473 36.4566 37.0414 36.5307C36.946 36.6049 36.8878 36.6737 36.8666 36.7373C36.8666 36.7691 36.8772 36.8273 36.8984 36.9121C36.909 37.1239 36.9037 37.3199 36.8825 37.5C37.1791 37.6483 37.4651 37.8443 37.7405 38.0879C38.196 38.5011 38.5297 38.7659 38.7416 38.8824C38.7628 38.9036 38.8051 39.0307 38.8687 39.2638C39.1759 39.2002 39.4884 39.1737 39.8062 39.1843C41.0668 39.2479 42.1791 39.1525 43.1431 38.8983C43.3867 38.7712 43.6303 38.6758 43.874 38.6123C44.0541 38.2415 44.1282 38.0561 44.0965 38.0561C43.9587 38.0667 43.8104 38.1462 43.6515 38.2945C43.4609 38.4534 43.3443 38.5011 43.302 38.4375C43.249 38.3528 43.3178 38.2309 43.5085 38.072C43.6251 37.9767 43.7363 37.8972 43.8422 37.8337C44.0541 37.7066 44.2395 37.5477 44.3984 37.357C44.8221 36.8485 45.2935 36.4777 45.8126 36.2447C45.7596 35.9693 45.8126 35.6991 45.9715 35.4343C46.1303 35.1589 46.3528 34.9629 46.6388 34.8464C47.0731 34.6663 47.4916 34.7087 47.8941 34.9735C48.2967 35.2383 48.4926 35.6091 48.482 36.0858C48.482 36.1917 48.4662 36.2924 48.4344 36.3877C48.3496 36.6631 48.339 36.9227 48.4026 37.1663C48.4132 37.2087 48.4185 37.2722 48.4185 37.357C48.4185 37.4947 48.3602 37.5636 48.2437 37.5636C48.1272 37.5636 48.0689 37.4947 48.0689 37.357C48.0689 37.3252 48.0689 37.2828 48.0689 37.2299C48.0795 37.1769 48.0848 37.1345 48.0848 37.1027C48.0848 36.9121 48.0795 36.8008 48.0689 36.7691C48.0477 36.6631 47.9895 36.5996 47.8941 36.5784C47.8094 36.5572 47.7352 36.589 47.6717 36.6737C47.5763 36.8008 47.5022 36.9491 47.4492 37.1186C47.3539 37.4258 47.3486 37.8496 47.4333 38.3898C47.4545 38.5169 47.4651 38.607 47.4651 38.66C47.4863 38.8294 47.428 38.9248 47.2903 38.946C47.2373 38.9566 47.1897 38.9354 47.1473 38.8824C47.1049 38.8294 47.0837 38.7606 47.0837 38.6758C47.0837 38.6123 47.0837 38.5275 47.0837 38.4216C47.0943 38.3157 47.0996 38.2468 47.0996 38.215V37.6271C47.0996 37.6165 47.0943 37.6059 47.0837 37.5953C47.0837 37.5847 47.0837 37.5741 47.0837 37.5636C46.8931 37.8919 46.6759 38.1833 46.4323 38.4375C46.2416 38.6282 46.0403 38.8559 45.8284 39.1208C45.7649 39.4386 45.4418 39.7669 44.8592 40.1059L44.9068 40.1536C44.7056 40.5455 44.499 40.858 44.2871 41.0911C44.107 41.2818 44.0488 41.5996 44.1123 42.0445C44.1229 42.0763 44.1441 42.1557 44.1759 42.2828C44.2077 42.4205 44.2236 42.5265 44.2236 42.6006C44.2236 42.7383 44.1759 42.8125 44.0806 42.8231C44.017 42.8337 43.9693 42.8125 43.9376 42.7595C43.9058 42.7172 43.8899 42.6642 43.8899 42.6006C43.8899 42.59 43.9058 42.3623 43.9376 41.9174C43.9376 41.8962 43.9428 41.8591 43.9534 41.8061C43.964 41.7532 43.9693 41.7108 43.9693 41.679C43.9905 41.5307 43.9376 41.4354 43.8104 41.393C43.7151 41.3506 43.6198 41.3877 43.5244 41.5042C43.4503 41.5996 43.392 41.6419 43.3496 41.6314C43.2967 41.6102 43.2596 41.5413 43.2384 41.4248C43.2384 41.3718 43.2278 41.2977 43.2066 41.2023C43.196 41.0964 43.1854 41.0222 43.1748 40.9799C43.1748 40.9587 43.159 40.9163 43.1272 40.8528H43.0636C43.0106 40.9057 42.9683 40.9428 42.9365 40.964C42.8094 41.0699 42.7193 41.107 42.6664 41.0752C42.5287 41.2553 42.4598 41.4778 42.4598 41.7426C42.4598 42.2511 42.4492 42.5424 42.428 42.6165C42.4174 42.6377 42.4015 42.6589 42.3803 42.6801C42.3698 42.7013 42.3645 42.7225 42.3645 42.7436C42.3539 42.7436 42.338 42.7436 42.3168 42.7436C42.3062 42.7436 42.3009 42.7383 42.3009 42.7278C42.2903 42.7066 42.2797 42.6748 42.2691 42.6324C42.2691 42.59 42.2585 42.5583 42.2373 42.5371C42.2267 42.5159 42.2003 42.5053 42.1579 42.5053C42.1049 42.5053 42.052 42.5794 41.999 42.7278C41.8931 43.0244 41.8931 43.321 41.999 43.6176C42.0202 43.6494 42.0414 43.7182 42.0626 43.8241C42.1049 44.036 42.052 44.1472 41.9037 44.1578C41.8613 44.1684 41.8295 44.1684 41.8083 44.1578C41.7871 44.1472 41.7712 44.1261 41.7606 44.0943C41.7501 44.0731 41.7448 44.0519 41.7448 44.0307C41.7448 44.0095 41.7448 43.9778 41.7448 43.9354C41.7448 43.9036 41.7448 43.8824 41.7448 43.8718C41.7871 42.9184 41.7289 42.1822 41.57 41.6631C41.5594 41.6525 41.5541 41.6366 41.5541 41.6155C41.5541 41.6049 41.5541 41.5943 41.5541 41.5837C41.5435 41.5625 41.5329 41.536 41.5223 41.5042C41.5117 41.4725 41.5011 41.446 41.4905 41.4248C41.4905 41.393 41.4799 41.3718 41.4587 41.3612C41.4376 41.34 41.4111 41.3347 41.3793 41.3453C41.3157 41.3665 41.284 41.4619 41.284 41.6314C41.284 41.7797 41.2734 41.8697 41.2522 41.9015C41.178 41.8697 41.1409 41.7797 41.1409 41.6314V41.1547C41.1198 41.1547 41.0933 41.1494 41.0615 41.1388C41.0297 41.1282 41.0085 41.1229 40.9979 41.1229C40.9873 41.1229 40.982 41.1229 40.982 41.1229C40.982 41.1123 40.9767 41.107 40.9662 41.107L40.8231 41.1547C40.7808 41.1758 40.6801 41.2129 40.5212 41.2659C40.3517 41.3083 40.267 41.303 40.267 41.25C40.267 41.2076 40.3094 41.1547 40.3941 41.0911L40.3782 41.0752C40.3782 41.0646 40.3782 41.054 40.3782 41.0434L40.3623 41.0275C40.3517 41.0275 40.3412 41.0275 40.3306 41.0275H39.9015C39.9545 41.0699 40.034 41.1441 40.1399 41.25C40.1611 41.2712 40.1981 41.3083 40.2511 41.3612C40.3147 41.4142 40.3623 41.4566 40.3941 41.4883C40.5318 41.6472 40.5636 41.7426 40.4895 41.7744C40.4047 41.7955 40.3094 41.7691 40.2034 41.6949C40.1928 41.6843 40.0604 41.6155 39.8062 41.4883V42.1398V42.2669C39.8168 42.3411 39.8168 42.3782 39.8062 42.3782C39.8062 42.4417 39.7744 42.4735 39.7109 42.4735C39.6897 42.4735 39.6685 42.4364 39.6473 42.3623C39.6473 42.3517 39.642 42.3358 39.6314 42.3146C39.6314 42.2934 39.6314 42.2775 39.6314 42.2669C39.6208 42.2458 39.6155 42.2087 39.6155 42.1557C39.6155 42.1028 39.6102 42.0657 39.5996 42.0445C39.589 42.0233 39.5626 42.0127 39.5202 42.0127C39.4354 42.0233 39.3931 42.1239 39.3931 42.3146C39.3931 42.4417 39.4037 42.6324 39.4248 42.8866C39.4248 43.035 39.3825 43.1091 39.2977 43.1091C39.213 43.1197 39.1759 43.0667 39.1865 42.9502C39.1865 42.929 39.1865 42.9131 39.1865 42.9025V42.6006C39.2183 42.5265 39.2289 42.4629 39.2183 42.41C39.2501 42.1875 39.2553 41.8485 39.2342 41.393C39.2342 41.3083 39.2289 41.2447 39.2183 41.2023C39.1971 41.2023 39.1706 41.197 39.1388 41.1864C39.1176 41.1653 39.1017 41.1494 39.0912 41.1388C39.0912 41.1494 39.0806 41.1653 39.0594 41.1864V41.1229C39.0382 41.1123 39.0011 41.0964 38.9481 41.0752C38.8952 41.054 38.8581 41.0381 38.8369 41.0275C38.8263 41.0911 38.8475 41.2553 38.9005 41.5201C38.9005 41.5519 38.8952 41.5943 38.8846 41.6472C38.8846 41.7002 38.8846 41.7373 38.8846 41.7585L38.8369 41.8061C38.8263 41.7955 38.8104 41.7744 38.7892 41.7426C38.7787 41.7214 38.7681 41.7055 38.7575 41.6949L38.7098 41.5042C38.731 41.4725 38.731 41.4195 38.7098 41.3453C38.7098 41.3241 38.7098 41.303 38.7098 41.2818C38.7204 41.2606 38.7257 41.2394 38.7257 41.2182V41.1705C38.6939 41.2659 38.678 41.3559 38.678 41.4407V43.4905C38.678 43.554 38.6886 43.6388 38.7098 43.7447C38.731 43.8612 38.7098 43.9354 38.6462 43.9672C38.5827 44.0095 38.5244 44.0148 38.4715 43.983C38.4185 43.9513 38.4026 43.8718 38.4238 43.7447C38.5509 43.2044 38.6092 42.6695 38.5986 42.1398C38.5986 42.0763 38.5933 41.9756 38.5827 41.8379C38.5721 41.7108 38.5615 41.6155 38.5509 41.5519C38.5509 41.5307 38.5403 41.4989 38.5191 41.4566C38.5191 41.446 38.5138 41.4407 38.5032 41.4407C38.5032 41.4301 38.5032 41.4195 38.5032 41.4089C38.4397 41.303 38.3814 41.303 38.3284 41.4089C38.2649 41.5254 38.2278 41.5943 38.2172 41.6155C38.2172 41.6049 38.2119 41.5837 38.2013 41.5519C38.2013 41.5201 38.2013 41.4989 38.2013 41.4883C38.1695 41.3189 38.1537 41.2288 38.1537 41.2182C38.1325 41.1441 38.0848 41.107 38.0106 41.107C37.9683 41.107 37.9365 41.1441 37.9153 41.2182C37.8729 41.3559 37.8412 41.5042 37.82 41.6631C37.7776 42.1292 37.8094 42.6536 37.9153 43.2362C37.9365 43.2998 37.9153 43.3633 37.8517 43.4269C37.8306 43.4481 37.7988 43.4587 37.7564 43.4587C37.7246 43.4587 37.6981 43.4534 37.677 43.4428C37.624 43.3898 37.5975 43.321 37.5975 43.2362C37.6081 43.1727 37.624 43.0561 37.6452 42.8866C37.677 42.7278 37.6981 42.6006 37.7087 42.5053C37.7299 41.8379 37.7352 41.4089 37.7246 41.2182C37.6187 41.1758 37.534 41.1176 37.4704 41.0434V41.0275C37.4598 41.0275 37.4545 41.0275 37.4545 41.0275L37.4227 41.0434C37.338 41.054 37.285 41.0222 37.2638 40.9481C37.2638 40.9799 37.2691 41.0275 37.2797 41.0911C37.2903 41.1441 37.2956 41.1864 37.2956 41.2182C37.3062 41.2712 37.3327 41.3506 37.3751 41.4566C37.428 41.5731 37.4227 41.6578 37.3592 41.7108C37.285 41.7638 37.2215 41.7691 37.1685 41.7267C37.0837 41.6631 37.0678 41.5784 37.1208 41.4725C37.195 41.3453 37.232 41.1811 37.232 40.9799C37.232 40.9693 37.232 40.9587 37.232 40.9481C37.2426 40.9269 37.2479 40.911 37.2479 40.9004C37.2479 40.8898 37.2426 40.8739 37.232 40.8528C37.232 40.821 37.232 40.7998 37.232 40.7892C37.232 40.7786 37.232 40.768 37.232 40.7574C37.2426 40.7468 37.2479 40.7362 37.2479 40.7256L37.232 40.7097C37.0837 40.4979 36.9142 40.3178 36.7236 40.1695C36.3528 39.8941 36.0403 39.5604 35.7861 39.1684V39.3432C35.7755 39.3432 35.7596 39.3485 35.7384 39.3591C35.7172 39.3591 35.7066 39.3591 35.7066 39.3591C35.7384 39.5816 35.7755 39.9205 35.8178 40.3761C35.8708 40.8316 35.9079 41.1758 35.9291 41.4089C35.9291 41.4407 35.945 41.4989 35.9767 41.5837C36.0085 41.679 36.0244 41.7479 36.0244 41.7903C36.0244 41.9597 35.9926 42.071 35.9291 42.1239C35.8231 42.1981 35.7013 42.214 35.5636 42.1716C35.4259 42.1398 35.3676 42.0392 35.3888 41.8697C35.3994 41.785 35.4259 41.6578 35.4683 41.4883C35.5106 41.3189 35.5371 41.1917 35.5477 41.107C35.6537 40.482 35.6907 39.7616 35.659 38.946C35.3306 38.3739 35.2458 37.9237 35.4047 37.5953C35.4259 37.553 35.4683 37.5 35.5318 37.4364C35.5318 37.4153 35.5265 37.3835 35.5159 37.3411C35.5159 37.2987 35.5159 37.2722 35.5159 37.2616C35.4948 37.1557 35.4683 37.0816 35.4365 37.0392C35.3623 36.965 35.3094 36.9174 35.2776 36.8962V38.4216C35.267 38.4746 35.2723 38.5752 35.2935 38.7235C35.3147 38.8718 35.3094 38.9725 35.2776 39.0254C35.2458 39.0254 35.2299 39.0307 35.2299 39.0413C35.2087 39.0519 35.1717 39.0625 35.1187 39.0731C35.0763 39.0837 35.0445 39.089 35.0234 39.089C34.8962 39.036 34.8433 38.9195 34.8645 38.7394C34.8645 38.6123 34.8803 38.3475 34.9121 37.9449C34.9439 37.5424 34.9545 37.2352 34.9439 37.0233V37.0392L34.928 37.0551C34.8539 37.2775 34.8115 37.4947 34.8009 37.7066C34.7797 38.3422 34.8115 38.7924 34.8962 39.0572C34.9174 39.1525 34.8962 39.232 34.8327 39.2955C34.8115 39.3061 34.7744 39.3114 34.7215 39.3114C34.6791 39.3114 34.6473 39.3061 34.6261 39.2955C34.5731 39.2426 34.5573 39.1631 34.5784 39.0572C34.7585 38.1038 34.7426 37.3517 34.5308 36.8008C34.5308 37.1398 34.5361 37.41 34.5467 37.6112C34.3666 37.8231 34.2395 37.786 34.1653 37.5C34.0912 37.7225 34.0541 38.0667 34.0541 38.5328C34.0223 40.0265 34.0064 41.5254 34.0064 43.0297C34.0064 43.1356 34.0223 43.2892 34.0541 43.4905C34.0859 43.6917 34.107 43.8189 34.1176 43.8718C34.1176 43.9354 34.0965 44.0095 34.0541 44.0943C34.0435 44.1049 34.0223 44.1102 33.9905 44.1102C33.9587 44.1208 33.9376 44.1208 33.927 44.1102C33.874 44.0042 33.8475 43.9301 33.8475 43.8877C33.8581 43.7818 33.874 43.5699 33.8952 43.2521C33.927 42.9449 33.9481 42.7013 33.9587 42.5212C33.9693 41.9915 33.9746 41.2394 33.9746 40.2648C33.9852 39.2797 33.9905 38.6335 33.9905 38.3263C33.9905 37.9873 33.9799 37.7383 33.9587 37.5794C33.9481 37.5053 33.9111 37.3941 33.8475 37.2458C33.8475 37.3835 33.8369 37.4788 33.8157 37.5318C33.8051 37.5636 33.784 37.5847 33.7522 37.5953C33.7204 37.5953 33.6992 37.5847 33.6886 37.5636C33.6356 37.4258 33.6145 37.3093 33.6251 37.214C33.6992 36.5254 33.7257 35.7362 33.7045 34.8464H33.6886C33.6674 34.7722 33.6568 34.6186 33.6568 34.3856V33.5593C33.6356 33.4428 33.6145 33.3739 33.5933 33.3527C33.5085 33.268 33.4609 33.1462 33.4503 32.9873C33.4397 32.8284 33.4662 32.6854 33.5297 32.5583C33.5933 32.4523 33.6409 32.3782 33.6727 32.3358C33.6727 32.0922 33.6462 31.8856 33.5933 31.7161C33.5933 31.6419 33.5774 31.589 33.5456 31.5572C33.5456 31.5148 33.5297 31.4883 33.4979 31.4777C33.4767 31.4672 33.4397 31.4354 33.3867 31.3824C33.3655 31.4036 33.3443 31.4142 33.3231 31.4142C33.302 31.4142 33.2596 31.3824 33.196 31.3189L33.1801 31.3347H33.1642V31.303C33.1537 31.2818 33.1484 31.2659 33.1484 31.2553C33.0848 31.1388 33.053 31.0011 33.053 30.8422C33.053 30.5879 33.1113 30.4608 33.2278 30.4608L33.3231 30.5085C33.3761 30.4025 33.445 30.2542 33.5297 30.0636C33.6251 29.8623 33.6992 29.714 33.7522 29.6186C33.8051 29.5233 33.8793 29.4386 33.9746 29.3644C34.07 29.2797 34.1812 29.2373 34.3083 29.2373C34.3719 29.2373 34.4248 29.2214 34.4672 29.1896V29.1737V29.1419C34.4672 29.1208 34.4566 29.089 34.4354 29.0466C34.4142 28.803 34.3931 28.66 34.3719 28.6176C34.3719 28.5964 34.3666 28.5646 34.356 28.5222C34.356 28.4693 34.356 28.4322 34.356 28.411C34.3666 28.3898 34.3719 28.358 34.3719 28.3157C34.3719 28.2733 34.3772 28.2415 34.3878 28.2203C34.3984 28.125 34.4619 27.9714 34.5784 27.7595L34.5943 27.7436H34.6102C34.6632 27.6907 34.7426 27.6218 34.8486 27.5371L34.8327 27.4417C34.7162 27.4947 34.6049 27.6218 34.499 27.8231C34.3613 28.035 34.2659 28.1144 34.213 28.0614C34.1388 27.9873 34.16 27.8496 34.2765 27.6483C34.3825 27.5 34.4619 27.3941 34.5149 27.3305C34.6844 27.1292 34.8115 26.9121 34.8962 26.679C35.1293 26.0752 35.4418 25.5826 35.8337 25.2013C35.7702 25.2225 35.7172 25.2542 35.6748 25.2966C35.5901 25.3814 35.5159 25.429 35.4524 25.4396C35.3676 25.4608 35.2935 25.4396 35.2299 25.3761C35.177 25.3231 35.1717 25.2542 35.214 25.1695C35.2458 25.1059 35.3041 25.0636 35.3888 25.0424C35.41 25.0318 35.4471 25.0371 35.5001 25.0583C35.553 25.0689 35.5901 25.0741 35.6113 25.0741C35.8337 25.0953 35.9767 25.0106 36.0403 24.8199C35.8814 24.7881 35.7967 24.7669 35.7861 24.7564C35.6801 24.6928 35.6272 24.6239 35.6272 24.5498C35.6272 24.4544 35.6801 24.3856 35.7861 24.3432C35.7967 24.3326 35.8126 24.322 35.8337 24.3114C35.8655 24.3008 35.8867 24.2955 35.8973 24.2955C35.9185 24.285 35.9397 24.2744 35.9609 24.2638C35.982 24.2426 35.9926 24.2214 35.9926 24.2002C36.0032 24.179 36.0032 24.1578 35.9926 24.1366C35.9715 24.0625 35.892 23.9989 35.7543 23.946L35.1823 23.8506C35.0657 23.8189 35.0022 23.7977 34.9916 23.7871C34.9174 23.7341 34.8803 23.6652 34.8803 23.5805C34.8803 23.4958 34.9333 23.4428 35.0392 23.4216C35.124 23.4004 35.1928 23.4269 35.2458 23.5011C35.3729 23.6917 35.6325 23.8083 36.0244 23.8506C36.1515 23.8612 36.2416 23.8294 36.2945 23.7553C36.3475 23.6705 36.3581 23.5699 36.3263 23.4534C36.3263 23.4428 36.3369 23.3845 36.3581 23.2786C36.3687 23.2892 36.3952 23.3051 36.4376 23.3263C36.4799 23.3369 36.5064 23.3475 36.517 23.358C36.5276 23.4004 36.5541 23.4428 36.5965 23.4852L36.6123 23.4693C36.6229 23.4587 36.6335 23.4534 36.6441 23.4534C36.8136 23.3157 36.9725 23.1303 37.1208 22.8972C37.4386 22.3888 37.8253 21.9809 38.2808 21.6737C38.7469 21.3559 39.1441 21.2341 39.4725 21.3083C39.4937 20.8739 39.6844 20.5138 40.0445 20.2277C40.4047 19.9417 40.8496 19.8782 41.3793 20.0371L41.4428 20.0689C41.4534 20.0689 41.4746 20.0741 41.5064 20.0847C41.5382 20.0953 41.5647 20.1006 41.5859 20.1006C41.7342 20.2172 41.8984 20.2913 42.0784 20.3231V20.3072C42.3327 20.4449 42.5763 20.535 42.8094 20.5773C42.8094 20.5667 42.8041 20.5508 42.7935 20.5297C42.7935 20.4979 42.7935 20.4767 42.7935 20.4661C42.7935 20.4555 42.7935 20.4449 42.7935 20.4343C42.8041 20.4131 42.8094 20.3972 42.8094 20.3866C42.7882 20.3761 42.7564 20.3655 42.714 20.3549C42.6717 20.3443 42.6399 20.3337 42.6187 20.3231C42.6081 20.3231 42.5816 20.3231 42.5392 20.3231C42.4969 20.3125 42.4651 20.3019 42.4439 20.2913C42.4333 20.2701 42.4333 20.233 42.4439 20.1801H42.6346C42.6558 20.2119 42.6823 20.2225 42.714 20.2119C42.7352 20.2119 42.767 20.2172 42.8094 20.2277C42.8623 20.2277 42.8994 20.2277 42.9206 20.2277C42.963 20.196 43.0159 20.1801 43.0795 20.1801C43.1431 20.1801 43.2066 20.2119 43.2702 20.2754C43.302 20.2754 43.3284 20.2701 43.3496 20.2595C43.5191 20.2913 43.6833 20.2913 43.8422 20.2595C43.9376 20.2913 44.0276 20.286 44.1123 20.2436C44.1653 20.2436 44.2395 20.2383 44.3348 20.2277C44.4301 20.2172 44.499 20.2119 44.5414 20.2119C44.6049 20.233 44.6579 20.2225 44.7003 20.1801C44.7638 20.1801 44.8645 20.1801 45.0022 20.1801C45.1399 20.1695 45.2458 20.1642 45.32 20.1642C45.3306 20.1642 45.3517 20.1695 45.3835 20.1801L45.4789 20.2277C45.4895 20.2383 45.5001 20.2542 45.5106 20.2754C45.5212 20.2966 45.5265 20.3072 45.5265 20.3072C45.5371 20.3919 45.4948 20.4555 45.3994 20.4979C45.3147 20.5297 45.267 20.5508 45.2564 20.5614C45.2882 20.625 45.3941 20.6568 45.5742 20.6568C45.9767 20.6674 46.2892 20.8104 46.5117 21.0858C46.7448 21.3612 46.8295 21.679 46.7659 22.0392C46.8083 22.071 46.856 22.0869 46.909 22.0869C47.089 22.0763 47.2373 22.1504 47.3539 22.3093C47.481 22.4682 47.6081 22.7013 47.7352 23.0085C47.8729 23.3157 48.0001 23.5487 48.1166 23.7076C48.1272 23.7606 48.1272 23.8083 48.1166 23.8506C48.1166 23.8824 48.106 23.9354 48.0848 24.0095C48.0636 24.0837 48.053 24.1366 48.053 24.1684C47.9895 24.1472 47.9418 24.1419 47.91 24.1525C47.8888 24.1631 47.857 24.1896 47.8147 24.232C47.7723 24.2744 47.7405 24.3008 47.7193 24.3114V24.3273C47.8253 24.4227 47.9577 24.6557 48.1166 25.0265C48.2861 25.3866 48.4344 25.6515 48.5615 25.821C48.5721 25.8739 48.5721 25.9216 48.5615 25.964C48.5615 25.9958 48.5509 26.0487 48.5297 26.1229C48.5085 26.197 48.4979 26.25 48.4979 26.2818C48.4344 26.2606 48.3867 26.2553 48.3549 26.2659C48.3337 26.2765 48.302 26.303 48.2596 26.3453C48.2172 26.3877 48.1854 26.4142 48.1642 26.4248C48.1325 26.4354 48.1166 26.4672 48.1166 26.5201ZM33.9746 31.589C33.8581 31.6102 33.7998 31.6419 33.7998 31.6843C33.7892 31.7161 33.7945 31.7532 33.8157 31.7955C33.8263 31.8167 33.8475 31.8909 33.8793 32.018C33.9217 31.9121 33.9534 31.7691 33.9746 31.589ZM34.1017 36.6578C34.1017 36.5943 34.1017 36.4883 34.1017 36.34C34.1123 36.1917 34.1176 36.0805 34.1176 36.0064H34.1017C34.0276 36.0169 33.9587 35.9905 33.8952 35.9269C33.8422 35.8633 33.8051 35.7892 33.784 35.7044V36.6737C33.784 36.6949 33.784 36.7161 33.784 36.7373C33.7945 36.7585 33.7998 36.7797 33.7998 36.8008C33.8528 36.7055 33.927 36.6525 34.0223 36.6419C34.0329 36.6419 34.0435 36.6472 34.0541 36.6578C34.0753 36.6578 34.0912 36.6578 34.1017 36.6578ZM34.1335 35.4025C34.1547 35 34.1494 34.7405 34.1176 34.6239C34.16 34.465 34.1547 34.2002 34.1017 33.8294C34.0488 33.4481 34.0382 33.1939 34.07 33.0667C34.0488 33.1091 34.0276 33.1621 34.0064 33.2256C33.9217 33.5964 33.8634 33.9407 33.8316 34.2585V34.6875C33.8316 34.7722 33.821 34.8252 33.7998 34.8464C33.7998 34.9205 33.7945 35.0371 33.784 35.196C33.784 35.3549 33.784 35.4767 33.784 35.5614C33.8157 35.4343 33.8899 35.3708 34.0064 35.3708C34.0594 35.3708 34.1017 35.3814 34.1335 35.4025ZM34.8486 35.8951C34.9015 35.4926 34.8856 35.233 34.8009 35.1165C34.7691 35.0741 34.7426 35.0794 34.7215 35.1324C34.6579 35.4608 34.6102 35.7733 34.5784 36.0699C34.6632 36.0064 34.7267 35.9693 34.7691 35.9587C34.7797 35.9481 34.7903 35.9375 34.8009 35.9269C34.8221 35.9163 34.838 35.9057 34.8486 35.8951ZM35.0392 34.8941C34.9969 34.947 34.981 34.9788 34.9916 34.9894C35.0128 35 35.0392 34.9894 35.071 34.9576V34.8464C35.0498 34.8676 35.0392 34.8835 35.0392 34.8941ZM37.534 40.4555H37.5181C37.5181 40.4873 37.5234 40.5297 37.534 40.5826C37.5445 40.6356 37.5551 40.678 37.5657 40.7097C37.6081 40.7733 37.6452 40.821 37.677 40.8528C37.677 40.8316 37.6717 40.7998 37.6611 40.7574C37.6505 40.715 37.6452 40.6833 37.6452 40.6621C37.6134 40.5667 37.5922 40.5138 37.5816 40.5032L37.534 40.4555ZM36.6759 33.5752C36.6865 33.5328 36.6653 33.5116 36.6123 33.5116C36.57 33.5116 36.5488 33.5328 36.5488 33.5752C36.5382 33.6176 36.5541 33.6388 36.5965 33.6388C36.6494 33.6388 36.6759 33.6176 36.6759 33.5752ZM36.1039 35.3072V35.1324C36.0615 35.1536 36.035 35.1695 36.0244 35.1801C36.0244 35.2013 36.035 35.2225 36.0562 35.2436C36.0774 35.2648 36.0933 35.286 36.1039 35.3072ZM39.9651 21.0858C40.0604 21.0858 40.1081 21.0381 40.1081 20.9428C40.0128 20.9428 39.9651 20.9905 39.9651 21.0858ZM40.1081 20.9428C40.1293 20.9428 40.1558 20.9375 40.1876 20.9269C40.2299 20.9163 40.2564 20.911 40.267 20.911L40.2511 20.8792C40.1981 20.8686 40.1505 20.8898 40.1081 20.9428ZM40.3782 20.7839L40.41 20.768V20.7521H40.3782V20.7839ZM41.0933 20.3072C41.1039 20.3072 41.1198 20.3072 41.1409 20.3072C41.1621 20.3072 41.178 20.3019 41.1886 20.2913C41.1886 20.2807 41.1833 20.2754 41.1727 20.2754C41.1727 20.2754 41.1727 20.2701 41.1727 20.2595C41.1621 20.2701 41.1462 20.2807 41.1251 20.2913C41.1145 20.3019 41.1039 20.3072 41.0933 20.3072C41.0403 20.3072 41.0085 20.3284 40.9979 20.3708C40.9979 20.4025 41.0085 20.4184 41.0297 20.4184C41.0721 20.4184 41.0933 20.3814 41.0933 20.3072ZM37.5181 36.4195C37.5816 36.4089 37.6293 36.4248 37.6611 36.4672C37.7034 36.4989 37.7193 36.5466 37.7087 36.6102C37.6981 36.6419 37.6558 36.7108 37.5816 36.8167H37.4863C37.4757 36.7955 37.4545 36.7744 37.4227 36.7532C37.4015 36.7214 37.3803 36.6949 37.3592 36.6737C37.3486 36.6419 37.3433 36.6155 37.3433 36.5943C37.3433 36.5095 37.4015 36.4513 37.5181 36.4195ZM36.6282 35.3231C36.5965 35.3549 36.57 35.3708 36.5488 35.3708C36.5276 35.3708 36.5011 35.3549 36.4693 35.3231C36.4376 35.2913 36.4217 35.2648 36.4217 35.2436C36.4217 35.233 36.464 35.1748 36.5488 35.0689C36.6335 35.1748 36.6759 35.233 36.6759 35.2436C36.6759 35.2648 36.66 35.2913 36.6282 35.3231ZM41.6335 24.7087C41.7289 24.6133 41.7818 24.5657 41.7924 24.5657L41.9831 24.661C41.9831 24.6716 41.9831 24.6875 41.9831 24.7087C41.9937 24.7193 41.999 24.7299 41.999 24.7405C41.9037 24.8146 41.8348 24.8517 41.7924 24.8517C41.7818 24.8517 41.7289 24.804 41.6335 24.7087ZM45.1452 26.822C45.1558 26.7797 45.1928 26.7479 45.2564 26.7267C45.3094 26.7267 45.3465 26.7532 45.3676 26.8061C45.3782 26.8273 45.3888 26.8644 45.3994 26.9174C45.41 26.9597 45.4206 26.9915 45.4312 27.0127C45.3994 27.0021 45.357 26.9915 45.3041 26.9809C45.2617 26.9703 45.2299 26.9597 45.2087 26.9491C45.1452 26.9174 45.124 26.875 45.1452 26.822Z" fill="white"/>
</svg>
