<svg width="192" height="52" viewBox="0 0 192 52" fill="none" xmlns="http://www.w3.org/2000/svg">
<rect width="52" height="52" rx="3.52542" fill="#00658B"/>
<path d="M19.1222 28.9092C19.1222 28.7026 19.1695 28.5994 19.2642 28.5994C19.3588 28.5994 19.4062 28.7156 19.4062 28.9479C19.4062 29.1545 19.3588 29.2578 19.2642 29.2578C19.1695 29.2578 19.1222 29.1416 19.1222 28.9092ZM14.81 17.264C14.6896 17.264 14.6293 17.1176 14.6293 16.825C14.6896 16.7303 14.7369 16.6787 14.7713 16.6701C14.823 16.6615 14.8617 16.6916 14.8875 16.7604C14.9219 16.8293 14.9392 16.9197 14.9392 17.0316C14.9392 17.1865 14.8961 17.264 14.81 17.264ZM15.6363 16.1666C15.6277 16.1666 15.5761 16.1192 15.4814 16.0245V15.9083C15.49 15.8911 15.5029 15.8696 15.5201 15.8438C15.5459 15.8094 15.5632 15.7835 15.5718 15.7663C15.589 15.7405 15.6062 15.7276 15.6234 15.7276C15.632 15.7276 15.6837 15.7965 15.7783 15.9342C15.7095 16.0805 15.6621 16.158 15.6363 16.1666ZM14.7326 17.832C14.7326 17.8406 14.7283 17.8535 14.7197 17.8707C14.7197 17.888 14.7154 17.9052 14.7068 17.9224C14.7068 17.9396 14.6982 17.9654 14.6809 17.9998C14.6723 18.0257 14.6637 18.0558 14.6551 18.0902C14.5863 17.9267 14.5518 17.8363 14.5518 17.8191C14.5518 17.8019 14.5734 17.7416 14.6164 17.6384C14.625 17.6556 14.6379 17.6771 14.6551 17.7029C14.6809 17.7201 14.6982 17.7416 14.7068 17.7675C14.724 17.7847 14.7326 17.8062 14.7326 17.832ZM15.9978 16.386C15.9892 16.386 15.9806 16.3817 15.972 16.3731C15.9634 16.3645 15.9462 16.3473 15.9204 16.3215C15.9031 16.2871 15.8902 16.2655 15.8816 16.2569C15.9419 16.1709 15.9849 16.1235 16.0107 16.1149L16.0753 16.2053V16.2182C16.0581 16.3043 16.0322 16.3602 15.9978 16.386ZM25.8872 21.3308C25.9389 21.4254 25.9131 21.4857 25.8098 21.5115C25.7323 21.5373 25.6764 21.4986 25.6419 21.3953C25.6247 21.3265 25.6118 21.2705 25.6032 21.2275C25.586 21.1328 25.543 21.107 25.4741 21.15C25.3794 21.2189 25.3149 21.2834 25.2805 21.3437C25.2288 21.4383 25.1944 21.5588 25.1772 21.7052C25.2374 21.7654 25.302 21.873 25.3708 22.0279C25.4053 21.9763 25.444 21.9634 25.487 21.9892C25.5559 22.0322 25.5559 22.1312 25.487 22.2861C25.4784 22.2947 25.4741 22.3076 25.4741 22.3249C25.4741 22.3335 25.4698 22.3421 25.4612 22.3507C25.4612 22.3593 25.4612 22.3765 25.4612 22.4023C25.4698 22.4281 25.4741 22.4497 25.4741 22.4669C25.4741 22.5185 25.4569 22.596 25.4225 22.6993C25.3622 22.9144 25.3579 23.1339 25.4096 23.3577C25.4182 23.3921 25.4225 23.4438 25.4225 23.5126C25.4225 23.6245 25.3708 23.6805 25.2675 23.6805C25.1729 23.6805 25.1255 23.6245 25.1255 23.5126C25.1255 23.4954 25.1255 23.461 25.1255 23.4093C25.1341 23.3577 25.1384 23.319 25.1384 23.2931V23.0866C25.0524 23.5083 24.8673 23.8913 24.5833 24.2356C24.5833 24.2442 24.5833 24.2657 24.5833 24.3002C24.5919 24.3346 24.5962 24.3561 24.5962 24.3647C24.6134 24.468 24.622 24.5455 24.622 24.5971V24.6358C24.7683 25.0059 24.7812 25.2771 24.6608 25.4492C24.5575 25.5869 24.5015 25.7375 24.4929 25.9011C24.4068 25.8839 24.2993 25.9527 24.1702 26.1076C24.0497 26.254 23.9507 26.4132 23.8732 26.5853C23.8044 27.0501 23.8087 27.3858 23.8861 27.5923C23.8947 27.6268 23.8732 27.6698 23.8216 27.7214C23.8216 27.7387 23.8173 27.7645 23.8087 27.7989C23.8087 27.8247 23.8087 27.8462 23.8087 27.8635L23.8861 28.4832C23.9464 28.6123 23.9679 28.7586 23.9507 28.9221C23.9507 28.9393 23.9507 28.9695 23.9507 29.0125C23.9593 29.0555 23.9636 29.0857 23.9636 29.1029C24.0152 29.2492 24.0324 29.473 24.0152 29.7742C24.0497 30.2304 24.0281 30.5704 23.9507 30.7941C23.8732 30.7339 23.8431 30.5833 23.8603 30.3423C23.8861 30.0927 23.8904 29.9377 23.8732 29.8775C23.8388 29.8 23.8173 29.7269 23.8087 29.658C23.8001 29.5806 23.8001 29.4816 23.8087 29.3611C23.8173 29.2406 23.8216 29.1674 23.8216 29.1416C23.8216 29.1158 23.8173 29.0814 23.8087 29.0383C23.8087 28.9953 23.8087 28.9652 23.8087 28.9479C23.8087 28.9393 23.8001 28.9264 23.7828 28.9092C23.7742 28.8834 23.7656 28.8662 23.757 28.8576V28.4315C23.757 28.3971 23.7527 28.3411 23.7441 28.2637C23.7355 28.1862 23.7312 28.1303 23.7312 28.0958L23.7183 28.07V28.0442C23.7097 28.027 23.7054 27.9969 23.7054 27.9538L23.6666 27.7989C23.6666 27.7817 23.658 27.7602 23.6408 27.7344C23.6236 27.7085 23.615 27.6913 23.615 27.6827C23.6753 27.6483 23.6839 27.5837 23.6408 27.4891C23.6064 27.3944 23.5935 27.3298 23.6021 27.2954C23.6193 27.2868 23.6279 27.2696 23.6279 27.2438C23.6882 27.1147 23.7011 26.9339 23.6666 26.7015C23.6322 26.4691 23.5375 26.3615 23.3826 26.3788C23.3912 26.1808 23.3783 26.0861 23.3439 26.0947C23.275 26.1119 23.2191 26.297 23.176 26.6499C23.1502 26.8134 23.1502 26.9339 23.176 27.0114C23.0814 27.0286 23.0211 27.0114 22.9953 26.9597C22.9695 26.9081 22.9609 26.8435 22.9695 26.7661C22.9867 26.68 22.9781 26.5982 22.9437 26.5208C22.8748 26.7618 22.8404 26.8995 22.8404 26.9339C22.8318 27.0028 22.8275 27.3212 22.8275 27.8893C22.8275 27.9151 22.8361 27.9581 22.8533 28.0184C22.8705 28.07 22.8791 28.1045 22.8791 28.1217C22.8877 28.1561 22.8834 28.2034 22.8662 28.2637L22.7758 28.2766C22.7414 28.225 22.7242 28.1776 22.7242 28.1346V27.8893V27.9022C22.7156 27.9108 22.6941 27.9151 22.6596 27.9151C22.651 27.9065 22.6381 27.8979 22.6209 27.8893C22.6037 27.8721 22.5908 27.8635 22.5822 27.8635C22.5822 27.8549 22.5779 27.8462 22.5693 27.8376C22.5693 27.8204 22.5693 27.8075 22.5693 27.7989C22.5693 27.7903 22.5736 27.786 22.5822 27.786V27.7344C22.5994 27.6913 22.608 27.6009 22.608 27.4632C22.608 27.4546 22.608 27.4503 22.608 27.4503L22.6209 27.4245C22.6209 27.4159 22.6209 27.4073 22.6209 27.3987C22.6295 27.3815 22.6338 27.3686 22.6338 27.36V27.347C22.6252 27.3298 22.6209 27.3169 22.6209 27.3083V27.1276C22.6295 27.0845 22.6295 27.0458 22.6209 27.0114V26.9081L22.5693 26.8564C22.5606 26.865 22.5391 26.8866 22.5047 26.921C22.4789 26.9554 22.4617 26.9812 22.4531 26.9985C22.4014 27.2222 22.3713 27.3901 22.3627 27.502C22.3541 27.6483 22.3498 27.8721 22.3498 28.1733H22.311C22.3627 28.6037 22.3971 28.9264 22.4143 29.1416C22.4143 29.1846 22.4014 29.2191 22.3756 29.2449C22.3326 29.2707 22.2981 29.275 22.2723 29.2578C22.2465 29.232 22.2336 29.1975 22.2336 29.1545C22.2508 28.5692 22.2594 28.126 22.2594 27.8247C22.2594 27.6784 22.2293 27.5149 22.169 27.3341C22.1604 27.3083 22.1389 27.2825 22.1045 27.2567C22.0787 27.2222 22.0528 27.205 22.027 27.205C21.9495 27.205 21.8936 27.2395 21.8592 27.3083C21.7473 27.5149 21.7301 27.7946 21.8075 28.1475C21.8247 28.1819 21.8334 28.212 21.8334 28.2379C21.8334 28.2895 21.8204 28.3282 21.7946 28.3541C21.7602 28.3885 21.7258 28.3885 21.6913 28.3541C21.6569 28.3196 21.6397 28.2809 21.6397 28.2379C21.6483 28.1776 21.6569 28.0872 21.6655 27.9667C21.6741 27.8462 21.6827 27.7559 21.6913 27.6956C21.6913 27.6096 21.6827 27.5493 21.6655 27.5149C21.5967 27.403 21.5407 27.347 21.4977 27.347C21.403 27.347 21.3255 27.3858 21.2653 27.4632C21.2309 27.5235 21.2093 27.5622 21.2007 27.5794C21.1921 27.6741 21.1835 27.8247 21.1749 28.0313C21.1749 28.2293 21.1749 28.3756 21.1749 28.4703C21.1749 28.5908 21.1577 28.6682 21.1233 28.7026C21.1061 28.7285 21.0888 28.7112 21.0716 28.651C21.0716 28.6424 21.0673 28.6338 21.0587 28.6252L21.0458 28.5606C20.9942 28.3885 20.9511 28.2809 20.9167 28.2379C20.8909 28.1862 20.8608 28.1862 20.8263 28.2379C20.7919 28.2809 20.7532 28.3885 20.7101 28.5606C20.6499 28.7758 20.5767 28.8059 20.4907 28.651C20.4648 28.5994 20.4261 28.5133 20.3745 28.3928V28.4057C20.3745 28.4315 20.3874 28.4703 20.4132 28.5219C20.439 28.5649 20.4519 28.5994 20.4519 28.6252C20.4605 28.6682 20.4476 28.7199 20.4132 28.7801C20.396 28.7973 20.3702 28.8059 20.3357 28.8059C20.3099 28.8059 20.2884 28.8016 20.2712 28.793C20.2195 28.7414 20.2023 28.6897 20.2195 28.6381C20.254 28.4487 20.2755 28.3024 20.2841 28.1991C20.1722 28.0442 20.0689 28.0571 19.9742 28.2379C19.8451 28.4789 19.8021 28.8361 19.8451 29.3094C19.8624 29.5418 19.8968 29.8904 19.9484 30.3552C19.9484 30.381 19.9484 30.4111 19.9484 30.4456C19.957 30.48 19.9613 30.5101 19.9613 30.5359C19.9613 31.1298 19.957 31.4655 19.9484 31.5429C19.9398 31.5602 19.9269 31.5903 19.9097 31.6333C19.9011 31.6678 19.8925 31.6936 19.8839 31.7108C19.8667 31.7366 19.858 31.7926 19.858 31.8786V31.8657C19.6515 31.7022 19.5697 31.289 19.6127 30.6263V30.4456C19.6644 29.955 19.6816 29.417 19.6644 28.8317C19.6558 28.3067 19.5697 28.027 19.4062 27.9926C19.3459 27.9926 19.29 28.0313 19.2383 28.1088C19.1781 28.212 19.1092 28.3842 19.0318 28.6252C18.9973 28.7543 18.9414 28.8404 18.8639 28.8834C18.8553 28.8748 18.8381 28.8705 18.8123 28.8705C18.7865 28.8619 18.765 28.8447 18.7477 28.8188C18.7391 28.793 18.7305 28.7457 18.7219 28.6768V28.5864C18.6445 28.7844 18.6014 28.9221 18.5928 28.9996C18.6014 29.034 18.6057 29.09 18.6057 29.1674H18.709C18.6832 29.2879 18.6531 29.4471 18.6186 29.6451C18.6186 29.6709 18.5799 30.0238 18.5024 30.7038C18.4852 30.9964 18.4852 31.4569 18.5024 32.0852C18.5197 32.1368 18.5283 32.1756 18.5283 32.2014C18.5455 32.0637 18.5541 31.9604 18.5541 31.8915C18.5541 31.8399 18.5541 31.7882 18.5541 31.7366C18.5541 31.6764 18.5541 31.6075 18.5541 31.53C18.5541 31.444 18.5541 31.3751 18.5541 31.3235C18.5627 31.4526 18.5756 31.6807 18.5928 32.0077C18.6186 32.3348 18.6402 32.5844 18.6574 32.7565V32.8082C18.6574 33.0578 18.6229 33.1826 18.5541 33.1826V33.1697C18.5541 33.1611 18.5498 33.1568 18.5412 33.1568V33.8539C18.5326 34.3015 18.4852 34.5081 18.3992 34.4736C18.3131 34.4134 18.2701 34.1638 18.2701 33.7248C18.2701 33.458 18.2787 33.0664 18.2959 32.55C18.2701 32.55 18.2485 32.5414 18.2313 32.5241C18.2227 32.5844 18.2012 32.6016 18.1668 32.5758C18.1065 32.5155 18.0678 32.3606 18.0506 32.111C18.0506 32.1024 18.0463 32.0895 18.0377 32.0723C18.0377 32.0551 18.0334 32.0292 18.0248 31.9948C18.0248 31.9604 18.0248 31.926 18.0248 31.8915C18.0248 31.9346 18.0205 32.0077 18.0118 32.111C18.0118 32.2057 18.0118 32.2788 18.0118 32.3305L18.0506 34.6156C18.0592 34.9169 18.0635 35.3688 18.0635 35.9712C18.0635 36.6082 18.0162 36.9266 17.9215 36.9266C17.8268 36.9266 17.7795 36.5866 17.7795 35.9067C17.7795 35.4505 17.7881 34.7663 17.8053 33.8539C17.8053 33.7851 17.8053 33.6775 17.8053 33.5312C17.8139 33.3848 17.8182 33.2773 17.8182 33.2084C17.801 33.0879 17.7924 32.9975 17.7924 32.9373C17.7924 32.8856 17.801 32.8082 17.8182 32.7049V32.0723C17.8096 31.5473 17.7795 31.2847 17.7278 31.2847C17.702 31.2847 17.6676 31.3407 17.6245 31.4526C17.5471 31.6505 17.4825 31.5903 17.4309 31.2718C17.4223 31.2374 17.4094 31.1772 17.3921 31.0911C17.3835 30.9964 17.3749 30.9362 17.3663 30.9103C17.3147 30.8071 17.276 30.7683 17.2501 30.7941C17.2415 30.82 17.2286 30.9189 17.2114 31.0911C17.22 31.2804 17.2415 31.5171 17.276 31.8012C17.3104 32.0852 17.3276 32.2918 17.3276 32.4209C17.3276 32.5414 17.2932 32.6059 17.2243 32.6145C17.2243 32.7178 17.22 32.791 17.2114 32.834C17.2028 32.9803 17.177 33.1137 17.1339 33.2342C17.1684 33.2256 17.1942 33.2428 17.2114 33.2859C17.2286 33.3289 17.2286 33.3848 17.2114 33.4537C17.177 33.5914 17.121 33.5957 17.0436 33.4666C17.035 33.3547 17.0479 33.2859 17.0823 33.26C17.0307 33.174 17.0048 33.019 17.0048 32.7953V32.2014V31.9432C16.936 31.8141 16.9231 31.6548 16.9661 31.4655C17.0005 31.3192 17.022 31.1944 17.0307 31.0911C17.0307 30.764 17.0263 30.5273 17.0177 30.381C17.0177 30.3294 17.0134 30.2906 17.0048 30.2648C16.8929 29.9205 16.8284 29.6236 16.8112 29.374C16.8026 29.1244 16.8241 28.9522 16.8757 28.8576C16.936 28.7543 16.9919 28.651 17.0436 28.5477C17.1038 28.4444 17.1468 28.3627 17.1727 28.3024C17.1985 28.2336 17.1727 28.1131 17.0952 27.9409C17.0952 28.027 17.0909 28.1045 17.0823 28.1733C17.0737 28.2336 17.0651 28.2852 17.0565 28.3282C17.0565 28.3713 17.0479 28.4014 17.0307 28.4186C17.022 28.4358 17.0091 28.4401 16.9919 28.4315C16.9661 28.4057 16.9489 28.3842 16.9403 28.367C16.9231 28.4875 16.8929 28.5477 16.8499 28.5477C16.7638 28.5477 16.7208 28.3971 16.7208 28.0958C16.7294 28.0872 16.738 28.07 16.7466 28.0442C16.7638 28.0184 16.7767 27.9969 16.7854 27.9797C16.8026 27.9538 16.8155 27.9366 16.8241 27.928C16.8413 27.9194 16.8628 27.9366 16.8886 27.9797V27.7085C16.9059 27.3643 16.9231 27.1147 16.9403 26.9597C16.9833 26.4949 16.9919 26.0431 16.9661 25.6041C16.9145 24.5971 16.9317 23.6891 17.0177 22.88C17.0177 22.5357 17.0091 22.0279 16.9919 21.3566C16.9919 21.2619 16.9704 21.193 16.9274 21.15C16.8155 21.0381 16.781 20.8746 16.8241 20.6594C16.8069 20.5733 16.7897 20.4959 16.7724 20.427C16.7294 20.5131 16.7036 20.5518 16.695 20.5432L16.5917 20.3366C16.6175 20.2592 16.6347 20.2118 16.6433 20.1946C16.6003 20.1516 16.5487 20.1301 16.4884 20.1301C16.4368 20.1387 16.3808 20.2334 16.3206 20.4141C16.2948 20.5088 16.2818 20.6207 16.2818 20.7498C16.2905 20.8531 16.2991 21.0123 16.3077 21.2275C16.3249 21.434 16.3335 21.589 16.3335 21.6922C16.3335 21.7955 16.3206 21.8644 16.2948 21.8988C16.2861 21.916 16.2689 21.9246 16.2431 21.9246C16.2173 21.9246 16.1958 21.916 16.1786 21.8988C16.1527 21.8472 16.1398 21.7783 16.1398 21.6922C16.1398 21.6492 16.1484 21.5933 16.1656 21.5244C16.2431 20.8961 16.2259 20.4098 16.114 20.0655C16.0968 20.0225 16.071 19.9795 16.0365 19.9364C16.0021 19.8848 15.972 19.8633 15.9462 19.8719C15.8601 19.8977 15.8085 19.9752 15.7912 20.1043C15.7224 20.4658 15.688 20.7498 15.688 20.9563L15.7267 23.319C15.7267 23.3878 15.7095 23.4481 15.6751 23.4997C15.6406 23.5341 15.6062 23.5298 15.5718 23.4868C15.5459 23.4438 15.533 23.3835 15.533 23.3061V23.2931C15.4728 23.2329 15.4427 23.0737 15.4427 22.8155C15.4427 22.6347 15.4513 22.3636 15.4685 22.0021C15.4943 21.4254 15.4556 21.107 15.3523 21.0467C15.3093 21.0209 15.2748 21.0682 15.249 21.1887C15.2318 21.2576 15.2189 21.3351 15.2103 21.4211V21.5244C15.2103 21.5588 15.2017 21.6105 15.1845 21.6793V21.8988C15.1845 22.2431 15.1931 22.7509 15.2103 23.4223C15.2275 23.8182 15.2361 24.1151 15.2361 24.3131C15.2361 24.7434 15.1888 24.9586 15.0941 24.9586C15.051 24.9586 15.0123 24.8897 14.9779 24.752C14.9521 24.6143 14.9392 24.4551 14.9392 24.2743C14.9392 24.2657 14.9521 23.8096 14.9779 22.9058C14.9865 22.6476 14.9908 22.256 14.9908 21.731C14.9822 21.3867 14.9478 21.2103 14.8875 21.2016C14.8617 21.193 14.8273 21.2275 14.7842 21.3049C14.7154 21.4254 14.6551 21.3867 14.6035 21.1887C14.6035 21.1801 14.5906 21.1414 14.5647 21.0725C14.5475 21.0037 14.5346 20.9607 14.526 20.9434C14.4744 20.8746 14.4399 20.8531 14.4227 20.8789C14.3883 20.9305 14.3711 21.0467 14.3711 21.2275C14.3711 21.2963 14.3711 21.3953 14.3711 21.5244C14.3797 21.6535 14.384 21.7482 14.384 21.8084C14.384 22.0236 14.3797 22.1656 14.3711 22.2345C14.3367 22.4238 14.3022 22.5185 14.2678 22.5185C14.2076 22.5185 14.1774 22.4152 14.1774 22.2087C14.1688 21.9849 14.1731 21.6578 14.1903 21.2275C14.199 20.9951 14.1688 20.7067 14.1 20.3625C14.0397 20.0096 14.0096 19.8202 14.0096 19.7944C13.9752 19.4501 14.0139 19.1317 14.1258 18.839C14.2463 18.5464 14.4055 18.3527 14.6035 18.2581C14.5432 18.2408 14.5217 18.215 14.5389 18.1806C14.5647 18.129 14.6594 18.0859 14.823 18.0515C14.8402 18.0515 14.8574 18.0472 14.8746 18.0386V18.0257C14.8402 17.8363 14.8488 17.6771 14.9004 17.548C14.9607 17.4103 15.051 17.3328 15.1715 17.3156H15.3136C15.4254 17.3242 15.5244 17.2855 15.6105 17.1994C15.6966 17.1133 15.7654 16.9842 15.8171 16.8121C15.8601 16.6658 15.8988 16.584 15.9333 16.5668C15.9763 16.5496 16.0365 16.584 16.114 16.6701C16.2517 16.8336 16.3851 16.8551 16.5142 16.7346C16.6003 16.6658 16.6692 16.6959 16.7208 16.825C16.7983 17.0143 16.9102 17.1176 17.0565 17.1348H17.0823C17.0995 17.1262 17.121 17.1133 17.1468 17.0961C17.1813 17.0789 17.2028 17.066 17.2114 17.0574C17.2286 17.0488 17.2544 17.0402 17.2889 17.0316C17.3319 17.023 17.362 17.0187 17.3792 17.0187C17.3964 17.0187 17.4223 17.0187 17.4567 17.0187C17.4911 17.01 17.5169 17.0057 17.5342 17.0057C17.5514 16.9885 17.5643 16.9713 17.5729 16.9541C17.5557 16.9541 17.5299 16.9541 17.4954 16.9541C17.461 16.9455 17.4352 16.9412 17.418 16.9412C17.3233 16.9498 17.2458 16.9498 17.1856 16.9412C17.1253 16.9326 17.0823 16.924 17.0565 16.9154C17.0307 16.8982 17.0177 16.8766 17.0177 16.8508C17.035 16.7647 17.1813 16.7217 17.4567 16.7217C17.5686 16.7217 17.7192 16.7303 17.9086 16.7475C18.2098 16.7734 18.4895 16.7647 18.7477 16.7217C19.4535 16.6098 20.1163 16.6098 20.736 16.7217C21.3643 16.825 21.7473 17.0057 21.885 17.264C21.928 17.3328 21.9409 17.406 21.9237 17.4834C22.9135 17.7072 23.6064 18.0386 24.0023 18.4775C23.9593 18.3829 23.9593 18.3269 24.0023 18.3097C24.0798 18.2753 24.1658 18.3269 24.2605 18.4646C24.3122 18.5335 24.3595 18.6239 24.4025 18.7357C24.4886 18.9165 24.5919 19.0628 24.7124 19.1747C24.8845 19.3382 25.0481 19.5577 25.203 19.8331C25.5473 20.0397 25.7323 20.328 25.7581 20.6981C25.7754 20.9822 25.8184 21.193 25.8872 21.3308ZM16.9661 19.704C17.0091 19.902 17.0522 20.0612 17.0952 20.1817C17.1899 20.0526 17.2415 19.8676 17.2501 19.6266C17.2501 19.6094 17.263 19.4846 17.2889 19.2522C17.2458 19.2263 17.2286 19.1833 17.2372 19.1231C17.177 19.1058 17.1296 19.1145 17.0952 19.1489C16.9489 19.2608 16.9059 19.4458 16.9661 19.704ZM17.1081 22.2345C17.2028 21.6234 17.3276 21.1672 17.4825 20.866C17.3792 20.8143 17.3061 20.8746 17.263 21.0467C17.1684 21.5115 17.1167 21.83 17.1081 22.0021V22.2345ZM17.8698 17.0832L17.9731 17.0057C17.8784 16.9713 17.7579 16.9541 17.6116 16.9541C17.6288 16.9885 17.6417 17.01 17.6504 17.0187H17.702C17.7192 17.0273 17.745 17.0402 17.7795 17.0574C17.8225 17.066 17.8526 17.0746 17.8698 17.0832ZM18.5024 21.8084C18.5197 21.8945 18.5326 21.9634 18.5412 22.015C18.5412 22.0064 18.5369 21.9849 18.5283 21.9505C18.5283 21.916 18.5283 21.8945 18.5283 21.8859C18.5283 21.8687 18.5197 21.8429 18.5024 21.8084ZM19.9355 19.1231V19.1489V19.1231C19.9699 19.1231 19.9915 19.1101 20.0001 19.0843V19.0585V19.0843C19.9656 19.0843 19.9441 19.0972 19.9355 19.1231ZM19.8322 19.3038L19.8193 19.2909V19.3038H19.8322ZM22.7371 27.5923C22.7371 27.5493 22.7371 27.4891 22.7371 27.4116C22.7457 27.3341 22.75 27.2739 22.75 27.2308C22.75 27.2136 22.7414 27.1706 22.7242 27.1017V27.1534V27.3083V27.3729V27.4245V27.4632V27.5407V27.5665C22.7242 27.5751 22.7285 27.5837 22.7371 27.5923ZM23.5375 21.434C23.5892 21.3135 23.5978 21.1887 23.5634 21.0596C23.5289 20.9133 23.5246 20.7584 23.5504 20.5949C23.516 20.5518 23.3998 20.4313 23.2019 20.2334C23.133 20.3711 23.0986 20.569 23.0986 20.8272C23.1072 20.8961 23.1158 20.9994 23.1244 21.1371C23.1416 21.2662 23.1502 21.3609 23.1502 21.4211C23.1502 21.5502 23.1459 21.6277 23.1373 21.6535C23.1201 21.7224 23.0728 21.7568 22.9953 21.7568C22.9437 21.7568 22.9006 21.7181 22.8662 21.6406C22.8576 21.6234 22.8533 21.5674 22.8533 21.4728C22.8533 21.3953 22.8576 21.2361 22.8662 20.9951C22.8748 20.7455 22.8748 20.5561 22.8662 20.427C22.8662 20.3926 22.8275 20.3065 22.75 20.1688C22.6811 20.0397 22.6295 19.9579 22.5951 19.9235C22.5348 19.8374 22.4832 19.7944 22.4401 19.7944C22.4143 19.7944 22.3842 19.8116 22.3498 19.846C22.3153 19.8805 22.2938 19.9106 22.2852 19.9364C22.268 20.0139 22.268 20.1387 22.2852 20.3108C22.2938 20.3453 22.3024 20.3926 22.311 20.4528C22.3283 20.5131 22.3369 20.5604 22.3369 20.5949C22.3369 20.6723 22.3283 20.724 22.311 20.7498C22.268 20.8186 22.2293 20.8531 22.1948 20.8531C22.169 20.8531 22.1217 20.8186 22.0528 20.7498C22.027 20.724 22.0227 20.6938 22.0399 20.6594C22.0743 20.5647 22.07 20.3323 22.027 19.9622C22.0012 19.7299 22.0184 19.5276 22.0787 19.3554C22.0614 19.3468 22.0313 19.3425 21.9883 19.3425C21.9452 19.3425 21.9151 19.3382 21.8979 19.3296C21.8807 19.5362 21.8721 19.6911 21.8721 19.7944C21.8721 20.0096 21.8592 20.1688 21.8334 20.2721C21.7817 20.4528 21.7258 20.4614 21.6655 20.2979C21.6655 20.2893 21.6612 20.2764 21.6526 20.2592C21.6182 20.2075 21.5924 20.1817 21.5751 20.1817C21.5407 20.1989 21.5235 20.2592 21.5235 20.3625C21.5235 20.4571 21.5192 20.5992 21.5106 20.7885C21.502 20.9693 21.4934 21.107 21.4848 21.2016C21.4848 21.3135 21.4633 21.3738 21.4202 21.3824C21.3858 21.391 21.3557 21.3394 21.3298 21.2275C21.3212 21.2016 21.3126 21.1672 21.304 21.1242C21.2954 21.0812 21.2911 21.0467 21.2911 21.0209C21.2825 20.952 21.2696 20.9047 21.2524 20.8789C21.2438 20.8531 21.218 20.8617 21.1749 20.9047C21.0888 21.0166 21.0372 20.9822 21.02 20.8014C21.0114 20.7326 21.0028 20.625 20.9942 20.4787C20.9856 20.3323 20.9813 20.2549 20.9813 20.2463C20.9813 20.0655 20.9511 19.9579 20.8909 19.9235C20.8134 19.8805 20.7575 19.945 20.7231 20.1172C20.6972 20.1688 20.6757 20.1946 20.6585 20.1946C20.6241 20.186 20.6069 20.1344 20.6069 20.0397C20.6069 19.9192 20.5896 19.8547 20.5552 19.846C20.5294 19.8374 20.5122 19.846 20.5036 19.8719C20.495 19.8891 20.4778 19.9278 20.4519 19.9881C20.3314 20.2807 20.3099 20.6422 20.3874 21.0725C20.4304 21.391 20.4519 21.5717 20.4519 21.6148C20.4519 21.7783 20.4175 21.8816 20.3486 21.9246H20.2841C20.1894 21.83 20.1593 21.6105 20.1937 21.2662C20.2454 20.8789 20.2368 20.5217 20.1679 20.1946C20.1593 20.1688 20.1077 19.9708 20.013 19.6007C19.9699 19.463 19.8882 19.4028 19.7677 19.42L19.7419 19.4458C19.6988 19.4889 19.673 19.5233 19.6644 19.5491V19.6007V19.6137L19.6515 19.6266V19.704V19.859V20.0139V20.0784V20.1301V20.1688V20.2463V20.2721C19.6515 20.2807 19.6558 20.2893 19.6644 20.2979V20.3108C19.6644 20.3797 19.673 20.4313 19.6902 20.4658C19.6902 20.5432 19.673 20.5906 19.6386 20.6078C19.63 20.6164 19.6084 20.6207 19.574 20.6207C19.5654 20.6121 19.5525 20.6035 19.5353 20.5949C19.5267 20.5862 19.5181 20.5819 19.5095 20.5819C19.5095 20.5733 19.5052 20.5647 19.4966 20.5561C19.4966 20.5389 19.4966 20.526 19.4966 20.5174V20.4916C19.4966 20.483 19.4966 20.4744 19.4966 20.4658C19.5052 20.4571 19.5095 20.4485 19.5095 20.4399C19.5267 20.3969 19.5353 20.3108 19.5353 20.1817C19.5353 20.1731 19.5353 20.1645 19.5353 20.1559C19.5439 20.1473 19.5482 20.1387 19.5482 20.1301V20.0784V20.0655C19.5396 20.0655 19.5267 20.0612 19.5095 20.0526C19.4836 20.044 19.4621 20.0569 19.4449 20.0913C19.4363 20.1258 19.4277 20.1688 19.4191 20.2205C19.4019 20.2893 19.3933 20.384 19.3933 20.5045C19.4879 20.625 19.5611 20.7627 19.6127 20.9176C19.6127 20.9262 19.6127 20.9391 19.6127 20.9563C19.6214 20.965 19.6257 20.9736 19.6257 20.9822C19.6257 20.9908 19.6257 20.9994 19.6257 21.008C19.6343 21.0166 19.6386 21.0252 19.6386 21.0338V21.1242V21.2791C19.63 21.2877 19.6257 21.2963 19.6257 21.3049C19.6257 21.3135 19.63 21.3178 19.6386 21.3178C19.5697 21.49 19.5095 21.6148 19.4578 21.6922C19.4148 21.7525 19.3502 21.7783 19.2642 21.7697C19.1523 21.7525 19.0791 21.7869 19.0447 21.873V22.9058C19.0447 22.9575 19.0533 23.0306 19.0705 23.1253C19.0877 23.22 19.0963 23.2845 19.0963 23.319C19.0963 23.3878 19.0877 23.4825 19.0705 23.603C19.0533 23.6116 19.0318 23.6202 19.006 23.6288C18.9801 23.5514 18.9672 23.461 18.9672 23.3577C18.9672 23.1942 18.9672 22.9532 18.9672 22.6347C18.9758 22.3163 18.9801 22.0796 18.9801 21.9246C18.9371 21.9419 18.8984 21.9375 18.8639 21.9117C18.8209 21.8343 18.7908 21.7869 18.7736 21.7697C18.765 21.7525 18.7391 21.7525 18.6961 21.7697C18.6789 21.9591 18.6703 22.0968 18.6703 22.1828V22.9575C18.7133 23.362 18.7391 23.7924 18.7477 24.2485C18.765 25.3158 18.7994 26.0947 18.851 26.5853C18.8596 26.6284 18.8338 26.7575 18.7736 26.9726C19.2125 26.9296 19.6386 26.8349 20.0517 26.6886C20.0689 26.6456 20.0904 26.6154 20.1163 26.5982C20.1335 26.581 20.2195 26.5294 20.3745 26.4433C20.495 26.3831 20.5638 26.2755 20.581 26.1205C20.5983 26.0345 20.6155 25.9613 20.6327 25.9011C20.6757 25.7634 20.7876 25.6859 20.9684 25.6687C21.0975 25.6515 21.2007 25.5955 21.2782 25.5008C21.3298 25.4234 21.3944 25.4062 21.4719 25.4492C21.5063 25.475 21.545 25.4879 21.5881 25.4879C21.6311 25.4105 21.687 25.3459 21.7559 25.2943L21.7688 25.2814H21.7817C21.7989 25.2728 21.8204 25.2598 21.8463 25.2426C21.8807 25.2254 21.9065 25.2125 21.9237 25.2039C21.9065 25.1867 21.8979 25.1695 21.8979 25.1523C21.8979 25.1437 21.9065 25.1307 21.9237 25.1135C21.9409 25.0963 21.9539 25.0877 21.9625 25.0877C21.9711 25.0877 21.9797 25.092 21.9883 25.1006C21.9969 25.1092 22.0055 25.1178 22.0141 25.1264C22.0313 25.135 22.0442 25.1437 22.0528 25.1523C22.0614 25.1523 22.0657 25.1523 22.0657 25.1523L22.0916 25.1393L22.1045 25.1264C22.1131 25.1264 22.1217 25.1264 22.1303 25.1264C22.1389 25.1437 22.1518 25.1437 22.169 25.1264C22.1776 25.1264 22.1905 25.1264 22.2078 25.1264C22.225 25.1178 22.2379 25.1135 22.2465 25.1135C22.2551 25.1135 22.2637 25.1178 22.2723 25.1264C22.2895 25.1264 22.3024 25.1264 22.311 25.1264C22.3196 25.1264 22.3326 25.1307 22.3498 25.1393C22.367 25.1393 22.3799 25.1393 22.3885 25.1393C22.3885 25.1307 22.3842 25.1178 22.3756 25.1006C22.3412 25.1178 22.3196 25.1264 22.311 25.1264C22.2852 25.1178 22.2422 25.0748 22.1819 24.9973C22.1905 24.9887 22.2078 24.9715 22.2336 24.9457C22.2594 24.9199 22.2766 24.9027 22.2852 24.894C22.1217 24.4723 22.2121 24.1711 22.5563 23.9903C22.8576 23.8268 23.0642 23.745 23.176 23.745C23.1674 23.5126 23.2019 23.2544 23.2793 22.9704C23.2793 22.9532 23.2879 22.9317 23.3051 22.9058C23.3224 22.8714 23.331 22.8456 23.331 22.8284C23.2965 22.7595 23.275 22.7079 23.2664 22.6734C23.1717 22.3636 23.2492 22.0623 23.4988 21.7697C23.473 21.7267 23.4644 21.6793 23.473 21.6277C23.4816 21.5847 23.5031 21.5201 23.5375 21.434ZM24.3122 21.3566C24.3122 21.348 24.3208 21.3351 24.338 21.3178C24.3552 21.3006 24.3638 21.2877 24.3638 21.2791C24.3466 21.2619 24.3122 21.2404 24.2605 21.2146C24.2089 21.1887 24.1745 21.1715 24.1572 21.1629C24.1486 21.1715 24.1314 21.1844 24.1056 21.2016C24.0281 21.2705 23.9464 21.3394 23.8603 21.4082C23.8259 21.434 23.8001 21.4685 23.7828 21.5115L23.9378 21.434C24.0497 21.3824 24.1745 21.3566 24.3122 21.3566ZM19.8193 25.6816C19.8882 25.6816 19.9484 25.7074 20.0001 25.7591C20.0603 25.8021 20.0904 25.8537 20.0904 25.914C20.0904 26.0345 20.0302 26.0947 19.9097 26.0947C19.8408 26.0947 19.7763 26.0689 19.716 26.0173C19.6558 25.957 19.63 25.8968 19.6386 25.8365C19.6386 25.7332 19.6988 25.6816 19.8193 25.6816ZM19.7419 26.5079C19.7505 26.4993 19.7591 26.4906 19.7677 26.482C19.7763 26.4648 19.7892 26.4476 19.8064 26.4304C19.8322 26.4132 19.8494 26.4003 19.858 26.3917C19.8753 26.4089 19.8968 26.4347 19.9226 26.4691C19.9484 26.5036 19.9699 26.5294 19.9872 26.5466C19.9785 26.5552 19.9656 26.5681 19.9484 26.5853C19.9312 26.6025 19.9183 26.6154 19.9097 26.6241C19.9011 26.6241 19.8925 26.6241 19.8839 26.6241C19.8494 26.6068 19.8021 26.5681 19.7419 26.5079ZM20.3745 25.6299C20.4003 25.6041 20.4261 25.574 20.4519 25.5396C20.4605 25.5482 20.4691 25.5611 20.4778 25.5783C20.495 25.5955 20.5079 25.6127 20.5165 25.6299C20.5337 25.6386 20.5423 25.6472 20.5423 25.6558L20.4907 25.7203C20.4218 25.6773 20.3831 25.6472 20.3745 25.6299ZM26.9459 26.5982C26.9459 26.5896 26.9545 26.5638 26.9717 26.5208C26.9975 26.4691 27.0191 26.4218 27.0363 26.3788C27.0449 26.4132 27.0578 26.4648 27.075 26.5337C27.1008 26.5939 27.118 26.6413 27.1267 26.6757C27.118 26.6843 27.1094 26.7015 27.1008 26.7273C27.075 26.7962 27.0578 26.8263 27.0492 26.8177C27.0406 26.8091 27.0277 26.7919 27.0105 26.7661C27.0019 26.7402 26.9889 26.7101 26.9717 26.6757C26.9631 26.6413 26.9545 26.6154 26.9459 26.5982ZM29.6958 25.8494C29.6958 25.8236 29.6958 25.8021 29.6958 25.7849C29.6958 25.7677 29.7217 25.6988 29.7733 25.5783C29.7733 25.5955 29.7819 25.6256 29.7991 25.6687C29.8163 25.7117 29.8249 25.7418 29.8249 25.7591C29.8249 25.7677 29.7991 25.8666 29.7475 26.056C29.7389 26.0216 29.7303 25.9828 29.7217 25.9398C29.7131 25.8968 29.7044 25.8666 29.6958 25.8494ZM31.839 34.564V34.5769C31.839 34.6888 31.8089 34.7448 31.7486 34.7448C31.6711 34.7448 31.641 34.6888 31.6582 34.5769C31.6668 34.5511 31.6754 34.5081 31.6841 34.4478C31.7013 34.3962 31.7142 34.3488 31.7228 34.3058C31.7314 34.2628 31.7357 34.224 31.7357 34.1896C31.7443 34.1896 31.7443 34.1509 31.7357 34.0734C31.7357 34.0045 31.7357 33.9658 31.7357 33.9572C31.7443 34.0089 31.7572 34.1035 31.7744 34.2412C31.8002 34.379 31.8218 34.4865 31.839 34.564ZM31.0644 34.2929C31.0644 34.3015 31.0644 34.3144 31.0644 34.3316C31.073 34.3574 31.0773 34.3747 31.0773 34.3833C31.0773 34.4091 31.0859 34.4478 31.1031 34.4995C31.1203 34.5511 31.1289 34.5941 31.1289 34.6286C31.1289 34.6802 31.116 34.7275 31.0902 34.7706C31.0902 34.7878 31.0644 34.7921 31.0127 34.7835C30.9783 34.7232 30.9654 34.6759 30.974 34.6415C30.9826 34.607 30.9955 34.5511 31.0127 34.4736C31.0385 34.3962 31.0557 34.3359 31.0644 34.2929ZM30.5479 25.9398C30.7115 26.198 30.7631 26.6972 30.7029 27.4374C30.677 27.8247 30.6297 28.0141 30.5608 28.0055C30.5092 28.0055 30.4662 27.8462 30.4317 27.5278C30.4403 27.4245 30.436 27.2739 30.4188 27.0759C30.4016 26.878 30.3973 26.6843 30.4059 26.4949C30.4145 26.3056 30.4619 26.1205 30.5479 25.9398ZM30.4317 28.2766C30.5006 28.1905 30.5694 28.2336 30.6383 28.4057C30.7244 28.6295 30.7072 28.7801 30.5867 28.8576C30.535 28.8834 30.4748 28.892 30.4059 28.8834C30.3543 28.8317 30.3285 28.7801 30.3285 28.7285C30.2768 28.7801 30.2166 28.8059 30.1477 28.8059C29.9928 28.7887 29.9153 28.7069 29.9153 28.5606C29.9153 28.4229 29.9928 28.3541 30.1477 28.3541C30.2682 28.3541 30.3457 28.4143 30.3801 28.5348C30.4317 28.4315 30.449 28.3455 30.4317 28.2766ZM39.0947 21.8601C39.0516 21.9031 39.0387 21.9419 39.0559 21.9763C39.0215 22.0796 39 22.1915 38.9914 22.312C38.9914 22.4238 38.9914 22.5573 38.9914 22.7122C39 22.8585 39.0043 22.9704 39.0043 23.0478V24.1452C39.0043 24.3432 38.9957 24.4723 38.9785 24.5326C38.8924 24.5584 38.8537 24.5239 38.8623 24.4293C38.8623 24.4207 38.8623 24.4121 38.8623 24.4035C38.8623 23.8526 38.858 23.4395 38.8494 23.164C38.8494 22.8456 38.8279 22.6132 38.7848 22.4669V22.3507C38.8279 22.1613 38.8537 22.0623 38.8623 22.0537C38.8881 22.0107 38.8924 21.9763 38.8752 21.9505C38.858 21.9246 38.8408 21.9074 38.8236 21.8988C38.8149 21.8902 38.7934 21.8859 38.759 21.8859C38.7246 21.8773 38.7031 21.873 38.6944 21.873H38.6299C38.6299 21.9419 38.6299 22.0365 38.6299 22.157C38.6385 22.2775 38.6428 22.3722 38.6428 22.4411C38.6428 22.6304 38.6342 22.7552 38.617 22.8155C38.5998 22.8241 38.5783 22.8284 38.5524 22.8284C38.5352 22.8284 38.5266 22.8198 38.5266 22.8025C38.4836 22.7681 38.4707 22.7036 38.4879 22.6089C38.4879 22.6003 38.4879 22.5917 38.4879 22.5831C38.4965 22.5659 38.5008 22.5529 38.5008 22.5443V22.454C38.5008 22.4109 38.4793 22.3679 38.4362 22.3249C38.4362 22.2216 38.4233 22.1441 38.3975 22.0925V21.9375C38.4061 21.8515 38.3545 21.7912 38.2426 21.7568C38.2254 21.7568 38.2082 21.7611 38.1909 21.7697C38.1823 21.7783 38.1694 21.7955 38.1522 21.8214C38.1436 21.8386 38.135 21.8515 38.1264 21.8601C38.1178 21.8773 38.1049 21.8902 38.0877 21.8988C38.0704 21.9074 38.0489 21.9117 38.0231 21.9117C37.9973 21.9117 37.9801 21.9117 37.9715 21.9117C37.9456 21.9031 37.9327 21.9117 37.9327 21.9375H37.8553C37.8122 21.8601 37.7735 21.8214 37.7391 21.8214C37.7391 21.7869 37.7262 21.7654 37.7003 21.7568C37.6831 21.6449 37.5841 21.5847 37.4034 21.5761C37.2313 21.5588 37.1108 21.4728 37.0419 21.3178C37.0247 21.2748 36.9386 21.1371 36.7837 20.9047C36.6374 20.6637 36.5599 20.4528 36.5513 20.2721C36.5427 20.2118 36.5513 20.1731 36.5771 20.1559C36.5857 20.1559 36.5943 20.1516 36.6029 20.143C36.6116 20.1344 36.6202 20.1215 36.6288 20.1043C36.646 20.0784 36.6632 20.0526 36.6804 20.0268C36.7062 19.9665 36.7234 19.9063 36.7321 19.846C36.7407 19.7858 36.7493 19.7428 36.7579 19.7169C36.7234 19.6825 36.6976 19.6481 36.6804 19.6137C36.6718 19.5964 36.6589 19.5706 36.6417 19.5362C36.6331 19.5018 36.6245 19.4759 36.6159 19.4587C36.5384 19.6051 36.4954 19.7471 36.4868 19.8848C36.4868 19.9536 36.4868 20.0311 36.4868 20.1172C36.4954 20.1946 36.504 20.285 36.5126 20.3883C36.5212 20.483 36.5255 20.5561 36.5255 20.6078C36.5255 20.6164 36.5298 20.6336 36.5384 20.6594C36.547 20.6766 36.547 20.6895 36.5384 20.6981C36.5298 20.7154 36.5169 20.7412 36.4997 20.7756C36.4825 20.81 36.4695 20.8315 36.4609 20.8402C36.4609 20.8315 36.448 20.81 36.4222 20.7756C36.3964 20.7412 36.3835 20.7154 36.3835 20.6981C36.3835 20.6379 36.3878 20.5518 36.3964 20.4399C36.4136 20.3194 36.4222 20.2291 36.4222 20.1688C36.4222 20.0569 36.4007 19.9364 36.3577 19.8073C36.3404 19.7729 36.3146 19.7385 36.2802 19.704C36.2458 19.6696 36.2199 19.6567 36.2027 19.6653C36.1253 19.6825 36.0693 19.7342 36.0349 19.8202C36.0005 19.8977 35.9832 20.001 35.9832 20.1301V20.6981C35.9919 20.7584 35.9962 21.0768 35.9962 21.6535C36.0048 22.2216 36.0177 22.7767 36.0349 23.319C36.0607 23.8612 36.0951 24.184 36.1382 24.2873C36.1726 24.3819 36.1511 24.4594 36.0736 24.5196C36.0048 24.5713 35.9273 24.567 35.8412 24.5067C35.781 24.4637 35.7595 24.3948 35.7767 24.3002C35.8627 24.0075 35.9058 22.6218 35.9058 20.143C35.9058 20.1258 35.9015 20.0913 35.8929 20.0397C35.8929 19.9881 35.8929 19.9493 35.8929 19.9235C35.8929 19.8805 35.8843 19.8073 35.8671 19.704C35.8671 19.7212 35.8627 19.7514 35.8541 19.7944C35.8541 19.8374 35.8541 19.8719 35.8541 19.8977C35.8541 20.044 35.8068 20.1172 35.7121 20.1172C35.6347 20.1172 35.5873 20.0483 35.5701 19.9106C35.5701 19.8676 35.5615 19.7987 35.5443 19.704C35.5357 19.6007 35.5271 19.5233 35.5185 19.4716C35.4496 19.5233 35.4152 19.6051 35.4152 19.7169C35.4152 19.803 35.4367 20.0397 35.4797 20.427C35.4797 20.4442 35.484 20.4658 35.4926 20.4916C35.5099 20.5174 35.5185 20.5389 35.5185 20.5561C35.5185 20.6078 35.5056 20.6508 35.4797 20.6852C35.4711 20.6938 35.4539 20.7024 35.4281 20.7111C35.4023 20.7111 35.3851 20.7067 35.3765 20.6981C35.3334 20.6379 35.3119 20.5949 35.3119 20.569C35.3119 20.5432 35.3162 20.5088 35.3248 20.4658C35.342 20.4227 35.3506 20.3926 35.3506 20.3754C35.3506 20.2291 35.342 20.1215 35.3248 20.0526C35.3162 20.0096 35.2775 19.9795 35.2086 19.9622C35.1656 19.9622 35.1269 19.9881 35.0924 20.0397C35.0494 20.1086 35.0279 20.1731 35.0279 20.2334C35.0107 20.4141 35.0064 20.7799 35.015 21.3308C35.0322 21.8816 35.0709 22.2474 35.1312 22.4281C35.157 22.497 35.1484 22.5659 35.1053 22.6347C35.0967 22.6433 35.0666 22.6476 35.015 22.6476C34.9719 22.6476 34.9461 22.6433 34.9375 22.6347C34.8945 22.5917 34.8729 22.5228 34.8729 22.4281C34.9332 21.5847 34.9633 20.909 34.9633 20.4012C34.9633 20.3237 34.9289 19.9752 34.86 19.3554C34.8342 19.2694 34.817 19.2134 34.8084 19.1876C34.7654 19.1876 34.7266 19.1618 34.6922 19.1101H34.6793C34.619 19.1015 34.5717 19.1188 34.5373 19.1618C34.5115 19.2048 34.4899 19.2651 34.4727 19.3425C34.4125 19.6352 34.4297 19.945 34.5244 20.2721C34.5416 20.3582 34.5373 20.4313 34.5115 20.4916C34.5115 20.5002 34.4985 20.5045 34.4727 20.5045C34.4555 20.5045 34.434 20.5045 34.4082 20.5045C34.3823 20.5045 34.3651 20.5002 34.3565 20.4916C34.2877 20.4485 34.2662 20.3754 34.292 20.2721C34.4039 19.7987 34.434 19.4071 34.3823 19.0972C34.3479 18.9165 34.2662 18.8089 34.137 18.7745C34.0854 18.8433 34.051 18.8993 34.0338 18.9423C33.9305 19.1747 33.8874 19.377 33.9047 19.5491C33.9305 19.7126 33.8961 19.7944 33.8014 19.7944C33.7325 19.7944 33.6981 19.7212 33.6981 19.5749C33.6981 19.5577 33.6938 19.5362 33.6852 19.5104C33.6852 19.4846 33.6852 19.4673 33.6852 19.4587C33.6852 19.3554 33.6508 19.2952 33.5819 19.278C33.513 19.2608 33.4528 19.2952 33.4011 19.3813C33.272 19.5878 33.1817 19.5835 33.13 19.3684C33.1042 19.2651 33.0483 19.2177 32.9622 19.2263C32.8761 19.235 32.8116 19.2866 32.7685 19.3813C32.7341 19.4846 32.7341 19.6352 32.7685 19.8331C32.7857 19.945 32.7599 20.001 32.6911 20.001C32.5878 20.001 32.5361 19.9536 32.5361 19.859C32.5361 19.8331 32.5404 19.7901 32.5491 19.7299C32.5663 19.661 32.5706 19.6094 32.562 19.5749C32.562 19.5577 32.5577 19.5104 32.5491 19.4329C32.5491 19.3554 32.5448 19.2995 32.5361 19.2651C32.5275 19.2306 32.4974 19.1962 32.4458 19.1618C32.4027 19.1274 32.3425 19.1101 32.265 19.1101C32.2564 19.1101 32.2478 19.1101 32.2392 19.1101L32.2134 19.0972C32.1273 19.2694 32.0326 19.4243 31.9294 19.562L31.8519 19.6782C31.8949 19.7126 31.8992 19.76 31.8648 19.8202C31.7787 20.001 31.8175 20.1645 31.981 20.3108C32.1015 20.4313 32.0929 20.5346 31.9552 20.6207C31.8089 20.7154 31.74 20.8574 31.7486 21.0467C31.7572 21.1672 31.74 21.3308 31.697 21.5373L31.6582 21.4211C31.6496 21.3953 31.6324 21.3609 31.6066 21.3178C31.5808 21.2662 31.5593 21.2275 31.542 21.2016C31.5248 21.2103 31.499 21.2275 31.4646 21.2533C31.4301 21.2705 31.4 21.2877 31.3742 21.3049C31.3484 21.3221 31.3355 21.3394 31.3355 21.3566V21.8859V22.0279L31.2451 22.0408C31.2365 22.0322 31.2236 21.9892 31.2064 21.9117C31.1892 21.8343 31.1676 21.7181 31.1418 21.5631C31.1246 21.4082 31.1117 21.292 31.1031 21.2146C31.1031 21.1801 31.0859 21.1457 31.0514 21.1113C30.9395 21.0252 30.8664 20.9822 30.832 20.9822C30.7975 20.9822 30.7588 20.9994 30.7158 21.0338C30.6813 21.0682 30.6555 21.107 30.6383 21.15C30.5264 21.4254 30.5006 21.7568 30.5608 22.1441C30.5694 22.1871 30.5867 22.2474 30.6125 22.3249C30.6383 22.3937 30.6512 22.4454 30.6512 22.4798C30.6684 22.5745 30.6598 22.6519 30.6254 22.7122C30.6168 22.7294 30.5867 22.7423 30.535 22.7509C30.4834 22.7595 30.4533 22.7552 30.4446 22.738C30.393 22.6864 30.3672 22.6089 30.3672 22.5056C30.3672 22.3507 30.3758 22.1097 30.393 21.7826C30.3414 21.9462 30.2768 22.114 30.1993 22.2861C30.01 22.6907 29.8852 23.0091 29.8249 23.2415C29.8163 23.2673 29.7518 23.319 29.6313 23.3964C29.6313 23.5772 29.6184 23.7149 29.5926 23.8096C29.6098 23.8354 29.6184 23.8784 29.6184 23.9387C29.6184 23.9903 29.6356 24.0506 29.67 24.1194C29.6872 24.1538 29.7044 24.184 29.7217 24.2098C29.7389 24.2356 29.7518 24.2528 29.7604 24.2614C29.769 24.2614 29.7776 24.2657 29.7862 24.2743C29.7948 24.283 29.7991 24.2959 29.7991 24.3131C29.7991 24.3217 29.7991 24.3432 29.7991 24.3776C29.7819 24.5067 29.7604 24.6014 29.7346 24.6617C29.7346 24.6703 29.7346 24.6832 29.7346 24.7004C29.7432 24.7176 29.7518 24.7305 29.7604 24.7391C29.7604 25.0404 29.7174 25.191 29.6313 25.191C29.5883 25.191 29.5581 25.135 29.5409 25.0232L29.386 25.2555C29.5581 25.3244 29.6227 25.5654 29.5796 25.9785C29.571 26.0474 29.5581 26.1464 29.5409 26.2755C29.5237 26.396 29.5108 26.4863 29.5022 26.5466C30.0358 26.9511 30.1907 27.2653 29.967 27.4891C29.8895 27.5063 29.8723 27.5321 29.9153 27.5665C29.9411 27.5837 29.9756 27.588 30.0186 27.5794C30.0014 27.6311 29.9756 27.6741 29.9411 27.7085C29.9067 27.7344 29.8766 27.7516 29.8508 27.7602C29.8249 27.7602 29.8077 27.7688 29.7991 27.786C29.7905 27.7946 29.7991 27.8118 29.8249 27.8376C29.8508 27.8549 29.9024 27.8893 29.9799 27.9409C29.954 27.9926 29.9196 28.0055 29.8766 27.9797C29.8336 27.9538 29.7948 27.9452 29.7604 27.9538C29.726 27.9538 29.7174 27.9926 29.7346 28.07C29.8379 28.1131 29.8249 28.225 29.6958 28.4057C29.5753 28.5778 29.5624 28.7026 29.6571 28.7801C29.5883 28.7801 29.5022 28.7973 29.3989 28.8317C29.3989 28.8576 29.3989 28.9049 29.3989 28.9738C29.4075 29.0426 29.4118 29.09 29.4118 29.1158C29.4721 29.2018 29.5366 29.275 29.6055 29.3353C29.6571 29.1975 29.7561 29.1459 29.9024 29.1803C29.9454 29.2664 29.967 29.374 29.967 29.5031C29.9756 29.5117 29.9885 29.516 30.0057 29.516C30.0229 29.516 30.0358 29.5203 30.0444 29.5289C30.1391 29.5806 30.1907 29.658 30.1993 29.7613C30.2166 29.856 30.1821 29.9334 30.0961 29.9937C30.0186 30.0539 29.9713 30.1099 29.954 30.1615C29.954 30.1873 29.9627 30.2347 29.9799 30.3035C29.9885 30.4757 29.9842 30.6349 29.967 30.7812C30.208 30.9017 30.4403 31.061 30.6641 31.2589C31.0342 31.5946 31.3053 31.8098 31.4775 31.9044C31.4947 31.9217 31.5291 32.0249 31.5808 32.2143C31.8304 32.1627 32.0843 32.1411 32.3425 32.1497C33.3667 32.2014 34.2705 32.1239 35.0537 31.9174C35.2517 31.8141 35.4496 31.7366 35.6476 31.685C35.7939 31.3837 35.8541 31.2331 35.8283 31.2331C35.7164 31.2417 35.5959 31.3063 35.4668 31.4268C35.3119 31.5559 35.2172 31.5946 35.1828 31.5429C35.1398 31.4741 35.1957 31.3751 35.3506 31.246C35.4453 31.1685 35.5357 31.104 35.6218 31.0524C35.7939 30.9491 35.9445 30.82 36.0736 30.665C36.4179 30.2519 36.8009 29.9507 37.2227 29.7613C37.1796 29.5375 37.2227 29.318 37.3518 29.1029C37.4809 28.8791 37.6616 28.7199 37.894 28.6252C38.2469 28.4789 38.5869 28.5133 38.9139 28.7285C39.241 28.9436 39.4002 29.2449 39.3916 29.6322C39.3916 29.7183 39.3787 29.8 39.3529 29.8775C39.284 30.1013 39.2754 30.3122 39.3271 30.5101C39.3357 30.5445 39.34 30.5962 39.34 30.665C39.34 30.7769 39.2926 30.8329 39.198 30.8329C39.1033 30.8329 39.0559 30.7769 39.0559 30.665C39.0559 30.6392 39.0559 30.6048 39.0559 30.5618C39.0645 30.5187 39.0689 30.4843 39.0689 30.4585C39.0689 30.3035 39.0645 30.2132 39.0559 30.1873C39.0387 30.1013 38.9914 30.0496 38.9139 30.0324C38.8451 30.0152 38.7848 30.041 38.7332 30.1099C38.6557 30.2132 38.5955 30.3337 38.5524 30.4714C38.475 30.721 38.4707 31.0653 38.5395 31.5042C38.5567 31.6075 38.5653 31.6807 38.5653 31.7237C38.5826 31.8614 38.5352 31.9389 38.4233 31.9561C38.3803 31.9647 38.3416 31.9475 38.3071 31.9044C38.2727 31.8614 38.2555 31.8055 38.2555 31.7366C38.2555 31.685 38.2555 31.6161 38.2555 31.53C38.2641 31.444 38.2684 31.388 38.2684 31.3622V30.8845C38.2684 30.8759 38.2641 30.8673 38.2555 30.8587C38.2555 30.8501 38.2555 30.8415 38.2555 30.8329C38.1006 31.0997 37.9241 31.3364 37.7262 31.5429C37.5712 31.6979 37.4077 31.8829 37.2356 32.0981C37.1839 32.3563 36.9214 32.6231 36.448 32.8986L36.4868 32.9373C36.3232 33.2557 36.1554 33.5096 35.9832 33.699C35.8369 33.8539 35.7896 34.1121 35.8412 34.4736C35.8498 34.4995 35.8671 34.564 35.8929 34.6673C35.9187 34.7792 35.9316 34.8652 35.9316 34.9255C35.9316 35.0374 35.8929 35.0976 35.8154 35.1062C35.7638 35.1149 35.725 35.0976 35.6992 35.0546C35.6734 35.0202 35.6605 34.9771 35.6605 34.9255C35.6605 34.9169 35.6734 34.7318 35.6992 34.3703C35.6992 34.3531 35.7035 34.323 35.7121 34.28C35.7207 34.2369 35.725 34.2025 35.725 34.1767C35.7423 34.0562 35.6992 33.9787 35.5959 33.9443C35.5185 33.9099 35.441 33.94 35.3635 34.0347C35.3033 34.1121 35.256 34.1466 35.2215 34.138C35.1785 34.1207 35.1484 34.0648 35.1312 33.9701C35.1312 33.9271 35.1225 33.8668 35.1053 33.7894C35.0967 33.7033 35.0881 33.6431 35.0795 33.6086C35.0795 33.5914 35.0666 33.557 35.0408 33.5053H34.9891C34.9461 33.5484 34.9117 33.5785 34.8859 33.5957C34.7826 33.6818 34.7094 33.7119 34.6664 33.6861C34.5545 33.8324 34.4985 34.0132 34.4985 34.2283C34.4985 34.6415 34.4899 34.8782 34.4727 34.9384C34.4641 34.9556 34.4512 34.9728 34.434 34.9901C34.4254 35.0073 34.4211 35.0245 34.4211 35.0417C34.4125 35.0417 34.3996 35.0417 34.3823 35.0417C34.3737 35.0417 34.3694 35.0374 34.3694 35.0288C34.3608 35.0116 34.3522 34.9857 34.3436 34.9513C34.3436 34.9169 34.335 34.8911 34.3178 34.8739C34.3092 34.8566 34.2877 34.848 34.2532 34.848C34.2102 34.848 34.1672 34.9083 34.1241 35.0288C34.0381 35.2698 34.0381 35.5108 34.1241 35.7518C34.1413 35.7776 34.1586 35.8335 34.1758 35.9196C34.2102 36.0917 34.1672 36.1821 34.0467 36.1907C34.0122 36.1993 33.9864 36.1993 33.9692 36.1907C33.952 36.1821 33.9391 36.1649 33.9305 36.1391C33.9219 36.1219 33.9176 36.1047 33.9176 36.0874C33.9176 36.0702 33.9176 36.0444 33.9176 36.01C33.9176 35.9842 33.9176 35.9669 33.9176 35.9583C33.952 35.1837 33.9047 34.5855 33.7756 34.1638C33.7669 34.1552 33.7626 34.1423 33.7626 34.125C33.7626 34.1164 33.7626 34.1078 33.7626 34.0992C33.754 34.082 33.7454 34.0605 33.7368 34.0347C33.7282 34.0089 33.7196 33.9873 33.711 33.9701C33.711 33.9443 33.7024 33.9271 33.6852 33.9185C33.668 33.9013 33.6464 33.897 33.6206 33.9056C33.569 33.9228 33.5432 34.0002 33.5432 34.138C33.5432 34.2585 33.5346 34.3316 33.5173 34.3574C33.4571 34.3316 33.427 34.2585 33.427 34.138V33.7506C33.4098 33.7506 33.3882 33.7463 33.3624 33.7377C33.3366 33.7291 33.3194 33.7248 33.3108 33.7248C33.3022 33.7248 33.2979 33.7248 33.2979 33.7248C33.2979 33.7162 33.2936 33.7119 33.285 33.7119L33.1688 33.7506C33.1343 33.7679 33.0526 33.798 32.9235 33.841C32.7857 33.8754 32.7169 33.8711 32.7169 33.8281C32.7169 33.7937 32.7513 33.7506 32.8202 33.699L32.8073 33.6861C32.8073 33.6775 32.8073 33.6689 32.8073 33.6603L32.7944 33.6474C32.7857 33.6474 32.7771 33.6474 32.7685 33.6474H32.42C32.463 33.6818 32.5275 33.742 32.6136 33.8281C32.6308 33.8453 32.6609 33.8754 32.704 33.9185C32.7556 33.9615 32.7944 33.9959 32.8202 34.0218C32.9321 34.1509 32.9579 34.2283 32.8976 34.2542C32.8288 34.2714 32.7513 34.2498 32.6653 34.1896C32.6566 34.181 32.5491 34.125 32.3425 34.0218V34.5511V34.6544C32.3511 34.7146 32.3511 34.7448 32.3425 34.7448C32.3425 34.7964 32.3167 34.8222 32.265 34.8222C32.2478 34.8222 32.2306 34.7921 32.2134 34.7318C32.2134 34.7232 32.2091 34.7103 32.2005 34.6931C32.2005 34.6759 32.2005 34.663 32.2005 34.6544C32.1919 34.6372 32.1876 34.607 32.1876 34.564C32.1876 34.521 32.1833 34.4908 32.1747 34.4736C32.166 34.4564 32.1445 34.4478 32.1101 34.4478C32.0412 34.4564 32.0068 34.5382 32.0068 34.6931C32.0068 34.7964 32.0154 34.9513 32.0326 35.1579C32.0326 35.2784 31.9982 35.3386 31.9294 35.3386C31.8605 35.3472 31.8304 35.3042 31.839 35.2095C31.839 35.1923 31.839 35.1794 31.839 35.1708V34.9255C31.8648 34.8652 31.8734 34.8136 31.8648 34.7706C31.8906 34.5898 31.8949 34.3144 31.8777 33.9443C31.8777 33.8754 31.8734 33.8238 31.8648 33.7894C31.8476 33.7894 31.8261 33.7851 31.8002 33.7765C31.783 33.7593 31.7701 33.7463 31.7615 33.7377C31.7615 33.7463 31.7529 33.7593 31.7357 33.7765V33.7248C31.7185 33.7162 31.6884 33.7033 31.6453 33.6861C31.6023 33.6689 31.5722 33.656 31.5549 33.6474C31.5463 33.699 31.5636 33.8324 31.6066 34.0476C31.6066 34.0734 31.6023 34.1078 31.5937 34.1509C31.5937 34.1939 31.5937 34.224 31.5937 34.2412L31.5549 34.28C31.5463 34.2714 31.5334 34.2542 31.5162 34.2283C31.5076 34.2111 31.499 34.1982 31.4904 34.1896L31.4517 34.0347C31.4689 34.0089 31.4689 33.9658 31.4517 33.9056C31.4517 33.8884 31.4517 33.8711 31.4517 33.8539C31.4603 33.8367 31.4646 33.8195 31.4646 33.8023V33.7636C31.4388 33.841 31.4258 33.9142 31.4258 33.983V35.6485C31.4258 35.7001 31.4345 35.769 31.4517 35.8551C31.4689 35.9497 31.4517 36.01 31.4 36.0358C31.3484 36.0702 31.301 36.0745 31.258 36.0487C31.215 36.0229 31.2021 35.9583 31.2193 35.8551C31.3226 35.4161 31.3699 34.9814 31.3613 34.5511C31.3613 34.4995 31.357 34.4177 31.3484 34.3058C31.3398 34.2025 31.3312 34.125 31.3226 34.0734C31.3226 34.0562 31.314 34.0304 31.2967 33.9959C31.2967 33.9873 31.2924 33.983 31.2838 33.983C31.2838 33.9744 31.2838 33.9658 31.2838 33.9572C31.2322 33.8711 31.1848 33.8711 31.1418 33.9572C31.0902 34.0519 31.06 34.1078 31.0514 34.125C31.0514 34.1164 31.0471 34.0992 31.0385 34.0734C31.0385 34.0476 31.0385 34.0304 31.0385 34.0218C31.0127 33.8841 30.9998 33.8109 30.9998 33.8023C30.9826 33.742 30.9439 33.7119 30.8836 33.7119C30.8492 33.7119 30.8234 33.742 30.8061 33.8023C30.7717 33.9142 30.7459 34.0347 30.7287 34.1638C30.6942 34.5425 30.7201 34.9685 30.8061 35.4419C30.8234 35.4936 30.8061 35.5452 30.7545 35.5968C30.7373 35.6141 30.7115 35.6227 30.677 35.6227C30.6512 35.6227 30.6297 35.6184 30.6125 35.6098C30.5694 35.5667 30.5479 35.5108 30.5479 35.4419C30.5565 35.3903 30.5694 35.2956 30.5867 35.1579C30.6125 35.0288 30.6297 34.9255 30.6383 34.848C30.6555 34.3058 30.6598 33.9572 30.6512 33.8023C30.5651 33.7679 30.4963 33.7205 30.4446 33.6603V33.6474C30.436 33.6474 30.4317 33.6474 30.4317 33.6474L30.4059 33.6603C30.3371 33.6689 30.294 33.6431 30.2768 33.5828C30.2768 33.6086 30.2811 33.6474 30.2897 33.699C30.2983 33.742 30.3026 33.7765 30.3026 33.8023C30.3112 33.8453 30.3328 33.9099 30.3672 33.9959C30.4102 34.0906 30.4059 34.1595 30.3543 34.2025C30.294 34.2455 30.2424 34.2498 30.1993 34.2154C30.1305 34.1638 30.1176 34.0949 30.1606 34.0089C30.2209 33.9056 30.251 33.7722 30.251 33.6086C30.251 33.6 30.251 33.5914 30.251 33.5828C30.2596 33.5656 30.2639 33.5527 30.2639 33.5441C30.2639 33.5355 30.2596 33.5226 30.251 33.5053C30.251 33.4795 30.251 33.4623 30.251 33.4537C30.251 33.4451 30.251 33.4365 30.251 33.4279C30.2596 33.4193 30.2639 33.4107 30.2639 33.4021L30.251 33.3891C30.1305 33.217 29.9928 33.0707 29.8379 32.9502C29.5366 32.7264 29.2827 32.4553 29.0761 32.1368V32.2788C29.0675 32.2788 29.0546 32.2832 29.0374 32.2918C29.0202 32.2918 29.0116 32.2918 29.0116 32.2918C29.0374 32.4725 29.0675 32.7479 29.102 33.118C29.145 33.4881 29.1751 33.7679 29.1923 33.9572C29.1923 33.983 29.2052 34.0304 29.2311 34.0992C29.2569 34.1767 29.2698 34.2326 29.2698 34.2671C29.2698 34.4048 29.244 34.4951 29.1923 34.5382C29.1063 34.5984 29.0073 34.6113 28.8954 34.5769C28.7835 34.5511 28.7362 34.4693 28.7534 34.3316C28.762 34.2628 28.7835 34.1595 28.8179 34.0218C28.8524 33.8841 28.8739 33.7808 28.8825 33.7119C28.9685 33.2041 28.9987 32.6188 28.9729 31.9561C28.706 31.4913 28.6372 31.1255 28.7663 30.8587C28.7835 30.8243 28.8179 30.7812 28.8696 30.7296C28.8696 30.7124 28.8653 30.6866 28.8567 30.6521C28.8567 30.6177 28.8567 30.5962 28.8567 30.5876C28.8394 30.5015 28.8179 30.4413 28.7921 30.4068C28.7319 30.3466 28.6888 30.3078 28.663 30.2906V31.53C28.6544 31.5731 28.6587 31.6548 28.6759 31.7753C28.6931 31.8958 28.6888 31.9776 28.663 32.0206C28.6372 32.0206 28.6243 32.0249 28.6243 32.0335C28.6071 32.0422 28.5769 32.0508 28.5339 32.0594C28.4995 32.068 28.4736 32.0723 28.4564 32.0723C28.3531 32.0292 28.3101 31.9346 28.3273 31.7882C28.3273 31.685 28.3402 31.4698 28.3661 31.1427C28.3919 30.8157 28.4005 30.5661 28.3919 30.3939V30.4068L28.379 30.4197C28.3187 30.6005 28.2843 30.7769 28.2757 30.9491C28.2585 31.4655 28.2843 31.8313 28.3531 32.0465C28.3704 32.1239 28.3531 32.1885 28.3015 32.2401C28.2843 32.2487 28.2542 32.253 28.2111 32.253C28.1767 32.253 28.1509 32.2487 28.1337 32.2401C28.0906 32.1971 28.0777 32.1325 28.0949 32.0465C28.2413 31.2718 28.2283 30.6607 28.0562 30.2132C28.0562 30.4886 28.0605 30.7081 28.0691 30.8716C27.9228 31.0437 27.8195 31.0136 27.7593 30.7812C27.699 30.962 27.6689 31.2417 27.6689 31.6204C27.6431 32.834 27.6302 34.0519 27.6302 35.2741C27.6302 35.3602 27.6431 35.485 27.6689 35.6485C27.6947 35.812 27.7119 35.9153 27.7205 35.9583C27.7205 36.01 27.7033 36.0702 27.6689 36.1391C27.6603 36.1477 27.6431 36.152 27.6173 36.152C27.5914 36.1606 27.5742 36.1606 27.5656 36.152C27.5226 36.0659 27.5011 36.0057 27.5011 35.9712C27.5097 35.8852 27.5226 35.713 27.5398 35.4548C27.5656 35.2052 27.5828 35.0073 27.5914 34.8609C27.6 34.4306 27.6043 33.8195 27.6043 33.0277C27.6129 32.2272 27.6173 31.7022 27.6173 31.4526C27.6173 31.1772 27.6086 30.9749 27.5914 30.8458C27.5828 30.7855 27.5527 30.6952 27.5011 30.5747C27.5011 30.6866 27.4924 30.764 27.4752 30.8071C27.4666 30.8329 27.4494 30.8501 27.4236 30.8587C27.3978 30.8587 27.3806 30.8501 27.372 30.8329C27.3289 30.721 27.3117 30.6263 27.3203 30.5488C27.3806 29.9894 27.4021 29.3482 27.3849 28.6252H27.372C27.3547 28.5649 27.3461 28.4401 27.3461 28.2508V27.5794C27.3289 27.4848 27.3117 27.4288 27.2945 27.4116C27.2256 27.3427 27.1869 27.2438 27.1783 27.1147C27.1697 26.9855 27.1912 26.8694 27.2428 26.7661C27.2945 26.68 27.3332 26.6198 27.359 26.5853C27.359 26.3874 27.3375 26.2195 27.2945 26.0818C27.2945 26.0216 27.2816 25.9785 27.2558 25.9527C27.2558 25.9183 27.2428 25.8968 27.217 25.8882C27.1998 25.8795 27.1697 25.8537 27.1267 25.8107C27.1094 25.8279 27.0922 25.8365 27.075 25.8365C27.0578 25.8365 27.0234 25.8107 26.9717 25.7591L26.9588 25.772H26.9459V25.7461C26.9373 25.7289 26.933 25.716 26.933 25.7074C26.8814 25.6127 26.8555 25.5008 26.8555 25.3717C26.8555 25.1652 26.9029 25.0619 26.9975 25.0619L27.075 25.1006C27.118 25.0145 27.174 24.894 27.2428 24.7391C27.3203 24.5756 27.3806 24.4551 27.4236 24.3776C27.4666 24.3002 27.5269 24.2313 27.6043 24.1711C27.6818 24.1022 27.7722 24.0678 27.8755 24.0678C27.9271 24.0678 27.9701 24.0549 28.0046 24.029V24.0161V23.9903C28.0046 23.9731 27.996 23.9473 27.9787 23.9129C27.9615 23.7149 27.9443 23.5987 27.9271 23.5643C27.9271 23.5471 27.9228 23.5212 27.9142 23.4868C27.9142 23.4438 27.9142 23.4136 27.9142 23.3964C27.9228 23.3792 27.9271 23.3534 27.9271 23.319C27.9271 23.2845 27.9314 23.2587 27.94 23.2415C27.9486 23.164 28.0003 23.0392 28.0949 22.8671L28.1078 22.8542H28.1208C28.1638 22.8112 28.2283 22.7552 28.3144 22.6864L28.3015 22.6089C28.2068 22.6519 28.1165 22.7552 28.0304 22.9187C27.9185 23.0909 27.841 23.1554 27.798 23.1124C27.7377 23.0522 27.755 22.9403 27.8496 22.7767C27.9357 22.6562 28.0003 22.5702 28.0433 22.5185C28.181 22.355 28.2843 22.1785 28.3531 21.9892C28.5425 21.4986 28.7964 21.0984 29.1149 20.7885C29.0632 20.8057 29.0202 20.8315 28.9858 20.866C28.9169 20.9348 28.8567 20.9736 28.805 20.9822C28.7362 20.9994 28.6759 20.9822 28.6243 20.9305C28.5812 20.8875 28.5769 20.8315 28.6114 20.7627C28.6372 20.7111 28.6845 20.6766 28.7534 20.6594C28.7706 20.6508 28.8007 20.6551 28.8437 20.6723C28.8868 20.6809 28.9169 20.6852 28.9341 20.6852C29.1149 20.7024 29.2311 20.6336 29.2827 20.4787C29.1536 20.4528 29.0847 20.4356 29.0761 20.427C28.9901 20.3754 28.947 20.3194 28.947 20.2592C28.947 20.1817 28.9901 20.1258 29.0761 20.0913C29.0847 20.0827 29.0977 20.0741 29.1149 20.0655C29.1407 20.0569 29.1579 20.0526 29.1665 20.0526C29.1837 20.044 29.2009 20.0354 29.2182 20.0268C29.2354 20.0096 29.244 19.9924 29.244 19.9752C29.2526 19.9579 29.2526 19.9407 29.244 19.9235C29.2268 19.8633 29.1622 19.8116 29.0503 19.7686L28.5855 19.6911C28.4909 19.6653 28.4392 19.6481 28.4306 19.6395C28.3704 19.5964 28.3402 19.5405 28.3402 19.4716C28.3402 19.4028 28.3833 19.3598 28.4693 19.3425C28.5382 19.3253 28.5941 19.3468 28.6372 19.4071C28.7405 19.562 28.9513 19.6567 29.2698 19.6911C29.3731 19.6997 29.4462 19.6739 29.4893 19.6137C29.5323 19.5448 29.5409 19.463 29.5151 19.3684C29.5151 19.3598 29.5237 19.3124 29.5409 19.2263C29.5495 19.235 29.571 19.2479 29.6055 19.2651C29.6399 19.2737 29.6614 19.2823 29.67 19.2909C29.6786 19.3253 29.7001 19.3598 29.7346 19.3942L29.7475 19.3813C29.7561 19.3727 29.7647 19.3684 29.7733 19.3684C29.911 19.2565 30.0401 19.1058 30.1606 18.9165C30.4188 18.5034 30.733 18.172 31.1031 17.9224C31.4818 17.6642 31.8046 17.5652 32.0714 17.6254C32.0886 17.2726 32.2435 16.9799 32.5361 16.7475C32.8288 16.5151 33.1903 16.4635 33.6206 16.5926L33.6723 16.6184C33.6809 16.6184 33.6981 16.6227 33.7239 16.6313C33.7497 16.6399 33.7712 16.6442 33.7885 16.6442C33.909 16.7389 34.0424 16.7992 34.1887 16.825V16.8121C34.3953 16.924 34.5932 16.9971 34.7826 17.0316C34.7826 17.023 34.7783 17.01 34.7697 16.9928C34.7697 16.967 34.7697 16.9498 34.7697 16.9412C34.7697 16.9326 34.7697 16.924 34.7697 16.9154C34.7783 16.8982 34.7826 16.8852 34.7826 16.8766C34.7654 16.868 34.7395 16.8594 34.7051 16.8508C34.6707 16.8422 34.6449 16.8336 34.6276 16.825C34.619 16.825 34.5975 16.825 34.5631 16.825C34.5287 16.8164 34.5028 16.8078 34.4856 16.7992C34.477 16.782 34.477 16.7518 34.4856 16.7088H34.6406C34.6578 16.7346 34.6793 16.7432 34.7051 16.7346C34.7223 16.7346 34.7481 16.7389 34.7826 16.7475C34.8256 16.7475 34.8557 16.7475 34.8729 16.7475C34.9074 16.7217 34.9504 16.7088 35.002 16.7088C35.0537 16.7088 35.1053 16.7346 35.157 16.7863C35.1828 16.7863 35.2043 16.782 35.2215 16.7734C35.3592 16.7992 35.4926 16.7992 35.6218 16.7734C35.6992 16.7992 35.7724 16.7949 35.8412 16.7604C35.8843 16.7604 35.9445 16.7561 36.022 16.7475C36.0994 16.7389 36.1554 16.7346 36.1898 16.7346C36.2415 16.7518 36.2845 16.7432 36.3189 16.7088C36.3706 16.7088 36.4523 16.7088 36.5642 16.7088C36.6761 16.7002 36.7622 16.6959 36.8224 16.6959C36.831 16.6959 36.8482 16.7002 36.8741 16.7088L36.9515 16.7475C36.9601 16.7561 36.9687 16.769 36.9774 16.7863C36.986 16.8035 36.9903 16.8121 36.9903 16.8121C36.9989 16.8809 36.9644 16.9326 36.887 16.967C36.8181 16.9928 36.7794 17.01 36.7708 17.0187C36.7966 17.0703 36.8827 17.0961 37.029 17.0961C37.3561 17.1047 37.61 17.2209 37.7907 17.4447C37.9801 17.6685 38.0489 17.9267 37.9973 18.2193C38.0317 18.2451 38.0704 18.2581 38.1135 18.2581C38.2598 18.2495 38.3803 18.3097 38.475 18.4388C38.5783 18.5679 38.6815 18.7573 38.7848 19.0069C38.8967 19.2565 39 19.4458 39.0947 19.5749C39.1033 19.618 39.1033 19.6567 39.0947 19.6911C39.0947 19.7169 39.0861 19.76 39.0689 19.8202C39.0516 19.8805 39.043 19.9235 39.043 19.9493C38.9914 19.9321 38.9527 19.9278 38.9268 19.9364C38.9096 19.945 38.8838 19.9665 38.8494 20.001C38.8149 20.0354 38.7891 20.0569 38.7719 20.0655V20.0784C38.858 20.1559 38.9656 20.3453 39.0947 20.6465C39.2324 20.9391 39.3529 21.1543 39.4562 21.292C39.4648 21.3351 39.4648 21.3738 39.4562 21.4082C39.4562 21.434 39.4476 21.4771 39.4303 21.5373C39.4131 21.5976 39.4045 21.6406 39.4045 21.6664C39.3529 21.6492 39.3142 21.6449 39.2883 21.6535C39.2711 21.6621 39.2453 21.6836 39.2109 21.7181C39.1764 21.7525 39.1506 21.774 39.1334 21.7826C39.1076 21.7912 39.0947 21.817 39.0947 21.8601ZM27.6043 25.9785C27.5097 25.9957 27.4623 26.0216 27.4623 26.056C27.4537 26.0818 27.458 26.1119 27.4752 26.1464C27.4838 26.1636 27.5011 26.2238 27.5269 26.3271C27.5613 26.241 27.5871 26.1248 27.6043 25.9785ZM27.7076 30.097C27.7076 30.0453 27.7076 29.9593 27.7076 29.8388C27.7162 29.7183 27.7205 29.6279 27.7205 29.5676H27.7076C27.6474 29.5763 27.5914 29.5547 27.5398 29.5031C27.4968 29.4515 27.4666 29.3912 27.4494 29.3223V30.1099C27.4494 30.1271 27.4494 30.1443 27.4494 30.1615C27.458 30.1787 27.4623 30.196 27.4623 30.2132C27.5054 30.1357 27.5656 30.0927 27.6431 30.0841C27.6517 30.0841 27.6603 30.0884 27.6689 30.097C27.6861 30.097 27.699 30.097 27.7076 30.097ZM27.7334 29.077C27.7507 28.75 27.7464 28.5391 27.7205 28.4444C27.755 28.3153 27.7507 28.1002 27.7076 27.7989C27.6646 27.4891 27.656 27.2825 27.6818 27.1792C27.6646 27.2136 27.6474 27.2567 27.6302 27.3083C27.5613 27.6096 27.514 27.8893 27.4881 28.1475V28.4961C27.4881 28.5649 27.4795 28.608 27.4623 28.6252C27.4623 28.6854 27.458 28.7801 27.4494 28.9092C27.4494 29.0383 27.4494 29.1373 27.4494 29.2062C27.4752 29.1029 27.5355 29.0512 27.6302 29.0512C27.6732 29.0512 27.7076 29.0598 27.7334 29.077ZM28.3144 29.4773C28.3575 29.1502 28.3445 28.9393 28.2757 28.8447C28.2499 28.8102 28.2283 28.8145 28.2111 28.8576C28.1595 29.1244 28.1208 29.3783 28.0949 29.6193C28.1638 29.5676 28.2154 29.5375 28.2499 29.5289C28.2585 29.5203 28.2671 29.5117 28.2757 29.5031C28.2929 29.4945 28.3058 29.4859 28.3144 29.4773ZM28.4693 28.6639C28.4349 28.7069 28.422 28.7328 28.4306 28.7414C28.4478 28.75 28.4693 28.7414 28.4952 28.7156V28.6252C28.4779 28.6424 28.4693 28.6553 28.4693 28.6639ZM30.4963 33.1826H30.4834C30.4834 33.2084 30.4877 33.2428 30.4963 33.2859C30.5049 33.3289 30.5135 33.3633 30.5221 33.3891C30.5565 33.4408 30.5867 33.4795 30.6125 33.5053C30.6125 33.4881 30.6082 33.4623 30.5996 33.4279C30.591 33.3935 30.5867 33.3676 30.5867 33.3504C30.5608 33.273 30.5436 33.2299 30.535 33.2213L30.4963 33.1826ZM29.7991 27.5923C29.8077 27.5579 29.7905 27.5407 29.7475 27.5407C29.7131 27.5407 29.6958 27.5579 29.6958 27.5923C29.6872 27.6268 29.7001 27.644 29.7346 27.644C29.7776 27.644 29.7991 27.6268 29.7991 27.5923ZM29.3343 28.9996V28.8576C29.2999 28.8748 29.2784 28.8877 29.2698 28.8963C29.2698 28.9135 29.2784 28.9307 29.2956 28.9479C29.3128 28.9652 29.3257 28.9824 29.3343 28.9996ZM32.4716 17.4447C32.5491 17.4447 32.5878 17.406 32.5878 17.3285C32.5103 17.3285 32.4716 17.3672 32.4716 17.4447ZM32.5878 17.3285C32.605 17.3285 32.6265 17.3242 32.6523 17.3156C32.6868 17.307 32.7083 17.3027 32.7169 17.3027L32.704 17.2769C32.6609 17.2683 32.6222 17.2855 32.5878 17.3285ZM32.8073 17.1994L32.8331 17.1865V17.1736H32.8073V17.1994ZM33.3882 16.8121C33.3968 16.8121 33.4098 16.8121 33.427 16.8121C33.4442 16.8121 33.4571 16.8078 33.4657 16.7992C33.4657 16.7906 33.4614 16.7863 33.4528 16.7863C33.4528 16.7863 33.4528 16.782 33.4528 16.7734C33.4442 16.782 33.4313 16.7906 33.4141 16.7992C33.4055 16.8078 33.3968 16.8121 33.3882 16.8121C33.3452 16.8121 33.3194 16.8293 33.3108 16.8637C33.3108 16.8895 33.3194 16.9025 33.3366 16.9025C33.371 16.9025 33.3882 16.8723 33.3882 16.8121ZM30.4834 29.9033C30.535 29.8947 30.5738 29.9076 30.5996 29.942C30.634 29.9679 30.6469 30.0066 30.6383 30.0582C30.6297 30.0841 30.5953 30.14 30.535 30.2261H30.4576C30.449 30.2089 30.4317 30.1917 30.4059 30.1744C30.3887 30.1486 30.3715 30.1271 30.3543 30.1099C30.3457 30.0841 30.3414 30.0625 30.3414 30.0453C30.3414 29.9765 30.3887 29.9291 30.4834 29.9033ZM29.7604 29.0125C29.7346 29.0383 29.7131 29.0512 29.6958 29.0512C29.6786 29.0512 29.6571 29.0383 29.6313 29.0125C29.6055 28.9867 29.5926 28.9652 29.5926 28.9479C29.5926 28.9393 29.627 28.892 29.6958 28.8059C29.7647 28.892 29.7991 28.9393 29.7991 28.9479C29.7991 28.9652 29.7862 28.9867 29.7604 29.0125ZM33.8272 20.3883C33.9047 20.3108 33.9477 20.2721 33.9563 20.2721L34.1112 20.3496C34.1112 20.3582 34.1112 20.3711 34.1112 20.3883C34.1198 20.3969 34.1241 20.4055 34.1241 20.4141C34.0467 20.4744 33.9907 20.5045 33.9563 20.5045C33.9477 20.5045 33.9047 20.4658 33.8272 20.3883ZM36.6804 22.1054C36.689 22.071 36.7191 22.0451 36.7708 22.0279C36.8138 22.0279 36.8439 22.0494 36.8612 22.0925C36.8698 22.1097 36.8784 22.1398 36.887 22.1828C36.8956 22.2173 36.9042 22.2431 36.9128 22.2603C36.887 22.2517 36.8526 22.2431 36.8095 22.2345C36.7751 22.2259 36.7493 22.2173 36.7321 22.2087C36.6804 22.1828 36.6632 22.1484 36.6804 22.1054Z" fill="white"/>
<path d="M61.6136 32V19.4H66.2756C67.2836 19.4 68.1176 19.568 68.7776 19.904C69.4376 20.24 69.9296 20.702 70.2536 21.29C70.5776 21.878 70.7396 22.538 70.7396 23.27C70.7396 23.966 70.5836 24.608 70.2716 25.196C69.9596 25.772 69.4736 26.24 68.8136 26.6C68.1536 26.948 67.3076 27.122 66.2756 27.122H63.9176V32H61.6136ZM63.9176 25.25H66.1316C66.9356 25.25 67.5116 25.076 67.8596 24.728C68.2196 24.368 68.3996 23.882 68.3996 23.27C68.3996 22.646 68.2196 22.16 67.8596 21.812C67.5116 21.452 66.9356 21.272 66.1316 21.272H63.9176V25.25ZM75.8412 32.216C74.7252 32.216 73.8612 31.868 73.2492 31.172C72.6492 30.476 72.3492 29.456 72.3492 28.112V23.072H74.6352V27.896C74.6352 28.664 74.7912 29.252 75.1032 29.66C75.4152 30.068 75.9072 30.272 76.5792 30.272C77.2152 30.272 77.7372 30.044 78.1452 29.588C78.5652 29.132 78.7752 28.496 78.7752 27.68V23.072H81.0792V32H79.0452L78.8652 30.488C78.5892 31.016 78.1872 31.436 77.6592 31.748C77.1432 32.06 76.5372 32.216 75.8412 32.216ZM83.4444 32V23.072H85.4784L85.6584 24.584C85.9344 24.056 86.3304 23.636 86.8464 23.324C87.3744 23.012 87.9924 22.856 88.7004 22.856C89.8044 22.856 90.6624 23.204 91.2744 23.9C91.8864 24.596 92.1924 25.616 92.1924 26.96V32H89.8884V27.176C89.8884 26.408 89.7324 25.82 89.4204 25.412C89.1084 25.004 88.6224 24.8 87.9624 24.8C87.3144 24.8 86.7804 25.028 86.3604 25.484C85.9524 25.94 85.7484 26.576 85.7484 27.392V32H83.4444ZM94.3956 32V19.04H96.6996V24.44C96.9996 23.948 97.4016 23.564 97.9056 23.288C98.4216 23 99.0096 22.856 99.6696 22.856C100.774 22.856 101.626 23.204 102.226 23.9C102.838 24.596 103.144 25.616 103.144 26.96V32H100.858V27.176C100.858 26.408 100.702 25.82 100.39 25.412C100.09 25.004 99.6096 24.8 98.9496 24.8C98.3016 24.8 97.7616 25.028 97.3296 25.484C96.9096 25.94 96.6996 26.576 96.6996 27.392V32H94.3956ZM108.695 32.216C107.579 32.216 106.715 31.868 106.103 31.172C105.503 30.476 105.203 29.456 105.203 28.112V23.072H107.489V27.896C107.489 28.664 107.645 29.252 107.957 29.66C108.269 30.068 108.761 30.272 109.433 30.272C110.069 30.272 110.591 30.044 110.999 29.588C111.419 29.132 111.629 28.496 111.629 27.68V23.072H113.933V32H111.899L111.719 30.488C111.443 31.016 111.041 31.436 110.513 31.748C109.997 32.06 109.391 32.216 108.695 32.216ZM121.59 32.216C120.918 32.216 120.33 32.09 119.826 31.838C119.322 31.586 118.914 31.232 118.602 30.776L118.35 32H116.298V19.04H118.602V24.35C118.89 23.954 119.268 23.606 119.736 23.306C120.216 23.006 120.834 22.856 121.59 22.856C122.43 22.856 123.18 23.06 123.84 23.468C124.5 23.876 125.022 24.434 125.406 25.142C125.79 25.85 125.982 26.654 125.982 27.554C125.982 28.454 125.79 29.258 125.406 29.966C125.022 30.662 124.5 31.214 123.84 31.622C123.18 32.018 122.43 32.216 121.59 32.216ZM121.104 30.2C121.836 30.2 122.442 29.954 122.922 29.462C123.402 28.97 123.642 28.334 123.642 27.554C123.642 26.774 123.402 26.132 122.922 25.628C122.442 25.124 121.836 24.872 121.104 24.872C120.36 24.872 119.748 25.124 119.268 25.628C118.8 26.12 118.566 26.756 118.566 27.536C118.566 28.316 118.8 28.958 119.268 29.462C119.748 29.954 120.36 30.2 121.104 30.2ZM133.8 32.216C132.528 32.216 131.436 31.946 130.524 31.406C129.612 30.854 128.91 30.092 128.418 29.12C127.926 28.136 127.68 27.002 127.68 25.718C127.68 24.434 127.926 23.3 128.418 22.316C128.91 21.332 129.612 20.564 130.524 20.012C131.436 19.46 132.528 19.184 133.8 19.184C135.312 19.184 136.548 19.562 137.508 20.318C138.48 21.062 139.086 22.112 139.326 23.468H136.788C136.632 22.784 136.296 22.25 135.78 21.866C135.276 21.47 134.604 21.272 133.764 21.272C132.6 21.272 131.688 21.668 131.028 22.46C130.368 23.252 130.038 24.338 130.038 25.718C130.038 27.098 130.368 28.184 131.028 28.976C131.688 29.756 132.6 30.146 133.764 30.146C134.604 30.146 135.276 29.966 135.78 29.606C136.296 29.234 136.632 28.724 136.788 28.076H139.326C139.086 29.372 138.48 30.386 137.508 31.118C136.548 31.85 135.312 32.216 133.8 32.216ZM145.65 32.216C144.75 32.216 143.952 32.024 143.256 31.64C142.56 31.256 142.014 30.716 141.618 30.02C141.222 29.324 141.024 28.52 141.024 27.608C141.024 26.684 141.216 25.862 141.6 25.142C141.996 24.422 142.536 23.864 143.22 23.468C143.916 23.06 144.732 22.856 145.668 22.856C146.544 22.856 147.318 23.048 147.99 23.432C148.662 23.816 149.184 24.344 149.556 25.016C149.94 25.676 150.132 26.414 150.132 27.23C150.132 27.362 150.126 27.5 150.114 27.644C150.114 27.788 150.108 27.938 150.096 28.094H143.31C143.358 28.79 143.598 29.336 144.03 29.732C144.474 30.128 145.008 30.326 145.632 30.326C146.1 30.326 146.49 30.224 146.802 30.02C147.126 29.804 147.366 29.528 147.522 29.192H149.862C149.694 29.756 149.412 30.272 149.016 30.74C148.632 31.196 148.152 31.556 147.576 31.82C147.012 32.084 146.37 32.216 145.65 32.216ZM145.668 24.728C145.104 24.728 144.606 24.89 144.174 25.214C143.742 25.526 143.466 26.006 143.346 26.654H147.792C147.756 26.066 147.54 25.598 147.144 25.25C146.748 24.902 146.256 24.728 145.668 24.728ZM152.069 32V23.072H154.103L154.283 24.584C154.559 24.056 154.955 23.636 155.471 23.324C155.999 23.012 156.617 22.856 157.325 22.856C158.429 22.856 159.287 23.204 159.899 23.9C160.511 24.596 160.817 25.616 160.817 26.96V32H158.513V27.176C158.513 26.408 158.357 25.82 158.045 25.412C157.733 25.004 157.247 24.8 156.587 24.8C155.939 24.8 155.405 25.028 154.985 25.484C154.577 25.94 154.373 26.576 154.373 27.392V32H152.069ZM166.999 32C166.063 32 165.313 31.772 164.749 31.316C164.185 30.86 163.903 30.05 163.903 28.886V24.998H162.373V23.072H163.903L164.173 20.678H166.207V23.072H168.619V24.998H166.207V28.904C166.207 29.336 166.297 29.636 166.477 29.804C166.669 29.96 166.993 30.038 167.449 30.038H168.565V32H166.999ZM170.597 32V23.072H172.649L172.865 24.746C173.189 24.17 173.627 23.714 174.179 23.378C174.743 23.03 175.403 22.856 176.159 22.856V25.286H175.511C175.007 25.286 174.557 25.364 174.161 25.52C173.765 25.676 173.453 25.946 173.225 26.33C173.009 26.714 172.901 27.248 172.901 27.932V32H170.597ZM180.811 32.216C180.043 32.216 179.413 32.096 178.921 31.856C178.429 31.604 178.063 31.274 177.823 30.866C177.583 30.458 177.463 30.008 177.463 29.516C177.463 28.688 177.787 28.016 178.435 27.5C179.083 26.984 180.055 26.726 181.351 26.726H183.619V26.51C183.619 25.898 183.445 25.448 183.097 25.16C182.749 24.872 182.317 24.728 181.801 24.728C181.333 24.728 180.925 24.842 180.577 25.07C180.229 25.286 180.013 25.61 179.929 26.042H177.679C177.739 25.394 177.955 24.83 178.327 24.35C178.711 23.87 179.203 23.504 179.803 23.252C180.403 22.988 181.075 22.856 181.819 22.856C183.091 22.856 184.093 23.174 184.825 23.81C185.557 24.446 185.923 25.346 185.923 26.51V32H183.961L183.745 30.56C183.481 31.04 183.109 31.436 182.629 31.748C182.161 32.06 181.555 32.216 180.811 32.216ZM181.333 30.416C181.993 30.416 182.503 30.2 182.863 29.768C183.235 29.336 183.469 28.802 183.565 28.166H181.603C180.991 28.166 180.553 28.28 180.289 28.508C180.025 28.724 179.893 28.994 179.893 29.318C179.893 29.666 180.025 29.936 180.289 30.128C180.553 30.32 180.901 30.416 181.333 30.416ZM188.122 32V19.04H190.426V32H188.122Z" fill="#00658B"/>
</svg>
