<svg width="132" height="77" viewBox="0 0 132 77" fill="none" xmlns="http://www.w3.org/2000/svg">
<path d="M1.61365 72V59.4H6.27565C7.28365 59.4 8.11765 59.568 8.77765 59.904C9.43765 60.24 9.92965 60.702 10.2536 61.29C10.5776 61.878 10.7396 62.538 10.7396 63.27C10.7396 63.966 10.5836 64.608 10.2716 65.196C9.95965 65.772 9.47365 66.24 8.81365 66.6C8.15365 66.948 7.30765 67.122 6.27565 67.122H3.91765V72H1.61365ZM3.91765 65.25H6.13165C6.93565 65.25 7.51165 65.076 7.85965 64.728C8.21965 64.368 8.39965 63.882 8.39965 63.27C8.39965 62.646 8.21965 62.16 7.85965 61.812C7.51165 61.452 6.93565 61.272 6.13165 61.272H3.91765V65.25ZM15.8412 72.216C14.7252 72.216 13.8612 71.868 13.2492 71.172C12.6492 70.476 12.3492 69.456 12.3492 68.112V63.072H14.6352V67.896C14.6352 68.664 14.7912 69.252 15.1032 69.66C15.4152 70.068 15.9072 70.272 16.5792 70.272C17.2152 70.272 17.7372 70.044 18.1452 69.588C18.5652 69.132 18.7752 68.496 18.7752 67.68V63.072H21.0792V72H19.0452L18.8652 70.488C18.5892 71.016 18.1872 71.436 17.6592 71.748C17.1432 72.06 16.5372 72.216 15.8412 72.216ZM23.4444 72V63.072H25.4784L25.6584 64.584C25.9344 64.056 26.3304 63.636 26.8464 63.324C27.3744 63.012 27.9924 62.856 28.7004 62.856C29.8044 62.856 30.6624 63.204 31.2744 63.9C31.8864 64.596 32.1924 65.616 32.1924 66.96V72H29.8884V67.176C29.8884 66.408 29.7324 65.82 29.4204 65.412C29.1084 65.004 28.6224 64.8 27.9624 64.8C27.3144 64.8 26.7804 65.028 26.3604 65.484C25.9524 65.94 25.7484 66.576 25.7484 67.392V72H23.4444ZM34.3956 72V59.04H36.6996V64.44C36.9996 63.948 37.4016 63.564 37.9056 63.288C38.4216 63 39.0096 62.856 39.6696 62.856C40.7736 62.856 41.6256 63.204 42.2256 63.9C42.8376 64.596 43.1436 65.616 43.1436 66.96V72H40.8576V67.176C40.8576 66.408 40.7016 65.82 40.3896 65.412C40.0896 65.004 39.6096 64.8 38.9496 64.8C38.3016 64.8 37.7616 65.028 37.3296 65.484C36.9096 65.94 36.6996 66.576 36.6996 67.392V72H34.3956ZM48.6948 72.216C47.5788 72.216 46.7148 71.868 46.1028 71.172C45.5028 70.476 45.2028 69.456 45.2028 68.112V63.072H47.4888V67.896C47.4888 68.664 47.6448 69.252 47.9568 69.66C48.2688 70.068 48.7608 70.272 49.4328 70.272C50.0688 70.272 50.5908 70.044 50.9988 69.588C51.4188 69.132 51.6288 68.496 51.6288 67.68V63.072H53.9328V72H51.8988L51.7188 70.488C51.4428 71.016 51.0408 71.436 50.5128 71.748C49.9968 72.06 49.3908 72.216 48.6948 72.216ZM61.5899 72.216C60.9179 72.216 60.3299 72.09 59.8259 71.838C59.3219 71.586 58.9139 71.232 58.6019 70.776L58.3499 72H56.2979V59.04H58.6019V64.35C58.8899 63.954 59.2679 63.606 59.7359 63.306C60.2159 63.006 60.8339 62.856 61.5899 62.856C62.4299 62.856 63.1799 63.06 63.8399 63.468C64.4999 63.876 65.0219 64.434 65.4059 65.142C65.7899 65.85 65.9819 66.654 65.9819 67.554C65.9819 68.454 65.7899 69.258 65.4059 69.966C65.0219 70.662 64.4999 71.214 63.8399 71.622C63.1799 72.018 62.4299 72.216 61.5899 72.216ZM61.1039 70.2C61.8359 70.2 62.4419 69.954 62.9219 69.462C63.4019 68.97 63.6419 68.334 63.6419 67.554C63.6419 66.774 63.4019 66.132 62.9219 65.628C62.4419 65.124 61.8359 64.872 61.1039 64.872C60.3599 64.872 59.7479 65.124 59.2679 65.628C58.7999 66.12 58.5659 66.756 58.5659 67.536C58.5659 68.316 58.7999 68.958 59.2679 69.462C59.7479 69.954 60.3599 70.2 61.1039 70.2ZM73.8001 72.216C72.5281 72.216 71.4361 71.946 70.5241 71.406C69.6121 70.854 68.9101 70.092 68.4181 69.12C67.9261 68.136 67.6801 67.002 67.6801 65.718C67.6801 64.434 67.9261 63.3 68.4181 62.316C68.9101 61.332 69.6121 60.564 70.5241 60.012C71.4361 59.46 72.5281 59.184 73.8001 59.184C75.3121 59.184 76.5481 59.562 77.5081 60.318C78.4801 61.062 79.0861 62.112 79.3261 63.468H76.7881C76.6321 62.784 76.2961 62.25 75.7801 61.866C75.2761 61.47 74.6041 61.272 73.7641 61.272C72.6001 61.272 71.6881 61.668 71.0281 62.46C70.3681 63.252 70.0381 64.338 70.0381 65.718C70.0381 67.098 70.3681 68.184 71.0281 68.976C71.6881 69.756 72.6001 70.146 73.7641 70.146C74.6041 70.146 75.2761 69.966 75.7801 69.606C76.2961 69.234 76.6321 68.724 76.7881 68.076H79.3261C79.0861 69.372 78.4801 70.386 77.5081 71.118C76.5481 71.85 75.3121 72.216 73.8001 72.216ZM85.6496 72.216C84.7496 72.216 83.9516 72.024 83.2556 71.64C82.5596 71.256 82.0136 70.716 81.6176 70.02C81.2216 69.324 81.0236 68.52 81.0236 67.608C81.0236 66.684 81.2156 65.862 81.5996 65.142C81.9956 64.422 82.5356 63.864 83.2196 63.468C83.9156 63.06 84.7316 62.856 85.6676 62.856C86.5436 62.856 87.3176 63.048 87.9896 63.432C88.6616 63.816 89.1836 64.344 89.5556 65.016C89.9396 65.676 90.1316 66.414 90.1316 67.23C90.1316 67.362 90.1256 67.5 90.1136 67.644C90.1136 67.788 90.1076 67.938 90.0956 68.094H83.3096C83.3576 68.79 83.5976 69.336 84.0296 69.732C84.4736 70.128 85.0076 70.326 85.6316 70.326C86.0996 70.326 86.4896 70.224 86.8016 70.02C87.1256 69.804 87.3656 69.528 87.5216 69.192H89.8616C89.6936 69.756 89.4116 70.272 89.0156 70.74C88.6316 71.196 88.1516 71.556 87.5756 71.82C87.0116 72.084 86.3696 72.216 85.6496 72.216ZM85.6676 64.728C85.1036 64.728 84.6056 64.89 84.1736 65.214C83.7416 65.526 83.4656 66.006 83.3456 66.654H87.7916C87.7556 66.066 87.5396 65.598 87.1436 65.25C86.7476 64.902 86.2556 64.728 85.6676 64.728ZM92.0694 72V63.072H94.1034L94.2834 64.584C94.5594 64.056 94.9554 63.636 95.4714 63.324C95.9994 63.012 96.6174 62.856 97.3254 62.856C98.4294 62.856 99.2874 63.204 99.8994 63.9C100.511 64.596 100.817 65.616 100.817 66.96V72H98.5134V67.176C98.5134 66.408 98.3574 65.82 98.0454 65.412C97.7334 65.004 97.2474 64.8 96.5874 64.8C95.9394 64.8 95.4054 65.028 94.9854 65.484C94.5774 65.94 94.3734 66.576 94.3734 67.392V72H92.0694ZM106.999 72C106.063 72 105.313 71.772 104.749 71.316C104.185 70.86 103.903 70.05 103.903 68.886V64.998H102.373V63.072H103.903L104.173 60.678H106.207V63.072H108.619V64.998H106.207V68.904C106.207 69.336 106.297 69.636 106.477 69.804C106.669 69.96 106.993 70.038 107.449 70.038H108.565V72H106.999ZM110.597 72V63.072H112.649L112.865 64.746C113.189 64.17 113.627 63.714 114.179 63.378C114.743 63.03 115.403 62.856 116.159 62.856V65.286H115.511C115.007 65.286 114.557 65.364 114.161 65.52C113.765 65.676 113.453 65.946 113.225 66.33C113.009 66.714 112.901 67.248 112.901 67.932V72H110.597ZM120.811 72.216C120.043 72.216 119.413 72.096 118.921 71.856C118.429 71.604 118.063 71.274 117.823 70.866C117.583 70.458 117.463 70.008 117.463 69.516C117.463 68.688 117.787 68.016 118.435 67.5C119.083 66.984 120.055 66.726 121.351 66.726H123.619V66.51C123.619 65.898 123.445 65.448 123.097 65.16C122.749 64.872 122.317 64.728 121.801 64.728C121.333 64.728 120.925 64.842 120.577 65.07C120.229 65.286 120.013 65.61 119.929 66.042H117.679C117.739 65.394 117.955 64.83 118.327 64.35C118.711 63.87 119.203 63.504 119.803 63.252C120.403 62.988 121.075 62.856 121.819 62.856C123.091 62.856 124.093 63.174 124.825 63.81C125.557 64.446 125.923 65.346 125.923 66.51V72H123.961L123.745 70.56C123.481 71.04 123.109 71.436 122.629 71.748C122.161 72.06 121.555 72.216 120.811 72.216ZM121.333 70.416C121.993 70.416 122.503 70.2 122.863 69.768C123.235 69.336 123.469 68.802 123.565 68.166H121.603C120.991 68.166 120.553 68.28 120.289 68.508C120.025 68.724 119.893 68.994 119.893 69.318C119.893 69.666 120.025 69.936 120.289 70.128C120.553 70.32 120.901 70.416 121.333 70.416ZM128.122 72V59.04H130.426V72H128.122Z" fill="white"/>
<rect x="42" width="48" height="48" rx="7.43826" fill="#FCFEFF"/>
<path d="M57.9478 24.8165C57.9478 24.6258 57.9915 24.5305 58.0789 24.5305C58.1663 24.5305 58.21 24.6377 58.21 24.8522C58.21 25.0429 58.1663 25.1382 58.0789 25.1382C57.9915 25.1382 57.9478 25.031 57.9478 24.8165ZM53.9674 14.067C53.8562 14.067 53.8006 13.9319 53.8006 13.6618C53.8562 13.5744 53.8999 13.5267 53.9317 13.5188C53.9793 13.5109 54.0151 13.5387 54.0389 13.6022C54.0707 13.6658 54.0866 13.7492 54.0866 13.8525C54.0866 13.9955 54.0469 14.067 53.9674 14.067ZM54.7301 13.054C54.7222 13.054 54.6745 13.0103 54.5871 12.9229V12.8157C54.5951 12.7998 54.607 12.7799 54.6229 12.7561C54.6467 12.7243 54.6626 12.7005 54.6706 12.6846C54.6864 12.6608 54.7023 12.6488 54.7182 12.6488C54.7262 12.6488 54.7738 12.7124 54.8612 12.8395C54.7977 12.9746 54.754 13.0461 54.7301 13.054ZM53.8959 14.5914C53.8959 14.5993 53.8919 14.6112 53.884 14.6271C53.884 14.643 53.88 14.6589 53.8721 14.6748C53.8721 14.6907 53.8641 14.7145 53.8483 14.7463C53.8403 14.7701 53.8324 14.7979 53.8244 14.8297C53.7609 14.6788 53.7291 14.5953 53.7291 14.5794C53.7291 14.5636 53.7489 14.5079 53.7887 14.4126C53.7966 14.4285 53.8085 14.4484 53.8244 14.4722C53.8483 14.4881 53.8641 14.5079 53.8721 14.5318C53.888 14.5477 53.8959 14.5675 53.8959 14.5914ZM55.0638 13.2566C55.0559 13.2566 55.0479 13.2526 55.04 13.2447C55.032 13.2368 55.0162 13.2209 54.9923 13.197C54.9764 13.1653 54.9645 13.1454 54.9566 13.1374C55.0122 13.058 55.0519 13.0143 55.0757 13.0064L55.1353 13.0898V13.1017C55.1194 13.1811 55.0956 13.2328 55.0638 13.2566ZM64.1925 17.821C64.2402 17.9084 64.2164 17.964 64.121 17.9878C64.0495 18.0117 63.9979 17.9759 63.9661 17.8806C63.9502 17.817 63.9383 17.7654 63.9303 17.7256C63.9145 17.6382 63.8747 17.6144 63.8112 17.6541C63.7238 17.7177 63.6642 17.7773 63.6324 17.8329C63.5847 17.9203 63.553 18.0315 63.5371 18.1666C63.5927 18.2222 63.6523 18.3215 63.7158 18.4645C63.7476 18.4168 63.7834 18.4049 63.8231 18.4288C63.8867 18.4685 63.8867 18.5599 63.8231 18.7029C63.8151 18.7108 63.8112 18.7227 63.8112 18.7386C63.8112 18.7466 63.8072 18.7545 63.7993 18.7624C63.7993 18.7704 63.7993 18.7863 63.7993 18.8101C63.8072 18.834 63.8112 18.8538 63.8112 18.8697C63.8112 18.9174 63.7953 18.9889 63.7635 19.0842C63.7079 19.2828 63.7039 19.4854 63.7516 19.692C63.7595 19.7238 63.7635 19.7715 63.7635 19.835C63.7635 19.9383 63.7158 19.9899 63.6205 19.9899C63.5331 19.9899 63.4894 19.9383 63.4894 19.835C63.4894 19.8191 63.4894 19.7873 63.4894 19.7397C63.4974 19.692 63.5013 19.6562 63.5013 19.6324V19.4417C63.4219 19.831 63.2511 20.1846 62.9889 20.5024C62.9889 20.5103 62.9889 20.5302 62.9889 20.562C62.9968 20.5937 63.0008 20.6136 63.0008 20.6216C63.0167 20.7169 63.0246 20.7884 63.0246 20.8361V20.8718C63.1597 21.2135 63.1716 21.4637 63.0604 21.6226C62.965 21.7497 62.9134 21.8888 62.9055 22.0397C62.826 22.0238 62.7267 22.0874 62.6075 22.2304C62.4963 22.3655 62.4049 22.5124 62.3334 22.6713C62.2699 23.1004 62.2738 23.4102 62.3453 23.6009C62.3533 23.6327 62.3334 23.6724 62.2858 23.7201C62.2858 23.736 62.2818 23.7598 62.2738 23.7916C62.2738 23.8154 62.2738 23.8353 62.2738 23.8512L62.3453 24.4232C62.401 24.5424 62.4208 24.6774 62.4049 24.8284C62.4049 24.8443 62.4049 24.8721 62.4049 24.9118C62.4129 24.9515 62.4168 24.9793 62.4168 24.9952C62.4645 25.1303 62.4804 25.3369 62.4645 25.6149C62.4963 26.036 62.4764 26.3498 62.4049 26.5564C62.3334 26.5008 62.3056 26.3618 62.3215 26.1393C62.3453 25.9089 62.3493 25.7659 62.3334 25.7103C62.3016 25.6388 62.2818 25.5712 62.2738 25.5077C62.2659 25.4362 62.2659 25.3448 62.2738 25.2336C62.2818 25.1224 62.2858 25.0548 62.2858 25.031C62.2858 25.0072 62.2818 24.9754 62.2738 24.9356C62.2738 24.8959 62.2738 24.8681 62.2738 24.8522C62.2738 24.8443 62.2659 24.8324 62.25 24.8165C62.2421 24.7926 62.2341 24.7767 62.2262 24.7688V24.3755C62.2262 24.3437 62.2222 24.2921 62.2142 24.2206C62.2063 24.1491 62.2023 24.0975 62.2023 24.0657L62.1904 24.0418V24.018C62.1825 24.0021 62.1785 23.9743 62.1785 23.9346L62.1427 23.7916C62.1427 23.7757 62.1348 23.7558 62.1189 23.732C62.103 23.7082 62.0951 23.6923 62.0951 23.6843C62.1507 23.6525 62.1586 23.593 62.1189 23.5056C62.0871 23.4182 62.0752 23.3586 62.0832 23.3268C62.099 23.3189 62.107 23.303 62.107 23.2791C62.1626 23.16 62.1745 22.9931 62.1427 22.7786C62.111 22.5641 62.0236 22.4648 61.8806 22.4807C61.8885 22.2979 61.8766 22.2105 61.8448 22.2185C61.7813 22.2344 61.7296 22.4052 61.6899 22.7309C61.666 22.8819 61.666 22.9931 61.6899 23.0646C61.6025 23.0805 61.5469 23.0646 61.523 23.0169C61.4992 22.9693 61.4913 22.9097 61.4992 22.8382C61.5151 22.7587 61.5072 22.6833 61.4754 22.6118C61.4118 22.8342 61.38 22.9613 61.38 22.9931C61.3721 23.0567 61.3681 23.3506 61.3681 23.875C61.3681 23.8988 61.3761 23.9386 61.3919 23.9942C61.4078 24.0418 61.4158 24.0736 61.4158 24.0895C61.4237 24.1213 61.4198 24.165 61.4039 24.2206L61.3204 24.2325C61.2887 24.1849 61.2728 24.1412 61.2728 24.1014V23.875V23.8869C61.2648 23.8949 61.245 23.8988 61.2132 23.8988C61.2052 23.8909 61.1933 23.8829 61.1774 23.875C61.1615 23.8591 61.1496 23.8512 61.1417 23.8512C61.1417 23.8432 61.1377 23.8353 61.1298 23.8273C61.1298 23.8114 61.1298 23.7995 61.1298 23.7916C61.1298 23.7836 61.1337 23.7797 61.1417 23.7797V23.732C61.1576 23.6923 61.1655 23.6088 61.1655 23.4817C61.1655 23.4738 61.1655 23.4698 61.1655 23.4698L61.1774 23.446C61.1774 23.438 61.1774 23.4301 61.1774 23.4221C61.1854 23.4062 61.1894 23.3943 61.1894 23.3864V23.3745C61.1814 23.3586 61.1774 23.3467 61.1774 23.3387V23.1719C61.1854 23.1322 61.1854 23.0964 61.1774 23.0646V22.9693L61.1298 22.9216C61.1218 22.9296 61.102 22.9494 61.0702 22.9812C61.0463 23.013 61.0305 23.0368 61.0225 23.0527C60.9748 23.2593 60.947 23.4142 60.9391 23.5175C60.9311 23.6525 60.9272 23.8591 60.9272 24.1372H60.8914C60.9391 24.5344 60.9709 24.8324 60.9868 25.031C60.9868 25.0707 60.9748 25.1025 60.951 25.1263C60.9113 25.1502 60.8795 25.1541 60.8557 25.1382C60.8318 25.1144 60.8199 25.0826 60.8199 25.0429C60.8358 24.5026 60.8438 24.0935 60.8438 23.8154C60.8438 23.6803 60.8159 23.5294 60.7603 23.3626C60.7524 23.3387 60.7325 23.3149 60.7007 23.291C60.6769 23.2593 60.6531 23.2434 60.6292 23.2434C60.5577 23.2434 60.5061 23.2752 60.4743 23.3387C60.371 23.5294 60.3551 23.7876 60.4266 24.1133C60.4425 24.1451 60.4505 24.1729 60.4505 24.1968C60.4505 24.2444 60.4386 24.2802 60.4147 24.304C60.3829 24.3358 60.3512 24.3358 60.3194 24.304C60.2876 24.2722 60.2717 24.2365 60.2717 24.1968C60.2797 24.1412 60.2876 24.0577 60.2956 23.9465C60.3035 23.8353 60.3114 23.7519 60.3194 23.6962C60.3194 23.6168 60.3114 23.5612 60.2956 23.5294C60.232 23.4261 60.1803 23.3745 60.1406 23.3745C60.0532 23.3745 59.9817 23.4102 59.9261 23.4817C59.8943 23.5373 59.8745 23.5731 59.8665 23.589C59.8586 23.6764 59.8506 23.8154 59.8427 24.0061C59.8427 24.1888 59.8427 24.3239 59.8427 24.4113C59.8427 24.5225 59.8268 24.594 59.795 24.6258C59.7791 24.6496 59.7632 24.6337 59.7474 24.5781C59.7474 24.5702 59.7434 24.5622 59.7354 24.5543L59.7235 24.4947C59.6758 24.3358 59.6361 24.2365 59.6043 24.1968C59.5805 24.1491 59.5527 24.1491 59.5209 24.1968C59.4891 24.2365 59.4534 24.3358 59.4137 24.4947C59.3581 24.6933 59.2905 24.7211 59.2111 24.5781C59.1872 24.5305 59.1515 24.451 59.1038 24.3398V24.3517C59.1038 24.3755 59.1157 24.4113 59.1396 24.459C59.1634 24.4987 59.1753 24.5305 59.1753 24.5543C59.1833 24.594 59.1713 24.6417 59.1396 24.6973C59.1237 24.7132 59.0998 24.7211 59.0681 24.7211C59.0442 24.7211 59.0244 24.7172 59.0085 24.7092C58.9608 24.6615 58.9449 24.6139 58.9608 24.5662C58.9926 24.3914 59.0124 24.2564 59.0204 24.161C58.9171 24.018 58.8218 24.0299 58.7344 24.1968C58.6152 24.4192 58.5755 24.7489 58.6152 25.1859C58.6311 25.4004 58.6629 25.7222 58.7105 26.1512C58.7105 26.1751 58.7105 26.2029 58.7105 26.2346C58.7185 26.2664 58.7225 26.2942 58.7225 26.3181C58.7225 26.8663 58.7185 27.1761 58.7105 27.2476C58.7026 27.2635 58.6907 27.2913 58.6748 27.331C58.6668 27.3628 58.6589 27.3867 58.651 27.4025C58.6351 27.4264 58.6271 27.478 58.6271 27.5575V27.5456C58.4364 27.3946 58.361 27.0132 58.4007 26.4015V26.2346C58.4484 25.7818 58.4642 25.2852 58.4484 24.745C58.4404 24.2603 58.361 24.0021 58.21 23.9703C58.1544 23.9703 58.1028 24.0061 58.0551 24.0776C57.9995 24.1729 57.9359 24.3318 57.8644 24.5543C57.8326 24.6735 57.781 24.7529 57.7095 24.7926C57.7015 24.7847 57.6856 24.7807 57.6618 24.7807C57.638 24.7728 57.6181 24.7569 57.6022 24.7331C57.5943 24.7092 57.5863 24.6655 57.5784 24.602V24.5185C57.5069 24.7013 57.4672 24.8284 57.4592 24.8999C57.4672 24.9317 57.4711 24.9833 57.4711 25.0548H57.5665C57.5426 25.166 57.5148 25.313 57.4831 25.4958C57.4831 25.5196 57.4473 25.8453 57.3758 26.473C57.3599 26.7431 57.3599 27.1682 57.3758 27.7481C57.3917 27.7958 57.3996 27.8316 57.3996 27.8554C57.4155 27.7283 57.4235 27.6329 57.4235 27.5694C57.4235 27.5217 57.4235 27.474 57.4235 27.4264C57.4235 27.3708 57.4235 27.3072 57.4235 27.2357C57.4235 27.1562 57.4235 27.0927 57.4235 27.045C57.4314 27.1642 57.4433 27.3747 57.4592 27.6766C57.4831 27.9785 57.5029 28.209 57.5188 28.3678V28.4155C57.5188 28.6459 57.487 28.7611 57.4235 28.7611V28.7492C57.4235 28.7413 57.4195 28.7373 57.4115 28.7373V29.3808C57.4036 29.794 57.3599 29.9846 57.2805 29.9529C57.201 29.8972 57.1613 29.6668 57.1613 29.2617C57.1613 29.0154 57.1692 28.6539 57.1851 28.1772C57.1613 28.1772 57.1414 28.1692 57.1255 28.1533C57.1176 28.209 57.0977 28.2248 57.0659 28.201C57.0103 28.1454 56.9746 28.0024 56.9587 27.772C56.9587 27.764 56.9547 27.7521 56.9468 27.7362C56.9468 27.7203 56.9428 27.6965 56.9349 27.6647C56.9349 27.6329 56.9349 27.6012 56.9349 27.5694C56.9349 27.6091 56.9309 27.6766 56.9229 27.772C56.9229 27.8594 56.9229 27.9269 56.9229 27.9746L56.9587 30.084C56.9666 30.362 56.9706 30.7791 56.9706 31.3353C56.9706 31.9232 56.9269 32.2172 56.8395 32.2172C56.7521 32.2172 56.7084 31.9033 56.7084 31.2757C56.7084 30.8546 56.7164 30.223 56.7323 29.3808C56.7323 29.3173 56.7323 29.218 56.7323 29.0829C56.7402 28.9478 56.7442 28.8485 56.7442 28.785C56.7283 28.6737 56.7203 28.5903 56.7203 28.5347C56.7203 28.487 56.7283 28.4155 56.7442 28.3202V27.7362C56.7362 27.2516 56.7084 27.0093 56.6608 27.0093C56.6369 27.0093 56.6051 27.0609 56.5654 27.1642C56.4939 27.3469 56.4343 27.2913 56.3867 26.9974C56.3787 26.9656 56.3668 26.91 56.3509 26.8305C56.343 26.7431 56.335 26.6875 56.3271 26.6637C56.2794 26.5683 56.2436 26.5326 56.2198 26.5564C56.2119 26.5802 56.1999 26.6716 56.1841 26.8305C56.192 27.0053 56.2119 27.2238 56.2436 27.486C56.2754 27.7481 56.2913 27.9388 56.2913 28.058C56.2913 28.1692 56.2595 28.2288 56.196 28.2368C56.196 28.3321 56.192 28.3996 56.1841 28.4394C56.1761 28.5744 56.1523 28.6976 56.1126 28.8088C56.1443 28.8008 56.1682 28.8167 56.1841 28.8565C56.1999 28.8962 56.1999 28.9478 56.1841 29.0114C56.1523 29.1385 56.1006 29.1425 56.0291 29.0233C56.0212 28.92 56.0331 28.8565 56.0649 28.8326C56.0172 28.7532 55.9934 28.6102 55.9934 28.4036V27.8554V27.6171C55.9298 27.4979 55.9179 27.3509 55.9576 27.1761C55.9894 27.041 56.0093 26.9258 56.0172 26.8305C56.0172 26.5286 56.0132 26.3101 56.0053 26.1751C56.0053 26.1274 56.0013 26.0916 55.9934 26.0678C55.8901 25.75 55.8305 25.4759 55.8146 25.2455C55.8067 25.0151 55.8265 24.8562 55.8742 24.7688C55.9298 24.6735 55.9815 24.5781 56.0291 24.4828C56.0847 24.3874 56.1245 24.312 56.1483 24.2564C56.1721 24.1928 56.1483 24.0816 56.0768 23.9227C56.0768 24.0021 56.0728 24.0736 56.0649 24.1372C56.0569 24.1928 56.049 24.2405 56.041 24.2802C56.041 24.3199 56.0331 24.3477 56.0172 24.3636C56.0093 24.3795 55.9974 24.3835 55.9815 24.3755C55.9576 24.3517 55.9417 24.3318 55.9338 24.3159C55.9179 24.4272 55.8901 24.4828 55.8504 24.4828C55.7709 24.4828 55.7312 24.3437 55.7312 24.0657C55.7391 24.0577 55.7471 24.0418 55.755 24.018C55.7709 23.9942 55.7828 23.9743 55.7908 23.9584C55.8067 23.9346 55.8186 23.9187 55.8265 23.9108C55.8424 23.9028 55.8623 23.9187 55.8861 23.9584V23.7082C55.902 23.3904 55.9179 23.16 55.9338 23.0169C55.9735 22.5879 55.9815 22.1708 55.9576 21.7656C55.91 20.8361 55.9258 19.9979 56.0053 19.2511C56.0053 18.9333 55.9974 18.4645 55.9815 17.8448C55.9815 17.7574 55.9616 17.6939 55.9219 17.6541C55.8186 17.5508 55.7868 17.3999 55.8265 17.2013C55.8106 17.1218 55.7948 17.0503 55.7789 16.9868C55.7391 17.0662 55.7153 17.102 55.7074 17.094L55.612 16.9033C55.6359 16.8318 55.6517 16.7881 55.6597 16.7722C55.62 16.7325 55.5723 16.7127 55.5167 16.7127C55.469 16.7206 55.4174 16.808 55.3618 16.9748C55.3379 17.0622 55.326 17.1655 55.326 17.2847C55.334 17.38 55.3419 17.527 55.3498 17.7256C55.3657 17.9163 55.3737 18.0593 55.3737 18.1547C55.3737 18.25 55.3618 18.3136 55.3379 18.3453C55.33 18.3612 55.3141 18.3692 55.2903 18.3692C55.2664 18.3692 55.2466 18.3612 55.2307 18.3453C55.2068 18.2977 55.1949 18.2341 55.1949 18.1547C55.1949 18.1149 55.2029 18.0633 55.2188 17.9997C55.2903 17.4198 55.2744 16.9709 55.1711 16.6531C55.1552 16.6133 55.1314 16.5736 55.0996 16.5339C55.0678 16.4862 55.04 16.4664 55.0162 16.4743C54.9367 16.4981 54.889 16.5697 54.8731 16.6888C54.8096 17.0225 54.7778 17.2847 54.7778 17.4754L54.8136 19.6562C54.8136 19.7198 54.7977 19.7754 54.7659 19.8231C54.7341 19.8549 54.7023 19.8509 54.6706 19.8112C54.6467 19.7715 54.6348 19.7158 54.6348 19.6443V19.6324C54.5792 19.5768 54.5514 19.4298 54.5514 19.1915C54.5514 19.0246 54.5593 18.7744 54.5752 18.4407C54.599 17.9084 54.5633 17.6144 54.468 17.5588C54.4282 17.535 54.3965 17.5787 54.3726 17.6899C54.3567 17.7534 54.3448 17.8249 54.3369 17.9044V17.9997C54.3369 18.0315 54.3289 18.0792 54.313 18.1427V18.3453C54.313 18.6631 54.321 19.1319 54.3369 19.7516C54.3528 20.1171 54.3607 20.3912 54.3607 20.5739C54.3607 20.9711 54.317 21.1698 54.2296 21.1698C54.1899 21.1698 54.1541 21.1062 54.1224 20.9791C54.0985 20.852 54.0866 20.705 54.0866 20.5381C54.0866 20.5302 54.0985 20.1091 54.1224 19.2749C54.1303 19.0365 54.1343 18.6751 54.1343 18.1904C54.1263 17.8726 54.0945 17.7097 54.0389 17.7018C54.0151 17.6939 53.9833 17.7256 53.9436 17.7971C53.88 17.9084 53.8244 17.8726 53.7767 17.6899C53.7767 17.6819 53.7648 17.6462 53.741 17.5826C53.7251 17.5191 53.7132 17.4793 53.7052 17.4635C53.6576 17.3999 53.6258 17.38 53.6099 17.4039C53.5781 17.4515 53.5622 17.5588 53.5622 17.7256C53.5622 17.7892 53.5622 17.8806 53.5622 17.9997C53.5702 18.1189 53.5742 18.2063 53.5742 18.2619C53.5742 18.4605 53.5702 18.5916 53.5622 18.6552C53.5305 18.83 53.4987 18.9174 53.4669 18.9174C53.4113 18.9174 53.3835 18.822 53.3835 18.6314C53.3755 18.4248 53.3795 18.1229 53.3954 17.7256C53.4033 17.5111 53.3755 17.245 53.312 16.9272C53.2564 16.6014 53.2285 16.4266 53.2285 16.4028C53.1968 16.085 53.2325 15.791 53.3358 15.5209C53.447 15.2508 53.594 15.072 53.7767 14.9846C53.7211 14.9687 53.7013 14.9449 53.7172 14.9131C53.741 14.8655 53.8284 14.8257 53.9793 14.794C53.9952 14.794 54.0111 14.79 54.027 14.782V14.7701C53.9952 14.5953 54.0032 14.4484 54.0508 14.3292C54.1065 14.2021 54.1899 14.1306 54.3011 14.1147H54.4322C54.5355 14.1226 54.6269 14.0869 54.7063 14.0074C54.7858 13.928 54.8493 13.8088 54.897 13.6499C54.9367 13.5148 54.9725 13.4394 55.0042 13.4235C55.044 13.4076 55.0996 13.4394 55.1711 13.5188C55.2982 13.6698 55.4213 13.6896 55.5405 13.5784C55.62 13.5148 55.6835 13.5426 55.7312 13.6618C55.8027 13.8366 55.906 13.9319 56.041 13.9478H56.0649C56.0808 13.9399 56.1006 13.928 56.1245 13.9121C56.1563 13.8962 56.1761 13.8843 56.1841 13.8763C56.1999 13.8684 56.2238 13.8604 56.2556 13.8525C56.2953 13.8445 56.3231 13.8406 56.339 13.8406C56.3549 13.8406 56.3787 13.8406 56.4105 13.8406C56.4423 13.8326 56.4661 13.8287 56.482 13.8287C56.4979 13.8128 56.5098 13.7969 56.5177 13.781C56.5019 13.781 56.478 13.781 56.4462 13.781C56.4145 13.773 56.3906 13.7691 56.3747 13.7691C56.2873 13.777 56.2158 13.777 56.1602 13.7691C56.1046 13.7611 56.0649 13.7532 56.041 13.7452C56.0172 13.7293 56.0053 13.7095 56.0053 13.6856C56.0212 13.6062 56.1563 13.5665 56.4105 13.5665C56.5138 13.5665 56.6528 13.5744 56.8276 13.5903C57.1057 13.6141 57.3639 13.6062 57.6022 13.5665C58.2537 13.4632 58.8655 13.4632 59.4375 13.5665C60.0175 13.6618 60.371 13.8287 60.4981 14.067C60.5379 14.1306 60.5498 14.1981 60.5339 14.2696C61.4476 14.4762 62.0871 14.782 62.4526 15.1872C62.4129 15.0998 62.4129 15.0482 62.4526 15.0323C62.5241 15.0005 62.6035 15.0482 62.6909 15.1753C62.7386 15.2389 62.7823 15.3223 62.822 15.4256C62.9015 15.5924 62.9968 15.7275 63.1081 15.8308C63.2669 15.9817 63.4179 16.1843 63.5609 16.4386C63.8787 16.6292 64.0495 16.8954 64.0734 17.237C64.0892 17.4992 64.129 17.6939 64.1925 17.821ZM55.9576 16.3194C55.9974 16.5021 56.0371 16.6491 56.0768 16.7603C56.1642 16.6412 56.2119 16.4703 56.2198 16.2479C56.2198 16.232 56.2317 16.1168 56.2556 15.9023C56.2158 15.8784 56.1999 15.8387 56.2079 15.7831C56.1523 15.7672 56.1086 15.7752 56.0768 15.8069C55.9417 15.9102 55.902 16.081 55.9576 16.3194ZM56.0887 18.6552C56.1761 18.0911 56.2913 17.67 56.4343 17.3919C56.339 17.3443 56.2715 17.3999 56.2317 17.5588C56.1443 17.9878 56.0967 18.2818 56.0887 18.4407V18.6552ZM56.7918 13.9002L56.8872 13.8287C56.7998 13.7969 56.6886 13.781 56.5535 13.781C56.5694 13.8128 56.5813 13.8326 56.5892 13.8406H56.6369C56.6528 13.8485 56.6766 13.8604 56.7084 13.8763C56.7481 13.8843 56.776 13.8922 56.7918 13.9002ZM57.3758 18.2619C57.3917 18.3414 57.4036 18.4049 57.4115 18.4526C57.4115 18.4447 57.4076 18.4248 57.3996 18.393C57.3996 18.3612 57.3996 18.3414 57.3996 18.3334C57.3996 18.3175 57.3917 18.2937 57.3758 18.2619ZM58.6986 15.7831V15.8069V15.7831C58.7304 15.7831 58.7503 15.7712 58.7582 15.7474V15.7235V15.7474C58.7264 15.7474 58.7066 15.7593 58.6986 15.7831ZM58.6033 15.9499L58.5914 15.938V15.9499H58.6033ZM61.2847 23.6009C61.2847 23.5612 61.2847 23.5056 61.2847 23.4341C61.2926 23.3626 61.2966 23.3069 61.2966 23.2672C61.2966 23.2513 61.2887 23.2116 61.2728 23.148V23.1957V23.3387V23.3983V23.446V23.4817V23.5532V23.5771C61.2728 23.585 61.2767 23.593 61.2847 23.6009ZM62.0236 17.9163C62.0712 17.8051 62.0792 17.6899 62.0474 17.5707C62.0156 17.4356 62.0117 17.2926 62.0355 17.1417C62.0037 17.102 61.8965 16.9907 61.7137 16.808C61.6502 16.9351 61.6184 17.1178 61.6184 17.3562C61.6263 17.4198 61.6343 17.5151 61.6422 17.6422C61.6581 17.7614 61.666 17.8488 61.666 17.9044C61.666 18.0236 61.6621 18.0951 61.6541 18.1189C61.6382 18.1825 61.5945 18.2142 61.523 18.2142C61.4754 18.2142 61.4356 18.1785 61.4039 18.107C61.3959 18.0911 61.3919 18.0395 61.3919 17.9521C61.3919 17.8806 61.3959 17.7336 61.4039 17.5111C61.4118 17.2807 61.4118 17.1059 61.4039 16.9868C61.4039 16.955 61.3681 16.8755 61.2966 16.7484C61.2331 16.6292 61.1854 16.5538 61.1536 16.522C61.098 16.4425 61.0503 16.4028 61.0106 16.4028C60.9868 16.4028 60.959 16.4187 60.9272 16.4505C60.8954 16.4823 60.8755 16.5101 60.8676 16.5339C60.8517 16.6054 60.8517 16.7206 60.8676 16.8795C60.8755 16.9113 60.8835 16.955 60.8914 17.0106C60.9073 17.0662 60.9153 17.1099 60.9153 17.1417C60.9153 17.2132 60.9073 17.2609 60.8914 17.2847C60.8517 17.3483 60.8159 17.38 60.7842 17.38C60.7603 17.38 60.7166 17.3483 60.6531 17.2847C60.6292 17.2609 60.6253 17.2331 60.6412 17.2013C60.6729 17.1139 60.669 16.8994 60.6292 16.5577C60.6054 16.3432 60.6213 16.1565 60.6769 15.9976C60.661 15.9897 60.6332 15.9857 60.5935 15.9857C60.5538 15.9857 60.526 15.9817 60.5101 15.9738C60.4942 16.1645 60.4862 16.3075 60.4862 16.4028C60.4862 16.6014 60.4743 16.7484 60.4505 16.8437C60.4028 17.0106 60.3512 17.0185 60.2956 16.8676C60.2956 16.8596 60.2916 16.8477 60.2836 16.8318C60.2519 16.7842 60.228 16.7603 60.2121 16.7603C60.1803 16.7762 60.1645 16.8318 60.1645 16.9272C60.1645 17.0146 60.1605 17.1457 60.1525 17.3204C60.1446 17.4873 60.1367 17.6144 60.1287 17.7018C60.1287 17.8051 60.1088 17.8607 60.0691 17.8686C60.0373 17.8766 60.0095 17.8289 59.9857 17.7256C59.9778 17.7018 59.9698 17.67 59.9619 17.6303C59.9539 17.5906 59.9499 17.5588 59.9499 17.535C59.942 17.4714 59.9301 17.4277 59.9142 17.4039C59.9063 17.38 59.8824 17.388 59.8427 17.4277C59.7632 17.531 59.7156 17.4992 59.6997 17.3324C59.6917 17.2688 59.6838 17.1695 59.6758 17.0344C59.6679 16.8994 59.6639 16.8279 59.6639 16.8199C59.6639 16.6531 59.6361 16.5538 59.5805 16.522C59.509 16.4823 59.4574 16.5418 59.4256 16.7007C59.4017 16.7484 59.3819 16.7722 59.366 16.7722C59.3342 16.7643 59.3183 16.7166 59.3183 16.6292C59.3183 16.518 59.3024 16.4584 59.2707 16.4505C59.2468 16.4425 59.2309 16.4505 59.223 16.4743C59.215 16.4902 59.1992 16.526 59.1753 16.5816C59.0641 16.8517 59.0442 17.1854 59.1157 17.5826C59.1555 17.8766 59.1753 18.0434 59.1753 18.0832C59.1753 18.2341 59.1435 18.3294 59.08 18.3692H59.0204C58.933 18.2818 58.9052 18.0792 58.937 17.7614C58.9846 17.4039 58.9767 17.0742 58.9131 16.7722C58.9052 16.7484 58.8575 16.5657 58.7701 16.224C58.7304 16.0969 58.6549 16.0413 58.5437 16.0572L58.5199 16.081C58.4801 16.1208 58.4563 16.1525 58.4484 16.1764V16.224V16.236L58.4364 16.2479V16.3194V16.4624V16.6054V16.665V16.7127V16.7484V16.8199V16.8437C58.4364 16.8517 58.4404 16.8596 58.4484 16.8676V16.8795C58.4484 16.9431 58.4563 16.9907 58.4722 17.0225C58.4722 17.094 58.4563 17.1377 58.4245 17.1536C58.4166 17.1615 58.3967 17.1655 58.3649 17.1655C58.357 17.1576 58.3451 17.1496 58.3292 17.1417C58.3212 17.1337 58.3133 17.1298 58.3053 17.1298C58.3053 17.1218 58.3014 17.1139 58.2934 17.1059C58.2934 17.09 58.2934 17.0781 58.2934 17.0702V17.0463C58.2934 17.0384 58.2934 17.0305 58.2934 17.0225C58.3014 17.0146 58.3053 17.0066 58.3053 16.9987C58.3212 16.959 58.3292 16.8795 58.3292 16.7603C58.3292 16.7524 58.3292 16.7444 58.3292 16.7365C58.3371 16.7285 58.3411 16.7206 58.3411 16.7127V16.665V16.6531C58.3332 16.6531 58.3212 16.6491 58.3053 16.6412C58.2815 16.6332 58.2617 16.6451 58.2458 16.6769C58.2378 16.7087 58.2299 16.7484 58.2219 16.7961C58.206 16.8596 58.1981 16.947 58.1981 17.0583C58.2855 17.1695 58.353 17.2966 58.4007 17.4396C58.4007 17.4476 58.4007 17.4595 58.4007 17.4754C58.4086 17.4833 58.4126 17.4913 58.4126 17.4992C58.4126 17.5072 58.4126 17.5151 58.4126 17.523C58.4206 17.531 58.4245 17.5389 58.4245 17.5469V17.6303V17.7733C58.4166 17.7812 58.4126 17.7892 58.4126 17.7971C58.4126 17.8051 58.4166 17.8091 58.4245 17.8091C58.361 17.968 58.3053 18.0832 58.2577 18.1547C58.218 18.2103 58.1584 18.2341 58.0789 18.2262C57.9756 18.2103 57.9081 18.2421 57.8763 18.3215V19.2749C57.8763 19.3226 57.8843 19.3901 57.9002 19.4775C57.916 19.5649 57.924 19.6245 57.924 19.6562C57.924 19.7198 57.916 19.8072 57.9002 19.9184C57.8843 19.9264 57.8644 19.9343 57.8406 19.9423C57.8167 19.8708 57.8048 19.7873 57.8048 19.692C57.8048 19.541 57.8048 19.3186 57.8048 19.0246C57.8128 18.7307 57.8167 18.5122 57.8167 18.3692C57.777 18.3851 57.7413 18.3811 57.7095 18.3573C57.6698 18.2858 57.6419 18.2421 57.6261 18.2262C57.6181 18.2103 57.5943 18.2103 57.5546 18.2262C57.5387 18.401 57.5307 18.5281 57.5307 18.6075V19.3226C57.5704 19.696 57.5943 20.0932 57.6022 20.5143C57.6181 21.4995 57.6499 22.2185 57.6976 22.6713C57.7055 22.7111 57.6817 22.8302 57.6261 23.0289C58.0313 22.9891 58.4245 22.9017 58.8059 22.7667C58.8218 22.727 58.8416 22.6992 58.8655 22.6833C58.8814 22.6674 58.9608 22.6197 59.1038 22.5403C59.215 22.4846 59.2786 22.3853 59.2945 22.2423C59.3104 22.1629 59.3263 22.0953 59.3422 22.0397C59.3819 21.9126 59.4852 21.8411 59.652 21.8252C59.7712 21.8093 59.8665 21.7577 59.938 21.6703C59.9857 21.5988 60.0453 21.5829 60.1168 21.6226C60.1486 21.6465 60.1843 21.6584 60.224 21.6584C60.2638 21.5869 60.3154 21.5273 60.379 21.4796L60.3909 21.4677H60.4028C60.4187 21.4597 60.4386 21.4478 60.4624 21.4319C60.4942 21.416 60.518 21.4041 60.5339 21.3962C60.518 21.3803 60.5101 21.3644 60.5101 21.3485C60.5101 21.3406 60.518 21.3287 60.5339 21.3128C60.5498 21.2969 60.5617 21.2889 60.5697 21.2889C60.5776 21.2889 60.5855 21.2929 60.5935 21.3008C60.6014 21.3088 60.6094 21.3167 60.6173 21.3247C60.6332 21.3326 60.6451 21.3406 60.6531 21.3485C60.661 21.3485 60.665 21.3485 60.665 21.3485L60.6888 21.3366L60.7007 21.3247C60.7087 21.3247 60.7166 21.3247 60.7246 21.3247C60.7325 21.3406 60.7444 21.3406 60.7603 21.3247C60.7683 21.3247 60.7802 21.3247 60.7961 21.3247C60.812 21.3167 60.8239 21.3128 60.8318 21.3128C60.8398 21.3128 60.8477 21.3167 60.8557 21.3247C60.8716 21.3247 60.8835 21.3247 60.8914 21.3247C60.8994 21.3247 60.9113 21.3287 60.9272 21.3366C60.9431 21.3366 60.955 21.3366 60.9629 21.3366C60.9629 21.3287 60.959 21.3167 60.951 21.3008C60.9192 21.3167 60.8994 21.3247 60.8914 21.3247C60.8676 21.3167 60.8279 21.277 60.7722 21.2055C60.7802 21.1976 60.7961 21.1817 60.8199 21.1578C60.8438 21.134 60.8596 21.1181 60.8676 21.1102C60.7166 20.7209 60.8001 20.4428 61.1178 20.276C61.3959 20.125 61.5866 20.0495 61.6899 20.0495C61.6819 19.835 61.7137 19.5967 61.7852 19.3345C61.7852 19.3186 61.7932 19.2987 61.8091 19.2749C61.8249 19.2431 61.8329 19.2193 61.8329 19.2034C61.8011 19.1398 61.7813 19.0922 61.7733 19.0604C61.6859 18.7744 61.7574 18.4963 61.9878 18.2262C61.964 18.1864 61.956 18.1427 61.964 18.0951C61.9719 18.0553 61.9918 17.9958 62.0236 17.9163ZM62.7386 17.8448C62.7386 17.8369 62.7466 17.8249 62.7624 17.8091C62.7783 17.7932 62.7863 17.7812 62.7863 17.7733C62.7704 17.7574 62.7386 17.7376 62.6909 17.7137C62.6433 17.6899 62.6115 17.674 62.5956 17.666C62.5877 17.674 62.5718 17.6859 62.5479 17.7018C62.4764 17.7654 62.401 17.8289 62.3215 17.8925C62.2897 17.9163 62.2659 17.9481 62.25 17.9878L62.393 17.9163C62.4963 17.8686 62.6115 17.8448 62.7386 17.8448ZM58.5914 21.8371C58.6549 21.8371 58.7105 21.861 58.7582 21.9086C58.8138 21.9484 58.8416 21.996 58.8416 22.0516C58.8416 22.1629 58.786 22.2185 58.6748 22.2185C58.6112 22.2185 58.5516 22.1947 58.496 22.147C58.4404 22.0914 58.4166 22.0358 58.4245 21.9801C58.4245 21.8848 58.4801 21.8371 58.5914 21.8371ZM58.5199 22.5998C58.5278 22.5919 58.5358 22.584 58.5437 22.576C58.5516 22.5601 58.5636 22.5442 58.5794 22.5283C58.6033 22.5124 58.6192 22.5005 58.6271 22.4926C58.643 22.5085 58.6629 22.5323 58.6867 22.5641C58.7105 22.5959 58.7304 22.6197 58.7463 22.6356C58.7383 22.6435 58.7264 22.6555 58.7105 22.6713C58.6947 22.6872 58.6827 22.6992 58.6748 22.7071C58.6668 22.7071 58.6589 22.7071 58.651 22.7071C58.6192 22.6912 58.5755 22.6555 58.5199 22.5998ZM59.1038 21.7895C59.1276 21.7656 59.1515 21.7378 59.1753 21.706C59.1833 21.714 59.1912 21.7259 59.1992 21.7418C59.215 21.7577 59.227 21.7736 59.2349 21.7895C59.2508 21.7974 59.2587 21.8053 59.2587 21.8133L59.2111 21.8729C59.1475 21.8332 59.1118 21.8053 59.1038 21.7895ZM65.1698 22.6833C65.1698 22.6753 65.1777 22.6515 65.1936 22.6118C65.2174 22.5641 65.2373 22.5204 65.2532 22.4807C65.2611 22.5124 65.273 22.5601 65.2889 22.6237C65.3128 22.6793 65.3287 22.723 65.3366 22.7548C65.3287 22.7627 65.3207 22.7786 65.3128 22.8024C65.2889 22.866 65.273 22.8938 65.2651 22.8859C65.2572 22.8779 65.2452 22.862 65.2293 22.8382C65.2214 22.8144 65.2095 22.7865 65.1936 22.7548C65.1856 22.723 65.1777 22.6992 65.1698 22.6833ZM67.7082 21.9921C67.7082 21.9682 67.7082 21.9484 67.7082 21.9325C67.7082 21.9166 67.732 21.853 67.7797 21.7418C67.7797 21.7577 67.7876 21.7855 67.8035 21.8252C67.8194 21.8649 67.8273 21.8927 67.8273 21.9086C67.8273 21.9166 67.8035 22.0079 67.7558 22.1827C67.7479 22.151 67.7399 22.1152 67.732 22.0755C67.724 22.0358 67.7161 22.0079 67.7082 21.9921ZM69.6864 30.0363V30.0482C69.6864 30.1515 69.6586 30.2031 69.603 30.2031C69.5315 30.2031 69.5037 30.1515 69.5196 30.0482C69.5275 30.0244 69.5355 29.9846 69.5434 29.929C69.5593 29.8814 69.5712 29.8377 69.5792 29.7979C69.5871 29.7582 69.5911 29.7225 69.5911 29.6907C69.599 29.6907 69.599 29.6549 69.5911 29.5834C69.5911 29.5199 69.5911 29.4841 69.5911 29.4762C69.599 29.5238 69.611 29.6112 69.6269 29.7383C69.6507 29.8655 69.6706 29.9648 69.6864 30.0363ZM68.9714 29.786C68.9714 29.794 68.9714 29.8059 68.9714 29.8218C68.9793 29.8456 68.9833 29.8615 68.9833 29.8694C68.9833 29.8933 68.9913 29.929 69.0072 29.9767C69.023 30.0244 69.031 30.0641 69.031 30.0959C69.031 30.1435 69.0191 30.1872 68.9952 30.227C68.9952 30.2428 68.9714 30.2468 68.9237 30.2389C68.8919 30.1833 68.88 30.1396 68.888 30.1078C68.8959 30.076 68.9078 30.0244 68.9237 29.9529C68.9476 29.8814 68.9635 29.8257 68.9714 29.786ZM68.4947 22.0755C68.6457 22.3138 68.6933 22.7746 68.6377 23.4579C68.6139 23.8154 68.5702 23.9902 68.5066 23.9823C68.459 23.9823 68.4192 23.8353 68.3874 23.5413C68.3954 23.446 68.3914 23.3069 68.3755 23.1242C68.3596 22.9415 68.3557 22.7627 68.3636 22.5879C68.3716 22.4131 68.4153 22.2423 68.4947 22.0755ZM68.3874 24.2325C68.451 24.1531 68.5146 24.1928 68.5781 24.3517C68.6576 24.5583 68.6417 24.6973 68.5305 24.7688C68.4828 24.7926 68.4272 24.8006 68.3636 24.7926C68.3159 24.745 68.2921 24.6973 68.2921 24.6496C68.2444 24.6973 68.1888 24.7211 68.1253 24.7211C67.9823 24.7052 67.9108 24.6298 67.9108 24.4947C67.9108 24.3676 67.9823 24.304 68.1253 24.304C68.2365 24.304 68.308 24.3596 68.3398 24.4709C68.3874 24.3755 68.4033 24.2961 68.3874 24.2325ZM76.384 18.3096C76.3443 18.3493 76.3324 18.3851 76.3483 18.4168C76.3165 18.5122 76.2966 18.6155 76.2887 18.7267C76.2887 18.83 76.2887 18.9531 76.2887 19.0961C76.2966 19.2312 76.3006 19.3345 76.3006 19.406V20.419C76.3006 20.6017 76.2926 20.7209 76.2767 20.7765C76.1973 20.8003 76.1615 20.7685 76.1695 20.6811C76.1695 20.6732 76.1695 20.6653 76.1695 20.6573C76.1695 20.1488 76.1655 19.7675 76.1576 19.5132C76.1576 19.2193 76.1377 19.0048 76.098 18.8697V18.7624C76.1377 18.5877 76.1615 18.4963 76.1695 18.4883C76.1933 18.4486 76.1973 18.4168 76.1814 18.393C76.1655 18.3692 76.1496 18.3533 76.1337 18.3453C76.1258 18.3374 76.1059 18.3334 76.0742 18.3334C76.0424 18.3255 76.0225 18.3215 76.0146 18.3215H75.955C75.955 18.3851 75.955 18.4725 75.955 18.5837C75.9629 18.6949 75.9669 18.7823 75.9669 18.8459C75.9669 19.0207 75.959 19.1359 75.9431 19.1915C75.9272 19.1994 75.9073 19.2034 75.8835 19.2034C75.8676 19.2034 75.8596 19.1954 75.8596 19.1796C75.8199 19.1478 75.808 19.0882 75.8239 19.0008C75.8239 18.9928 75.8239 18.9849 75.8239 18.977C75.8318 18.9611 75.8358 18.9492 75.8358 18.9412V18.8578C75.8358 18.8181 75.8159 18.7783 75.7762 18.7386C75.7762 18.6433 75.7643 18.5718 75.7405 18.5241V18.3811C75.7484 18.3016 75.7007 18.246 75.5975 18.2142C75.5816 18.2142 75.5657 18.2182 75.5498 18.2262C75.5418 18.2341 75.5299 18.25 75.514 18.2738C75.5061 18.2897 75.4981 18.3016 75.4902 18.3096C75.4823 18.3255 75.4703 18.3374 75.4544 18.3453C75.4386 18.3533 75.4187 18.3573 75.3949 18.3573C75.371 18.3573 75.3551 18.3573 75.3472 18.3573C75.3234 18.3493 75.3114 18.3573 75.3114 18.3811H75.2399C75.2002 18.3096 75.1645 18.2738 75.1327 18.2738C75.1327 18.2421 75.1208 18.2222 75.0969 18.2142C75.081 18.111 74.9897 18.0553 74.8228 18.0474C74.6639 18.0315 74.5527 17.9521 74.4891 17.8091C74.4733 17.7693 74.3938 17.6422 74.2508 17.4277C74.1157 17.2052 74.0442 17.0106 74.0363 16.8437C74.0283 16.7881 74.0363 16.7524 74.0601 16.7365C74.0681 16.7365 74.076 16.7325 74.084 16.7246C74.0919 16.7166 74.0998 16.7047 74.1078 16.6888C74.1237 16.665 74.1396 16.6412 74.1555 16.6173C74.1793 16.5617 74.1952 16.5061 74.2031 16.4505C74.2111 16.3949 74.219 16.3551 74.227 16.3313C74.1952 16.2995 74.1713 16.2677 74.1555 16.236C74.1475 16.2201 74.1356 16.1962 74.1197 16.1645C74.1118 16.1327 74.1038 16.1088 74.0959 16.093C74.0244 16.228 73.9846 16.3591 73.9767 16.4862C73.9767 16.5498 73.9767 16.6213 73.9767 16.7007C73.9846 16.7722 73.9926 16.8557 74.0005 16.951C74.0085 17.0384 74.0124 17.1059 74.0124 17.1536C74.0124 17.1615 74.0164 17.1774 74.0244 17.2013C74.0323 17.2172 74.0323 17.2291 74.0244 17.237C74.0164 17.2529 74.0045 17.2767 73.9886 17.3085C73.9727 17.3403 73.9608 17.3602 73.9529 17.3681C73.9529 17.3602 73.9409 17.3403 73.9171 17.3085C73.8933 17.2767 73.8814 17.2529 73.8814 17.237C73.8814 17.1814 73.8853 17.102 73.8933 16.9987C73.9092 16.8874 73.9171 16.804 73.9171 16.7484C73.9171 16.6451 73.8972 16.5339 73.8575 16.4147C73.8416 16.3829 73.8178 16.3512 73.786 16.3194C73.7542 16.2876 73.7304 16.2757 73.7145 16.2836C73.643 16.2995 73.5914 16.3472 73.5596 16.4266C73.5278 16.4981 73.5119 16.5935 73.5119 16.7127V17.237C73.5199 17.2926 73.5238 17.5866 73.5238 18.1189C73.5318 18.6433 73.5437 19.1557 73.5596 19.6562C73.5834 20.1568 73.6152 20.4547 73.6549 20.5501C73.6867 20.6374 73.6668 20.709 73.5953 20.7646C73.5318 20.8122 73.4603 20.8083 73.3808 20.7526C73.3252 20.7129 73.3053 20.6494 73.3212 20.562C73.4007 20.2918 73.4404 19.0127 73.4404 16.7246C73.4404 16.7087 73.4364 16.6769 73.4285 16.6292C73.4285 16.5816 73.4285 16.5458 73.4285 16.522C73.4285 16.4823 73.4206 16.4147 73.4047 16.3194C73.4047 16.3353 73.4007 16.3631 73.3927 16.4028C73.3927 16.4425 73.3927 16.4743 73.3927 16.4981C73.3927 16.6332 73.349 16.7007 73.2617 16.7007C73.1901 16.7007 73.1465 16.6372 73.1306 16.5101C73.1306 16.4703 73.1226 16.4068 73.1067 16.3194C73.0988 16.224 73.0908 16.1525 73.0829 16.1049C73.0193 16.1525 72.9876 16.228 72.9876 16.3313C72.9876 16.4108 73.0074 16.6292 73.0471 16.9868C73.0471 17.0026 73.0511 17.0225 73.0591 17.0463C73.0749 17.0702 73.0829 17.09 73.0829 17.1059C73.0829 17.1536 73.071 17.1933 73.0471 17.2251C73.0392 17.2331 73.0233 17.241 72.9995 17.2489C72.9756 17.2489 72.9597 17.245 72.9518 17.237C72.9121 17.1814 72.8922 17.1417 72.8922 17.1178C72.8922 17.094 72.8962 17.0622 72.9041 17.0225C72.92 16.9828 72.928 16.955 72.928 16.9391C72.928 16.804 72.92 16.7047 72.9041 16.6412C72.8962 16.6014 72.8604 16.5736 72.7969 16.5577C72.7572 16.5577 72.7214 16.5816 72.6896 16.6292C72.6499 16.6928 72.63 16.7524 72.63 16.808C72.6141 16.9748 72.6102 17.3125 72.6181 17.821C72.634 18.3294 72.6698 18.6671 72.7254 18.834C72.7492 18.8975 72.7413 18.9611 72.7015 19.0246C72.6936 19.0326 72.6658 19.0365 72.6181 19.0365C72.5784 19.0365 72.5546 19.0326 72.5466 19.0246C72.5069 18.9849 72.487 18.9213 72.487 18.834C72.5426 18.0553 72.5704 17.4317 72.5704 16.9629C72.5704 16.8914 72.5387 16.5697 72.4751 15.9976C72.4513 15.9182 72.4354 15.8665 72.4274 15.8427C72.3877 15.8427 72.352 15.8189 72.3202 15.7712H72.3083C72.2526 15.7632 72.209 15.7791 72.1772 15.8189C72.1533 15.8586 72.1335 15.9142 72.1176 15.9857C72.062 16.2558 72.0779 16.5418 72.1653 16.8437C72.1811 16.9232 72.1772 16.9907 72.1533 17.0463C72.1533 17.0543 72.1414 17.0583 72.1176 17.0583C72.1017 17.0583 72.0818 17.0583 72.058 17.0583C72.0342 17.0583 72.0183 17.0543 72.0103 17.0463C71.9468 17.0066 71.9269 16.9391 71.9507 16.8437C72.054 16.4068 72.0818 16.0453 72.0342 15.7593C72.0024 15.5924 71.9269 15.4931 71.8077 15.4613C71.7601 15.5249 71.7283 15.5765 71.7124 15.6163C71.6171 15.8308 71.5773 16.0175 71.5932 16.1764C71.6171 16.3273 71.5853 16.4028 71.4979 16.4028C71.4343 16.4028 71.4025 16.3353 71.4025 16.2002C71.4025 16.1843 71.3986 16.1645 71.3906 16.1406C71.3906 16.1168 71.3906 16.1009 71.3906 16.093C71.3906 15.9976 71.3588 15.942 71.2953 15.9261C71.2317 15.9102 71.1761 15.942 71.1284 16.0215C71.0093 16.2121 70.9258 16.2082 70.8782 16.0095C70.8543 15.9142 70.8027 15.8705 70.7233 15.8784C70.6438 15.8864 70.5842 15.9341 70.5445 16.0215C70.5127 16.1168 70.5127 16.2558 70.5445 16.4386C70.5604 16.5418 70.5365 16.5935 70.473 16.5935C70.3776 16.5935 70.33 16.5498 70.33 16.4624C70.33 16.4386 70.334 16.3988 70.3419 16.3432C70.3578 16.2797 70.3618 16.232 70.3538 16.2002C70.3538 16.1843 70.3498 16.1406 70.3419 16.0691C70.3419 15.9976 70.3379 15.946 70.33 15.9142C70.322 15.8824 70.2942 15.8506 70.2466 15.8189C70.2068 15.7871 70.1512 15.7712 70.0797 15.7712C70.0718 15.7712 70.0638 15.7712 70.0559 15.7712L70.032 15.7593C69.9526 15.9182 69.8652 16.0612 69.7699 16.1883L69.6984 16.2956C69.7381 16.3273 69.7421 16.371 69.7103 16.4266C69.6308 16.5935 69.6666 16.7444 69.8175 16.8795C69.9288 16.9907 69.9208 17.0861 69.7937 17.1655C69.6586 17.2529 69.5951 17.384 69.603 17.5588C69.611 17.67 69.5951 17.821 69.5553 18.0117L69.5196 17.9044C69.5117 17.8806 69.4958 17.8488 69.4719 17.8091C69.4481 17.7614 69.4282 17.7256 69.4123 17.7018C69.3965 17.7097 69.3726 17.7256 69.3408 17.7495C69.3091 17.7654 69.2813 17.7812 69.2574 17.7971C69.2336 17.813 69.2217 17.8289 69.2217 17.8448V18.3334V18.4645L69.1382 18.4764C69.1303 18.4685 69.1184 18.4288 69.1025 18.3573C69.0866 18.2858 69.0667 18.1785 69.0429 18.0355C69.027 17.8925 69.0151 17.7852 69.0072 17.7137C69.0072 17.6819 68.9913 17.6502 68.9595 17.6184C68.8562 17.5389 68.7887 17.4992 68.7569 17.4992C68.7251 17.4992 68.6894 17.5151 68.6496 17.5469C68.6178 17.5787 68.594 17.6144 68.5781 17.6541C68.4748 17.9084 68.451 18.2142 68.5066 18.5718C68.5146 18.6115 68.5305 18.6671 68.5543 18.7386C68.5781 18.8022 68.59 18.8498 68.59 18.8816C68.6059 18.969 68.598 19.0405 68.5662 19.0961C68.5583 19.112 68.5305 19.1239 68.4828 19.1319C68.4351 19.1398 68.4073 19.1359 68.3994 19.12C68.3517 19.0723 68.3279 19.0008 68.3279 18.9055C68.3279 18.7624 68.3358 18.54 68.3517 18.2381C68.304 18.389 68.2444 18.544 68.1729 18.7029C67.9981 19.0763 67.8829 19.3702 67.8273 19.5847C67.8194 19.6086 67.7598 19.6562 67.6486 19.7278C67.6486 19.8946 67.6367 20.0217 67.6128 20.1091C67.6287 20.1329 67.6367 20.1727 67.6367 20.2283C67.6367 20.276 67.6525 20.3316 67.6843 20.3951C67.7002 20.4269 67.7161 20.4547 67.732 20.4785C67.7479 20.5024 67.7598 20.5183 67.7677 20.5262C67.7757 20.5262 67.7836 20.5302 67.7916 20.5381C67.7995 20.5461 67.8035 20.558 67.8035 20.5739C67.8035 20.5818 67.8035 20.6017 67.8035 20.6335C67.7876 20.7526 67.7677 20.84 67.7439 20.8957C67.7439 20.9036 67.7439 20.9155 67.7439 20.9314C67.7519 20.9473 67.7598 20.9592 67.7677 20.9672C67.7677 21.2452 67.728 21.3843 67.6486 21.3843C67.6088 21.3843 67.581 21.3326 67.5651 21.2293L67.4221 21.4439C67.581 21.5074 67.6406 21.7299 67.6009 22.1112C67.593 22.1748 67.581 22.2662 67.5651 22.3853C67.5493 22.4966 67.5373 22.58 67.5294 22.6356C68.022 23.009 68.165 23.299 67.9584 23.5056C67.8869 23.5215 67.871 23.5453 67.9108 23.5771C67.9346 23.593 67.9664 23.5969 68.0061 23.589C67.9902 23.6367 67.9664 23.6764 67.9346 23.7082C67.9028 23.732 67.875 23.7479 67.8512 23.7558C67.8273 23.7558 67.8114 23.7638 67.8035 23.7797C67.7956 23.7876 67.8035 23.8035 67.8273 23.8273C67.8512 23.8432 67.8988 23.875 67.9703 23.9227C67.9465 23.9703 67.9147 23.9823 67.875 23.9584C67.8353 23.9346 67.7995 23.9266 67.7677 23.9346C67.736 23.9346 67.728 23.9703 67.7439 24.0418C67.8392 24.0816 67.8273 24.1849 67.7082 24.3517C67.5969 24.5106 67.585 24.6258 67.6724 24.6973C67.6088 24.6973 67.5294 24.7132 67.4341 24.745C67.4341 24.7688 67.4341 24.8125 67.4341 24.8761C67.442 24.9396 67.446 24.9833 67.446 25.0072C67.5016 25.0866 67.5612 25.1541 67.6247 25.2097C67.6724 25.0826 67.7638 25.035 67.8988 25.0667C67.9386 25.1462 67.9584 25.2455 67.9584 25.3647C67.9664 25.3726 67.9783 25.3766 67.9942 25.3766C68.0101 25.3766 68.022 25.3806 68.0299 25.3885C68.1173 25.4362 68.165 25.5077 68.1729 25.603C68.1888 25.6904 68.157 25.7619 68.0776 25.8175C68.0061 25.8731 67.9624 25.9248 67.9465 25.9725C67.9465 25.9963 67.9544 26.04 67.9703 26.1035C67.9783 26.2624 67.9743 26.4094 67.9584 26.5445C68.1809 26.6557 68.3954 26.8027 68.602 26.9854C68.9436 27.2953 69.1939 27.4939 69.3528 27.5813C69.3686 27.5972 69.4004 27.6925 69.4481 27.8673C69.6785 27.8197 69.9129 27.7998 70.1512 27.8077C71.0967 27.8554 71.9309 27.7839 72.6539 27.5932C72.8366 27.4979 73.0193 27.4264 73.2021 27.3787C73.3371 27.1006 73.3927 26.9616 73.3689 26.9616C73.2656 26.9695 73.1544 27.0291 73.0352 27.1404C72.8922 27.2595 72.8048 27.2953 72.773 27.2476C72.7333 27.1841 72.785 27.0927 72.928 26.9735C73.0154 26.902 73.0988 26.8424 73.1782 26.7948C73.3371 26.6994 73.4762 26.5802 73.5953 26.4372C73.9131 26.0559 74.2667 25.7778 74.656 25.603C74.6163 25.3965 74.656 25.1939 74.7752 24.9952C74.8943 24.7887 75.0612 24.6417 75.2757 24.5543C75.6014 24.4192 75.9153 24.451 76.2172 24.6496C76.5191 24.8483 76.666 25.1263 76.6581 25.4838C76.6581 25.5633 76.6462 25.6388 76.6224 25.7103C76.5588 25.9168 76.5508 26.1115 76.5985 26.2942C76.6065 26.326 76.6104 26.3737 76.6104 26.4372C76.6104 26.5405 76.5667 26.5922 76.4793 26.5922C76.3919 26.5922 76.3483 26.5405 76.3483 26.4372C76.3483 26.4134 76.3483 26.3816 76.3483 26.3419C76.3562 26.3022 76.3602 26.2704 76.3602 26.2466C76.3602 26.1035 76.3562 26.0201 76.3483 25.9963C76.3324 25.9168 76.2887 25.8692 76.2172 25.8533C76.1536 25.8374 76.098 25.8612 76.0503 25.9248C75.9788 26.0201 75.9232 26.1314 75.8835 26.2585C75.812 26.4889 75.808 26.8067 75.8716 27.2119C75.8874 27.3072 75.8954 27.3747 75.8954 27.4145C75.9113 27.5416 75.8676 27.6131 75.7643 27.629C75.7246 27.6369 75.6888 27.621 75.657 27.5813C75.6253 27.5416 75.6094 27.4899 75.6094 27.4264C75.6094 27.3787 75.6094 27.3151 75.6094 27.2357C75.6173 27.1562 75.6213 27.1046 75.6213 27.0808V26.6398C75.6213 26.6319 75.6173 26.6239 75.6094 26.616C75.6094 26.6081 75.6094 26.6001 75.6094 26.5922C75.4664 26.8385 75.3035 27.0569 75.1208 27.2476C74.9778 27.3906 74.8268 27.5614 74.6679 27.7601C74.6202 27.9984 74.3779 28.2447 73.9409 28.4989L73.9767 28.5347C73.8257 28.8287 73.6708 29.063 73.5119 29.2378C73.3769 29.3808 73.3332 29.6192 73.3808 29.9529C73.3888 29.9767 73.4047 30.0363 73.4285 30.1316C73.4523 30.2349 73.4642 30.3144 73.4642 30.37C73.4642 30.4733 73.4285 30.5289 73.357 30.5368C73.3093 30.5448 73.2736 30.5289 73.2497 30.4891C73.2259 30.4574 73.214 30.4176 73.214 30.37C73.214 30.362 73.2259 30.1912 73.2497 29.8575C73.2497 29.8416 73.2537 29.8138 73.2617 29.7741C73.2696 29.7344 73.2736 29.7026 73.2736 29.6788C73.2895 29.5675 73.2497 29.496 73.1544 29.4642C73.0829 29.4325 73.0114 29.4603 72.9399 29.5477C72.8843 29.6192 72.8406 29.651 72.8088 29.643C72.7691 29.6271 72.7413 29.5755 72.7254 29.4881C72.7254 29.4484 72.7174 29.3927 72.7015 29.3212C72.6936 29.2418 72.6856 29.1862 72.6777 29.1544C72.6777 29.1385 72.6658 29.1067 72.6419 29.0591H72.5943C72.5546 29.0988 72.5228 29.1266 72.4989 29.1425C72.4036 29.2219 72.3361 29.2497 72.2963 29.2259C72.1931 29.361 72.1414 29.5278 72.1414 29.7264C72.1414 30.1078 72.1335 30.3263 72.1176 30.3819C72.1096 30.3978 72.0977 30.4137 72.0818 30.4296C72.0739 30.4454 72.0699 30.4613 72.0699 30.4772C72.062 30.4772 72.0501 30.4772 72.0342 30.4772C72.0262 30.4772 72.0222 30.4733 72.0222 30.4653C72.0143 30.4494 72.0064 30.4256 71.9984 30.3938C71.9984 30.362 71.9905 30.3382 71.9746 30.3223C71.9666 30.3064 71.9468 30.2985 71.915 30.2985C71.8753 30.2985 71.8355 30.3541 71.7958 30.4653C71.7164 30.6878 71.7164 30.9102 71.7958 31.1327C71.8117 31.1565 71.8276 31.2082 71.8435 31.2876C71.8753 31.4465 71.8355 31.5299 71.7243 31.5379C71.6925 31.5458 71.6687 31.5458 71.6528 31.5379C71.6369 31.5299 71.625 31.514 71.6171 31.4902C71.6091 31.4743 71.6051 31.4584 71.6051 31.4425C71.6051 31.4266 71.6051 31.4028 71.6051 31.371C71.6051 31.3472 71.6051 31.3313 71.6051 31.3234C71.6369 30.6083 71.5932 30.0561 71.474 29.6668C71.4661 29.6589 71.4621 29.647 71.4621 29.6311C71.4621 29.6231 71.4621 29.6152 71.4621 29.6073C71.4542 29.5914 71.4462 29.5715 71.4383 29.5477C71.4303 29.5238 71.4224 29.504 71.4145 29.4881C71.4145 29.4642 71.4065 29.4484 71.3906 29.4404C71.3747 29.4245 71.3549 29.4206 71.331 29.4285C71.2834 29.4444 71.2595 29.5159 71.2595 29.643C71.2595 29.7542 71.2516 29.8218 71.2357 29.8456C71.1801 29.8218 71.1523 29.7542 71.1523 29.643V29.2855C71.1364 29.2855 71.1165 29.2815 71.0927 29.2736C71.0689 29.2656 71.053 29.2617 71.045 29.2617C71.0371 29.2617 71.0331 29.2617 71.0331 29.2617C71.0331 29.2537 71.0291 29.2497 71.0212 29.2497L70.9139 29.2855C70.8822 29.3014 70.8067 29.3292 70.6875 29.3689C70.5604 29.4007 70.4968 29.3967 70.4968 29.357C70.4968 29.3252 70.5286 29.2855 70.5922 29.2378L70.5802 29.2259C70.5802 29.218 70.5802 29.21 70.5802 29.2021L70.5683 29.1901C70.5604 29.1901 70.5524 29.1901 70.5445 29.1901H70.2227C70.2624 29.2219 70.322 29.2775 70.4015 29.357C70.4174 29.3729 70.4452 29.4007 70.4849 29.4404C70.5326 29.4801 70.5683 29.5119 70.5922 29.5358C70.6954 29.6549 70.7193 29.7264 70.6637 29.7503C70.6001 29.7662 70.5286 29.7463 70.4492 29.6907C70.4412 29.6827 70.3419 29.6311 70.1512 29.5358V30.0244V30.1197C70.1592 30.1753 70.1592 30.2031 70.1512 30.2031C70.1512 30.2508 70.1274 30.2746 70.0797 30.2746C70.0638 30.2746 70.0479 30.2468 70.032 30.1912C70.032 30.1833 70.0281 30.1713 70.0201 30.1555C70.0201 30.1396 70.0201 30.1276 70.0201 30.1197C70.0122 30.1038 70.0082 30.076 70.0082 30.0363C70.0082 29.9966 70.0042 29.9688 69.9963 29.9529C69.9883 29.937 69.9685 29.929 69.9367 29.929C69.8731 29.937 69.8414 30.0124 69.8414 30.1555C69.8414 30.2508 69.8493 30.3938 69.8652 30.5845C69.8652 30.6957 69.8334 30.7513 69.7699 30.7513C69.7063 30.7593 69.6785 30.7195 69.6864 30.6322C69.6864 30.6163 69.6864 30.6043 69.6864 30.5964V30.37C69.7103 30.3144 69.7182 30.2667 69.7103 30.227C69.7341 30.0601 69.7381 29.8059 69.7222 29.4642C69.7222 29.4007 69.7182 29.353 69.7103 29.3212C69.6944 29.3212 69.6745 29.3173 69.6507 29.3093C69.6348 29.2934 69.6229 29.2815 69.6149 29.2736C69.6149 29.2815 69.607 29.2934 69.5911 29.3093V29.2617C69.5752 29.2537 69.5474 29.2418 69.5077 29.2259C69.468 29.21 69.4401 29.1981 69.4243 29.1901C69.4163 29.2378 69.4322 29.361 69.4719 29.5596C69.4719 29.5834 69.468 29.6152 69.46 29.6549C69.46 29.6947 69.46 29.7225 69.46 29.7383L69.4243 29.7741C69.4163 29.7662 69.4044 29.7503 69.3885 29.7264C69.3806 29.7105 69.3726 29.6986 69.3647 29.6907L69.3289 29.5477C69.3448 29.5238 69.3448 29.4841 69.3289 29.4285C69.3289 29.4126 69.3289 29.3967 69.3289 29.3808C69.3369 29.3649 69.3408 29.349 69.3408 29.3332V29.2974C69.317 29.3689 69.3051 29.4364 69.3051 29.5V31.0373C69.3051 31.085 69.313 31.1486 69.3289 31.228C69.3448 31.3154 69.3289 31.371 69.2813 31.3949C69.2336 31.4266 69.1899 31.4306 69.1502 31.4068C69.1104 31.3829 69.0985 31.3234 69.1144 31.228C69.2097 30.8228 69.2534 30.4216 69.2455 30.0244C69.2455 29.9767 69.2415 29.9012 69.2336 29.7979C69.2256 29.7026 69.2177 29.6311 69.2097 29.5834C69.2097 29.5675 69.2018 29.5437 69.1859 29.5119C69.1859 29.504 69.1819 29.5 69.174 29.5C69.174 29.4921 69.174 29.4841 69.174 29.4762C69.1263 29.3967 69.0826 29.3967 69.0429 29.4762C68.9952 29.5636 68.9674 29.6152 68.9595 29.6311C68.9595 29.6231 68.9555 29.6073 68.9476 29.5834C68.9476 29.5596 68.9476 29.5437 68.9476 29.5358C68.9237 29.4086 68.9118 29.3411 68.9118 29.3332C68.8959 29.2775 68.8602 29.2497 68.8046 29.2497C68.7728 29.2497 68.7489 29.2775 68.7331 29.3332C68.7013 29.4364 68.6774 29.5477 68.6615 29.6668C68.6298 30.0164 68.6536 30.4097 68.7331 30.8467C68.7489 30.8943 68.7331 30.942 68.6854 30.9897C68.6695 31.0056 68.6457 31.0135 68.6139 31.0135C68.59 31.0135 68.5702 31.0095 68.5543 31.0016C68.5146 30.9619 68.4947 30.9102 68.4947 30.8467C68.5026 30.799 68.5146 30.7116 68.5305 30.5845C68.5543 30.4653 68.5702 30.37 68.5781 30.2985C68.594 29.7979 68.598 29.4762 68.59 29.3332C68.5106 29.3014 68.447 29.2577 68.3994 29.2021V29.1901C68.3914 29.1901 68.3874 29.1901 68.3874 29.1901L68.3636 29.2021C68.3001 29.21 68.2603 29.1862 68.2444 29.1306C68.2444 29.1544 68.2484 29.1901 68.2564 29.2378C68.2643 29.2775 68.2683 29.3093 68.2683 29.3332C68.2762 29.3729 68.2961 29.4325 68.3279 29.5119C68.3676 29.5993 68.3636 29.6629 68.3159 29.7026C68.2603 29.7423 68.2127 29.7463 68.1729 29.7145C68.1094 29.6668 68.0975 29.6033 68.1372 29.5238C68.1928 29.4285 68.2206 29.3053 68.2206 29.1544C68.2206 29.1465 68.2206 29.1385 68.2206 29.1306C68.2285 29.1147 68.2325 29.1028 68.2325 29.0948C68.2325 29.0869 68.2285 29.0749 68.2206 29.0591C68.2206 29.0352 68.2206 29.0193 68.2206 29.0114C68.2206 29.0034 68.2206 28.9955 68.2206 28.9876C68.2285 28.9796 68.2325 28.9717 68.2325 28.9637L68.2206 28.9518C68.1094 28.7929 67.9823 28.6578 67.8392 28.5466C67.5612 28.34 67.3268 28.0898 67.1361 27.7958V27.9269C67.1282 27.9269 67.1163 27.9309 67.1004 27.9388C67.0845 27.9388 67.0765 27.9388 67.0765 27.9388C67.1004 28.1057 67.1282 28.3599 67.16 28.7015C67.1997 29.0432 67.2275 29.3014 67.2434 29.4762C67.2434 29.5 67.2553 29.5437 67.2791 29.6073C67.303 29.6788 67.3149 29.7304 67.3149 29.7622C67.3149 29.8893 67.291 29.9727 67.2434 30.0124C67.1639 30.0681 67.0726 30.08 66.9693 30.0482C66.866 30.0244 66.8223 29.9489 66.8382 29.8218C66.8461 29.7582 66.866 29.6629 66.8978 29.5358C66.9296 29.4086 66.9494 29.3133 66.9574 29.2497C67.0368 28.781 67.0646 28.2407 67.0408 27.629C66.7945 27.1999 66.7309 26.8623 66.8501 26.616C66.866 26.5842 66.8978 26.5445 66.9454 26.4968C66.9454 26.4809 66.9415 26.4571 66.9335 26.4253C66.9335 26.3935 66.9335 26.3737 66.9335 26.3657C66.9176 26.2863 66.8978 26.2307 66.8739 26.1989C66.8183 26.1433 66.7786 26.1075 66.7548 26.0916V27.2357C66.7468 27.2754 66.7508 27.3509 66.7667 27.4621C66.7826 27.5734 66.7786 27.6488 66.7548 27.6886C66.7309 27.6886 66.719 27.6925 66.719 27.7005C66.7031 27.7084 66.6753 27.7164 66.6356 27.7243C66.6038 27.7323 66.58 27.7362 66.5641 27.7362C66.4688 27.6965 66.429 27.6091 66.4449 27.474C66.4449 27.3787 66.4568 27.1801 66.4807 26.8782C66.5045 26.5763 66.5124 26.3459 66.5045 26.187V26.1989L66.4926 26.2108C66.437 26.3776 66.4052 26.5405 66.3972 26.6994C66.3814 27.1761 66.4052 27.5138 66.4688 27.7124C66.4846 27.7839 66.4688 27.8435 66.4211 27.8912C66.4052 27.8991 66.3774 27.9031 66.3377 27.9031C66.3059 27.9031 66.282 27.8991 66.2662 27.8912C66.2264 27.8514 66.2145 27.7918 66.2304 27.7124C66.3655 26.9974 66.3535 26.4333 66.1947 26.0201C66.1947 26.2744 66.1986 26.477 66.2066 26.6279C66.0715 26.7868 65.9762 26.759 65.9206 26.5445C65.8649 26.7113 65.8371 26.9695 65.8371 27.3191C65.8133 28.4394 65.8014 29.5636 65.8014 30.6917C65.8014 30.7712 65.8133 30.8864 65.8371 31.0373C65.861 31.1883 65.8769 31.2836 65.8848 31.3234C65.8848 31.371 65.8689 31.4266 65.8371 31.4902C65.8292 31.4981 65.8133 31.5021 65.7895 31.5021C65.7656 31.5101 65.7497 31.5101 65.7418 31.5021C65.7021 31.4227 65.6822 31.3671 65.6822 31.3353C65.6901 31.2558 65.7021 31.0969 65.718 30.8586C65.7418 30.6282 65.7577 30.4454 65.7656 30.3104C65.7736 29.9131 65.7775 29.349 65.7775 28.6181C65.7855 27.8792 65.7895 27.3946 65.7895 27.1642C65.7895 26.91 65.7815 26.7233 65.7656 26.6041C65.7577 26.5485 65.7299 26.465 65.6822 26.3538C65.6822 26.4571 65.6743 26.5286 65.6584 26.5683C65.6504 26.5922 65.6345 26.6081 65.6107 26.616C65.5869 26.616 65.571 26.6081 65.563 26.5922C65.5233 26.4889 65.5074 26.4015 65.5154 26.33C65.571 25.8136 65.5908 25.2217 65.5749 24.5543H65.563C65.5471 24.4987 65.5392 24.3835 65.5392 24.2087V23.589C65.5233 23.5016 65.5074 23.4499 65.4915 23.4341C65.428 23.3705 65.3922 23.2791 65.3843 23.16C65.3763 23.0408 65.3962 22.9335 65.4439 22.8382C65.4915 22.7587 65.5273 22.7031 65.5511 22.6713C65.5511 22.4886 65.5313 22.3337 65.4915 22.2066C65.4915 22.151 65.4796 22.1112 65.4558 22.0874C65.4558 22.0556 65.4439 22.0358 65.42 22.0278C65.4041 22.0199 65.3763 21.996 65.3366 21.9563C65.3207 21.9722 65.3048 21.9801 65.2889 21.9801C65.273 21.9801 65.2413 21.9563 65.1936 21.9086L65.1817 21.9206H65.1698V21.8967C65.1618 21.8808 65.1578 21.8689 65.1578 21.861C65.1102 21.7736 65.0863 21.6703 65.0863 21.5511C65.0863 21.3604 65.13 21.2651 65.2174 21.2651L65.2889 21.3008C65.3287 21.2214 65.3803 21.1102 65.4439 20.9672C65.5154 20.8162 65.571 20.705 65.6107 20.6335C65.6504 20.562 65.706 20.4984 65.7775 20.4428C65.849 20.3792 65.9325 20.3475 66.0278 20.3475C66.0755 20.3475 66.1152 20.3355 66.147 20.3117V20.2998V20.276C66.147 20.2601 66.139 20.2362 66.1231 20.2044C66.1073 20.0217 66.0914 19.9145 66.0755 19.8827C66.0755 19.8668 66.0715 19.843 66.0636 19.8112C66.0636 19.7715 66.0636 19.7436 66.0636 19.7278C66.0715 19.7119 66.0755 19.688 66.0755 19.6562C66.0755 19.6245 66.0794 19.6006 66.0874 19.5847C66.0953 19.5132 66.143 19.398 66.2304 19.2391L66.2423 19.2272H66.2542C66.294 19.1875 66.3535 19.1359 66.433 19.0723L66.4211 19.0008C66.3337 19.0405 66.2503 19.1359 66.1708 19.2868C66.0675 19.4457 65.996 19.5053 65.9563 19.4656C65.9007 19.41 65.9166 19.3067 66.004 19.1557C66.0834 19.0445 66.143 18.965 66.1827 18.9174C66.3099 18.7664 66.4052 18.6035 66.4688 18.4288C66.6435 17.9759 66.8779 17.6065 67.1719 17.3204C67.1242 17.3363 67.0845 17.3602 67.0527 17.3919C66.9891 17.4555 66.9335 17.4913 66.8859 17.4992C66.8223 17.5151 66.7667 17.4992 66.719 17.4515C66.6793 17.4118 66.6753 17.3602 66.7071 17.2966C66.7309 17.2489 66.7746 17.2172 66.8382 17.2013C66.8541 17.1933 66.8819 17.1973 66.9216 17.2132C66.9613 17.2211 66.9891 17.2251 67.005 17.2251C67.1719 17.241 67.2791 17.1774 67.3268 17.0344C67.2076 17.0106 67.1441 16.9947 67.1361 16.9868C67.0567 16.9391 67.0169 16.8874 67.0169 16.8318C67.0169 16.7603 67.0567 16.7087 67.1361 16.6769C67.1441 16.669 67.156 16.661 67.1719 16.6531C67.1957 16.6451 67.2116 16.6412 67.2195 16.6412C67.2354 16.6332 67.2513 16.6253 67.2672 16.6173C67.2831 16.6014 67.291 16.5855 67.291 16.5697C67.299 16.5538 67.299 16.5379 67.291 16.522C67.2752 16.4664 67.2156 16.4187 67.1123 16.379L66.6833 16.3075C66.5959 16.2836 66.5482 16.2677 66.5403 16.2598C66.4846 16.2201 66.4568 16.1684 66.4568 16.1049C66.4568 16.0413 66.4966 16.0016 66.576 15.9857C66.6396 15.9698 66.6912 15.9897 66.7309 16.0453C66.8263 16.1883 67.0209 16.2757 67.3149 16.3075C67.4102 16.3154 67.4778 16.2916 67.5175 16.236C67.5572 16.1724 67.5651 16.0969 67.5413 16.0095C67.5413 16.0016 67.5493 15.9579 67.5651 15.8784C67.5731 15.8864 67.593 15.8983 67.6247 15.9142C67.6565 15.9221 67.6764 15.9301 67.6843 15.938C67.6923 15.9698 67.7121 16.0016 67.7439 16.0334L67.7558 16.0215C67.7638 16.0135 67.7717 16.0095 67.7797 16.0095C67.9068 15.9062 68.026 15.7672 68.1372 15.5924C68.3755 15.2111 68.6655 14.9052 69.0072 14.6748C69.3567 14.4364 69.6547 14.3451 69.901 14.4007C69.9168 14.0749 70.0599 13.8048 70.33 13.5903C70.6001 13.3758 70.9338 13.3281 71.331 13.4473L71.3787 13.4711C71.3867 13.4711 71.4025 13.4751 71.4264 13.4831C71.4502 13.491 71.4701 13.495 71.486 13.495C71.5972 13.5824 71.7203 13.638 71.8554 13.6618V13.6499C72.0461 13.7532 72.2288 13.8207 72.4036 13.8525C72.4036 13.8445 72.3996 13.8326 72.3917 13.8167C72.3917 13.7929 72.3917 13.777 72.3917 13.7691C72.3917 13.7611 72.3917 13.7532 72.3917 13.7452C72.3996 13.7293 72.4036 13.7174 72.4036 13.7095C72.3877 13.7015 72.3639 13.6936 72.3321 13.6856C72.3003 13.6777 72.2765 13.6698 72.2606 13.6618C72.2526 13.6618 72.2328 13.6618 72.201 13.6618C72.1692 13.6539 72.1454 13.6459 72.1295 13.638C72.1216 13.6221 72.1216 13.5943 72.1295 13.5546H72.2725C72.2884 13.5784 72.3083 13.5863 72.3321 13.5784C72.348 13.5784 72.3718 13.5824 72.4036 13.5903C72.4433 13.5903 72.4711 13.5903 72.487 13.5903C72.5188 13.5665 72.5585 13.5546 72.6062 13.5546C72.6539 13.5546 72.7015 13.5784 72.7492 13.6261C72.773 13.6261 72.7929 13.6221 72.8088 13.6141C72.9359 13.638 73.0591 13.638 73.1782 13.6141C73.2497 13.638 73.3173 13.634 73.3808 13.6022C73.4206 13.6022 73.4762 13.5983 73.5477 13.5903C73.6192 13.5824 73.6708 13.5784 73.7026 13.5784C73.7503 13.5943 73.79 13.5863 73.8218 13.5546C73.8694 13.5546 73.9449 13.5546 74.0482 13.5546C74.1515 13.5466 74.2309 13.5426 74.2865 13.5426C74.2945 13.5426 74.3104 13.5466 74.3342 13.5546L74.4057 13.5903C74.4137 13.5983 74.4216 13.6102 74.4296 13.6261C74.4375 13.6419 74.4415 13.6499 74.4415 13.6499C74.4494 13.7135 74.4176 13.7611 74.3461 13.7929C74.2826 13.8167 74.2468 13.8326 74.2389 13.8406C74.2627 13.8882 74.3422 13.9121 74.4772 13.9121C74.7791 13.92 75.0135 14.0273 75.1804 14.2338C75.3551 14.4404 75.4187 14.6788 75.371 14.9489C75.4028 14.9727 75.4386 14.9846 75.4783 14.9846C75.6133 14.9767 75.7246 15.0323 75.812 15.1515C75.9073 15.2707 76.0026 15.4454 76.098 15.6758C76.2013 15.9062 76.2966 16.081 76.384 16.2002C76.3919 16.2399 76.3919 16.2757 76.384 16.3075C76.384 16.3313 76.3761 16.371 76.3602 16.4266C76.3443 16.4823 76.3363 16.522 76.3363 16.5458C76.2887 16.5299 76.2529 16.526 76.2291 16.5339C76.2132 16.5418 76.1894 16.5617 76.1576 16.5935C76.1258 16.6253 76.102 16.6451 76.0861 16.6531V16.665C76.1655 16.7365 76.2648 16.9113 76.384 17.1894C76.5111 17.4595 76.6224 17.6581 76.7177 17.7852C76.7256 17.8249 76.7256 17.8607 76.7177 17.8925C76.7177 17.9163 76.7097 17.956 76.6939 18.0117C76.678 18.0673 76.67 18.107 76.67 18.1308C76.6224 18.1149 76.5866 18.111 76.5628 18.1189C76.5469 18.1269 76.523 18.1467 76.4913 18.1785C76.4595 18.2103 76.4356 18.2301 76.4198 18.2381C76.3959 18.246 76.384 18.2699 76.384 18.3096ZM65.7775 22.1112C65.6901 22.1271 65.6465 22.151 65.6465 22.1827C65.6385 22.2066 65.6425 22.2344 65.6584 22.2662C65.6663 22.282 65.6822 22.3377 65.706 22.433C65.7378 22.3535 65.7617 22.2463 65.7775 22.1112ZM65.8729 25.9129C65.8729 25.8652 65.8729 25.7858 65.8729 25.6745C65.8808 25.5633 65.8848 25.4799 65.8848 25.4243H65.8729C65.8173 25.4322 65.7656 25.4123 65.718 25.3647C65.6782 25.317 65.6504 25.2614 65.6345 25.1978V25.9248C65.6345 25.9407 65.6345 25.9566 65.6345 25.9725C65.6425 25.9883 65.6465 26.0042 65.6465 26.0201C65.6862 25.9486 65.7418 25.9089 65.8133 25.901C65.8212 25.901 65.8292 25.9049 65.8371 25.9129C65.853 25.9129 65.8649 25.9129 65.8729 25.9129ZM65.8967 24.9714C65.9126 24.6695 65.9086 24.4748 65.8848 24.3874C65.9166 24.2683 65.9126 24.0697 65.8729 23.7916C65.8332 23.5056 65.8252 23.3149 65.849 23.2195C65.8332 23.2513 65.8173 23.291 65.8014 23.3387C65.7378 23.6168 65.6941 23.875 65.6703 24.1133V24.4351C65.6703 24.4987 65.6623 24.5384 65.6465 24.5543C65.6465 24.6099 65.6425 24.6973 65.6345 24.8165C65.6345 24.9356 65.6345 25.027 65.6345 25.0906C65.6584 24.9952 65.714 24.9476 65.8014 24.9476C65.8411 24.9476 65.8729 24.9555 65.8967 24.9714ZM66.433 25.3408C66.4727 25.0389 66.4608 24.8443 66.3972 24.7569C66.3734 24.7251 66.3535 24.7291 66.3377 24.7688C66.29 25.0151 66.2542 25.2495 66.2304 25.4719C66.294 25.4243 66.3416 25.3965 66.3734 25.3885C66.3814 25.3806 66.3893 25.3726 66.3972 25.3647C66.4131 25.3567 66.4251 25.3488 66.433 25.3408ZM66.576 24.59C66.5442 24.6298 66.5323 24.6536 66.5403 24.6615C66.5561 24.6695 66.576 24.6615 66.5998 24.6377V24.5543C66.584 24.5702 66.576 24.5821 66.576 24.59ZM68.447 28.7611H68.4351C68.4351 28.785 68.4391 28.8167 68.447 28.8565C68.455 28.8962 68.4629 28.928 68.4709 28.9518C68.5026 28.9995 68.5305 29.0352 68.5543 29.0591C68.5543 29.0432 68.5503 29.0193 68.5424 28.9876C68.5344 28.9558 68.5305 28.9319 68.5305 28.916C68.5066 28.8445 68.4907 28.8048 68.4828 28.7969L68.447 28.7611ZM67.8035 23.6009C67.8114 23.5691 67.7956 23.5532 67.7558 23.5532C67.724 23.5532 67.7082 23.5691 67.7082 23.6009C67.7002 23.6327 67.7121 23.6486 67.7439 23.6486C67.7836 23.6486 67.8035 23.6327 67.8035 23.6009ZM67.3745 24.8999V24.7688C67.3427 24.7847 67.3228 24.7966 67.3149 24.8046C67.3149 24.8204 67.3228 24.8363 67.3387 24.8522C67.3546 24.8681 67.3665 24.884 67.3745 24.8999ZM70.2704 14.2338C70.3419 14.2338 70.3776 14.1981 70.3776 14.1266C70.3061 14.1266 70.2704 14.1623 70.2704 14.2338ZM70.3776 14.1266C70.3935 14.1266 70.4134 14.1226 70.4372 14.1147C70.469 14.1067 70.4889 14.1028 70.4968 14.1028L70.4849 14.0789C70.4452 14.071 70.4094 14.0869 70.3776 14.1266ZM70.5802 14.0074L70.6041 13.9955V13.9836H70.5802V14.0074ZM71.1165 13.6499C71.1245 13.6499 71.1364 13.6499 71.1523 13.6499C71.1682 13.6499 71.1801 13.6459 71.188 13.638C71.188 13.63 71.1841 13.6261 71.1761 13.6261C71.1761 13.6261 71.1761 13.6221 71.1761 13.6141C71.1682 13.6221 71.1563 13.63 71.1404 13.638C71.1324 13.6459 71.1245 13.6499 71.1165 13.6499C71.0768 13.6499 71.053 13.6658 71.045 13.6976C71.045 13.7214 71.053 13.7333 71.0689 13.7333C71.1006 13.7333 71.1165 13.7055 71.1165 13.6499ZM68.4351 25.7341C68.4828 25.7262 68.5185 25.7381 68.5424 25.7699C68.5742 25.7937 68.5861 25.8294 68.5781 25.8771C68.5702 25.901 68.5384 25.9526 68.4828 26.032H68.4113C68.4033 26.0162 68.3874 26.0003 68.3636 25.9844C68.3477 25.9605 68.3318 25.9407 68.3159 25.9248C68.308 25.901 68.304 25.8811 68.304 25.8652C68.304 25.8016 68.3477 25.7579 68.4351 25.7341ZM67.7677 24.9118C67.7439 24.9356 67.724 24.9476 67.7082 24.9476C67.6923 24.9476 67.6724 24.9356 67.6486 24.9118C67.6247 24.888 67.6128 24.8681 67.6128 24.8522C67.6128 24.8443 67.6446 24.8006 67.7082 24.7211C67.7717 24.8006 67.8035 24.8443 67.8035 24.8522C67.8035 24.8681 67.7916 24.888 67.7677 24.9118ZM71.5217 16.951C71.5932 16.8795 71.6329 16.8437 71.6409 16.8437L71.7839 16.9153C71.7839 16.9232 71.7839 16.9351 71.7839 16.951C71.7918 16.959 71.7958 16.9669 71.7958 16.9748C71.7243 17.0305 71.6727 17.0583 71.6409 17.0583C71.6329 17.0583 71.5932 17.0225 71.5217 16.951ZM74.1555 18.536C74.1634 18.5042 74.1912 18.4804 74.2389 18.4645C74.2786 18.4645 74.3064 18.4844 74.3223 18.5241C74.3302 18.54 74.3382 18.5678 74.3461 18.6075C74.3541 18.6393 74.362 18.6631 74.37 18.679C74.3461 18.6711 74.3144 18.6631 74.2746 18.6552C74.2429 18.6472 74.219 18.6393 74.2031 18.6314C74.1555 18.6075 74.1396 18.5757 74.1555 18.536Z" fill="#133E53"/>
</svg>
