<svg width="44" height="44" viewBox="0 0 44 44" fill="none" xmlns="http://www.w3.org/2000/svg">
<path d="M10.0918 21.2183C10.2416 20.8316 11.0071 20.6479 11.8257 20.6287C13.3167 20.5937 16.3482 20.5479 22 20.5479C27.6518 20.5479 30.6833 20.5937 32.1743 20.6287C32.9929 20.6479 33.7584 20.8316 33.9083 21.2183C33.9632 21.3601 34 21.5346 34 21.7478C34 21.9611 33.9632 22.1356 33.9083 22.2774C33.7584 22.6641 32.9929 22.8478 32.1743 22.867C30.6833 22.902 27.6518 22.9478 22 22.9478C16.3482 22.9478 13.3167 22.902 11.8257 22.867C11.0071 22.8478 10.2416 22.6641 10.0918 22.2774C10.0368 22.1356 10 21.9611 10 21.7478C10 21.5346 10.0368 21.3601 10.0918 21.2183Z" fill="#070808"/>
<path d="M33.9083 13.6705C33.7584 13.2837 32.9929 13.1001 32.1743 13.0809C30.6833 13.0458 27.6518 13 22 13C16.3482 13 13.3167 13.0458 11.8257 13.0809C11.0071 13.1001 10.2416 13.2837 10.0918 13.6705C10.0368 13.8123 10 13.9868 10 14.2C10 14.4132 10.0368 14.5877 10.0918 14.7295C10.2416 15.1163 11.0071 15.2999 11.8257 15.3191C13.3167 15.3541 16.3482 15.4 22 15.4C27.6518 15.4 30.6833 15.3541 32.1743 15.3191C32.9929 15.2999 33.7584 15.1163 33.9083 14.7295C33.9632 14.5877 34 14.4132 34 14.2C34 13.9868 33.9632 13.8123 33.9083 13.6705Z" fill="#070808"/>
<path d="M33.9083 28.7659C33.7584 28.3792 32.9929 28.1955 32.1743 28.1763C30.6833 28.1413 27.6518 28.0955 22 28.0955C16.3482 28.0955 13.3167 28.1413 11.8257 28.1763C11.0071 28.1955 10.2416 28.3792 10.0918 28.7659C10.0368 28.9077 10 29.0822 10 29.2955C10 29.5087 10.0368 29.6832 10.0918 29.825C10.2416 30.2117 11.0071 30.3954 11.8257 30.4146C13.3167 30.4496 16.3482 30.4954 22 30.4954C27.6518 30.4954 30.6833 30.4496 32.1743 30.4146C32.9929 30.3954 33.7584 30.2117 33.9083 29.825C33.9632 29.6832 34 29.5087 34 29.2955C34 29.0822 33.9632 28.9077 33.9083 28.7659Z" fill="#070808"/>
</svg>
