<svg width="495" height="315" viewBox="0 0 495 315" fill="none" xmlns="http://www.w3.org/2000/svg">
<g opacity="0.2" clip-path="url(#clip0_2365_2790)">
<path d="M1.09625 215.971C-0.252649 213.643 -2.27039 211.887 -4.21399 209.685C-10.2169 218.562 -17.814 224.294 -29.0992 222.992C-29.8775 223.114 -30.6806 223.355 -31.2948 222.579C-35.6124 220.899 -39.1761 218.353 -41.1212 213.981C-42.2844 210.567 -43.6861 207.225 -44.2172 203.665C-44.7052 192.394 -40.6225 182.259 -36.1217 172.276C-35.4676 170.817 -36.2336 170.113 -36.7134 169.236C-38.8638 165.306 -40.7859 161.298 -40.7283 156.697C-40.6706 152.095 -39.2243 147.933 -34.7435 145.593C-30.7438 143.528 -27.4565 145.326 -27.0641 149.81C-26.9541 151.665 -27.245 153.522 -27.9171 155.256C-29.544 159.827 -30.9794 164.488 -33.2598 168.788C-34.0626 170.3 -34.0074 171.408 -32.9093 172.67C-30.4031 175.533 -27.9725 178.463 -25.5092 181.356C-24.0067 181.424 -23.679 182.892 -22.7436 183.64C-21.215 185.846 -19.3494 186.488 -16.6055 185.638C-11.5248 184.114 -7.27073 185.726 -3.85874 189.701C-2.2283 191.755 -1.97659 194.326 -1.15481 196.718C-0.496525 199.137 -0.598368 201.701 -1.44657 204.062C-2.42636 206.718 -1.76018 208.62 0.273457 210.371C1.2803 211.268 2.19032 212.267 2.98868 213.353C3.47335 213.986 3.98744 214.602 4.52301 215.202C8.49186 220.196 12.2762 225.296 13.0835 231.913C12.9285 233.62 14.0908 235.27 13.2681 237.004C13.1724 246.764 8.00681 253.435 0.109543 258.426C0.0506714 258.584 -0.0402223 258.728 -0.157441 258.848C-0.27466 258.969 -0.415645 259.065 -0.571528 259.129C-0.727413 259.192 -0.89483 259.223 -1.06321 259.219C-1.23159 259.215 -1.39729 259.177 -1.5499 259.106C-9.21971 262.083 -16.3854 261.05 -23.1401 256.478C-24.0376 256.375 -24.251 255.462 -24.8049 254.945C-27.7618 251.966 -29.7176 248.539 -29.3397 244.196C-28.6525 236.205 -21.2685 232.363 -14.2226 236.346C-12.9912 236.435 -12.4176 237.422 -11.6953 238.182C-7.64262 244.119 -10.9996 250.81 -19.3498 253.454C-17.3739 258.276 -6.26694 259.907 0.821125 254.675C1.63865 254.049 2.69051 253.828 3.43813 253.085C7.0767 249.701 9.84576 245.816 10.6 240.763C10.668 239.871 10.6117 238.974 10.4326 238.098C10.4615 230.079 6.13146 223.94 1.69246 217.842C1.47095 217.587 1.30386 217.29 1.20135 216.968C1.09884 216.646 1.06308 216.307 1.09625 215.971Z" fill="#414141"/>
<path d="M112.746 119.629C113.067 120.068 113.497 120.416 113.994 120.639C114.491 120.861 115.037 120.951 115.579 120.898C143.906 119.057 172.058 120.762 200.11 124.937C218.64 127.679 237.171 130.482 255.958 130.932C257.354 130.963 258.876 131.501 260.122 130.366C260.305 130.288 260.511 130.278 260.701 130.338C260.891 130.399 261.053 130.526 261.156 130.696C261.269 130.949 261.349 131.216 261.395 131.489C261.298 132.496 262.806 133.505 261.438 134.521C254.481 135.164 247.525 134.372 240.641 133.843C223.362 132.671 206.278 129.78 189.13 127.454C168.114 124.602 147.029 123.802 125.855 124.12C118.481 124.24 111.187 125.235 103.832 125.825C102.383 125.933 100.974 126.355 99.7055 127.064C99.0385 126.915 98.4544 126.516 98.0733 125.95C97.6921 125.384 97.543 124.693 97.6566 124.02C97.8561 122.23 99.8261 122.123 101.177 121.484C104.643 121.075 108.186 121.301 111.576 120.266C111.925 119.986 112.321 119.77 112.746 119.629Z" fill="#8B8D8E"/>
<path d="M-23.4115 183.927C-24.5878 183.415 -24.4663 181.943 -25.4718 181.336C-23.0476 179.104 -20.6362 176.858 -18.1994 174.639C-2.6022 160.395 15.1938 148.756 34.5015 140.172C51.6582 132.563 69.7356 127.224 88.2739 124.293C90.1081 123.993 91.9375 123.678 93.7773 123.368C94.7353 123.21 95.6703 123.033 95.2734 121.682C97.4483 122.257 97.5278 124.024 97.6256 125.794C96.6552 126.95 95.2489 126.914 93.9291 127.137C81.1447 129.244 68.3736 131.511 56.0868 135.709C27.4953 145.476 1.4737 159.617 -20.382 180.795C-21.4707 181.788 -22.2345 183.055 -23.4115 183.927Z" fill="#7F8183"/>
<path d="M97.5264 125.607C96.5658 124.399 96.5005 122.68 95.2242 121.662C94.6222 120.32 93.4333 119.276 93.2631 117.727L93.6678 117.458C97.8945 117.664 102.13 117.267 106.245 116.278C107.444 115.93 108.723 115.983 109.888 116.431C110.858 116.901 111.677 117.631 112.254 118.54L112.783 119.636L112.285 120.547C108.752 120.489 105.23 120.937 101.824 121.878C100.671 122.718 99.3413 123.285 97.9367 123.538C98.79 124.735 98.5811 126.147 99.8639 126.869C101.218 127.164 101.829 128.278 102.449 129.303C104.197 132.238 106.35 135.052 108.333 137.847C109.02 138.787 109.628 139.782 110.153 140.821C112.324 144.676 115.131 148.254 115.633 152.869C115.74 153.88 115.726 154.901 115.591 155.909C115.144 158.025 114.271 160.029 113.026 161.8C109.82 166.222 105.13 166.219 101.824 161.788C101.119 160.117 100.762 158.32 100.776 156.506C101.302 151.79 102.25 147.466 107.229 145.055C109.59 143.914 106.936 142.548 106.628 141.291C105.767 140.183 105.376 138.795 104.432 137.729C102.129 134.589 100.213 131.21 98.1328 127.917C97.6664 127.2 97.181 126.507 97.5264 125.607Z" fill="#424141"/>
<path d="M126.748 183.552C130.941 183.661 134.856 182.122 138.921 181.456C152.222 179.28 165.614 177.985 179.014 176.948C179.793 176.887 181.385 177.655 180.955 175.647C181.053 175.531 181.174 175.436 181.311 175.37C181.448 175.303 181.598 175.267 181.75 175.262C182.117 175.386 182.449 175.597 182.718 175.875C182.988 176.154 183.186 176.494 183.297 176.865C183.681 177.857 184.326 178.848 183.316 179.817C167.674 180.545 152.084 182.163 136.624 184.662C128.876 185.906 128.866 185.814 133.113 192.255C133.56 192.934 133.936 193.669 134.34 194.378C134.335 194.516 134.299 194.651 134.235 194.773C134.172 194.896 134.082 195.002 133.971 195.086C132.025 193.222 130.897 190.819 129.522 188.55C128.625 187.089 127.769 186.55 126.061 187.097C123.508 187.916 120.899 188.552 118.283 189.164C116.389 189.611 116.18 190.357 117.365 191.879C118.307 193.21 119.176 194.593 119.968 196.019C119.95 196.085 119.915 196.146 119.867 196.195C119.818 196.244 119.759 196.28 119.693 196.3C119.627 196.32 119.557 196.323 119.49 196.308C119.422 196.294 119.36 196.262 119.308 196.217C117.769 195.105 117.129 193.316 116.178 191.794C115.317 190.4 114.472 189.953 112.934 190.544C109.784 191.775 106.601 192.921 103.429 194.106C102.276 193.587 101.574 192.864 101.868 191.504C105.077 189.373 108.674 188.19 112.293 186.965C116.628 185.18 121.443 185.283 125.775 183.516C126.096 183.43 126.435 183.443 126.748 183.552Z" fill="#898B8C"/>
<path d="M143.412 168.292C114.692 171.307 87.2996 178.716 61.9792 192.941C59.3765 194.405 56.8612 196.103 54.3523 197.678C53.3858 197.345 52.7516 196.791 53.047 195.639C54.5115 193.53 56.7333 192.327 58.8413 191.063C74.9892 181.491 92.4999 174.427 110.772 170.114C119.192 168.08 127.696 166.15 136.382 165.316C138.176 165.141 139.885 164.888 138.739 162.369C138.655 162.025 138.646 161.667 138.712 161.319C138.778 160.971 138.917 160.641 139.121 160.351C141.885 160.897 142.194 163.572 143.485 165.39C143.452 166.317 145.098 167.328 143.412 168.292Z" fill="#858789"/>
<path d="M101.83 191.524L103.38 194.087L105.298 197.187C105.28 197.251 105.246 197.31 105.199 197.358C105.152 197.406 105.093 197.441 105.029 197.46C104.965 197.479 104.897 197.482 104.831 197.468C104.766 197.454 104.705 197.424 104.654 197.38C103.135 194.601 101.061 194.073 98.2147 195.533C91.8788 198.767 85.1743 201.177 79.0409 204.912C75.5213 207.075 75.4816 207.001 77.7554 210.418C78.0367 210.836 78.2591 211.288 78.503 211.725C78.3542 212.038 78.1419 212.11 77.851 211.921C74.1777 207.306 74.273 207.45 68.875 211.094C44.9148 227.281 28.1047 249.185 16.798 275.535C16.4725 276.299 16.1136 277.038 15.7436 277.797C15.3118 278.091 15.0328 278.115 15.1316 277.462C23.9596 254.607 37.1246 234.679 55.6669 218.518C60.5981 214.267 65.8222 210.366 71.3008 206.846C80.0061 201.197 89.3253 196.843 98.8415 192.828C100.196 192.257 100.693 191.718 100.03 190.378C99.6108 189.846 99.9202 189.606 100.396 189.403C100.822 189.571 101.186 189.864 101.442 190.242C101.698 190.62 101.833 191.067 101.83 191.524Z" fill="#818285"/>
<path d="M308.789 169.18C294.552 173.263 279.985 175.611 265.31 177.369C262.64 177.686 259.968 177.908 257.306 178.249C256.554 178.344 255.558 178.202 255.339 179.349C253.493 178.597 252.608 177.297 252.944 175.267C254.011 174.229 255.418 174.3 256.735 174.182C268.835 173.145 280.772 171.102 292.687 168.927C296.344 168.262 299.979 167.232 303.649 166.753C307.441 166.48 310.888 164.883 314.462 163.853C318.036 162.824 321.694 161.181 325.61 161.001C326.868 161.41 327.628 162.125 327.376 163.593C321.307 165.854 315.098 167.721 308.789 169.18Z" fill="#969799"/>
<path d="M183.277 179.829C183.667 178.734 182.818 177.925 182.624 176.963C184.438 175.554 186.566 176.091 188.579 176.04C207.077 175.583 225.582 176.309 244.07 175.241C246.343 175.104 248.627 175.093 250.724 174.022C252.653 174.931 253.087 176.669 253.269 178.543C234.654 180.428 215.971 179.488 197.3 179.772C193.039 179.84 188.65 178.848 184.467 180.648C184.243 180.767 183.685 180.122 183.277 179.829Z" fill="#8D8E90"/>
<path d="M442.872 76.399C438.302 84.9673 432.436 92.6269 426.185 100.013C423.099 103.871 419.74 107.504 416.135 110.883C415.221 110.206 415.345 109.148 415.167 108.207C417.286 104.872 420.449 102.444 422.924 99.4001C424.398 97.5824 426.16 95.9724 427.044 93.6916C423.628 96.7495 420.579 100.164 417.376 103.409C413.604 107.394 409.559 111.111 405.269 114.534C404.135 115.402 403.077 116.498 401.461 116.282C401.085 116.183 400.753 115.962 400.516 115.655C400.28 115.347 400.152 114.97 400.153 114.581C400.353 113.198 401.522 112.588 402.436 111.794C409.65 105.667 416.533 99.1635 423.058 92.3102C424.235 91.0919 425.259 89.8246 424.51 87.9647C424.451 87.3499 424.591 86.7321 424.909 86.2018C425.019 86.1116 425.146 86.044 425.282 86.0031C425.419 85.9621 425.562 85.9486 425.704 85.9631C426.819 87.168 427.622 86.8404 428.646 85.6595C431.4 82.3689 433.97 78.9294 436.344 75.3566C437.116 74.2601 437.557 72.6399 439.456 72.9608C440.243 74.0222 440.13 75.2064 439.964 76.4153C435.949 80.7085 433.295 85.9596 429.638 90.5518C434.114 86.4924 436.6 80.8851 440.65 76.5037C440.972 76.2785 441.353 76.149 441.746 76.1305C442.139 76.112 442.53 76.2051 442.872 76.399Z" fill="#CFD0D1"/>
<path d="M327.384 163.591L326.007 161.314C326.015 159.261 327.811 159.267 329.043 158.897C338.648 156.015 347.769 151.98 356.862 147.798C358.689 146.955 360.349 146.016 360.887 143.882C361.492 143.182 361.907 143.671 362.38 144.091C364.618 146.118 365.136 145.998 366.388 143.209C366.681 142.567 366.744 141.796 367.584 141.561C369.563 141.832 371.018 140.643 372.617 139.791C373.925 139.095 375.138 138.083 376.766 138.139C377.74 140.026 377.19 141.688 375.984 143.243C374.711 141.601 373.722 143.213 372.869 143.694C359.28 151.319 345.237 157.956 330.369 162.738C329.38 163.052 328.374 163.311 327.384 163.591Z" fill="#AAABAD"/>
<path d="M288.539 129.925C288.613 130.064 288.715 130.186 288.838 130.285C290.127 130.711 290.707 131.835 291.395 132.856C292.758 134.886 293.971 137.022 295.444 138.985C296.121 140.027 296.913 140.992 297.545 142.056C298.867 144.41 300.607 146.483 302.066 148.744C302.78 150.246 303.321 151.825 303.677 153.45C303.846 154.418 303.85 155.408 303.69 156.378C303.6 158.144 303.076 159.86 302.165 161.377C299.125 165.455 296.934 165.81 292.896 162.896C292.297 162.092 291.892 161.159 291.715 160.171C291.354 157.974 291.574 155.72 292.352 153.631C293.265 151.333 294.286 149.132 297.028 148.448C297.465 148.317 297.567 147.905 297.458 147.454C296.546 145.686 295.344 144.109 294.282 142.447C293.774 141.527 293.217 140.635 292.613 139.774C291.117 137.533 289.862 135.141 288.286 132.95C287.99 131.906 286.98 130.825 288.539 129.925Z" fill="#424242"/>
<path d="M337.478 118.965C338.644 121.867 340.607 121.39 343.069 120.642C358.957 115.822 374.286 109.803 388.543 101.225C389.1 100.953 389.682 100.735 390.28 100.574C390.578 100.305 390.967 100.158 391.368 100.162C391.77 100.167 392.155 100.323 392.446 100.599C392.527 100.744 392.573 100.906 392.579 101.073C392.586 101.24 392.552 101.405 392.482 101.556C392.139 102.161 391.675 102.689 391.119 103.107C382.284 109.02 372.576 113.205 362.938 117.534C356.815 120.236 350.283 121.574 344.255 124.335C342.516 125.125 340.615 125.92 338.555 125.354C337.596 123.314 336.595 121.306 337.478 118.965Z" fill="#B5B6B8"/>
<path d="M337.478 118.964C337.988 120.982 339.005 122.926 338.455 125.107C338.447 125.775 338.295 126.279 337.451 126.065C336.18 124.717 337.477 122.684 336.232 121.311C335.779 120.556 335.118 119.948 334.328 119.558C333.538 119.168 332.652 119.013 331.776 119.11C332.593 120.421 333.556 121.635 334.647 122.729C335.867 123.704 336.352 125.349 337.758 126.163C338.896 127.067 339.481 128.466 340.575 129.427C341.356 130.325 342.008 131.315 342.736 132.238C343.601 133.475 344.705 134.553 345.305 135.974C345.742 136.967 346.434 137.858 346.514 138.993C346.595 140.127 346.913 141.217 346.42 142.316C345.904 142.618 345.501 142.402 345.123 142.04C344.237 140.705 343.789 139.153 342.98 137.787C342.304 136.295 341.475 134.877 340.506 133.556C339.746 132.406 338.863 131.343 337.872 130.385C336.19 129.774 336.033 131.534 335.142 132.147C331.127 136.094 326.649 137.723 321.206 135.413C319.071 134.291 317.416 132.433 316.551 130.184C316.149 129.016 315.765 127.825 316.278 126.616C315.879 121.477 316.295 116.508 319.304 112.067C320.317 113.217 319.613 114.396 319.295 115.53C318.441 118.345 318.054 121.281 318.15 124.22C317.998 126.601 319.444 128.33 320.609 130.16C324.694 133.778 330.129 133.608 333.78 129.831C335.013 128.596 335.256 127.442 333.935 126.161C333.16 125.312 332.528 124.36 331.78 123.486C331.506 123.179 331.253 122.857 330.982 122.558C328.478 119.849 328.125 119.886 326.403 123.301C326.018 124.618 326.858 125.309 327.734 126.032C328.264 126.47 329.383 126.645 328.78 127.785C328.402 128.073 327.946 128.241 327.471 128.266C326.996 128.291 326.525 128.173 326.119 127.927C325.638 127.624 325.222 127.228 324.895 126.764C324.569 126.299 324.337 125.775 324.214 125.22C323.916 124.2 323.84 123.129 323.99 122.076C324.141 121.024 324.515 120.016 325.087 119.12C325.442 118.572 325.653 117.943 325.7 117.292C325.747 116.642 325.629 115.99 325.357 115.397C325.36 114.773 325.266 114.084 326.177 114.001C327.521 115.734 328.798 116.959 331.467 116.089C334.135 115.219 336.098 116.619 337.478 118.964Z" fill="#474747"/>
<path d="M77.8368 211.873L78.4888 211.677C82.2864 217.457 86.1078 223.23 89.8592 228.972C92.276 232.693 91.772 236.442 89.5969 240.053C89.1162 240.885 88.3721 241.535 87.4817 241.898C86.5914 242.262 85.6054 242.32 84.6792 242.063C83.7529 241.806 82.9391 241.248 82.3658 240.478C81.7925 239.708 81.4924 238.769 81.5128 237.809C81.5527 233.783 81.9852 229.882 86.4881 228.107C88.2819 227.413 86.8831 226.535 86.5518 226.038C84.0477 221.911 81.426 217.854 78.8528 213.757C78.477 213.169 78.1744 212.507 77.8368 211.873Z" fill="#434343"/>
<path d="M253.276 178.567L250.718 174.145C250.073 173.958 249.519 173.544 249.157 172.98C248.795 172.416 248.65 171.74 248.748 171.077C248.807 170.934 248.904 170.809 249.03 170.717C249.156 170.626 249.305 170.572 249.46 170.561C250.365 171.072 251.145 171.776 251.745 172.623C252.346 173.47 252.751 174.439 252.933 175.461C253.73 176.761 254.526 178.054 255.315 179.356C257.278 182.374 259.308 185.355 261.175 188.427C263.392 192.087 263.007 195.714 260.962 199.269C260.541 200.114 259.847 200.794 258.992 201.199C258.136 201.603 257.17 201.708 256.249 201.496C254.333 201.12 253.34 199.775 252.948 197.834C252.44 195.643 252.745 193.343 253.807 191.358C254.869 189.374 256.616 187.841 258.723 187.044C257.136 184.078 255.314 181.244 253.276 178.567Z" fill="#424242"/>
<path d="M449.798 47.5837L449.53 49.1172C449.196 49.3649 448.785 49.4881 448.369 49.4656C447.709 49.1708 447.088 48.3712 446.488 49.6668C444.955 52.9901 442.741 55.9814 441.542 59.464C439.769 59.9961 437.801 59.8514 436.23 61.058C436.105 61.3034 435.958 61.5376 435.83 61.775C432.734 67.3144 428.313 71.8159 424.193 76.5124C423.191 77.6781 422.112 78.7892 421.017 79.8788C420.866 79.9377 420.703 79.9555 420.543 79.9305C420.383 79.9055 420.233 79.8386 420.108 79.7366C419.81 79.4595 419.608 79.0961 419.529 78.6977C419.45 78.2993 419.498 77.8861 419.667 77.5162C430.725 66.5682 439.738 54.0889 447.404 40.5606C444.509 46.6801 441.639 52.8003 437.538 58.5722C439.85 58.9683 440.641 57.7622 441.377 56.3736C443.714 51.9442 446.081 47.5314 448.668 42.6637C449.313 44.5808 447.641 45.4803 448.259 46.7569C448.548 47.4916 449.736 46.4519 449.798 47.5837Z" fill="#D7D7D8"/>
<path d="M13.3056 236.985C13.0917 235.319 11.9022 233.868 12.5032 232.087C13.3219 232.361 13.3605 233.154 13.5201 233.512C16.9115 228.446 20.6865 223.646 24.8121 219.155C30.4362 212.943 36.8176 207.551 43.0838 202.063C44.4994 200.773 45.8977 199.281 48.0728 199.251C48.9586 200.672 48.873 201.917 47.3525 202.858C41.2859 206.642 36.1513 211.539 31.0175 216.41C24.4727 222.674 19.0183 229.942 13.3056 236.985Z" fill="#7E7F82"/>
<path d="M143.412 168.292C143.952 167.205 142.603 166.494 142.866 165.463C144.248 164.062 146.115 164.246 147.828 164.035C155.24 163.116 162.71 162.967 170.157 162.627C170.99 162.573 171.824 162.707 172.597 163.019C173.686 163.756 174.624 164.573 174.11 166.094L151.135 167.514C149.595 167.613 148.074 167.827 146.542 167.95C145.01 168.072 145.012 168.945 145.492 170.055C145.93 170.59 145.73 170.849 145.106 170.906L143.412 168.292Z" fill="#8A8C8D"/>
<path d="M288.539 129.925C287.704 131.041 288.948 131.895 288.922 132.906C288.671 133.363 288.292 133.737 287.833 133.984C287.373 134.23 286.852 134.34 286.332 134.298C278.707 134.709 271.092 135.239 263.448 134.636C261.918 133.927 261.47 132.461 260.946 131.062L261.075 130.859C269.088 131.248 277.087 130.897 285.084 130.572C286.988 130.503 287.685 130.025 286.236 128.315C284.535 126.317 284.458 122.941 281.123 122.342C281.098 121.623 281.659 121.238 282.009 120.701C284.512 123.531 286.702 126.624 288.539 129.925Z" fill="#979899"/>
<path d="M316.203 126.656C316.567 127.87 316.932 129.084 317.296 130.298C311.955 131.849 306.398 132.133 300.934 132.96C298.705 133.3 296.446 133.572 294.223 133.703C293.085 133.862 291.928 133.593 290.98 132.946C289.811 132.432 289.637 131.1 288.87 130.249C296.957 129.759 304.989 128.767 312.991 127.533C314.08 127.312 315.153 127.018 316.203 126.656Z" fill="#9C9D9F"/>
<path d="M47.3953 202.828L48.2927 199.436C48.1307 197.279 51.3514 196.892 50.8428 194.562C50.8733 194.337 50.973 194.127 51.1282 193.961C51.2833 193.795 51.4863 193.681 51.7089 193.636C52.6413 194.057 53.3057 194.653 53.1311 195.804C53.5323 196.419 53.9414 197.031 54.3427 197.646C54.9156 200.017 55.9783 202.345 54.9477 204.86C54.081 206.997 52.9982 208.905 50.3018 208.469C47.6053 208.032 47.2651 206.033 47.4665 203.758C47.4661 203.446 47.4423 203.135 47.3953 202.828Z" fill="#434242"/>
<path d="M415.51 108.571C416.805 109.047 415.787 110.157 416.2 110.872C410.847 116.138 405.234 121.144 399.461 125.965C397.27 127.79 394.576 129.066 393.044 131.644C391.453 131.395 391.12 130.172 390.851 128.843C392.006 126.394 394.468 125.5 396.519 124.132C400.295 124.27 400.653 120.841 402.204 118.671C406.28 116.427 409.452 113.105 412.806 109.988C413.52 109.333 414.042 108.069 415.51 108.571Z" fill="#C2C3C5"/>
<path d="M112.218 118.534L110.016 117.292C108.034 114.383 106.264 113.686 103.074 114.376C99.6454 115.111 96.6665 117.112 93.2167 117.775L93.2644 117.761C91.5551 116.137 90.7022 113.989 89.2158 111.606C93.4735 112.335 97.1633 111.721 100.843 110.841C105.753 109.671 107.388 110.356 110.046 114.619C110.874 115.849 111.502 117.218 112.218 118.534Z" fill="#444343"/>
<path d="M419.695 77.5251L420.651 79.7555C420.562 79.8717 420.443 79.9623 420.308 80.0182C420.172 80.074 420.025 80.0931 419.88 80.0735C419.526 79.9696 419.217 79.7509 419.002 79.4522C418.786 79.1534 418.677 78.7914 418.691 78.4235C417.695 76.7503 416.749 75.0446 415.694 73.4064C413.885 70.5846 414.534 67.8643 416.058 65.2616C416.391 64.601 416.954 64.085 417.642 63.8115C418.33 63.5381 419.095 63.5262 419.79 63.7781C420.45 63.955 421.031 64.3463 421.442 64.8902C421.854 65.4341 422.071 66.0996 422.061 66.7814C422.161 69.7702 421.657 72.3349 418.732 74.1988C416.747 75.4692 419.108 76.4644 419.695 77.5251Z" fill="#444343"/>
<path d="M174.098 166.054C173.559 165.126 173.021 164.198 172.474 163.272C168.956 160.617 167.941 157.064 168.675 152.865C168.982 151.548 169.507 150.292 170.228 149.146C173.425 146.63 175.048 146.636 177.969 149.15C178.729 150.297 178.71 151.618 178.788 152.918C178.859 156.045 177.862 158.757 175.217 160.572C173.782 161.565 174.429 162.391 175.093 163.334C175.757 164.276 176.202 165.181 176.786 166.087C178.057 168.214 179.534 170.218 180.701 172.402C181.227 173.377 182.055 174.288 181.523 175.546L181.232 175.53L180.954 175.613C178.584 172.51 176.913 168.877 174.098 166.054Z" fill="#474747"/>
<path d="M443.02 61.9353C441.891 64.1512 439.531 66.1655 441.843 68.9576C442.357 70.3517 442.191 71.3876 440.436 71.5768C439.118 70.623 440.341 68.5174 438.688 67.7161C438.5 67.5218 438.322 67.3068 438.15 67.1077C436.167 66.2757 436.06 68.2885 435.422 69.1374C431.698 74.2588 427.621 79.1154 423.222 83.672C422.077 83.41 421.897 82.5213 421.832 81.5546C421.925 80.7202 422.304 79.9432 422.905 79.3555C427.85 73.9965 432.094 68.069 436.716 62.4436C438.811 62.4374 440.838 61.163 443.02 61.9353Z" fill="#D5D6D7"/>
<path d="M418.707 78.4186L420.043 79.9812C419.991 80.1265 419.949 80.2773 419.9 80.4305C414.723 85.7971 409.077 90.693 403.03 95.0603C401.536 96.1748 400.241 97.5495 398.555 98.4015C396.656 97.8472 394.52 99.7424 392.684 97.9841C398.806 95.2815 403.7 90.8805 408.907 86.8873C412.386 84.3194 415.662 81.4882 418.707 78.4186Z" fill="#C7C8C9"/>
<path d="M282.016 120.724C282.578 121.732 281.736 121.985 281.13 122.365C273.826 122.949 266.52 123.559 259.206 124.11C258.277 124.077 257.352 124.254 256.501 124.628C254.888 123.382 256.044 123.105 257.127 122.987C260.598 122.568 264.077 122.147 267.558 121.846C272.368 121.414 277.194 121.09 282.016 120.724Z" fill="#474746"/>
<path d="M104.645 197.348L105.289 197.155C106.882 199.575 108.673 201.935 107.357 205.115C106.716 206.648 105.859 207.978 103.944 207.575C102.029 207.173 101.763 205.566 101.887 203.928C102.031 202.155 102.525 200.277 104.225 199.473C105.639 198.814 105.035 198.157 104.645 197.348Z" fill="#434343"/>
<path d="M375.976 143.246C376.055 141.544 376.081 139.841 376.943 138.294C376.982 137.183 377.83 136.773 378.644 136.338C378.906 136.17 379.201 136.059 379.509 136.014C379.817 135.97 380.131 135.992 380.43 136.079C380.941 136.31 381.353 136.714 381.594 137.22C381.835 137.726 381.888 138.3 381.744 138.842C382.043 140.349 381.867 141.913 381.242 143.318C380.706 144.421 379.972 145.498 378.518 145.389C377.23 145.257 376.153 144.758 375.976 143.246Z" fill="#454444"/>
<path d="M394.731 134.927C395.67 135.978 396.209 137.326 396.255 138.734C396.301 140.143 395.851 141.524 394.983 142.636C394.736 143.096 394.334 143.453 393.848 143.644C393.361 143.834 392.823 143.845 392.33 143.674C391.266 143.336 390.406 142.721 390.357 141.576C390.251 138.944 390.399 136.374 393.456 135.24C393.59 135.036 393.796 134.891 394.032 134.833C394.269 134.775 394.519 134.808 394.731 134.927Z" fill="#464646"/>
<path d="M119.259 196.197L119.919 195.999C121.427 198.34 122.987 200.649 121.726 203.665C121.065 205.248 120.088 206.38 118.271 206.017C116.455 205.654 116.219 204.176 116.295 202.666C116.392 200.768 116.826 198.891 118.689 197.994C119.781 197.502 119.748 197.019 119.259 196.197Z" fill="#434242"/>
<path d="M133.932 195.098L134.3 194.39C135.703 196.668 137.299 198.896 136.125 201.826C135.507 203.378 134.653 204.69 132.769 204.39C130.885 204.091 130.738 202.448 130.615 200.824C130.417 198.142 132.833 197.01 133.932 195.098Z" fill="#424242"/>
<path d="M1.09629 215.971L2.12923 217.218C2.10796 218.591 1.15203 219.449 0.359015 220.388C-4.40112 225.961 -8.64196 231.956 -12.3107 238.298C-12.9305 237.619 -13.5821 236.95 -14.178 236.263C-11.4515 233.335 -9.5547 229.807 -7.23669 226.586C-4.58063 222.96 -2.09622 219.196 1.09629 215.971Z" fill="#7B7C7F"/>
<path d="M318.222 98.5266L318.972 96.6928C321.776 95.2369 323.607 96.3134 323.608 99.5222C323.614 102.228 322.266 104.579 321.389 107.056L321.444 107.04C318.652 106.399 319 103.777 318.378 101.905C318.115 100.799 318.062 99.6529 318.222 98.5266Z" fill="#F5F4F4"/>
<path d="M381.75 138.831C381.195 137.908 380.641 136.985 380.055 136.071C380.106 135.925 380.148 135.775 380.189 135.624C382.973 132.885 386.615 131.36 389.668 128.999C389.813 128.951 389.966 128.932 390.119 128.945C390.271 128.957 390.42 128.999 390.556 129.07C391.089 129.982 391.98 130.753 391.75 131.981C388.433 134.213 384.852 136.171 381.75 138.831Z" fill="#BABBBD"/>
<path d="M126.018 183.893C122.38 185.979 118.242 186.226 114.262 187.058C113.799 187.213 113.355 187.424 112.943 187.687C111.514 186.594 110.491 185.292 110.774 183.347C110.802 183.272 110.848 183.205 110.906 183.15C110.965 183.096 111.036 183.055 111.113 183.032C111.19 183.009 111.271 183.004 111.35 183.017C111.429 183.031 111.504 183.062 111.569 183.109C113.689 184.713 116.003 182.894 118.182 183.485C117.878 184.26 117.074 184.095 116.727 184.268C119.69 184.322 122.788 182.89 126.018 183.893Z" fill="#EEEDED"/>
<path d="M111.58 183.088L110.951 183.216C107.911 184.639 104.597 184.31 101.44 184.938C100.229 185.061 99.0311 185.296 97.8629 185.639L97.4478 185.816C95.4048 183.687 97.6832 183.713 98.7247 183.573C104.226 182.787 109.756 182.122 115.267 181.454C118.396 181.077 121.535 180.766 124.696 180.7C120.429 182.335 115.885 181.952 111.58 183.088Z" fill="#7C7B7B"/>
<path d="M321.381 107.032C321.321 104.637 322.885 102.628 322.943 100.223C323.04 96.7343 322.372 96.0094 318.964 96.6688C319.943 94.6451 321.691 93.6535 323.645 94.5633C325.6 95.473 325.25 97.5415 324.671 99.2205C323.746 101.885 323.283 104.792 321.381 107.032Z" fill="#494949"/>
<path d="M440.106 71.4596C441.462 71.1825 441.795 70.1831 441.855 68.9973C442.857 69.449 442.438 70.708 443.178 71.2988C444.161 73.0712 443.681 74.7636 442.881 76.4308L440.463 77.269C439.978 77.4146 439.687 77.2512 439.65 76.7259C439.299 75.5054 439.189 74.2279 439.327 72.9649C439.254 72.6626 439.293 72.344 439.436 72.0675C439.579 71.791 439.817 71.5752 440.106 71.4596Z" fill="#434242"/>
<path d="M318.222 98.5265C319.218 101.385 318.337 104.945 321.432 107C321.961 110.033 324.772 111.542 326.142 114.028C325.592 114.418 325.879 114.972 325.899 115.442C323.924 113.743 322.725 111.395 321.081 109.441C319.994 109.862 320.331 111.128 319.554 111.629C320.664 109.004 319.813 106.716 318.642 104.317C317.725 102.559 317.123 100.526 318.222 98.5265Z" fill="#6B6A6A"/>
<path d="M443.169 71.2669C442.782 71.0149 442.46 70.675 442.23 70.275C442 69.875 441.868 69.4262 441.845 68.9654L448.788 57.4447C449.297 58.1571 448.393 59.0164 447.96 59.8556C446.59 62.5074 445.214 65.1433 443.7 67.7515C443.37 68.268 443.152 68.8477 443.061 69.4533C442.969 70.0589 443.006 70.6768 443.169 71.2669Z" fill="#D5D6D7"/>
<path d="M392.684 97.984C394.679 98.2501 396.696 96.5376 398.672 98.0378C398.873 98.1712 399.025 98.3674 399.103 98.5959C399.181 98.8244 399.181 99.0724 399.103 99.3011C396.83 99.6978 394.66 100.583 392.332 100.71C391.998 100.826 391.644 100.873 391.292 100.85C390.939 100.826 390.595 100.732 390.28 100.574L389.601 98.3123L392.684 97.984Z" fill="#4D4D4C"/>
<path d="M15.1411 277.407L15.7531 277.743L11.0948 289.771L10.7784 289.641C11.7467 285.407 13.2111 281.301 15.1411 277.407Z" fill="#A6A7AA"/>
<path d="M126.018 183.893L115.787 184.775L115.675 184.402L118.213 183.502C120.437 183.258 122.666 183.031 124.919 182.743C125.753 182.632 126.548 182.393 126.792 183.583L126.018 183.893Z" fill="#60605F"/>
<path d="M457.524 52.5912C458.681 53.5586 459.302 54.7908 458.196 56.3598C458.124 56.4997 458.02 56.6205 457.892 56.7119C457.764 56.8032 457.616 56.8625 457.46 56.8846C457.305 56.9068 457.146 56.8911 456.998 56.8391C456.849 56.787 456.716 56.7 456.608 56.5855C455.284 54.976 456.891 53.8019 457.524 52.5912Z" fill="#555454"/>
<path d="M457.638 28.5974C458.464 30.0793 459.815 31.4038 458.811 33.3141C458.376 34.1453 457.933 34.9528 456.841 34.9519C455.749 34.9511 455.349 34.1109 455.253 33.1276C455.313 33.0051 455.402 32.8992 455.513 32.8193C455.624 32.7393 455.752 32.6878 455.887 32.6692C457.945 32.7091 456.878 31.2042 457.055 30.3208C457.344 29.7841 456.423 28.8236 457.638 28.5974Z" fill="#797979"/>
<path d="M455.803 32.9366L455.246 33.1037C455.218 33.0084 455.129 32.8879 455.16 32.818C456.421 30.0005 456.95 27.2294 454.533 24.5469C455.906 25.5899 456.975 26.9798 457.631 28.5734C457.373 29.1795 457.366 29.8629 457.612 30.4735C456.97 31.2803 457.299 32.7816 455.803 32.9366Z" fill="#A6A5A6"/>
<path d="M448.367 49.4577C448.557 48.6742 449.134 49.1239 449.528 49.1093C449.883 50.6376 450.997 51.7218 451.766 53.0134C452.327 53.9606 453.131 54.818 452.4 56.0233C451.327 55.7661 451.219 54.5701 450.454 54.0127C450.191 52.301 448.967 51.0248 448.367 49.4577Z" fill="#BCBBBC"/>
<path d="M-1.51242 259.086L0.147028 258.406C-0.812263 261.173 -2.07758 263.824 -3.62547 266.311C-3.89822 266.471 -4.04528 266.386 -4.09364 266.08C-3.75865 263.558 -1.53582 261.723 -1.51242 259.086Z" fill="#8D8D90"/>
<path d="M391.806 131.964C391.294 131.011 390.777 130.067 390.257 129.116C390.112 128.632 390.268 128.343 390.725 128.189C390.811 128.201 390.892 128.238 390.958 128.294C391.025 128.351 391.073 128.426 391.098 128.509C391.148 128.676 391.174 128.763 391.103 128.785L392.986 131.679C393.572 132.766 394.15 133.856 394.736 134.943L393.449 135.216C393.381 133.922 392.497 132.968 391.806 131.964Z" fill="#777676"/>
<path d="M450.456 54.0208C452.34 53.4552 452.008 55.1205 452.403 56.0314C451.943 56.896 451.522 58.2074 450.27 57.2424C449.018 56.2773 449.838 55.0799 450.456 54.0208Z" fill="#525151"/>
<path d="M443.02 61.9352C441.463 62.2037 439.816 62.0319 438.464 63.1558C437.566 63.9183 437.362 62.6907 436.794 62.472C436.737 62.4367 436.688 62.3904 436.65 62.3358C436.611 62.2812 436.584 62.2194 436.57 62.1542C436.557 62.089 436.556 62.0216 436.569 61.9561C436.581 61.8906 436.607 61.8282 436.644 61.7729C436.788 61.6199 436.978 61.518 437.184 61.4825C437.391 61.4469 437.604 61.4798 437.79 61.5761C439.52 62.0257 441.401 60.2069 443.02 61.9352Z" fill="#373736"/>
<path d="M435.744 60.8235C435.613 60.387 435.304 59.5888 436.011 59.6622C437.878 59.8458 439.67 58.4255 441.539 59.456C441.988 60.6621 440.86 59.8502 440.617 60.1654C439.385 60.051 438.156 60.4199 437.19 61.1939C436.581 61.6189 436.078 61.5883 435.744 60.8235Z" fill="#444444"/>
<path d="M449.798 47.5837C449.509 46.9093 448.22 48.1006 448.287 46.7657C450.044 46.2153 451.932 46.2564 453.661 46.8827L449.798 47.5837Z" fill="#9E9D9E"/>
<path d="M11.0949 289.772C10.9025 291.661 10.2585 293.477 9.21716 295.066C9.2161 293.146 9.76023 291.264 10.7865 289.639C10.845 289.633 10.9041 289.641 10.9582 289.665C11.0122 289.688 11.0593 289.725 11.0949 289.772Z" fill="#BBBBBC"/>
<path d="M256.686 125.187C257.934 126.456 259.391 127.584 259.284 129.597C258.026 128.396 257.127 126.869 256.686 125.187Z" fill="#989797"/>
<path d="M435.744 60.8235C437.516 61.7016 438.853 59.3713 440.617 60.1654C439.727 60.7525 438.424 60.5121 437.8 61.6078L436.657 62.0459C435.782 62.4814 435.588 61.9775 435.552 61.253L435.744 60.8235Z" fill="#D7D7D8"/>
<path d="M100.364 189.612C100.254 189.852 100.152 190.09 100.04 190.323C98.747 189.111 97.8447 187.542 97.4478 185.816C99.746 186.052 100.342 187.603 100.364 189.612Z" fill="#A9A9A9"/>
<path d="M145.071 170.874L145.457 170.023C146.654 171.145 147.383 172.678 147.499 174.314L145.071 170.874Z" fill="#9E9D9D"/>
<path d="M107.221 140.957C89.8563 143.355 72.832 147.783 56.4985 154.148C35.1285 162.621 15.7517 174.327 -1.13521 190.026C-2.43555 191.238 -3.07038 192.241 -2.17358 193.988C-1.64934 195.041 -1.10929 196.263 -1.63216 197.553C-2.65422 195.014 -2.84933 192.14 -4.67686 189.921C-1.75478 188.828 -0.000702041 186.269 2.20467 184.318C16.4246 171.746 32.3932 161.997 49.6297 154.134C57.5637 150.507 65.836 147.834 74.0901 145.158C83.0414 142.263 92.3213 140.551 101.594 138.901C102.838 138.683 104.346 139.061 105.089 137.523C105.813 138.664 106.521 139.809 107.221 140.957Z" fill="#818385"/>
<path d="M28.4934 192.464C25.6476 193.552 23.5073 195.691 21.3099 197.639C15.0533 203.158 8.84195 208.742 3.6883 215.366L2.47185 213.768C9.6223 205.826 17.0271 198.155 25.5475 191.601C26.4779 190.889 26.9521 190.159 26.338 189.037C26.4598 188.75 26.3924 188.381 26.7367 188.2L27.6839 189.247C27.722 189.374 27.7577 189.493 27.7958 189.62C28.0744 190.549 28.7705 191.395 28.4934 192.464Z" fill="#7D7E81"/>
<path d="M1.3258 254.999C3.92902 249.076 7.21666 243.477 11.1218 238.314C11.3051 239.185 11.8429 240.053 11.2009 240.946C9.12093 245.307 6.00133 249.063 4.04055 253.475C3.55743 254.753 2.28871 254.598 1.3258 254.999Z" fill="#838486"/>
<path d="M4.04537 253.491C3.75602 253.422 2.95771 253.766 3.34676 253.069C5.7097 248.9 7.8843 244.537 11.201 240.946C10.6772 246.19 7.65297 250.004 4.04537 253.491Z" fill="#EFEEEE"/>
<path d="M101.796 121.843C105.112 120.07 108.507 118.878 112.257 120.512C108.923 122.169 105.348 121.954 101.796 121.843Z" fill="#EDECEC"/>
<path d="M266.071 141.062C264.647 138.727 263.231 136.396 261.822 134.068C261.363 133.116 260.056 132.401 260.919 131.061C261.71 132.116 262.506 133.162 263.309 134.202C265.313 135.75 266.764 137.901 267.448 140.338C267.433 140.497 267.382 140.651 267.298 140.787C267.214 140.923 267.1 141.038 266.964 141.123C266.821 141.186 266.665 141.213 266.51 141.203C266.354 141.192 266.203 141.144 266.071 141.062Z" fill="#5F5F5F"/>
<path d="M212.933 142.306C190.009 139.741 167.067 137.432 143.938 137.99C132.346 138.269 120.774 138.784 109.332 140.86C108.812 139.935 108.286 139.02 107.768 138.103C120.314 135.808 133.02 135.316 145.729 134.979C167.492 134.398 189.081 136.62 210.663 138.844C212.192 139.493 213.22 140.464 212.933 142.306Z" fill="#8A8C8E"/>
<path d="M102.521 161.683C101.571 159.183 100.028 159.153 97.533 159.763C82.2468 163.491 67.4345 168.947 53.383 176.024C51.1692 177.138 49.1088 178.561 46.8681 179.614C44.3689 180.788 43.5399 182.127 45.6576 184.389C46.0952 184.96 46.4622 185.582 46.7507 186.241C46.5351 186.677 47.0436 187.217 46.5768 187.625C46.4122 187.503 46.2623 187.362 46.1302 187.205C42.6901 182.097 42.7028 182.11 37.4886 185.327C34.5043 187.145 31.7126 189.261 29.1567 191.642C28.0717 191.319 27.9409 190.277 27.5931 189.465L27.6838 189.247C32.2875 185.902 36.9841 182.693 41.7435 179.578C44.8323 177.664 48.0169 175.908 51.285 174.319C67.1052 166.074 83.9354 159.929 101.347 156.041C101.744 157.911 102.135 159.792 102.521 161.683Z" fill="#838487"/>
<path d="M115.025 153.328L136.15 150.249C136.833 151.687 136.284 152.804 135.245 153.816C129.333 153.67 123.594 154.995 117.792 155.819C116.911 155.945 116.022 156.506 115.108 155.916C114.755 155.095 114.726 154.171 115.025 153.328Z" fill="#8A8B8D"/>
<path d="M93.2486 117.766C96.4207 115.888 99.5959 113.992 103.298 113.331C106.028 112.84 108.48 113.272 110.099 115.779C110.411 116.239 110.888 116.848 110 117.296C107.209 116.084 104.596 117.483 101.962 117.979C99.0168 118.474 96.1483 118.764 93.2486 117.766Z" fill="#F2F1F1"/>
<path d="M142.94 152.916C142.202 155.049 141.633 157.227 139.222 158.262C137.913 158.837 139.22 159.612 139.244 160.297L139.032 161.641C137.629 159.103 135.52 156.899 135.245 153.816L136.15 150.249C138.43 146.814 140.213 146.633 142.525 149.598C143.528 150.603 143.912 151.708 142.94 152.916Z" fill="#434343"/>
<path d="M401.547 116.023L402.171 118.88C401.196 123.861 400.482 124.629 396.92 124.487C396.507 124.477 396.106 124.341 395.772 124.099C395.438 123.856 395.185 123.518 395.048 123.129C394.461 121.603 394.416 119.923 394.918 118.367C395.278 117.125 396.097 116.066 397.21 115.404C398.187 114.964 399.096 114.267 400.279 114.483L400.372 114.386L401.547 116.023Z" fill="#434343"/>
<path d="M438.798 67.2159C439.892 69.7334 437.636 71.0247 436.575 72.5452C433.298 77.3348 430.132 82.264 425.661 86.0797L425.152 86.2324C424.756 86.1955 424.392 86.0037 424.138 85.699C423.884 85.3942 423.761 85.0014 423.797 84.6063C428.382 79.6017 432.613 74.2855 436.46 68.696C437.02 67.9052 437.464 66.7858 438.831 67.2405L438.798 67.2159Z" fill="#D6D7D8"/>
<path d="M424.024 84.5817L425.147 86.2166C425.168 86.7206 425.32 87.2546 424.786 87.6137C424.145 87.3105 423.607 86.825 423.241 86.2179C422.74 85.5032 422.298 84.84 421.81 84.1649C421.321 83.4899 420.997 83.0162 420.635 82.4157C420.261 81.6627 419.689 80.9695 419.769 80.0805L420.039 79.9994L420.66 79.8132C420.78 79.7206 420.93 79.6756 421.081 79.6868C421.402 79.8319 421.674 80.066 421.866 80.3611C422.057 80.6562 422.16 81.0001 422.162 81.352C422.662 82.0667 422.631 83.062 423.528 83.5368C423.721 83.6241 423.877 83.777 423.968 83.9683C424.058 84.1596 424.078 84.377 424.024 84.5817Z" fill="#70706F"/>
<path d="M366.682 138.787C366.972 139.755 367.265 140.731 367.518 141.719C367.392 142.099 367.297 142.489 367.235 142.885C367.102 144.923 366.399 146.596 364.109 146.764C361.82 146.932 362.177 144.801 361.56 143.525L361.68 141.586C361.676 141.008 361.813 140.438 362.079 139.924C362.344 139.411 362.73 138.969 363.204 138.637C364.278 138.315 364.192 136.671 365.519 136.645C365.914 136.833 366.24 137.142 366.449 137.527C366.658 137.912 366.74 138.353 366.682 138.787Z" fill="#434343"/>
<path d="M294.92 139.462C303.779 138.308 312.579 136.817 321.285 134.896C326.704 136.894 331.128 134.944 335.139 131.387C335.933 130.539 336.97 129.959 338.108 129.726L340.817 132.978C337.42 133.211 334.151 134.391 330.887 135.353C319.743 138.655 308.401 140.571 296.964 142.257L294.92 139.462Z" fill="#9E9FA1"/>
<path d="M303.076 156.528C303.339 156.942 303.517 157.563 304.145 157.435C311.002 156.092 317.766 154.31 324.395 152.102C324.697 152.011 324.858 151.478 325.08 151.152C325.883 151.237 326.638 151.573 327.238 152.112C327.837 152.652 328.25 153.367 328.417 154.155C320.489 156.82 312.355 158.682 304.246 160.657C303.441 160.784 302.628 160.846 301.814 160.842L303.076 156.528Z" fill="#9FA0A2"/>
<path d="M294.877 142.234C287.691 143.647 280.383 143.816 273.125 144.438C272.28 144.51 270.623 143.58 270.596 145.629C268.308 145.252 268.125 143.577 268.208 141.744C275.573 141.16 282.949 140.555 290.324 140.002C291.352 139.978 292.365 139.762 293.314 139.365C293.783 140.322 294.775 141.028 294.877 142.234Z" fill="#97989A"/>
<path d="M323.772 147.168C322.121 146.115 320.522 147.226 319.019 147.504C314.144 148.414 309.338 149.9 304.485 150.742C301.766 151.212 304.004 153.153 303.067 154.014C302.532 152.231 301.969 150.453 301.38 148.681C306.658 146.803 312.234 146.237 317.638 144.952C320.347 144.303 323.022 143.483 325.702 142.739C325.493 144.411 325.131 146.007 323.772 147.168Z" fill="#9E9FA1"/>
<path d="M293.092 153.642C293.071 153.491 293.018 153.345 292.936 153.216C292.854 153.087 292.745 152.977 292.616 152.894C292.488 152.811 292.343 152.757 292.191 152.736C292.039 152.714 291.885 152.725 291.738 152.769C287.219 153.338 282.707 153.896 278.183 154.389C277.721 154.41 277.283 154.605 276.959 154.935C276.635 155.265 276.449 155.705 276.437 156.167C275.719 155.77 275.181 155.113 274.934 154.331C274.686 153.55 274.748 152.703 275.107 151.965C281.135 151.142 287.167 150.361 293.186 149.48C295.069 149.2 297.097 149.171 298.511 147.527C299.516 148.393 298.812 148.76 298.044 148.86C295.152 149.244 293.996 151.312 293.092 153.642Z" fill="#97989A"/>
<path d="M275.973 161.436C279.746 162.457 283.395 160.782 287.131 160.639C288.862 160.454 290.577 160.148 292.264 159.721L293.365 162.608C288.514 163.398 283.682 164.278 278.809 164.936C276.78 165.208 274.774 165.628 272.807 166.192C273.365 164.328 274.468 162.672 275.973 161.436Z" fill="#969899"/>
<path d="M392.857 104.307C392.372 103.588 391.88 102.87 391.412 102.206C391.333 101.426 391.902 101.359 392.451 101.28C394.96 100.372 397.649 100.464 400.224 99.8902C400.535 99.9164 400.825 100.053 401.042 100.276C401.303 100.58 401.479 100.947 401.55 101.341C401.621 101.735 401.585 102.141 401.446 102.516C401.149 102.89 400.724 103.141 400.253 103.22C397.92 102.926 395.843 103.861 393.73 104.59C393.421 104.566 393.122 104.469 392.857 104.307Z" fill="#525252"/>
<path d="M400.509 100.202C397.848 100.75 395.276 101.972 392.451 101.28C392.436 101.086 392.396 100.894 392.332 100.71C394.411 99.4375 396.497 98.2147 399.078 99.2478C399.984 98.9155 400.57 99.077 400.509 100.202Z" fill="#D6D5D5"/>
<path d="M340.041 129.872C345.59 128.146 351.132 126.397 356.282 123.718C358.344 123.8 360.21 122.798 362.231 122.572C363.13 122.476 364 121.998 364.756 122.87C365.178 124.681 363.642 124.934 362.6 125.247C360.47 125.886 359.738 126.971 360.916 129.048C360.766 130.658 362.747 132.001 361.464 133.762C357.607 136.217 353.177 137.339 349.053 139.165C348.562 139.456 348.001 139.605 347.43 139.596C346.86 139.587 346.303 139.42 345.822 139.114L344.55 136.347C347.7 133.819 351.907 133.715 355.284 131.681C355.717 131.421 356.27 131.385 356.719 131.121C357.478 130.763 358.351 130.406 357.916 129.334C357.846 129.108 357.725 128.9 357.562 128.728C357.399 128.555 357.199 128.423 356.977 128.34C356.754 128.257 356.516 128.226 356.279 128.25C356.043 128.274 355.815 128.351 355.613 128.477C352.211 129.991 348.524 130.674 345.073 132.055C344.13 132.434 343.218 133.036 342.127 132.576L340.041 129.872Z" fill="#ACAEAF"/>
<path d="M329.708 141.589L343.392 137.283C344.369 138.659 345.083 140.205 345.497 141.841C345.392 141.969 345.251 142.063 345.093 142.111C344.934 142.158 344.765 142.157 344.606 142.108C342.509 141.328 340.63 142.316 338.687 142.83C337.024 143.268 335.427 143.981 333.668 144.042C332.075 143.777 330.652 142.896 329.708 141.589Z" fill="#A9ABAC"/>
<path d="M326.287 127.565C324.575 128.124 322.835 128.591 321.074 128.965C319.752 129.18 319.646 129.723 320.066 130.747C318.671 128.813 317.116 126.953 317.428 124.325C318.536 126.777 321.21 126.935 324.686 124.741C324.996 125.793 325.543 126.759 326.287 127.565Z" fill="#A2A3A5"/>
<path d="M325.604 123.211C325.655 122.808 325.754 122.412 325.901 122.033C327.622 118.843 328.578 118.738 330.854 121.411C331.323 121.962 331.738 122.538 332.225 123.093C331.393 125.747 329.001 124.969 327.197 125.225C325.911 125.446 325.398 124.458 325.604 123.211Z" fill="#F6F5F5"/>
<path d="M325.605 123.212C325.936 123.882 325.906 125.111 327.084 124.705C328.772 124.121 330.749 124.47 332.193 123.128L334.238 125.784L328.695 127.387C326.791 126.644 324.808 125.959 325.605 123.212Z" fill="#A5A6A8"/>
<path d="M334.199 123.14L330.009 118.568C333.114 117.852 335.307 118.431 336.811 121.016C337.494 123.639 336.035 123.627 334.199 123.14Z" fill="#F2F2F1"/>
<path d="M345.089 142.128C345.234 142.053 345.374 141.968 345.506 141.873L346.171 142.296L346.456 144.806C347.104 146.272 346.511 147.384 345.376 148.252C343.806 150.618 342.148 152.889 339.384 154.021C338.989 153.915 338.492 153.934 338.412 153.379C339.343 151.456 341.731 150.895 342.611 148.918C343.471 147.696 344.11 146.334 344.497 144.892C344.735 143.981 344.345 142.913 345.089 142.128Z" fill="#656565"/>
<path d="M334.198 123.141C335.286 122.693 337.006 123.024 336.803 121.018C338.2 122.554 337.165 124.447 337.533 126.136L337.574 126.072C335.319 126.411 335.459 123.99 334.198 123.141Z" fill="#ABACAD"/>
<path d="M338.147 129.74C337.745 131.288 336.191 130.907 335.178 131.401C336.112 130.758 335.647 127.593 338.147 129.74Z" fill="#E7E7E6"/>
<path d="M267.589 165.959C261.234 167.079 254.787 166.999 248.333 167.5C247.767 168.907 249.643 169.468 249.512 170.736L248.884 170.924C247.272 167.948 244.767 167.515 241.539 167.619C221.369 168.249 201.256 166.501 181.109 166.225C179.455 166.202 177.81 166.237 176.156 166.241C175.35 165.498 174.78 164.535 174.519 163.471C175.279 162.076 176.639 162.333 177.824 162.384C191.393 162.948 204.982 162.771 218.551 163.481C233.36 164.156 248.2 163.835 262.968 162.519C263.989 162.304 265.04 162.282 266.068 162.454C266.594 162.866 267.007 163.402 267.273 164.014C267.538 164.626 267.647 165.294 267.589 165.959Z" fill="#8C8E8F"/>
<path d="M46.6087 187.616C46.6598 187.15 46.7283 186.715 46.7826 186.231L51.6614 193.823L51.2341 194.739C49.4777 192.51 47.9295 190.126 46.6087 187.616Z" fill="#696868"/>
<path d="M213.546 154.976L180.237 152.578C179.422 152.52 178.556 152.347 178.067 153.29C177.928 152.017 178.148 150.67 177.555 149.473L210.626 151.458C211.966 151.532 213.305 151.519 214.643 151.558C214.82 152.172 214.81 152.825 214.615 153.433C214.419 154.042 214.047 154.579 213.546 154.976Z" fill="#8C8E8F"/>
<path d="M142.94 152.916C142.8 151.817 142.658 150.709 142.52 149.583C148.463 150.152 154.406 149.276 160.352 149.42C163.71 149.494 167.088 148.964 170.435 149.664L169.417 152.625C160.582 152.093 151.76 152.734 142.94 152.916Z" fill="#8B8C8E"/>
<path d="M177.006 153.651C177.131 155.092 176.789 156.534 176.031 157.767C175.267 158.948 174.282 159.823 172.73 159.476C171.179 159.128 170.734 157.791 170.721 156.42C170.567 154.983 170.952 153.539 171.802 152.368C173.855 151.526 175.942 150.511 177.006 153.651Z" fill="#EDECEB"/>
<path d="M177.006 153.651C175.786 151.146 173.516 152.882 171.801 152.368C172.5 150.912 173.71 150.065 175.207 150.662C176.368 151.092 177.516 152.002 177.006 153.651Z" fill="#8B8C8E"/>
<path d="M379.025 136.942C379.01 135.39 377.968 134.344 377.158 133.178C375.902 132.456 375.088 131.507 375.473 129.929C375.776 129.38 376.182 129.405 376.684 129.661C377.819 130.557 378.318 131.93 379.155 133.045C379.665 133.965 380.529 134.735 380.379 135.939L380.069 136.032L379.025 136.942Z" fill="#797978"/>
<path d="M389.874 129.223C388.956 126.6 387.51 126.343 385.319 127.995C383.492 129.317 381.585 130.525 379.609 131.612C378.869 132.033 378.496 132.465 378.623 133.292L376.454 129.964C378.32 127.777 381.034 126.859 383.364 125.381C384.409 124.704 385.077 124.071 384.697 122.775C384.889 122.529 385.136 122.33 385.418 122.194C385.7 122.058 386.01 121.989 386.323 121.993C386.636 121.996 386.944 122.071 387.223 122.212C387.502 122.354 387.744 122.558 387.931 122.808C388.896 123.686 389.012 124.966 389.469 126.083C389.906 126.817 390.359 127.607 390.798 128.375L390.255 129.108L389.874 129.223Z" fill="#B6B7B9"/>
<path d="M455.803 32.9368C456.434 32.1506 456.064 30.6009 457.619 30.4974C457.948 30.8884 458.126 31.3843 458.12 31.8954C458.115 32.4064 457.926 32.8988 457.588 33.2832C456.898 34.044 456.312 33.4499 455.803 32.9368Z" fill="#EBEAEB"/>
<path d="M39.9871 176.671C33.4833 178.277 26.8076 178.56 20.1042 178.461C26.6427 177.11 33.3136 176.51 39.9871 176.671Z" fill="#4F4F4E"/>
<path d="M26.7367 188.2L26.338 189.037C25.3832 187.386 24.4227 185.746 23.4679 184.095C23.0022 183.612 23.2869 183.492 23.7774 183.509C24.7665 185.071 25.7476 186.637 26.7367 188.2Z" fill="#656564"/>
<path d="M23.7773 183.509L23.4678 184.095C22.24 183.122 21.7318 181.718 20.719 179.73C21.9919 180.762 23.0337 182.049 23.7773 183.509Z" fill="#A09FA0"/>
<path d="M32.4933 196.955C34.8571 200.009 36.6278 203.222 34.9478 207.212C34.1122 209.193 33.0445 211.036 30.4014 210.489C27.7583 209.941 27.376 207.859 27.5629 205.71C27.8027 202.87 28.4438 200.126 31.6354 199.064C32.3828 198.84 32.139 198.316 32.0517 197.823C31.6179 197.244 31.8978 197.022 32.4933 196.955Z" fill="#434342"/>
<path d="M32.4935 196.955L32.0757 197.816L28.4934 192.464C27.9945 191.524 26.7642 190.804 27.5931 189.465C28.3419 189.997 28.8919 190.763 29.1567 191.642L32.4935 196.955Z" fill="#656564"/>
<path d="M214.094 143.809L213.191 142.705C213.712 140.974 211.104 140.2 211.895 138.388C212.068 138.214 212.296 138.105 212.54 138.077C212.783 138.049 213.029 138.106 213.237 138.236C213.131 138.752 212.998 139.173 213.819 139.281C230.844 141.234 247.982 142.052 265.118 141.729C265.428 141.722 265.735 141.302 266.047 141.07L266.5 140.934C267.022 141.334 267.459 141.833 267.787 142.403C268.114 142.973 268.325 143.602 268.407 144.254C267.078 145.89 265.19 145.349 263.513 145.42C248.136 145.964 232.741 145.327 217.464 143.515C216.752 143.405 216.029 143.381 215.311 143.444C214.928 143.584 214.508 143.685 214.094 143.809Z" fill="#8F9192"/>
<path d="M208.329 134.822C208.362 134.181 207.476 132.933 208.15 133.042C211.316 133.571 214.715 130.397 217.665 133.586C215.826 135.314 210.172 136.025 208.329 134.822Z" fill="#525151"/>
<path d="M208.329 134.822C208.91 135.227 209.496 135.821 210.222 135.352C212.465 134.049 215.044 133.437 217.633 133.595C218.624 134.007 218.666 135.015 218.88 135.816C216.042 136.668 213.005 136.455 210.244 137.794C209.295 137.04 208.623 135.996 208.329 134.822Z" fill="#E8E7E7"/>
<path d="M210.278 137.792C210.234 137.269 209.657 136.301 210.545 136.371C213.381 136.61 216.055 134.718 218.915 135.814C219.072 136.511 219.37 137.33 218.109 137.085C216.28 136.769 214.807 137.635 213.252 138.231L212.076 138.585C210.986 139.197 211.002 137.895 210.438 137.632L210.278 137.792Z" fill="#4A4A4A"/>
<path d="M210.418 137.681L212.056 138.634C211.957 140.125 214.465 140.886 213.191 142.705C213.08 142.589 212.993 142.454 212.933 142.306C212.175 141.15 211.418 139.993 210.66 138.837L210.418 137.681Z" fill="#6C6C6C"/>
<path d="M268.163 144.482L266.536 140.966L267.22 140.761L268.199 141.712L270.587 145.597C272.223 147.641 273.088 150.235 275.115 152.023C275.539 153.435 275.961 154.84 276.446 156.225C276.613 157.987 276.453 159.765 275.975 161.47C275.479 163.362 274.364 165.036 272.809 166.226C271.019 167.196 269.3 166.752 267.59 165.993C266.55 165.068 266.256 163.799 265.848 162.528C265.6 160.299 265.849 158.041 266.577 155.918C266.603 153.695 268.03 152.385 269.673 151.217C270.986 150.365 270.52 149.389 269.935 148.336C269.244 147.073 268.243 145.989 268.163 144.482Z" fill="#424141"/>
<path d="M213.546 154.976L214.643 151.558C215.265 150.308 216.785 150.232 217.646 149.29C217.205 148.627 217.562 148.373 218.203 148.258C219.515 148.989 220.079 150.29 220.615 151.557C220.949 152.901 221.61 154.268 220.24 155.449C219.992 156.008 219.772 156.575 219.501 157.115C218.684 158.753 217.465 159.716 215.558 159.112C213.438 158.459 213.186 156.866 213.546 154.976Z" fill="#434242"/>
<path d="M218.012 148.428L217.644 149.282C216.463 147.457 215.284 145.666 214.094 143.809L214.554 142.944C216.635 144.188 218.04 145.894 218.012 148.428Z" fill="#6C6C6C"/>
<path d="M338.579 153.648L339.387 154.028C335.757 156.113 332.071 155.645 328.417 154.155L325.08 151.152C324.35 149.939 323.903 148.577 323.772 147.168C323.853 145.507 324.539 143.932 325.702 142.739C326.909 142.016 328.285 141.621 329.692 141.594C331.038 141.906 332.244 142.65 333.127 143.711C334.961 145.375 334.545 147.195 333.511 149.063C332.405 150.259 331.308 151.514 329.387 151.753C330.125 152.458 331.012 152.987 331.983 153.301C334.156 154.188 336.42 152.981 338.579 153.648Z" fill="#424242"/>
<path d="M345.378 148.26L346.458 144.813L364.079 136.93C365.567 138.135 364.05 138.452 363.444 139.032L361.692 141.625L347.97 147.309C347.11 147.619 346.241 147.932 345.378 148.26Z" fill="#ADAEB0"/>
<path d="M423.656 86.0152C424.225 86.3797 424.631 86.9481 424.792 87.6033C417.71 95.3761 409.98 102.534 401.685 109.001C400.656 109.82 399.307 110.32 398.802 111.7C396.975 111.677 396.834 110.31 396.612 108.992C399.895 106.156 403.356 103.509 406.838 100.932C412.026 97.0486 416.296 92.2464 420.921 87.7877C421.714 87.0221 422.274 85.8852 423.656 86.0152Z" fill="#C9C9CB"/>
<path d="M396.847 108.939C397.496 109.86 398.145 110.781 398.802 111.7L400.304 114.45C399.543 115.262 398.508 115.763 397.398 115.858C397.408 114.679 398.039 113.4 396.896 112.393C396.134 111.385 395.712 110.153 395.048 109.125C394.685 108.55 394.319 107.968 393.927 107.411C393.508 106.87 393.253 106.22 393.192 105.539L392.873 104.302L393.5 104.226C394.644 104.428 395.151 105.366 395.805 106.13C396.289 107.022 397.135 107.763 396.847 108.939Z" fill="#767575"/>
<path d="M387.455 123.271C390.482 122.181 392.662 119.684 395.566 118.389C395.288 119.907 395.32 121.466 395.659 122.971C392.31 121.459 391.167 124.32 389.471 126.091L387.455 123.271Z" fill="#BABBBD"/>
<path d="M422.284 83.867C415.465 90.3161 408.715 96.8485 401.146 102.442C400.925 101.704 400.703 100.966 400.482 100.228C407.723 94.6718 414.604 88.6629 421.084 82.2376L422.284 83.867Z" fill="#C9CACB"/>
<path d="M375.635 129.604C375.823 130.91 376.349 132.144 377.16 133.185L366.705 138.78L365.217 136.709L365.26 136.247C366.1 134.654 367.719 134.099 369.177 133.384C371.371 132.468 373.4 131.199 375.182 129.627L375.635 129.604Z" fill="#B4B5B7"/>
<path d="M363.432 138.992C363.752 138.325 364.767 137.865 364.067 136.89C363.286 135.654 362.503 134.413 361.718 133.166C361.197 131.835 359.661 130.817 360.421 129.075C360.846 129.167 361.224 129.406 361.49 129.749C362.189 130.496 362.822 131.301 363.383 132.156C363.962 133.712 365.289 134.811 365.478 136.51C365.371 136.569 365.27 136.64 365.177 136.721C365.113 137.865 365.069 139.046 363.432 138.992Z" fill="#777777"/>
<path d="M393.176 105.543C393.926 105.82 393.961 106.571 394.255 107.148C393.389 109.346 391.271 110.172 389.496 111.302C383.41 115.116 377.134 118.62 370.692 121.798C367.899 122.368 365.101 123.155 362.274 121.937C366.386 119.898 370.449 117.753 374.606 115.839C380.34 113.061 385.881 109.901 391.191 106.381C391.827 106.044 392.491 105.764 393.176 105.543Z" fill="#B9BBBC"/>
<path d="M362.314 121.925L370.67 121.147C373.558 119.796 376.678 119.594 379.781 119.277C380.794 119.232 381.802 119.103 382.794 118.892C383.746 118.771 384.894 118.841 385.088 119.864C385.315 121.024 384.104 121.293 383.243 121.369C381.621 121.51 380.055 122.067 378.409 121.955C376.18 122.13 373.968 122.487 371.796 123.023C369.409 122.953 367.046 123.8 364.659 123.184C362.329 122.988 359.981 123.255 357.753 123.968C357.093 124.166 356.664 124.442 356.318 123.664L362.314 121.925Z" fill="#6F6F6F"/>
<path d="M400.167 102.701L395.274 106.211L393.484 104.231C395.59 103.192 397.627 101.863 400.167 102.701Z" fill="#C2C3C4"/>
<path d="M332.748 149.006C335.5 149.512 337.811 147.884 340.294 147.174C341.932 146.603 343.534 145.931 345.09 145.164C344.899 146.622 344.257 147.985 343.253 149.062C339.78 151.55 335.777 153.199 331.559 153.878C330.098 153.547 329.146 152.483 327.596 151.158C328.565 151.25 329.543 151.102 330.442 150.726C331.34 150.351 332.133 149.76 332.748 149.006Z" fill="#A7A8AA"/>
<path d="M331.559 153.878C335.205 151.59 339.244 150.404 343.253 149.062C342.48 151.396 340.202 152.184 338.563 153.653C336.262 154.361 333.933 154.887 331.559 153.878Z" fill="#ECEBEB"/>
<path d="M220.214 155.448C220.448 154.177 220.33 152.867 219.874 151.658C221.285 151.018 222.733 151.483 224.175 151.552C238.827 152.383 253.518 152.307 268.163 151.325C268.463 151.257 268.774 151.252 269.077 151.31C269.379 151.368 269.666 151.488 269.919 151.662C268.51 152.785 267.37 154.209 266.585 155.829C265.006 154.988 263.345 155.573 261.74 155.657C247.882 156.495 234.047 156.028 220.214 155.448Z" fill="#909193"/>
<path d="M384.686 123.142L379.241 123.859C377.801 123.911 376.623 125.069 375.117 124.846C374.435 124.739 373.529 124.925 373.4 123.977C373.311 123.304 373.979 122.844 374.55 122.724C378.426 121.924 382.285 120.775 386.299 121.905C386.388 122.081 386.458 122.266 386.508 122.457L384.686 123.142Z" fill="#5C5C5C"/>
<path d="M379.822 120.018C385.335 118.173 389.761 114.439 394.561 111.373C394.793 111.261 395 111.104 395.168 110.909C395.336 110.714 395.462 110.487 395.538 110.242C395.614 109.997 395.638 109.738 395.61 109.483C395.581 109.228 395.5 108.982 395.372 108.759C396.496 109.616 396.657 111.107 397.513 112.139C394.213 114.401 390.928 116.71 387.599 118.929C386.489 119.677 385.587 120.398 386.286 121.918C382.117 122.235 377.908 122.305 373.186 124.016L379.212 123.877C378.597 124.413 377.907 124.857 377.162 125.193C374.888 125.875 374.59 127.219 375.491 129.154C374.096 130.049 373.666 129.079 373.273 128.029C373.343 126.356 372.026 124.944 372.432 123.178C374.044 121.648 376.429 122.403 378.174 121.256L385.114 120.41C383.09 118.751 381.429 120.694 379.822 120.018Z" fill="#BEBFC0"/>
<path d="M372.897 127.268C369.711 129.256 366.324 130.902 362.791 132.178C362.195 131.492 361.584 130.724 360.978 130.007C364.856 128.654 368.577 126.89 372.079 124.746C372.308 124.847 372.513 124.996 372.681 125.181C372.849 125.367 372.975 125.586 373.052 125.824C373.129 126.062 373.156 126.314 373.129 126.563C373.102 126.811 373.023 127.052 372.897 127.268Z" fill="#B5B6B7"/>
<path d="M371.874 123.571C372.05 123.604 372.231 123.611 372.409 123.592C372.617 125.034 374.943 125.798 373.701 127.693L372.897 127.268C372.642 126.419 372.348 125.582 372.075 124.73C372.026 124.338 371.215 124.088 371.874 123.571Z" fill="#89898A"/>
</g>
<defs>
<clipPath id="clip0_2365_2790">
<rect width="576" height="156" fill="white" transform="translate(-102 165.58) rotate(-16.7063)"/>
</clipPath>
</defs>
</svg>
