<svg width="24" height="24" viewBox="0 0 24 24" fill="none" xmlns="http://www.w3.org/2000/svg">
<g clip-path="url(#clip0_2330_17449)">
<path d="M12.9231 18.1818H10.4615C10.2983 18.1818 10.1418 18.1205 10.0264 18.0114C9.91099 17.9023 9.84615 17.7544 9.84615 17.6001V13.9937H8.61538C8.45217 13.9937 8.29565 13.9324 8.18024 13.8233C8.06484 13.7142 8 13.5663 8 13.412V11.318C8 11.1637 8.06484 11.0158 8.18024 10.9067C8.29565 10.7976 8.45217 10.7363 8.61538 10.7363H9.84615V9.74745C9.88929 8.86118 10.3019 8.02711 10.9938 7.4276C11.6857 6.82809 12.6006 6.51192 13.5385 6.54822H15.3846C15.5478 6.54822 15.7044 6.60951 15.8198 6.71859C15.9352 6.82768 16 6.97563 16 7.1299V9.22394C16 9.37821 15.9352 9.52616 15.8198 9.63525C15.7044 9.74433 15.5478 9.80562 15.3846 9.80562H13.5385V10.7363H15.3846C15.4796 10.7356 15.5735 10.7557 15.6589 10.7951C15.7444 10.8345 15.819 10.892 15.8769 10.9632C15.9342 11.0354 15.973 11.1193 15.9901 11.2081C16.0072 11.297 16.0021 11.3883 15.9754 11.475L15.36 13.5691C15.3228 13.6949 15.2418 13.8052 15.1302 13.8822C15.0186 13.9593 14.8827 13.9985 14.7446 13.9937H13.5385V17.6001C13.5385 17.7544 13.4736 17.9023 13.3582 18.0114C13.2428 18.1205 13.0863 18.1818 12.9231 18.1818ZM11.0769 17.0184H12.3077V13.412C12.3077 13.2577 12.3725 13.1098 12.4879 13.0007C12.6033 12.8916 12.7599 12.8303 12.9231 12.8303H14.3015L14.5723 11.8997H12.9231C12.7599 11.8997 12.6033 11.8384 12.4879 11.7293C12.3725 11.6202 12.3077 11.4722 12.3077 11.318V9.74745C12.3235 9.4491 12.4601 9.16793 12.6892 8.96219C12.9184 8.75644 13.2224 8.64189 13.5385 8.64226H14.7692V7.71158H13.5385C12.9273 7.67638 12.326 7.8704 11.8652 8.25153C11.4044 8.63266 11.1211 9.17017 11.0769 9.74745V11.318C11.0769 11.4722 11.0121 11.6202 10.8967 11.7293C10.7813 11.8384 10.6247 11.8997 10.4615 11.8997H9.23077V12.8303H10.4615C10.6247 12.8303 10.7813 12.8916 10.8967 13.0007C11.0121 13.1098 11.0769 13.2577 11.0769 13.412V17.0184Z" fill="white"/>
</g>
<circle cx="12" cy="12" r="11.6364" stroke="white" stroke-width="0.727273"/>
<defs>
<clipPath id="clip0_2330_17449">
<rect width="8" height="11.6364" fill="white" transform="translate(8 6.54541)"/>
</clipPath>
</defs>
</svg>
