<svg width="24" height="24" viewBox="0 0 24 24" fill="none" xmlns="http://www.w3.org/2000/svg">
<g clip-path="url(#clip0_2330_17444)">
<path fill-rule="evenodd" clip-rule="evenodd" d="M9.59933 7.26117C10.1407 7.23625 10.3133 7.23071 11.6924 7.23071C13.0715 7.23071 13.2441 7.23671 13.785 7.26117C14.3259 7.28564 14.6952 7.37194 15.0182 7.49702C15.3566 7.62487 15.6635 7.82471 15.9173 8.08317C16.1758 8.33656 16.3752 8.64302 16.5026 8.98179C16.6281 9.30487 16.7139 9.6741 16.7389 10.2141C16.7638 10.7564 16.7693 10.929 16.7693 12.3076C16.7693 13.6867 16.7633 13.8593 16.7389 14.4007C16.7144 14.9407 16.6281 15.3099 16.5026 15.633C16.3752 15.9718 16.1755 16.2788 15.9173 16.5326C15.6635 16.791 15.3566 16.9904 15.0182 17.1178C14.6952 17.2433 14.3259 17.3292 13.7859 17.3541C13.2441 17.379 13.0715 17.3846 11.6924 17.3846C10.3133 17.3846 10.1407 17.3786 9.59933 17.3541C9.05932 17.3296 8.69009 17.2433 8.36702 17.1178C8.02821 16.9904 7.72124 16.7907 7.46748 16.5326C7.20919 16.279 7.00932 15.9722 6.88179 15.6335C6.75671 15.3104 6.67086 14.9412 6.64594 14.4012C6.62102 13.8589 6.61548 13.6863 6.61548 12.3076C6.61548 10.9286 6.62148 10.7559 6.64594 10.215C6.6704 9.6741 6.75671 9.30487 6.88179 8.98179C7.0095 8.64306 7.20953 8.33624 7.46794 8.08271C7.72134 7.82448 8.028 7.62461 8.36656 7.49702C8.68963 7.37194 9.05886 7.2861 9.59886 7.26117H9.59933ZM13.7439 8.17502C13.2086 8.15056 13.0479 8.14548 11.6924 8.14548C10.3369 8.14548 10.1762 8.15056 9.64086 8.17502C9.14563 8.19764 8.87702 8.28025 8.69794 8.34994C8.46117 8.44225 8.29179 8.55164 8.11409 8.72933C7.94565 8.8932 7.81602 9.09269 7.73471 9.31317C7.66502 9.49225 7.5824 9.76087 7.55979 10.2561C7.53532 10.7915 7.53025 10.9521 7.53025 12.3076C7.53025 13.6632 7.53532 13.8238 7.55979 14.3592C7.5824 14.8544 7.66502 15.123 7.73471 15.3021C7.81594 15.5223 7.94563 15.7221 8.11409 15.8859C8.27794 16.0544 8.47779 16.1841 8.69794 16.2653C8.87702 16.335 9.14563 16.4176 9.64086 16.4403C10.1762 16.4647 10.3364 16.4698 11.6924 16.4698C13.0484 16.4698 13.2086 16.4647 13.7439 16.4403C14.2392 16.4176 14.5078 16.335 14.6869 16.2653C14.9236 16.173 15.093 16.0636 15.2707 15.8859C15.4392 15.7221 15.5689 15.5223 15.6501 15.3021C15.7198 15.123 15.8024 14.8544 15.825 14.3592C15.8495 13.8238 15.8546 13.6632 15.8546 12.3076C15.8546 10.9521 15.8495 10.7915 15.825 10.2561C15.8024 9.76087 15.7198 9.49225 15.6501 9.31317C15.5578 9.07641 15.4484 8.90702 15.2707 8.72933C15.1068 8.5609 14.9073 8.43127 14.6869 8.34994C14.5078 8.28025 14.2392 8.19764 13.7439 8.17502ZM11.0439 13.8727C11.4061 14.0235 11.8093 14.0438 12.1848 13.9303C12.5603 13.8167 12.8847 13.5764 13.1027 13.2502C13.3206 12.9241 13.4186 12.5323 13.3798 12.142C13.341 11.7516 13.1679 11.3869 12.8901 11.1099C12.713 10.9329 12.4988 10.7974 12.263 10.7131C12.0272 10.6288 11.7757 10.5978 11.5265 10.6224C11.2773 10.647 11.0366 10.7265 10.8219 10.8552C10.6071 10.984 10.4235 11.1587 10.2844 11.367C10.1453 11.5752 10.054 11.8116 10.0173 12.0593C9.98048 12.307 9.99909 12.5598 10.0717 12.7994C10.1444 13.0391 10.2692 13.2596 10.4374 13.4452C10.6055 13.6308 10.8126 13.7768 11.0439 13.8727ZM9.84717 10.4624C10.0895 10.2201 10.3772 10.0279 10.6938 9.89673C11.0104 9.76558 11.3497 9.69809 11.6924 9.69809C12.0351 9.69809 12.3744 9.76558 12.691 9.89673C13.0076 10.0279 13.2953 10.2201 13.5376 10.4624C13.78 10.7047 13.9722 10.9924 14.1033 11.309C14.2345 11.6256 14.302 11.9649 14.302 12.3076C14.302 12.6503 14.2345 12.9897 14.1033 13.3063C13.9722 13.6229 13.78 13.9105 13.5376 14.1529C13.0482 14.6423 12.3845 14.9172 11.6924 14.9172C11.0003 14.9172 10.3366 14.6423 9.84717 14.1529C9.35779 13.6635 9.08285 12.9997 9.08285 12.3076C9.08285 11.6155 9.35779 10.9518 9.84717 10.4624ZM14.8807 10.0867C14.9408 10.0301 14.9888 9.96195 15.0221 9.88639C15.0553 9.81084 15.0731 9.72938 15.0743 9.64683C15.0755 9.56429 15.0601 9.48235 15.0291 9.40586C14.9981 9.32936 14.952 9.25987 14.8936 9.2015C14.8352 9.14313 14.7658 9.09706 14.6893 9.06603C14.6128 9.035 14.5308 9.01963 14.4483 9.02083C14.3657 9.02203 14.2843 9.03978 14.2087 9.07303C14.1332 9.10628 14.065 9.15436 14.0084 9.21441C13.8982 9.33119 13.8379 9.48631 13.8403 9.64683C13.8426 9.80736 13.9074 9.96066 14.0209 10.0742C14.1345 10.1877 14.2878 10.2525 14.4483 10.2549C14.6088 10.2572 14.7639 10.1969 14.8807 10.0867Z" fill="white"/>
</g>
<circle cx="12" cy="12" r="9.84616" stroke="white" stroke-width="0.615385"/>
<defs>
<clipPath id="clip0_2330_17444">
<rect width="11.0769" height="11.0769" fill="white" transform="translate(6.15405 6.76929)"/>
</clipPath>
</defs>
</svg>
