<svg width="24" height="24" viewBox="0 0 24 24" fill="none" xmlns="http://www.w3.org/2000/svg">
<g clip-path="url(#clip0_2330_17453)">
<path d="M19.0101 8.52197C18.9831 8.45701 18.9376 8.40143 18.8792 8.36217C18.8209 8.32291 18.7523 8.30172 18.6819 8.30123H16.7967C16.5637 7.87325 16.2209 7.51503 15.8036 7.26339C15.3863 7.01175 14.9095 6.87577 14.4223 6.86941C13.6902 6.86623 12.9866 7.1532 12.4656 7.66752C11.9445 8.18185 11.6485 8.88163 11.6422 9.61373V10.1328C9.11262 9.53021 7.02455 7.47197 7.00068 7.45407C6.95469 7.40867 6.89726 7.37656 6.8345 7.36116C6.77173 7.34577 6.70596 7.34765 6.64418 7.36661C6.5824 7.38558 6.5269 7.42091 6.48358 7.46887C6.44026 7.51683 6.41073 7.57563 6.39813 7.63901C5.87909 10.4788 6.73222 12.3759 7.53762 13.4677C7.96478 14.0523 8.4895 14.5588 9.08875 14.9651C8.16404 16.0867 6.64273 16.6714 6.62483 16.6774C6.574 16.6961 6.52818 16.7263 6.49093 16.7656C6.45368 16.8049 6.426 16.8523 6.41006 16.9041C6.39313 16.9546 6.38809 17.0083 6.39533 17.0611C6.40258 17.1139 6.42191 17.1643 6.45182 17.2083C6.51148 17.2978 7.09614 18.0853 9.13648 18.0853C13.2947 18.0853 16.7728 14.8697 17.1069 10.7413L18.9325 8.90975C18.9842 8.86127 19.0195 8.79782 19.0334 8.72829C19.0474 8.65876 19.0392 8.58662 19.0101 8.52197ZM16.5044 10.3296C16.4423 10.3915 16.4061 10.4747 16.403 10.5623C16.1584 14.3805 12.9666 17.3694 9.13648 17.3694C8.30722 17.3694 7.77625 17.2262 7.46006 17.083C8.13421 16.743 9.2379 16.0748 9.91205 15.0606C9.9389 15.0186 9.95698 14.9715 9.96518 14.9223C9.97338 14.8731 9.97154 14.8227 9.95977 14.7742C9.94706 14.7246 9.92401 14.6783 9.89214 14.6382C9.86027 14.5981 9.8203 14.5652 9.77483 14.5416C9.7629 14.5416 8.86801 14.0762 8.09244 13.0143C7.16773 11.7495 6.80381 10.2044 7.00665 8.42055C7.87767 9.16032 9.75693 10.5563 11.9405 10.9203C11.9918 10.93 12.0448 10.9282 12.0954 10.9149C12.146 10.9017 12.193 10.8773 12.233 10.8436C12.273 10.8099 12.305 10.7677 12.3266 10.7201C12.3482 10.6724 12.359 10.6206 12.3581 10.5683V9.61373C12.3628 9.07309 12.5813 8.55629 12.9658 8.17622C13.3504 7.79616 13.8697 7.58372 14.4103 7.58532C14.801 7.59096 15.1818 7.70865 15.5076 7.92439C15.8333 8.14014 16.0902 8.44487 16.2478 8.80237C16.2751 8.86668 16.3208 8.92144 16.3792 8.95968C16.4377 8.99793 16.5061 9.01793 16.576 9.01714H17.8169L16.5044 10.3296Z" fill="white"/>
</g>
<circle cx="12" cy="12" r="11.6364" stroke="white" stroke-width="0.727273"/>
<defs>
<clipPath id="clip0_2330_17453">
<rect width="15.2727" height="15.2727" fill="white" transform="translate(4.36377 4.36377)"/>
</clipPath>
</defs>
</svg>
