<svg width="212" height="472" viewBox="0 0 212 472" fill="none" xmlns="http://www.w3.org/2000/svg">
<g clip-path="url(#clip0_2637_6344)">
<rect width="212" height="471.111" rx="17.6667" fill="#F9F9FC"/>
<g clip-path="url(#clip1_2637_6344)">
<rect width="212" height="28.4889" fill="#F0F1F3"/>
<path d="M15.3571 16.4795H15.4376C15.808 16.4795 16.1166 16.4312 16.3635 16.3346C16.6131 16.2353 16.8117 16.0984 16.9593 15.924C17.1069 15.7495 17.2129 15.5442 17.2773 15.3081C17.3417 15.0719 17.3739 14.8156 17.3739 14.5392V13.5287C17.3739 13.2899 17.3484 13.0806 17.2974 12.9008C17.2491 12.7183 17.1793 12.5666 17.0881 12.4459C16.9995 12.3224 16.8962 12.2298 16.7781 12.1681C16.6627 12.1064 16.5379 12.0755 16.4037 12.0755C16.2561 12.0755 16.1233 12.1091 16.0052 12.1761C15.8898 12.2406 15.7919 12.3305 15.7113 12.4459C15.6335 12.5586 15.5731 12.6914 15.5302 12.8444C15.4899 12.9947 15.4698 13.1557 15.4698 13.3275C15.4698 13.4885 15.4886 13.6441 15.5262 13.7944C15.5664 13.942 15.6255 14.0735 15.7033 14.1889C15.7811 14.3043 15.8791 14.3956 15.9972 14.4627C16.1152 14.5298 16.2535 14.5633 16.4118 14.5633C16.5621 14.5633 16.7003 14.5352 16.8264 14.4788C16.9526 14.4198 17.0626 14.3406 17.1565 14.2413C17.2505 14.142 17.3243 14.0306 17.3779 13.9072C17.4316 13.7837 17.4611 13.6576 17.4665 13.5287L17.8369 13.6415C17.8369 13.8454 17.7939 14.0467 17.708 14.2453C17.6248 14.4412 17.5081 14.621 17.3578 14.7847C17.2102 14.9458 17.0371 15.0746 16.8385 15.1712C16.6426 15.2678 16.4292 15.3161 16.1984 15.3161C15.9193 15.3161 15.6724 15.2638 15.4577 15.1591C15.2457 15.0518 15.0686 14.9068 14.9263 14.7244C14.7868 14.5419 14.6821 14.3325 14.6123 14.0964C14.5426 13.8602 14.5077 13.6119 14.5077 13.3516C14.5077 13.0698 14.5506 12.8055 14.6365 12.5586C14.7224 12.3117 14.8472 12.0943 15.0109 11.9064C15.1746 11.7159 15.3732 11.5683 15.6067 11.4636C15.8428 11.3563 16.1099 11.3026 16.4078 11.3026C16.7245 11.3026 17.0022 11.3643 17.2411 11.4878C17.4799 11.6112 17.6812 11.7816 17.8449 11.999C18.0086 12.2164 18.1321 12.4687 18.2153 12.7558C18.2985 13.043 18.3401 13.3516 18.3401 13.6817V14.0239C18.3401 14.3701 18.3092 14.7042 18.2475 15.0263C18.1857 15.3456 18.0851 15.6422 17.9456 15.9159C17.8087 16.187 17.6275 16.4258 17.4021 16.6325C17.1793 16.8365 16.9056 16.9961 16.5809 17.1115C16.2588 17.2243 15.8804 17.2806 15.4456 17.2806H15.3571V16.4795ZM19.4933 16.7613C19.4933 16.611 19.5443 16.4849 19.6463 16.3829C19.7483 16.2782 19.8865 16.2259 20.0609 16.2259C20.2381 16.2259 20.3763 16.2782 20.4756 16.3829C20.5775 16.4849 20.6285 16.611 20.6285 16.7613C20.6285 16.9116 20.5775 17.0377 20.4756 17.1397C20.3763 17.2417 20.2381 17.2927 20.0609 17.2927C19.8865 17.2927 19.7483 17.2417 19.6463 17.1397C19.5443 17.0377 19.4933 16.9116 19.4933 16.7613ZM19.4973 13.3315C19.4973 13.1812 19.5483 13.0551 19.6503 12.9531C19.7523 12.8484 19.8905 12.7961 20.065 12.7961C20.2421 12.7961 20.3803 12.8484 20.4796 12.9531C20.5816 13.0551 20.6326 13.1812 20.6326 13.3315C20.6326 13.4818 20.5816 13.6079 20.4796 13.7099C20.3803 13.8119 20.2421 13.8629 20.065 13.8629C19.8905 13.8629 19.7523 13.8119 19.6503 13.7099C19.5483 13.6079 19.4973 13.4818 19.4973 13.3315ZM22.8204 13.875H23.4001C23.6255 13.875 23.812 13.836 23.9596 13.7582C24.1099 13.6804 24.2213 13.573 24.2938 13.4362C24.3662 13.2993 24.4025 13.1423 24.4025 12.9652C24.4025 12.78 24.3689 12.6216 24.3018 12.4901C24.2374 12.356 24.1381 12.2526 24.0039 12.1802C23.8724 12.1077 23.7047 12.0715 23.5007 12.0715C23.329 12.0715 23.1733 12.1064 23.0338 12.1761C22.8969 12.2432 22.7882 12.3399 22.7077 12.466C22.6272 12.5894 22.5869 12.737 22.5869 12.9088H21.6127C21.6127 12.5975 21.6946 12.3211 21.8583 12.0795C22.022 11.838 22.2447 11.6488 22.5265 11.5119C22.811 11.3724 23.1304 11.3026 23.4846 11.3026C23.863 11.3026 24.1931 11.3657 24.4749 11.4918C24.7594 11.6152 24.9808 11.8004 25.1392 12.0473C25.2975 12.2942 25.3767 12.6002 25.3767 12.9652C25.3767 13.1316 25.3377 13.3006 25.2599 13.4724C25.1821 13.6441 25.0667 13.8011 24.9137 13.9434C24.7607 14.0829 24.5702 14.197 24.3421 14.2856C24.114 14.3714 23.8496 14.4144 23.549 14.4144H22.8204V13.875ZM22.8204 14.6318V14.1004H23.549C23.8926 14.1004 24.1851 14.1406 24.4266 14.2212C24.6708 14.3017 24.8694 14.413 25.0224 14.5553C25.1754 14.6948 25.2868 14.8545 25.3565 15.0343C25.429 15.2141 25.4652 15.4047 25.4652 15.606C25.4652 15.8797 25.4156 16.1239 25.3163 16.3386C25.2197 16.5506 25.0815 16.7304 24.9016 16.8781C24.7218 17.0257 24.5112 17.137 24.2696 17.2122C24.0308 17.2873 23.7704 17.3249 23.4887 17.3249C23.2364 17.3249 22.9948 17.29 22.764 17.2202C22.5332 17.1505 22.3266 17.0471 22.1441 16.9103C21.9616 16.7707 21.8167 16.5976 21.7093 16.391C21.6047 16.1816 21.5523 15.9401 21.5523 15.6663H22.5225C22.5225 15.8408 22.5628 15.9951 22.6433 16.1293C22.7265 16.2608 22.8419 16.3641 22.9895 16.4393C23.1398 16.5144 23.3115 16.552 23.5048 16.552C23.7087 16.552 23.8845 16.5157 24.0321 16.4433C24.1797 16.3708 24.2924 16.2635 24.3703 16.1212C24.4508 15.979 24.491 15.8072 24.491 15.606C24.491 15.3778 24.4467 15.1927 24.3582 15.0504C24.2696 14.9082 24.1435 14.8035 23.9798 14.7364C23.8161 14.6667 23.6228 14.6318 23.4001 14.6318H22.8204ZM30.3502 13.8226V14.7807C30.3502 15.2396 30.3046 15.6315 30.2133 15.9562C30.1248 16.2782 29.996 16.5399 29.8269 16.7412C29.6578 16.9425 29.4552 17.0901 29.219 17.184C28.9855 17.2779 28.7239 17.3249 28.434 17.3249C28.2032 17.3249 27.9885 17.2954 27.7899 17.2363C27.594 17.1773 27.4169 17.0847 27.2586 16.9586C27.1002 16.8324 26.9647 16.6701 26.852 16.4715C26.7419 16.2702 26.6561 16.03 26.5943 15.7509C26.5353 15.4718 26.5058 15.1484 26.5058 14.7807V13.8226C26.5058 13.361 26.5514 12.9719 26.6426 12.6552C26.7339 12.3358 26.864 12.0768 27.0331 11.8783C27.2022 11.677 27.4035 11.5307 27.637 11.4395C27.8731 11.3482 28.1361 11.3026 28.426 11.3026C28.6595 11.3026 28.8742 11.3321 29.0701 11.3912C29.2687 11.4475 29.4458 11.5374 29.6015 11.6609C29.7598 11.7843 29.894 11.9453 30.004 12.1439C30.1167 12.3399 30.2026 12.5774 30.2617 12.8565C30.3207 13.1329 30.3502 13.4549 30.3502 13.8226ZM29.38 14.9176V13.6777C29.38 13.4442 29.3666 13.2389 29.3398 13.0618C29.313 12.882 29.2727 12.7303 29.219 12.6069C29.168 12.4807 29.1036 12.3788 29.0258 12.3009C28.948 12.2204 28.8594 12.1627 28.7601 12.1278C28.6608 12.0903 28.5494 12.0715 28.426 12.0715C28.2757 12.0715 28.1415 12.101 28.0234 12.16C27.9053 12.2164 27.806 12.3076 27.7255 12.4338C27.645 12.5599 27.5833 12.7263 27.5403 12.933C27.5001 13.1369 27.48 13.3852 27.48 13.6777V14.9176C27.48 15.1538 27.4934 15.3617 27.5202 15.5416C27.5471 15.7214 27.5873 15.8757 27.641 16.0045C27.6947 16.1306 27.7591 16.2353 27.8342 16.3185C27.912 16.399 28.0006 16.458 28.0999 16.4956C28.2019 16.5332 28.3133 16.552 28.434 16.552C28.587 16.552 28.7225 16.5225 28.8406 16.4634C28.9587 16.4044 29.058 16.3104 29.1385 16.1816C29.219 16.0501 29.2794 15.8797 29.3197 15.6704C29.3599 15.461 29.38 15.2101 29.38 14.9176Z" fill="#1C1B1F"/>
<path opacity="0.1" d="M173.939 10.073C171.937 10.073 170.185 10.949 168.933 12.3255L173.939 18.4156L178.944 12.3255C177.693 10.949 175.941 10.073 173.939 10.073Z" fill="#1C1B1F"/>
<path d="M187.533 10.073L179.19 18.4156H187.533V10.073Z" fill="#1C1B1F"/>
<path opacity="0.3" d="M194.55 9.82764H192.783V10.711H191.9C191.575 10.711 191.311 11.0076 191.311 11.3735V17.9985C191.311 18.3644 191.575 18.661 191.9 18.661H195.433C195.758 18.661 196.022 18.3644 196.022 17.9985V11.3735C196.022 11.0076 195.758 10.711 195.433 10.711H194.55V9.82764Z" fill="#1C1B1F"/>
<path d="M191.311 14.5388C191.311 14.8823 191.311 17.6992 191.311 18.0427C191.311 18.3842 191.575 18.661 191.9 18.661H195.434C195.759 18.661 196.022 18.3842 196.022 18.0427C196.022 17.6992 196.022 14.8823 196.022 14.5388H191.311Z" fill="#1C1B1F"/>
</g>
<g clip-path="url(#clip2_2637_6344)">
<g clip-path="url(#clip3_2637_6344)">
<rect x="9.42212" y="67.1333" width="23.5556" height="23.5556" rx="11.7778" fill="#00658B"/>
<path d="M16.1972 82.3555V75.7599H17.196L20.5032 80.7254V75.7599H21.5019V82.3555H20.5032L17.196 77.39V82.3555H16.1972ZM22.8548 82.3555V75.7599H26.9911V76.5702H23.8535V78.6525H26.454V79.4534H23.8535V82.3555H22.8548Z" fill="#F9F9FC"/>
</g>
</g>
<path d="M10.749 111.467V107.462H10.0423V106.793H10.749V105.983C10.749 105.531 10.862 105.201 11.0882 104.993C11.3143 104.786 11.6441 104.683 12.0775 104.683H12.5486V105.361H12.2C11.9613 105.361 11.7917 105.411 11.6912 105.512C11.5907 105.606 11.5404 105.769 11.5404 106.002V106.793H12.6899V107.462H11.5404V111.467H10.749ZM15.5965 111.58C15.1505 111.58 14.7547 111.479 14.4093 111.278C14.0638 111.071 13.7905 110.785 13.5895 110.421C13.3948 110.056 13.2974 109.626 13.2974 109.13C13.2974 108.64 13.3948 108.213 13.5895 107.848C13.7843 107.478 14.0544 107.192 14.3998 106.991C14.7516 106.784 15.1568 106.68 15.6153 106.68C16.0676 106.68 16.457 106.784 16.7837 106.991C17.1166 107.192 17.371 107.459 17.5469 107.792C17.7227 108.125 17.8107 108.483 17.8107 108.866C17.8107 108.935 17.8075 109.004 17.8013 109.073C17.8013 109.142 17.8013 109.221 17.8013 109.309H14.0795C14.0983 109.667 14.18 109.965 14.3245 110.204C14.4752 110.436 14.6605 110.612 14.8804 110.732C15.1065 110.851 15.3452 110.911 15.5965 110.911C15.9231 110.911 16.1963 110.835 16.4162 110.685C16.636 110.534 16.7962 110.33 16.8967 110.072H17.6788C17.5531 110.505 17.3113 110.867 16.9533 111.156C16.6015 111.438 16.1492 111.58 15.5965 111.58ZM15.5965 107.349C15.2196 107.349 14.8835 107.465 14.5883 107.698C14.2993 107.924 14.1329 108.257 14.0889 108.696H17.0286C17.0098 108.276 16.8653 107.946 16.5952 107.707C16.3251 107.468 15.9922 107.349 15.5965 107.349ZM21.008 111.58C20.562 111.58 20.1663 111.479 19.8208 111.278C19.4753 111.071 19.2021 110.785 19.0011 110.421C18.8063 110.056 18.709 109.626 18.709 109.13C18.709 108.64 18.8063 108.213 19.0011 107.848C19.1958 107.478 19.4659 107.192 19.8114 106.991C20.1631 106.784 20.5683 106.68 21.0268 106.68C21.4791 106.68 21.8685 106.784 22.1952 106.991C22.5281 107.192 22.7825 107.459 22.9584 107.792C23.1343 108.125 23.2222 108.483 23.2222 108.866C23.2222 108.935 23.2191 109.004 23.2128 109.073C23.2128 109.142 23.2128 109.221 23.2128 109.309H19.491C19.5099 109.667 19.5915 109.965 19.736 110.204C19.8867 110.436 20.072 110.612 20.2919 110.732C20.518 110.851 20.7567 110.911 21.008 110.911C21.3346 110.911 21.6079 110.835 21.8277 110.685C22.0476 110.534 22.2077 110.33 22.3083 110.072H23.0903C22.9647 110.505 22.7228 110.867 22.3648 111.156C22.013 111.438 21.5608 111.58 21.008 111.58ZM21.008 107.349C20.6311 107.349 20.295 107.465 19.9998 107.698C19.7109 107.924 19.5444 108.257 19.5004 108.696H22.4402C22.4213 108.276 22.2768 107.946 22.0067 107.707C21.7366 107.468 21.4037 107.349 21.008 107.349ZM24.3183 111.467V104.683H25.1098V111.467H24.3183ZM26.9347 105.757C26.7777 105.757 26.6458 105.706 26.539 105.606C26.4385 105.499 26.3882 105.367 26.3882 105.21C26.3882 105.059 26.4385 104.934 26.539 104.833C26.6458 104.733 26.7777 104.683 26.9347 104.683C27.0855 104.683 27.2142 104.733 27.321 104.833C27.4278 104.934 27.4812 105.059 27.4812 105.21C27.4812 105.367 27.4278 105.499 27.321 105.606C27.2142 105.706 27.0855 105.757 26.9347 105.757ZM26.539 111.467V106.793H27.3304V111.467H26.539ZM28.7556 111.467V106.793H29.4717L29.5188 107.632C29.6696 107.336 29.8863 107.104 30.169 106.934C30.4516 106.765 30.772 106.68 31.13 106.68C31.6828 106.68 32.1225 106.85 32.4491 107.189C32.7821 107.522 32.9485 108.037 32.9485 108.734V111.467H32.157V108.819C32.157 107.845 31.755 107.358 30.951 107.358C30.549 107.358 30.2129 107.506 29.9428 107.801C29.679 108.09 29.5471 108.505 29.5471 109.045V111.467H28.7556ZM36.0415 109.997C35.7777 109.997 35.5358 109.962 35.316 109.893L34.8449 110.336C34.914 110.386 34.9988 110.43 35.0993 110.468C35.2061 110.499 35.3568 110.531 35.5516 110.562C35.7463 110.587 36.0195 110.615 36.3713 110.647C36.9994 110.691 37.4486 110.835 37.7187 111.08C37.9888 111.325 38.1238 111.646 38.1238 112.041C38.1238 112.311 38.0484 112.569 37.8977 112.814C37.7532 113.059 37.5271 113.26 37.2193 113.417C36.9178 113.574 36.5283 113.653 36.0509 113.653C35.6301 113.653 35.2563 113.596 34.9297 113.483C34.603 113.376 34.3486 113.21 34.1665 112.984C33.9843 112.764 33.8932 112.484 33.8932 112.145C33.8932 111.969 33.9404 111.777 34.0346 111.57C34.1288 111.369 34.3047 111.178 34.5622 110.995C34.424 110.939 34.3047 110.879 34.2042 110.816C34.11 110.747 34.022 110.672 33.9404 110.59V110.374L34.7412 109.582C34.3706 109.268 34.1853 108.853 34.1853 108.338C34.1853 108.031 34.2576 107.751 34.402 107.5C34.5465 107.249 34.7569 107.051 35.0333 106.906C35.3097 106.755 35.6458 106.68 36.0415 106.68C36.3116 106.68 36.5566 106.718 36.7764 106.793H38.5007V107.387L37.6244 107.424C37.8066 107.688 37.8977 107.993 37.8977 108.338C37.8977 108.646 37.8223 108.926 37.6716 109.177C37.5271 109.428 37.3166 109.629 37.0403 109.78C36.7702 109.924 36.4372 109.997 36.0415 109.997ZM36.0415 109.347C36.3744 109.347 36.6382 109.262 36.833 109.092C37.034 108.916 37.1345 108.665 37.1345 108.338C37.1345 108.018 37.034 107.773 36.833 107.603C36.6382 107.428 36.3744 107.34 36.0415 107.34C35.7023 107.34 35.4322 107.428 35.2312 107.603C35.0365 107.773 34.9391 108.018 34.9391 108.338C34.9391 108.665 35.0365 108.916 35.2312 109.092C35.4322 109.262 35.7023 109.347 36.0415 109.347ZM34.6659 112.07C34.6659 112.384 34.7978 112.616 35.0616 112.767C35.3254 112.924 35.6552 113.002 36.0509 113.002C36.4404 113.002 36.7513 112.918 36.9837 112.748C37.2224 112.578 37.3418 112.352 37.3418 112.07C37.3418 111.869 37.2601 111.693 37.0968 111.542C36.9335 111.397 36.632 111.313 36.1923 111.288C35.8468 111.262 35.5484 111.231 35.2972 111.193C35.0396 111.332 34.87 111.479 34.7884 111.636C34.7067 111.799 34.6659 111.944 34.6659 112.07ZM42.9236 111.467L41.5573 106.793H42.3488L43.3381 110.458L44.4311 106.793H45.3262L46.4286 110.458L47.4085 106.793H48.2094L46.8432 111.467H46.0329L44.8834 107.613L43.7339 111.467H42.9236ZM49.6125 105.757C49.4554 105.757 49.3235 105.706 49.2167 105.606C49.1162 105.499 49.066 105.367 49.066 105.21C49.066 105.059 49.1162 104.934 49.2167 104.833C49.3235 104.733 49.4554 104.683 49.6125 104.683C49.7632 104.683 49.892 104.733 49.9988 104.833C50.1055 104.934 50.1589 105.059 50.1589 105.21C50.1589 105.367 50.1055 105.499 49.9988 105.606C49.892 105.706 49.7632 105.757 49.6125 105.757ZM49.2167 111.467V106.793H50.0082V111.467H49.2167ZM53.2801 111.467C52.853 111.467 52.5169 111.363 52.2719 111.156C52.027 110.948 51.9045 110.575 51.9045 110.034V107.462H51.0942V106.793H51.9045L52.0081 105.672H52.6959V106.793H54.0716V107.462H52.6959V110.034C52.6959 110.33 52.7556 110.531 52.875 110.637C52.9943 110.738 53.2047 110.788 53.5063 110.788H53.9962V111.467H53.2801ZM56.971 111.467C56.5438 111.467 56.2078 111.363 55.9628 111.156C55.7178 110.948 55.5953 110.575 55.5953 110.034V107.462H54.785V106.793H55.5953L55.699 105.672H56.3868V106.793H57.7625V107.462H56.3868V110.034C56.3868 110.33 56.4465 110.531 56.5658 110.637C56.6852 110.738 56.8956 110.788 57.1971 110.788H57.6871V111.467H56.971ZM59.3239 113.539L60.4828 111.014H60.2096L58.3534 106.793H59.2108L60.7561 110.43L62.3955 106.793H63.2153L60.153 113.539H59.3239ZM64.8704 109.62L64.8327 108.103H65.1248C65.4766 108.103 65.8032 108.068 66.1047 107.999C66.4125 107.93 66.6606 107.795 66.8491 107.594C67.0375 107.393 67.1317 107.092 67.1317 106.689C67.1317 106.3 67.0093 105.992 66.7643 105.766C66.5256 105.54 66.2084 105.427 65.8126 105.427C65.4106 105.427 65.0934 105.537 64.861 105.757C64.6286 105.977 64.5124 106.272 64.5124 106.642H63.7586C63.7586 106.265 63.8434 105.936 64.013 105.653C64.1889 105.37 64.4307 105.151 64.7385 104.993C65.0463 104.836 65.4043 104.758 65.8126 104.758C66.2209 104.758 66.5821 104.836 66.8962 104.993C67.2103 105.151 67.4552 105.374 67.6311 105.662C67.807 105.951 67.8949 106.294 67.8949 106.689C67.8949 107.154 67.7944 107.531 67.5934 107.82C67.3987 108.109 67.1255 108.32 66.7737 108.451C66.4282 108.583 66.0325 108.649 65.5865 108.649L65.5582 109.62H64.8704ZM65.2096 111.514C65.0526 111.514 64.9207 111.463 64.8139 111.363C64.7134 111.256 64.6631 111.127 64.6631 110.977C64.6631 110.826 64.7134 110.7 64.8139 110.6C64.9207 110.493 65.0526 110.44 65.2096 110.44C65.3667 110.44 65.4954 110.493 65.5959 110.6C65.6964 110.7 65.7467 110.826 65.7467 110.977C65.7467 111.127 65.6964 111.256 65.5959 111.363C65.4954 111.463 65.3667 111.514 65.2096 111.514ZM68.4208 111.514C68.2637 111.514 68.1318 111.463 68.025 111.363C67.9245 111.256 67.8743 111.127 67.8743 110.977C67.8743 110.826 67.9245 110.7 68.025 110.6C68.1318 110.493 68.2637 110.44 68.4208 110.44C68.5715 110.44 68.6971 110.493 68.7976 110.6C68.9044 110.7 68.9578 110.826 68.9578 110.977C68.9578 111.127 68.9044 111.256 68.7976 111.363C68.6971 111.463 68.5715 111.514 68.4208 111.514ZM70.3081 111.514C70.1511 111.514 70.0192 111.463 69.9124 111.363C69.8119 111.256 69.7617 111.127 69.7617 110.977C69.7617 110.826 69.8119 110.7 69.9124 110.6C70.0192 110.493 70.1511 110.44 70.3081 110.44C70.4589 110.44 70.5845 110.493 70.685 110.6C70.7918 110.7 70.8452 110.826 70.8452 110.977C70.8452 111.127 70.7918 111.256 70.685 111.363C70.5845 111.463 70.4589 111.514 70.3081 111.514ZM72.1955 111.514C72.0385 111.514 71.9066 111.463 71.7998 111.363C71.6993 111.256 71.649 111.127 71.649 110.977C71.649 110.826 71.6993 110.7 71.7998 110.6C71.9066 110.493 72.0385 110.44 72.1955 110.44C72.3463 110.44 72.4719 110.493 72.5724 110.6C72.6792 110.7 72.7326 110.826 72.7326 110.977C72.7326 111.127 72.6792 111.256 72.5724 111.363C72.4719 111.463 72.3463 111.514 72.1955 111.514ZM74.0829 111.514C73.9259 111.514 73.794 111.463 73.6872 111.363C73.5867 111.256 73.5364 111.127 73.5364 110.977C73.5364 110.826 73.5867 110.7 73.6872 110.6C73.794 110.493 73.9259 110.44 74.0829 110.44C74.2337 110.44 74.3593 110.493 74.4598 110.6C74.5666 110.7 74.62 110.826 74.62 110.977C74.62 111.127 74.5666 111.256 74.4598 111.363C74.3593 111.463 74.2337 111.514 74.0829 111.514Z" fill="#8B9297"/>
<rect width="212" height="173.922" transform="translate(0 297.389)" fill="#F9F9FC"/>
<rect width="212" height="9.42222" transform="translate(0 461.967)" fill="#F9F9FC"/>
<rect x="84.8" y="465.5" width="42.4" height="1.17778" rx="0.588889" fill="#1C1B1F"/>
<path fill-rule="evenodd" clip-rule="evenodd" d="M195.975 455.637H194.799V456.781H195.975V455.637ZM192.447 455.637H193.623V456.781H192.447V455.637ZM198.915 460.211H194.211V460.783H198.915V460.211ZM197.151 455.637H198.327V456.781H197.151V455.637ZM195.975 457.924H194.799V459.068H195.975V457.924ZM192.447 457.924H193.623V459.068H192.447V457.924ZM198.327 457.924H197.151V459.068H198.327V457.924ZM199.503 455.637H200.68V456.781H199.503V455.637ZM200.68 457.924H199.503V459.068H200.68V457.924Z" fill="#1C1B1F"/>
<path d="M15.4371 460.101L12.5598 457.228L13.1687 456.619L15.4371 458.892L17.7054 456.619L18.3143 457.228L15.4371 460.101Z" fill="#1C1B1F"/>
<rect x="4.11646" y="324.146" width="17.584" height="23.6699" rx="3.08738" fill="#F9F9FC"/>
<rect x="4.11646" y="324.146" width="17.584" height="23.6699" rx="3.08738" fill="#00658B" fill-opacity="0.05"/>
<path d="M14.1748 340.647V333.841L14.2592 332.743H15.1561V340.647H14.1748ZM10.3389 335.661V335.55C10.3389 335.114 10.3899 334.718 10.4919 334.363C10.5939 334.004 10.7434 333.696 10.9404 333.44C11.1374 333.183 11.3748 332.986 11.6527 332.849C11.9341 332.708 12.2542 332.638 12.613 332.638C12.9718 332.638 13.2866 332.701 13.5574 332.828C13.8318 332.951 14.064 333.132 14.2539 333.371C14.4474 333.607 14.6004 333.892 14.7129 334.226C14.8255 334.56 14.9029 334.938 14.9451 335.36V335.846C14.9064 336.264 14.8308 336.641 14.7182 336.975C14.6057 337.309 14.4526 337.594 14.2592 337.83C14.0692 338.065 13.8353 338.246 13.5574 338.373C13.2831 338.496 12.9647 338.558 12.6024 338.558C12.2507 338.558 11.9341 338.486 11.6527 338.341C11.3748 338.197 11.1374 337.995 10.9404 337.735C10.7469 337.474 10.5974 337.168 10.4919 336.817C10.3899 336.461 10.3389 336.076 10.3389 335.661ZM11.3203 335.55V335.661C11.3203 335.946 11.3502 336.215 11.41 336.468C11.4698 336.718 11.5612 336.94 11.6843 337.133C11.811 337.327 11.9693 337.48 12.1592 337.592C12.3527 337.701 12.5813 337.756 12.8451 337.756C13.1687 337.756 13.4378 337.685 13.6524 337.545C13.8705 337.404 14.0446 337.219 14.1748 336.991C14.3049 336.758 14.4052 336.51 14.4755 336.247V334.975C14.4368 334.782 14.3753 334.593 14.2908 334.411C14.2099 334.228 14.1044 334.064 13.9743 333.92C13.8441 333.772 13.6858 333.656 13.4994 333.572C13.3165 333.484 13.1019 333.44 12.8557 333.44C12.5884 333.44 12.358 333.496 12.1645 333.609C11.971 333.721 11.811 333.876 11.6843 334.073C11.5612 334.266 11.4698 334.49 11.41 334.743C11.3502 334.996 11.3203 335.265 11.3203 335.55Z" fill="#1C1B1F"/>
<rect x="24.8032" y="324.146" width="17.584" height="23.6699" rx="3.08738" fill="#F9F9FC"/>
<rect x="24.8032" y="324.146" width="17.584" height="23.6699" rx="3.08738" fill="#00658B" fill-opacity="0.05"/>
<path d="M31.7221 338.468L33.1889 333.772H33.8326L33.706 334.706L32.2128 339.481H31.585L31.7221 338.468ZM30.7355 333.772L31.9859 338.521L32.0756 339.481H31.4161L29.7594 333.772H30.7355ZM35.2361 338.484L36.4286 333.772H37.3994L35.7427 339.481H35.0884L35.2361 338.484ZM33.9751 333.772L35.4103 338.389L35.5738 339.481H34.9512L33.4158 334.696L33.2892 333.772H33.9751Z" fill="#1C1B1F"/>
<rect x="45.4902" y="324.146" width="17.584" height="23.6699" rx="3.08738" fill="#F9F9FC"/>
<rect x="45.4902" y="324.146" width="17.584" height="23.6699" rx="3.08738" fill="#00658B" fill-opacity="0.05"/>
<path d="M54.5302 339.587C54.1327 339.587 53.7722 339.52 53.4486 339.386C53.1285 339.249 52.8524 339.057 52.6202 338.811C52.3916 338.565 52.2157 338.273 52.0926 337.935C51.9695 337.598 51.9079 337.228 51.9079 336.827V336.606C51.9079 336.141 51.9765 335.728 52.1137 335.366C52.2509 335 52.4373 334.69 52.673 334.437C52.9086 334.184 53.176 333.992 53.475 333.862C53.7739 333.732 54.0835 333.667 54.4036 333.667C54.8116 333.667 55.1634 333.737 55.4588 333.878C55.7578 334.018 56.0023 334.215 56.1922 334.469C56.3822 334.718 56.5229 335.014 56.6143 335.355C56.7058 335.693 56.7515 336.062 56.7515 336.463V336.901H52.4883V336.104H55.7754V336.031C55.7613 335.777 55.7086 335.531 55.6171 335.292C55.5292 335.053 55.3885 334.856 55.195 334.701C55.0016 334.546 54.7377 334.469 54.4036 334.469C54.182 334.469 53.978 334.516 53.7915 334.611C53.6051 334.703 53.4451 334.84 53.3114 335.023C53.1777 335.206 53.074 335.429 53.0001 335.693C52.9262 335.957 52.8893 336.261 52.8893 336.606V336.827C52.8893 337.098 52.9262 337.353 53.0001 337.592C53.0775 337.828 53.1883 338.035 53.3325 338.215C53.4802 338.394 53.6579 338.535 53.8654 338.637C54.0765 338.739 54.3156 338.79 54.583 338.79C54.9277 338.79 55.2196 338.72 55.4588 338.579C55.698 338.438 55.9073 338.25 56.0867 338.014L56.6777 338.484C56.5545 338.67 56.398 338.848 56.2081 339.017C56.0181 339.186 55.7842 339.323 55.5063 339.428C55.232 339.534 54.9066 339.587 54.5302 339.587Z" fill="#1C1B1F"/>
<rect x="66.1772" y="324.146" width="17.584" height="23.6699" rx="3.08738" fill="#F9F9FC"/>
<rect x="66.1772" y="324.146" width="17.584" height="23.6699" rx="3.08738" fill="#00658B" fill-opacity="0.05"/>
<path d="M74.8584 334.669V339.481H73.8823V333.772H74.8321L74.8584 334.669ZM76.6418 333.741L76.6365 334.648C76.5556 334.631 76.4783 334.62 76.4044 334.616C76.334 334.609 76.2531 334.606 76.1617 334.606C75.9366 334.606 75.7378 334.641 75.5655 334.711C75.3931 334.782 75.2471 334.88 75.1275 335.007C75.0079 335.134 74.913 335.285 74.8426 335.461C74.7758 335.633 74.7318 335.823 74.7107 336.031L74.4363 336.189C74.4363 335.844 74.4698 335.52 74.5366 335.218C74.6069 334.915 74.7142 334.648 74.8584 334.416C75.0027 334.18 75.1856 333.997 75.4072 333.867C75.6323 333.734 75.8996 333.667 76.2092 333.667C76.2795 333.667 76.3604 333.676 76.4519 333.693C76.5433 333.707 76.6066 333.723 76.6418 333.741Z" fill="#1C1B1F"/>
<rect x="86.864" y="324.146" width="17.584" height="23.6699" rx="3.08738" fill="#F9F9FC"/>
<rect x="86.864" y="324.146" width="17.584" height="23.6699" rx="3.08738" fill="#00658B" fill-opacity="0.05"/>
<path d="M97.0226 333.772V334.521H93.9359V333.772H97.0226ZM94.9806 332.385H95.9568V338.067C95.9568 338.261 95.9867 338.407 96.0465 338.505C96.1062 338.604 96.1836 338.669 96.2786 338.7C96.3736 338.732 96.4756 338.748 96.5846 338.748C96.6655 338.748 96.75 338.741 96.8379 338.727C96.9293 338.709 96.9979 338.695 97.0437 338.684L97.0489 339.481C96.9716 339.506 96.8696 339.529 96.7429 339.55C96.6198 339.574 96.4703 339.587 96.2944 339.587C96.0552 339.587 95.8354 339.539 95.6349 339.444C95.4344 339.349 95.2744 339.191 95.1548 338.969C95.0387 338.744 94.9806 338.442 94.9806 338.062V332.385Z" fill="#1C1B1F"/>
<rect x="107.551" y="324.146" width="17.584" height="23.6699" rx="3.08738" fill="#F9F9FC"/>
<rect x="107.551" y="324.146" width="17.584" height="23.6699" rx="3.08738" fill="#00658B" fill-opacity="0.05"/>
<path d="M116.132 338.89L117.72 333.772H118.765L116.475 340.362C116.422 340.503 116.352 340.654 116.264 340.816C116.18 340.981 116.071 341.138 115.937 341.286C115.803 341.433 115.642 341.553 115.452 341.644C115.265 341.739 115.042 341.787 114.781 341.787C114.704 341.787 114.606 341.776 114.486 341.755C114.366 341.734 114.282 341.717 114.233 341.703L114.227 340.911C114.256 340.915 114.3 340.918 114.359 340.922C114.423 340.929 114.467 340.932 114.491 340.932C114.713 340.932 114.901 340.902 115.056 340.842C115.211 340.786 115.341 340.689 115.446 340.552C115.555 340.419 115.649 340.234 115.726 339.998L116.132 338.89ZM114.966 333.772L116.449 338.204L116.702 339.233L116 339.592L113.9 333.772H114.966Z" fill="#1C1B1F"/>
<rect x="128.238" y="324.146" width="17.584" height="23.6699" rx="3.08738" fill="#F9F9FC"/>
<rect x="128.238" y="324.146" width="17.584" height="23.6699" rx="3.08738" fill="#00658B" fill-opacity="0.05"/>
<path d="M138.286 338.162V333.772H139.267V339.481H138.334L138.286 338.162ZM138.471 336.959L138.877 336.949C138.877 337.328 138.837 337.68 138.756 338.004C138.678 338.324 138.552 338.602 138.376 338.837C138.2 339.073 137.969 339.258 137.685 339.392C137.4 339.522 137.053 339.587 136.645 339.587C136.367 339.587 136.112 339.546 135.88 339.465C135.651 339.384 135.454 339.26 135.289 339.091C135.124 338.922 134.995 338.702 134.904 338.431C134.816 338.16 134.772 337.835 134.772 337.455V333.772H135.748V337.466C135.748 337.722 135.776 337.935 135.833 338.104C135.892 338.269 135.971 338.401 136.07 338.5C136.172 338.595 136.285 338.662 136.408 338.7C136.534 338.739 136.664 338.758 136.798 338.758C137.213 338.758 137.542 338.679 137.785 338.521C138.027 338.359 138.202 338.143 138.307 337.872C138.416 337.598 138.471 337.293 138.471 336.959Z" fill="#1C1B1F"/>
<rect x="148.925" y="324.146" width="17.584" height="23.6699" rx="3.08738" fill="#F9F9FC"/>
<rect x="148.925" y="324.146" width="17.584" height="23.6699" rx="3.08738" fill="#00658B" fill-opacity="0.05"/>
<path d="M158.208 333.772V339.481H157.227V333.772H158.208ZM157.153 332.258C157.153 332.1 157.2 331.966 157.295 331.857C157.394 331.748 157.538 331.693 157.728 331.693C157.914 331.693 158.057 331.748 158.155 331.857C158.257 331.966 158.308 332.1 158.308 332.258C158.308 332.409 158.257 332.539 158.155 332.648C158.057 332.754 157.914 332.807 157.728 332.807C157.538 332.807 157.394 332.754 157.295 332.648C157.2 332.539 157.153 332.409 157.153 332.258Z" fill="#1C1B1F"/>
<rect x="169.612" y="324.146" width="17.584" height="23.6699" rx="3.08738" fill="#F9F9FC"/>
<rect x="169.612" y="324.146" width="17.584" height="23.6699" rx="3.08738" fill="#00658B" fill-opacity="0.05"/>
<path d="M175.808 336.69V336.569C175.808 336.157 175.868 335.775 175.988 335.424C176.107 335.068 176.28 334.761 176.505 334.5C176.73 334.237 177.003 334.033 177.323 333.888C177.643 333.741 178.002 333.667 178.399 333.667C178.8 333.667 179.161 333.741 179.481 333.888C179.804 334.033 180.079 334.237 180.304 334.5C180.532 334.761 180.707 335.068 180.826 335.424C180.946 335.775 181.006 336.157 181.006 336.569V336.69C181.006 337.102 180.946 337.483 180.826 337.835C180.707 338.187 180.532 338.495 180.304 338.758C180.079 339.019 179.806 339.223 179.486 339.37C179.169 339.515 178.811 339.587 178.41 339.587C178.009 339.587 177.648 339.515 177.328 339.37C177.008 339.223 176.733 339.019 176.505 338.758C176.28 338.495 176.107 338.187 175.988 337.835C175.868 337.483 175.808 337.102 175.808 336.69ZM176.784 336.569V336.69C176.784 336.975 176.818 337.244 176.885 337.497C176.952 337.747 177.052 337.969 177.185 338.162C177.323 338.356 177.493 338.509 177.697 338.621C177.901 338.73 178.139 338.785 178.41 338.785C178.677 338.785 178.911 338.73 179.111 338.621C179.315 338.509 179.484 338.356 179.618 338.162C179.752 337.969 179.852 337.747 179.919 337.497C179.989 337.244 180.024 336.975 180.024 336.69V336.569C180.024 336.287 179.989 336.022 179.919 335.772C179.852 335.519 179.75 335.295 179.613 335.102C179.479 334.905 179.31 334.75 179.106 334.638C178.906 334.525 178.67 334.469 178.399 334.469C178.132 334.469 177.896 334.525 177.692 334.638C177.492 334.75 177.323 334.905 177.185 335.102C177.052 335.295 176.952 335.519 176.885 335.772C176.818 336.022 176.784 336.287 176.784 336.569Z" fill="#1C1B1F"/>
<rect x="190.299" y="324.146" width="17.584" height="23.6699" rx="3.08738" fill="#F9F9FC"/>
<rect x="190.299" y="324.146" width="17.584" height="23.6699" rx="3.08738" fill="#00658B" fill-opacity="0.05"/>
<path d="M197.778 334.87V341.676H196.796V333.772H197.693L197.778 334.87ZM201.624 336.579V336.69C201.624 337.105 201.575 337.49 201.476 337.846C201.378 338.197 201.233 338.503 201.044 338.764C200.857 339.024 200.627 339.226 200.352 339.37C200.078 339.515 199.763 339.587 199.408 339.587C199.046 339.587 198.725 339.527 198.448 339.407C198.17 339.288 197.934 339.114 197.741 338.885C197.547 338.656 197.392 338.382 197.276 338.062C197.164 337.742 197.086 337.381 197.044 336.98V336.389C197.086 335.967 197.165 335.589 197.282 335.255C197.398 334.921 197.551 334.636 197.741 334.4C197.934 334.161 198.168 333.98 198.442 333.857C198.717 333.73 199.033 333.667 199.392 333.667C199.751 333.667 200.069 333.737 200.347 333.878C200.625 334.015 200.859 334.212 201.049 334.469C201.239 334.726 201.381 335.033 201.476 335.392C201.575 335.747 201.624 336.143 201.624 336.579ZM200.643 336.69V336.579C200.643 336.294 200.613 336.027 200.553 335.777C200.493 335.524 200.4 335.302 200.273 335.112C200.15 334.919 199.992 334.768 199.798 334.659C199.605 334.546 199.374 334.49 199.107 334.49C198.861 334.49 198.646 334.532 198.463 334.616C198.284 334.701 198.131 334.815 198.004 334.959C197.878 335.1 197.774 335.262 197.693 335.445C197.616 335.624 197.558 335.811 197.519 336.004V337.371C197.589 337.617 197.688 337.849 197.814 338.067C197.941 338.282 198.11 338.456 198.321 338.59C198.532 338.72 198.798 338.785 199.118 338.785C199.382 338.785 199.608 338.73 199.798 338.621C199.992 338.509 200.15 338.356 200.273 338.162C200.4 337.969 200.493 337.747 200.553 337.497C200.613 337.244 200.643 336.975 200.643 336.69Z" fill="#1C1B1F"/>
<rect x="14.9221" y="353.991" width="17.4951" height="23.6699" rx="3.08738" fill="#F9F9FC"/>
<rect x="14.9221" y="353.991" width="17.4951" height="23.6699" rx="3.08738" fill="#00658B" fill-opacity="0.05"/>
<path d="M24.841 368.35V365.411C24.841 365.186 24.7953 364.99 24.7038 364.825C24.6159 364.656 24.4822 364.526 24.3028 364.435C24.1234 364.343 23.9018 364.297 23.638 364.297C23.3918 364.297 23.1755 364.34 22.989 364.424C22.8061 364.508 22.6619 364.619 22.5564 364.756C22.4544 364.894 22.4034 365.041 22.4034 365.2H21.4273C21.4273 364.996 21.48 364.793 21.5855 364.593C21.6911 364.392 21.8423 364.211 22.0393 364.049C22.2398 363.884 22.479 363.754 22.7569 363.659C23.0383 363.56 23.3513 363.511 23.6961 363.511C24.1111 363.511 24.4769 363.582 24.7935 363.722C25.1136 363.863 25.3634 364.076 25.5428 364.361C25.7257 364.642 25.8171 364.996 25.8171 365.421V368.08C25.8171 368.27 25.833 368.473 25.8646 368.687C25.8998 368.902 25.9508 369.086 26.0176 369.241V369.326H24.9993C24.9501 369.213 24.9114 369.064 24.8832 368.877C24.8551 368.687 24.841 368.511 24.841 368.35ZM25.0099 365.864L25.0204 366.55H24.0337C23.7559 366.55 23.5079 366.573 23.2898 366.619C23.0717 366.661 22.8888 366.726 22.7411 366.814C22.5933 366.902 22.4808 367.013 22.4034 367.147C22.326 367.277 22.2873 367.43 22.2873 367.606C22.2873 367.785 22.3277 367.949 22.4086 368.096C22.4895 368.244 22.6109 368.362 22.7727 368.45C22.938 368.534 23.1403 368.576 23.3795 368.576C23.6785 368.576 23.9423 368.513 24.1709 368.387C24.3996 368.26 24.5807 368.105 24.7144 367.922C24.8516 367.739 24.9254 367.562 24.936 367.389L25.3528 367.859C25.3282 368.007 25.2614 368.17 25.1523 368.35C25.0433 368.529 24.8973 368.701 24.7144 368.867C24.535 369.028 24.3204 369.164 24.0707 369.273C23.8244 369.378 23.5466 369.431 23.237 369.431C22.8501 369.431 22.5107 369.356 22.2187 369.204C21.9303 369.053 21.7051 368.851 21.5433 368.598C21.385 368.341 21.3059 368.054 21.3059 367.738C21.3059 367.431 21.3657 367.162 21.4853 366.93C21.6049 366.695 21.7773 366.499 22.0024 366.345C22.2275 366.186 22.4983 366.067 22.8149 365.986C23.1315 365.905 23.485 365.864 23.8755 365.864H25.0099Z" fill="#1C1B1F"/>
<rect x="35.5046" y="353.991" width="17.4951" height="23.6699" rx="3.08738" fill="#F9F9FC"/>
<rect x="35.5046" y="353.991" width="17.4951" height="23.6699" rx="3.08738" fill="#00658B" fill-opacity="0.05"/>
<path d="M45.5291 367.811C45.5291 367.671 45.4974 367.541 45.4341 367.421C45.3743 367.298 45.2494 367.187 45.0595 367.089C44.873 366.987 44.5916 366.899 44.2153 366.825C43.8987 366.758 43.612 366.679 43.3552 366.587C43.102 366.496 42.8856 366.385 42.7062 366.255C42.5304 366.125 42.3949 365.972 42.3 365.796C42.205 365.62 42.1575 365.414 42.1575 365.179C42.1575 364.953 42.2068 364.741 42.3052 364.54C42.4073 364.34 42.5497 364.162 42.7326 364.007C42.9191 363.852 43.1424 363.731 43.4027 363.643C43.663 363.555 43.9532 363.511 44.2733 363.511C44.7306 363.511 45.121 363.592 45.4446 363.754C45.7682 363.916 46.0162 364.132 46.1886 364.403C46.361 364.67 46.4471 364.967 46.4471 365.295H45.471C45.471 365.136 45.4235 364.983 45.3286 364.836C45.2371 364.684 45.1017 364.559 44.9223 364.461C44.7464 364.362 44.5301 364.313 44.2733 364.313C44.0025 364.313 43.7826 364.355 43.6138 364.44C43.4484 364.521 43.3271 364.625 43.2497 364.751C43.1758 364.878 43.1389 365.011 43.1389 365.152C43.1389 365.258 43.1565 365.353 43.1917 365.437C43.2304 365.518 43.2972 365.594 43.3922 365.664C43.4871 365.731 43.6208 365.794 43.7932 365.854C43.9655 365.914 44.1854 365.973 44.4527 366.033C44.9205 366.139 45.3057 366.265 45.6082 366.413C45.9107 366.561 46.1358 366.742 46.2836 366.957C46.4313 367.171 46.5052 367.431 46.5052 367.738C46.5052 367.987 46.4524 368.216 46.3469 368.423C46.2449 368.631 46.0954 368.81 45.8984 368.962C45.7049 369.109 45.4728 369.225 45.2019 369.31C44.9346 369.391 44.6338 369.431 44.2997 369.431C43.7967 369.431 43.3711 369.342 43.0228 369.162C42.6746 368.983 42.4108 368.751 42.2314 368.466C42.052 368.181 41.9623 367.88 41.9623 367.563H42.9437C42.9577 367.831 43.0351 368.044 43.1758 368.202C43.3165 368.357 43.4889 368.467 43.6929 368.534C43.8969 368.598 44.0992 368.629 44.2997 368.629C44.567 368.629 44.7904 368.594 44.9698 368.524C45.1527 368.453 45.2916 368.357 45.3866 368.233C45.4816 368.11 45.5291 367.97 45.5291 367.811Z" fill="#1C1B1F"/>
<rect x="56.0872" y="353.991" width="17.4951" height="23.6699" rx="3.08738" fill="#F9F9FC"/>
<rect x="56.0872" y="353.991" width="17.4951" height="23.6699" rx="3.08738" fill="#00658B" fill-opacity="0.05"/>
<path d="M66.1274 368.218V361.221H67.1088V369.326H66.2118L66.1274 368.218ZM62.2863 366.535V366.424C62.2863 365.988 62.339 365.592 62.4446 365.237C62.5536 364.878 62.7066 364.57 62.9036 364.313C63.1041 364.056 63.3415 363.859 63.6159 363.722C63.8938 363.582 64.2033 363.511 64.5445 363.511C64.9033 363.511 65.2164 363.575 65.4837 363.701C65.7545 363.824 65.9832 364.005 66.1696 364.245C66.3596 364.48 66.5091 364.765 66.6181 365.099C66.7271 365.434 66.8028 365.812 66.845 366.234V366.719C66.8063 367.138 66.7307 367.514 66.6181 367.848C66.5091 368.182 66.3596 368.467 66.1696 368.703C65.9832 368.939 65.7545 369.12 65.4837 369.247C65.2129 369.37 64.8963 369.431 64.534 369.431C64.1998 369.431 63.8938 369.359 63.6159 369.215C63.3415 369.071 63.1041 368.868 62.9036 368.608C62.7066 368.348 62.5536 368.042 62.4446 367.69C62.339 367.335 62.2863 366.95 62.2863 366.535ZM63.2677 366.424V366.535C63.2677 366.819 63.2958 367.087 63.3521 367.337C63.4119 367.586 63.5033 367.806 63.6264 367.996C63.7496 368.186 63.9061 368.336 64.096 368.445C64.286 368.55 64.5129 368.603 64.7767 368.603C65.1003 368.603 65.3659 368.534 65.5734 368.397C65.7844 368.26 65.9533 368.079 66.0799 367.854C66.2066 367.628 66.305 367.384 66.3754 367.12V365.849C66.3332 365.655 66.2716 365.469 66.1907 365.289C66.1133 365.106 66.0113 364.945 65.8847 364.804C65.7616 364.66 65.6086 364.545 65.4257 364.461C65.2463 364.377 65.0335 364.334 64.7872 364.334C64.5199 364.334 64.2895 364.391 64.096 364.503C63.9061 364.612 63.7496 364.763 63.6264 364.957C63.5033 365.147 63.4119 365.368 63.3521 365.622C63.2958 365.871 63.2677 366.139 63.2677 366.424Z" fill="#1C1B1F"/>
<rect x="76.6697" y="353.991" width="17.4951" height="23.6699" rx="3.08738" fill="#F9F9FC"/>
<rect x="76.6697" y="353.991" width="17.4951" height="23.6699" rx="3.08738" fill="#00658B" fill-opacity="0.05"/>
<path d="M85.7391 369.326H84.763V363.015C84.763 362.604 84.8368 362.257 84.9846 361.976C85.1358 361.691 85.3522 361.476 85.6336 361.332C85.915 361.184 86.2491 361.111 86.6361 361.111C86.7486 361.111 86.8612 361.118 86.9737 361.132C87.0898 361.146 87.2024 361.167 87.3114 361.195L87.2587 361.992C87.1848 361.974 87.1004 361.962 87.0054 361.955C86.9139 361.948 86.8225 361.944 86.731 361.944C86.5235 361.944 86.3441 361.986 86.1928 362.071C86.0451 362.152 85.9326 362.271 85.8552 362.43C85.7778 362.588 85.7391 362.783 85.7391 363.015V369.326ZM86.9526 363.617V364.366H83.8607V363.617H86.9526Z" fill="#1C1B1F"/>
<rect x="97.2522" y="353.991" width="17.4951" height="23.6699" rx="3.08738" fill="#F9F9FC"/>
<rect x="97.2522" y="353.991" width="17.4951" height="23.6699" rx="3.08738" fill="#00658B" fill-opacity="0.05"/>
<path d="M107.409 363.617H108.295V369.204C108.295 369.707 108.193 370.136 107.989 370.492C107.785 370.847 107.5 371.116 107.134 371.299C106.772 371.485 106.353 371.579 105.878 371.579C105.681 371.579 105.449 371.547 105.182 371.484C104.918 371.424 104.658 371.32 104.401 371.172C104.148 371.028 103.935 370.833 103.763 370.587L104.274 370.006C104.514 370.295 104.763 370.495 105.024 370.608C105.287 370.72 105.548 370.777 105.805 370.777C106.114 370.777 106.381 370.719 106.607 370.603C106.832 370.486 107.006 370.314 107.129 370.085C107.256 369.86 107.319 369.582 107.319 369.252V364.873L107.409 363.617ZM103.478 366.535V366.424C103.478 365.988 103.529 365.592 103.631 365.237C103.736 364.878 103.886 364.57 104.079 364.313C104.276 364.056 104.514 363.859 104.791 363.722C105.069 363.582 105.382 363.511 105.731 363.511C106.089 363.511 106.403 363.575 106.67 363.701C106.941 363.824 107.169 364.005 107.356 364.245C107.546 364.48 107.695 364.765 107.804 365.099C107.913 365.434 107.989 365.812 108.031 366.234V366.719C107.992 367.138 107.917 367.514 107.804 367.848C107.695 368.182 107.546 368.467 107.356 368.703C107.169 368.939 106.941 369.12 106.67 369.247C106.399 369.37 106.082 369.431 105.72 369.431C105.379 369.431 105.069 369.359 104.791 369.215C104.517 369.071 104.281 368.868 104.084 368.608C103.887 368.348 103.736 368.042 103.631 367.69C103.529 367.335 103.478 366.95 103.478 366.535ZM104.454 366.424V366.535C104.454 366.819 104.482 367.087 104.538 367.337C104.598 367.586 104.688 367.806 104.807 367.996C104.93 368.186 105.087 368.336 105.277 368.445C105.467 368.55 105.694 368.603 105.958 368.603C106.281 368.603 106.548 368.534 106.76 368.397C106.971 368.26 107.138 368.079 107.261 367.854C107.387 367.628 107.486 367.384 107.556 367.12V365.849C107.518 365.655 107.458 365.469 107.377 365.289C107.299 365.106 107.197 364.945 107.071 364.804C106.948 364.66 106.795 364.545 106.612 364.461C106.429 364.377 106.214 364.334 105.968 364.334C105.701 364.334 105.47 364.391 105.277 364.503C105.087 364.612 104.93 364.763 104.807 364.957C104.688 365.147 104.598 365.368 104.538 365.622C104.482 365.871 104.454 366.139 104.454 366.424Z" fill="#1C1B1F"/>
<rect x="117.835" y="353.991" width="17.4951" height="23.6699" rx="3.08738" fill="#F9F9FC"/>
<rect x="117.835" y="353.991" width="17.4951" height="23.6699" rx="3.08738" fill="#00658B" fill-opacity="0.05"/>
<path d="M125.327 361.221V369.326H124.35V361.221H125.327ZM125.094 366.255L124.688 366.239C124.692 365.849 124.75 365.488 124.862 365.157C124.975 364.823 125.133 364.533 125.337 364.287C125.541 364.041 125.784 363.851 126.065 363.717C126.35 363.58 126.665 363.511 127.01 363.511C127.291 363.511 127.544 363.55 127.769 363.627C127.995 363.701 128.186 363.821 128.345 363.986C128.506 364.151 128.629 364.366 128.714 364.63C128.798 364.89 128.841 365.208 128.841 365.585V369.326H127.859V365.574C127.859 365.275 127.815 365.036 127.727 364.857C127.639 364.674 127.511 364.542 127.342 364.461C127.173 364.377 126.966 364.334 126.719 364.334C126.477 364.334 126.255 364.385 126.055 364.487C125.858 364.589 125.687 364.73 125.543 364.909C125.402 365.089 125.291 365.295 125.21 365.527C125.133 365.755 125.094 365.998 125.094 366.255Z" fill="#1C1B1F"/>
<rect x="138.417" y="353.991" width="17.4951" height="23.6699" rx="3.08738" fill="#F9F9FC"/>
<rect x="138.417" y="353.991" width="17.4951" height="23.6699" rx="3.08738" fill="#00658B" fill-opacity="0.05"/>
<path d="M146.642 363.617H147.624V370.006C147.624 370.355 147.567 370.65 147.455 370.893C147.346 371.135 147.18 371.318 146.959 371.441C146.741 371.568 146.465 371.631 146.13 371.631C146.042 371.631 145.94 371.623 145.824 371.605C145.705 371.587 145.605 371.566 145.524 371.542L145.529 370.756C145.596 370.77 145.671 370.78 145.756 370.787C145.84 370.798 145.914 370.803 145.977 370.803C146.122 370.803 146.243 370.777 146.341 370.724C146.44 370.671 146.514 370.587 146.563 370.471C146.616 370.355 146.642 370.2 146.642 370.006V363.617ZM146.542 362.102C146.542 361.944 146.591 361.81 146.69 361.701C146.788 361.592 146.931 361.538 147.117 361.538C147.307 361.538 147.451 361.592 147.55 361.701C147.648 361.81 147.697 361.944 147.697 362.102C147.697 362.254 147.648 362.384 147.55 362.493C147.451 362.598 147.307 362.651 147.117 362.651C146.931 362.651 146.788 362.598 146.69 362.493C146.591 362.384 146.542 362.254 146.542 362.102Z" fill="#1C1B1F"/>
<rect x="159" y="353.991" width="17.4951" height="23.6699" rx="3.08738" fill="#F9F9FC"/>
<rect x="159" y="353.991" width="17.4951" height="23.6699" rx="3.08738" fill="#00658B" fill-opacity="0.05"/>
<path d="M166.734 361.221V369.326H165.753V361.221H166.734ZM170.222 363.617L167.731 366.281L166.339 367.727L166.259 366.688L167.257 365.495L169.029 363.617H170.222ZM169.33 369.326L167.294 366.603L167.8 365.733L170.48 369.326H169.33Z" fill="#1C1B1F"/>
<rect x="179.583" y="353.991" width="17.4951" height="23.6699" rx="3.08738" fill="#F9F9FC"/>
<rect x="179.583" y="353.991" width="17.4951" height="23.6699" rx="3.08738" fill="#00658B" fill-opacity="0.05"/>
<path d="M188.821 361.221V369.326H187.839V361.221H188.821Z" fill="#1C1B1F"/>
<rect x="4.11646" y="383.835" width="28.301" height="23.6699" rx="3.08738" fill="#D6F4FF"/>
<path fill-rule="evenodd" clip-rule="evenodd" d="M22.2717 396.154C22.7502 396.154 22.9696 395.558 22.6053 395.248L18.2668 391.554L13.9283 395.248C13.564 395.558 13.7834 396.154 14.2619 396.154H15.5653V399.272C15.5653 399.557 15.7957 399.787 16.0799 399.787H20.4537C20.7379 399.787 20.9683 399.557 20.9683 399.272V396.154H22.2717Z" stroke="#49454F" stroke-width="1.02913"/>
<rect x="35.5049" y="383.835" width="17.4951" height="23.6699" rx="3.08738" fill="#F9F9FC"/>
<rect x="35.5049" y="383.835" width="17.4951" height="23.6699" rx="3.08738" fill="#00658B" fill-opacity="0.05"/>
<path d="M46.5687 398.368V399.17H42.4163V398.368H46.5687ZM46.4157 394.153L42.6379 399.17H42.0417V398.453L45.7931 393.461H46.4157V394.153ZM45.9831 393.461V394.269H42.0839V393.461H45.9831Z" fill="#1C1B1F"/>
<rect x="56.0874" y="383.835" width="17.4951" height="23.6699" rx="3.08738" fill="#F9F9FC"/>
<rect x="56.0874" y="383.835" width="17.4951" height="23.6699" rx="3.08738" fill="#00658B" fill-opacity="0.05"/>
<path d="M63.5581 393.461L64.8086 395.54L66.0749 393.461H67.2198L65.352 396.279L67.2779 399.17H66.1488L64.8297 397.028L63.5106 399.17H62.3762L64.2968 396.279L62.4343 393.461H63.5581Z" fill="#1C1B1F"/>
<rect x="76.6697" y="383.835" width="17.4951" height="23.6699" rx="3.08738" fill="#F9F9FC"/>
<rect x="76.6697" y="383.835" width="17.4951" height="23.6699" rx="3.08738" fill="#00658B" fill-opacity="0.05"/>
<path d="M85.6177 398.474C85.8499 398.474 86.0645 398.426 86.2614 398.331C86.4584 398.237 86.6202 398.106 86.7469 397.941C86.8735 397.772 86.9456 397.58 86.9632 397.366H87.8918C87.8742 397.704 87.7599 398.018 87.5489 398.31C87.3413 398.599 87.0687 398.833 86.731 399.012C86.3933 399.188 86.0222 399.276 85.6177 399.276C85.1886 399.276 84.814 399.2 84.4939 399.049C84.1773 398.898 83.9135 398.69 83.7024 398.426C83.4949 398.163 83.3384 397.86 83.2329 397.519C83.1308 397.174 83.0798 396.81 83.0798 396.427V396.205C83.0798 395.822 83.1308 395.459 83.2329 395.118C83.3384 394.774 83.4949 394.469 83.7024 394.205C83.9135 393.942 84.1773 393.734 84.4939 393.583C84.814 393.432 85.1886 393.356 85.6177 393.356C86.0645 393.356 86.4549 393.447 86.7891 393.63C87.1232 393.81 87.3853 394.056 87.5752 394.369C87.7687 394.679 87.8742 395.03 87.8918 395.424H86.9632C86.9456 395.189 86.8788 394.976 86.7627 394.786C86.6501 394.596 86.4954 394.445 86.2984 394.332C86.1049 394.216 85.878 394.158 85.6177 394.158C85.3187 394.158 85.0672 394.218 84.8632 394.337C84.6627 394.453 84.5027 394.612 84.3831 394.812C84.267 395.009 84.1826 395.229 84.1298 395.472C84.0806 395.711 84.056 395.955 84.056 396.205V396.427C84.056 396.676 84.0806 396.923 84.1298 397.165C84.1791 397.408 84.2617 397.628 84.3778 397.825C84.4974 398.022 84.6575 398.18 84.858 398.3C85.062 398.416 85.3152 398.474 85.6177 398.474Z" fill="#1C1B1F"/>
<rect x="97.2524" y="383.835" width="17.4951" height="23.6699" rx="3.08738" fill="#F9F9FC"/>
<rect x="97.2524" y="383.835" width="17.4951" height="23.6699" rx="3.08738" fill="#00658B" fill-opacity="0.05"/>
<path d="M105.863 398.289L107.425 393.461H108.422L106.369 399.17H105.715L105.863 398.289ZM104.56 393.461L106.169 398.316L106.28 399.17H105.625L103.557 393.461H104.56Z" fill="#1C1B1F"/>
<rect x="117.835" y="383.835" width="17.4951" height="23.6699" rx="3.08738" fill="#F9F9FC"/>
<rect x="117.835" y="383.835" width="17.4951" height="23.6699" rx="3.08738" fill="#00658B" fill-opacity="0.05"/>
<path d="M124.287 391.066H125.268V398.062L125.184 399.17H124.287V391.066ZM129.125 396.268V396.379C129.125 396.794 129.076 397.179 128.978 397.535C128.879 397.887 128.735 398.193 128.545 398.453C128.355 398.713 128.123 398.915 127.849 399.06C127.574 399.204 127.259 399.276 126.904 399.276C126.542 399.276 126.223 399.214 125.949 399.091C125.678 398.965 125.45 398.783 125.263 398.548C125.077 398.312 124.927 398.027 124.815 397.693C124.706 397.359 124.63 396.983 124.588 396.564V396.079C124.63 395.656 124.706 395.278 124.815 394.944C124.927 394.61 125.077 394.325 125.263 394.089C125.45 393.85 125.678 393.669 125.949 393.546C126.22 393.419 126.535 393.356 126.894 393.356C127.252 393.356 127.571 393.426 127.849 393.567C128.126 393.704 128.359 393.901 128.545 394.158C128.735 394.415 128.879 394.723 128.978 395.081C129.076 395.437 129.125 395.832 129.125 396.268ZM128.144 396.379V396.268C128.144 395.984 128.118 395.716 128.065 395.466C128.012 395.213 127.928 394.992 127.812 394.802C127.696 394.608 127.543 394.457 127.353 394.348C127.163 394.235 126.929 394.179 126.651 394.179C126.405 394.179 126.19 394.221 126.007 394.306C125.828 394.39 125.675 394.504 125.548 394.649C125.421 394.789 125.318 394.951 125.237 395.134C125.159 395.313 125.101 395.5 125.063 395.693V396.965C125.119 397.211 125.21 397.449 125.337 397.677C125.467 397.902 125.64 398.087 125.854 398.231C126.072 398.375 126.341 398.448 126.661 398.448C126.925 398.448 127.15 398.395 127.337 398.289C127.527 398.18 127.68 398.031 127.796 397.841C127.915 397.651 128.003 397.431 128.06 397.181C128.116 396.932 128.144 396.664 128.144 396.379Z" fill="#1C1B1F"/>
<rect x="138.417" y="383.835" width="17.4951" height="23.6699" rx="3.08738" fill="#F9F9FC"/>
<rect x="138.417" y="383.835" width="17.4951" height="23.6699" rx="3.08738" fill="#00658B" fill-opacity="0.05"/>
<path d="M145.898 394.68V399.17H144.922V393.461H145.846L145.898 394.68ZM145.666 396.1L145.26 396.084C145.264 395.693 145.322 395.333 145.434 395.002C145.547 394.668 145.705 394.378 145.909 394.132C146.113 393.885 146.356 393.695 146.637 393.562C146.922 393.425 147.237 393.356 147.582 393.356C147.863 393.356 148.116 393.395 148.341 393.472C148.567 393.546 148.758 393.665 148.917 393.831C149.078 393.996 149.201 394.211 149.286 394.475C149.37 394.735 149.412 395.053 149.412 395.43V399.17H148.431V395.419C148.431 395.12 148.387 394.881 148.299 394.701C148.211 394.518 148.083 394.387 147.914 394.306C147.745 394.221 147.538 394.179 147.291 394.179C147.049 394.179 146.827 394.23 146.627 394.332C146.43 394.434 146.259 394.575 146.115 394.754C145.974 394.934 145.863 395.139 145.782 395.371C145.705 395.6 145.666 395.843 145.666 396.1Z" fill="#1C1B1F"/>
<rect x="159" y="383.835" width="17.4951" height="23.6699" rx="3.08738" fill="#F9F9FC"/>
<rect x="159" y="383.835" width="17.4951" height="23.6699" rx="3.08738" fill="#00658B" fill-opacity="0.05"/>
<path d="M164.724 394.596V399.17H163.743V393.461H164.671L164.724 394.596ZM164.524 396.1L164.07 396.084C164.074 395.693 164.125 395.333 164.223 395.002C164.321 394.668 164.467 394.378 164.661 394.132C164.854 393.885 165.095 393.695 165.384 393.562C165.672 393.425 166.006 393.356 166.386 393.356C166.654 393.356 166.9 393.395 167.125 393.472C167.35 393.546 167.545 393.664 167.711 393.826C167.876 393.987 168.004 394.195 168.096 394.448C168.187 394.701 168.233 395.007 168.233 395.366V399.17H167.257V395.414C167.257 395.115 167.206 394.876 167.104 394.696C167.005 394.517 166.865 394.387 166.682 394.306C166.499 394.221 166.284 394.179 166.038 394.179C165.75 394.179 165.509 394.23 165.315 394.332C165.122 394.434 164.967 394.575 164.851 394.754C164.735 394.934 164.65 395.139 164.598 395.371C164.548 395.6 164.524 395.843 164.524 396.1ZM168.222 395.561L167.568 395.762C167.572 395.449 167.623 395.148 167.721 394.86C167.823 394.571 167.969 394.314 168.159 394.089C168.353 393.864 168.59 393.687 168.871 393.556C169.153 393.423 169.475 393.356 169.837 393.356C170.143 393.356 170.414 393.396 170.65 393.477C170.889 393.558 171.089 393.683 171.251 393.852C171.416 394.017 171.541 394.23 171.626 394.49C171.71 394.751 171.752 395.06 171.752 395.419V399.17H170.771V395.408C170.771 395.088 170.72 394.84 170.618 394.664C170.519 394.485 170.379 394.36 170.196 394.29C170.016 394.216 169.802 394.179 169.552 394.179C169.337 394.179 169.148 394.216 168.982 394.29C168.817 394.364 168.678 394.466 168.565 394.596C168.453 394.723 168.367 394.868 168.307 395.034C168.251 395.199 168.222 395.375 168.222 395.561Z" fill="#1C1B1F"/>
<rect x="179.583" y="383.835" width="28.301" height="23.6699" rx="3.08738" fill="#D6F4FF"/>
<path fill-rule="evenodd" clip-rule="evenodd" d="M191.442 391.039H198.462C199.264 391.039 199.908 391.673 199.908 392.448V398.893C199.908 399.668 199.264 400.301 198.462 400.301H191.442C190.954 400.301 190.539 400.063 190.267 399.669L187.559 395.668L190.27 391.664C190.538 391.275 190.954 391.039 191.442 391.039ZM198.888 392.447C198.888 392.205 198.694 392.014 198.462 392.014H191.443C191.315 392.014 191.21 392.073 191.125 392.196L188.775 395.668L188.596 395.403V395.933L188.775 395.668L191.123 399.136C191.212 399.265 191.318 399.326 191.443 399.326H198.462C198.694 399.326 198.888 399.136 198.888 398.893V392.447Z" fill="#49454F"/>
<path fill-rule="evenodd" clip-rule="evenodd" d="M197.102 397.221L196.427 397.864L194.716 396.233L193.006 397.864L192.33 397.221L194.041 395.59L192.33 393.958L193.006 393.315L194.716 394.946L196.427 393.315L197.102 393.958L195.391 395.59L197.102 397.221Z" fill="#49454F"/>
<rect x="4.11646" y="413.68" width="28.301" height="23.6699" rx="11.835" fill="#57D1FF"/>
<path d="M12.2894 426.506H11.505C11.5074 426.288 11.5261 426.105 11.5613 425.957C11.5965 425.807 11.6551 425.671 11.7372 425.549C11.8216 425.427 11.933 425.298 12.0713 425.162C12.1792 425.059 12.2765 424.962 12.3633 424.87C12.4501 424.777 12.5192 424.678 12.5708 424.575C12.6224 424.469 12.6482 424.349 12.6482 424.213C12.6482 424.065 12.6236 423.94 12.5743 423.836C12.5251 423.733 12.4524 423.655 12.3563 423.601C12.2625 423.547 12.1452 423.52 12.0045 423.52C11.8873 423.52 11.777 423.543 11.6739 423.59C11.5707 423.635 11.4874 423.705 11.4241 423.801C11.3608 423.895 11.3268 424.019 11.3221 424.174H10.4744C10.4791 423.879 10.5494 423.63 10.6854 423.428C10.8214 423.227 11.0044 423.075 11.2342 422.975C11.464 422.874 11.7208 422.823 12.0045 422.823C12.3187 422.823 12.5872 422.877 12.81 422.985C13.0328 423.091 13.2028 423.245 13.3201 423.449C13.4396 423.651 13.4994 423.895 13.4994 424.181C13.4994 424.387 13.4584 424.575 13.3763 424.744C13.2943 424.91 13.1876 425.066 13.0562 425.212C12.9249 425.355 12.783 425.498 12.6306 425.641C12.4993 425.76 12.4102 425.891 12.3633 426.031C12.3164 426.17 12.2918 426.328 12.2894 426.506ZM11.4347 427.604C11.4347 427.477 11.478 427.37 11.5648 427.283C11.6516 427.194 11.77 427.15 11.9201 427.15C12.0702 427.15 12.1886 427.194 12.2754 427.283C12.3621 427.37 12.4055 427.477 12.4055 427.604C12.4055 427.73 12.3621 427.838 12.2754 427.927C12.1886 428.014 12.0702 428.057 11.9201 428.057C11.77 428.057 11.6516 428.014 11.5648 427.927C11.478 427.838 11.4347 427.73 11.4347 427.604ZM16.4718 422.876V428.015H15.624V423.882L14.3683 424.308V423.608L16.3697 422.876H16.4718ZM21.6847 427.34V428.015H18.2516V427.435L19.9189 425.616C20.1018 425.41 20.2461 425.232 20.3516 425.082C20.4571 424.931 20.531 424.797 20.5732 424.677C20.6177 424.555 20.64 424.437 20.64 424.322C20.64 424.16 20.6095 424.018 20.5486 423.896C20.4899 423.772 20.4032 423.675 20.2883 423.604C20.1734 423.531 20.0338 423.495 19.8697 423.495C19.6797 423.495 19.5203 423.536 19.3913 423.618C19.2623 423.7 19.165 423.814 19.0993 423.959C19.0337 424.102 19.0009 424.267 19.0009 424.452H18.1531C18.1531 424.154 18.2211 423.882 18.3571 423.636C18.4932 423.387 18.6901 423.19 18.9481 423.045C19.206 422.897 19.5168 422.823 19.8802 422.823C20.2226 422.823 20.5134 422.881 20.7526 422.996C20.9918 423.111 21.1735 423.274 21.2978 423.485C21.4244 423.696 21.4877 423.945 21.4877 424.234C21.4877 424.393 21.4619 424.552 21.4104 424.709C21.3588 424.866 21.2849 425.023 21.1887 425.18C21.0949 425.335 20.9836 425.491 20.8546 425.648C20.7256 425.803 20.5837 425.96 20.429 426.119L19.3209 427.34H21.6847ZM23.3415 425.071H23.848C24.045 425.071 24.208 425.037 24.3369 424.969C24.4683 424.901 24.5656 424.807 24.6289 424.688C24.6922 424.568 24.7239 424.431 24.7239 424.276C24.7239 424.114 24.6945 423.976 24.6359 423.861C24.5796 423.744 24.4929 423.653 24.3756 423.59C24.2607 423.527 24.1142 423.495 23.9359 423.495C23.7859 423.495 23.6498 423.526 23.5279 423.587C23.4083 423.645 23.3133 423.73 23.243 423.84C23.1726 423.948 23.1375 424.077 23.1375 424.227H22.2862C22.2862 423.955 22.3577 423.713 22.5008 423.502C22.6438 423.291 22.8385 423.126 23.0847 423.006C23.3333 422.884 23.6123 422.823 23.9219 422.823C24.2525 422.823 24.5409 422.878 24.7872 422.989C25.0357 423.096 25.2292 423.258 25.3676 423.474C25.5059 423.69 25.5751 423.957 25.5751 424.276C25.5751 424.421 25.5411 424.569 25.4731 424.719C25.4051 424.869 25.3042 425.006 25.1706 425.131C25.0369 425.253 24.8704 425.352 24.6711 425.43C24.4718 425.505 24.2408 425.542 23.9781 425.542H23.3415V425.071ZM23.3415 425.732V425.268H23.9781C24.2783 425.268 24.5339 425.303 24.745 425.373C24.9584 425.444 25.1319 425.541 25.2656 425.665C25.3992 425.787 25.4965 425.927 25.5575 426.084C25.6208 426.241 25.6525 426.408 25.6525 426.584C25.6525 426.823 25.6091 427.036 25.5223 427.224C25.4379 427.409 25.3171 427.566 25.16 427.695C25.0029 427.824 24.8188 427.921 24.6078 427.987C24.3991 428.053 24.1716 428.085 23.9254 428.085C23.7049 428.085 23.4939 428.055 23.2922 427.994C23.0906 427.933 22.91 427.843 22.7505 427.723C22.5911 427.601 22.4644 427.45 22.3706 427.269C22.2792 427.087 22.2335 426.875 22.2335 426.636H23.0812C23.0812 426.789 23.1164 426.924 23.1867 427.041C23.2594 427.156 23.3602 427.246 23.4892 427.312C23.6205 427.377 23.7706 427.41 23.9395 427.41C24.1177 427.41 24.2713 427.378 24.4002 427.315C24.5292 427.252 24.6277 427.158 24.6957 427.034C24.7661 426.909 24.8012 426.759 24.8012 426.584C24.8012 426.384 24.7626 426.222 24.6852 426.098C24.6078 425.974 24.4976 425.882 24.3545 425.824C24.2115 425.763 24.0426 425.732 23.848 425.732H23.3415Z" fill="#1D192B"/>
<rect x="35.5049" y="413.68" width="17.4951" height="23.6699" rx="3.08738" fill="#D6F4FF"/>
<path d="M44.817 429.723V430.509C44.817 430.83 44.7361 431.167 44.5743 431.522C44.4125 431.881 44.1856 432.18 43.8937 432.419L43.3397 432.034C43.4522 431.879 43.5472 431.721 43.6246 431.559C43.702 431.401 43.76 431.236 43.7987 431.063C43.8409 430.895 43.862 430.715 43.862 430.525V429.723H44.817Z" fill="#49454F"/>
<path fill-rule="evenodd" clip-rule="evenodd" d="M44.2526 419.444C42.8907 419.444 41.7826 420.552 41.7826 421.913C41.7826 423.275 42.8907 424.383 44.2526 424.383C45.6144 424.383 46.7225 423.275 46.7225 421.913C46.7225 420.552 45.6144 419.444 44.2526 419.444ZM44.2524 425.001C42.55 425.001 41.165 423.616 41.165 421.913C41.165 420.211 42.55 418.826 44.2524 418.826C45.9548 418.826 47.3398 420.211 47.3398 421.913C47.3398 423.616 45.9548 425.001 44.2524 425.001Z" fill="#49454F"/>
<path fill-rule="evenodd" clip-rule="evenodd" d="M43.6303 421.451C43.6303 421.706 43.4229 421.914 43.1671 421.914C42.9112 421.914 42.7039 421.706 42.7039 421.451C42.7039 421.195 42.9112 420.987 43.1671 420.987C43.4229 420.987 43.6303 421.195 43.6303 421.451ZM44.2473 423.662C43.7569 423.662 43.2893 423.451 42.9644 423.084C42.8656 422.972 42.8761 422.801 42.9877 422.702C43.0995 422.604 43.2702 422.614 43.3691 422.726C43.5914 422.977 43.9116 423.121 44.2473 423.121C44.5831 423.121 44.9033 422.977 45.1256 422.726C45.2245 422.614 45.3954 422.604 45.507 422.702C45.6186 422.801 45.6291 422.972 45.5303 423.084C45.2054 423.451 44.7378 423.662 44.2473 423.662ZM45.3281 421.914C45.5839 421.914 45.7913 421.706 45.7913 421.451C45.7913 421.195 45.5839 420.987 45.3281 420.987C45.0722 420.987 44.8649 421.195 44.8649 421.451C44.8649 421.706 45.0722 421.914 45.3281 421.914Z" fill="#49454F"/>
<rect x="56.0872" y="413.68" width="17.4951" height="23.6699" rx="3.08738" fill="#F9F9FC"/>
<rect x="56.0872" y="413.68" width="17.4951" height="23.6699" rx="3.08738" fill="#00658B" fill-opacity="0.05"/>
<path fill-rule="evenodd" clip-rule="evenodd" d="M59.6895 425.515C59.6895 422.675 61.9896 420.369 64.8299 420.369C67.6755 420.369 69.9807 422.675 69.9807 425.515C69.9807 428.355 67.6755 430.661 64.8299 430.661C61.9896 430.661 59.6895 428.355 59.6895 425.515ZM66.8779 423.457H68.3959C67.9019 422.608 67.1146 421.949 66.1678 421.625C66.4765 422.196 66.7132 422.814 66.8779 423.457ZM64.8351 421.419C65.2622 422.037 65.5966 422.721 65.8179 423.457H63.8523C64.0735 422.721 64.408 422.037 64.8351 421.419ZM60.7186 425.515C60.7186 425.87 60.77 426.215 60.8524 426.544H62.5916C62.5504 426.205 62.5196 425.865 62.5196 425.515C62.5196 425.165 62.5504 424.826 62.5916 424.486H60.8524C60.77 424.815 60.7186 425.16 60.7186 425.515ZM61.2743 427.573H62.7923C62.9569 428.216 63.1936 428.834 63.5024 429.405C62.5556 429.081 61.7683 428.427 61.2743 427.573ZM61.2743 423.457H62.7923C62.9569 422.814 63.1936 422.196 63.5024 421.625C62.5556 421.949 61.7683 422.603 61.2743 423.457ZM64.8351 429.611C64.408 428.993 64.0735 428.309 63.8523 427.573H65.8179C65.5966 428.309 65.2622 428.993 64.8351 429.611ZM63.5487 425.515C63.5487 425.865 63.5847 426.205 63.631 426.544H66.0392C66.0855 426.205 66.1215 425.865 66.1215 425.515C66.1215 425.165 66.0855 424.82 66.0392 424.486H63.631C63.5847 424.82 63.5487 425.165 63.5487 425.515ZM66.1678 429.405C66.4765 428.834 66.7132 428.216 66.8779 427.573H68.3959C67.9019 428.422 67.1146 429.081 66.1678 429.405ZM67.1506 425.515C67.1506 425.865 67.1197 426.205 67.0786 426.544H68.8178C68.9001 426.215 68.9516 425.87 68.9516 425.515C68.9516 425.16 68.9001 424.815 68.8178 424.486H67.0786C67.1197 424.826 67.1506 425.165 67.1506 425.515Z" fill="#1C1B1F"/>
<path fill-rule="evenodd" clip-rule="evenodd" d="M76.6697 416.768C76.6697 415.062 78.0519 413.68 79.7571 413.68H152.825C154.53 413.68 155.912 415.062 155.912 416.768V434.263C155.912 435.968 154.53 437.35 152.825 437.35H128.083H79.7571C78.0519 437.35 76.6697 435.968 76.6697 434.263V416.768Z" fill="#F9F9FC"/>
<path fill-rule="evenodd" clip-rule="evenodd" d="M76.6697 416.768C76.6697 415.062 78.0519 413.68 79.7571 413.68H152.825C154.53 413.68 155.912 415.062 155.912 416.768V434.263C155.912 435.968 154.53 437.35 152.825 437.35H128.083H79.7571C78.0519 437.35 76.6697 435.968 76.6697 434.263V416.768Z" fill="#00658B" fill-opacity="0.05"/>
<rect x="159" y="413.68" width="17.4951" height="23.6699" rx="3.08738" fill="#D6F4FF"/>
<path d="M167.083 428.498C167.083 428.333 167.134 428.194 167.236 428.081C167.341 427.965 167.492 427.907 167.689 427.907C167.886 427.907 168.036 427.965 168.138 428.081C168.243 428.194 168.296 428.333 168.296 428.498C168.296 428.66 168.243 428.797 168.138 428.91C168.036 429.022 167.886 429.078 167.689 429.078C167.492 429.078 167.341 429.022 167.236 428.91C167.134 428.797 167.083 428.66 167.083 428.498Z" fill="#49454F"/>
<rect x="179.583" y="413.68" width="28.301" height="23.6699" rx="11.835" fill="#00658B" fill-opacity="0.8"/>
<path d="M197.335 422.942V425.001H191.073L192.915 423.153L192.189 422.428L189.102 425.515L192.189 428.602L192.915 427.877L191.073 426.03H198.364V422.942H197.335Z" fill="#21005D"/>
<rect x="4.11646" y="302.02" width="13.3786" height="13.3786" rx="6.68932" fill="#57D1FF"/>
<path d="M11.9866 311.797L12.7122 311.071L10.3555 308.709L12.7122 306.347L11.9866 305.622L8.89925 308.709L11.9866 311.797Z" fill="#21005D"/>
<path d="M35.5784 306.137H36.9016V311.429H35.5784V306.137ZM33.3732 306.137H30.7268C30.1976 306.137 29.8447 306.578 29.8447 307.019V310.547C29.8447 310.988 30.1976 311.429 30.7268 311.429H33.3732C33.9024 311.429 34.2553 310.988 34.2553 310.547V308.783H32.9321V310.106H31.1679V307.46H34.2553V307.019C34.2553 306.578 33.9024 306.137 33.3732 306.137ZM42.1942 307.46V306.137H38.2248V311.429H39.5479V309.665H41.3121V308.342H39.5479V307.46H42.1942Z" fill="#1C1B1F"/>
<path d="M72.7746 309.214C72.7952 309.049 72.8106 308.884 72.8106 308.709C72.8106 308.534 72.7952 308.37 72.7746 308.205L73.8604 307.356C73.9581 307.279 73.9839 307.14 73.9221 307.027L72.893 305.246C72.8312 305.133 72.6923 305.092 72.5791 305.133L71.2978 305.648C71.0303 305.442 70.7421 305.272 70.4282 305.143L70.2327 303.78C70.2172 303.656 70.1092 303.564 69.9805 303.564H67.9223C67.7937 303.564 67.6856 303.656 67.6702 303.78L67.4746 305.143C67.1607 305.272 66.8726 305.447 66.605 305.648L65.3238 305.133C65.2054 305.087 65.0716 305.133 65.0099 305.246L63.9807 307.027C63.9139 307.14 63.9447 307.279 64.0425 307.356L65.1282 308.205C65.1076 308.37 65.0922 308.54 65.0922 308.709C65.0922 308.879 65.1076 309.049 65.1282 309.214L64.0425 310.063C63.9447 310.14 63.919 310.279 63.9807 310.392L65.0099 312.172C65.0716 312.286 65.2105 312.327 65.3238 312.286L66.605 311.771C66.8726 311.977 67.1607 312.147 67.4746 312.275L67.6702 313.639C67.6856 313.762 67.7937 313.855 67.9223 313.855H69.9805C70.1092 313.855 70.2172 313.762 70.2327 313.639L70.4282 312.275C70.7421 312.147 71.0303 311.972 71.2978 311.771L72.5791 312.286C72.6974 312.332 72.8312 312.286 72.893 312.172L73.9221 310.392C73.9839 310.279 73.9581 310.14 73.8604 310.063L72.7746 309.214ZM68.9514 310.51C67.9583 310.51 67.1505 309.702 67.1505 308.709C67.1505 307.716 67.9583 306.908 68.9514 306.908C69.9445 306.908 70.7524 307.716 70.7524 308.709C70.7524 309.702 69.9445 310.51 68.9514 310.51Z" fill="#1C1B1F"/>
<path d="M105.794 305.288H101.336L100.906 303.821H97.9728C97.4351 303.821 96.9951 304.261 96.9951 304.799V311.154C96.9951 311.691 97.4351 312.131 97.9728 312.131H101.395L101.883 313.598H105.794C106.332 313.598 106.772 313.158 106.772 312.62V306.265C106.772 305.728 106.332 305.288 105.794 305.288ZM99.5224 309.975C98.4225 309.975 97.5231 309.081 97.5231 307.976C97.5231 306.871 98.4176 305.977 99.5224 305.977C100.031 305.977 100.495 306.158 100.862 306.5L100.896 306.529L100.295 307.106L100.265 307.082C100.124 306.95 99.8841 306.793 99.5224 306.793C98.882 306.793 98.359 307.326 98.359 307.976C98.359 308.626 98.882 309.159 99.5224 309.159C100.192 309.159 100.481 308.734 100.559 308.445H99.4784V307.688H101.409L101.414 307.722C101.434 307.825 101.439 307.917 101.439 308.02C101.439 309.169 100.652 309.975 99.5224 309.975ZM102.47 309.14C102.631 309.433 102.832 309.716 103.052 309.971L102.788 310.23L102.47 309.14ZM102.846 308.768H102.363L102.211 308.26H104.161C104.161 308.26 103.995 308.9 103.399 309.599C103.145 309.296 102.964 308.998 102.846 308.768ZM106.283 312.62C106.283 312.889 106.063 313.109 105.794 313.109H102.372L103.35 312.131L102.954 310.777L103.404 310.327L104.714 311.642L105.071 311.286L103.746 309.975C104.186 309.472 104.528 308.876 104.684 308.26H105.305V307.751H103.526V307.243H103.018V307.751H102.059L101.483 305.776H105.794C106.063 305.776 106.283 305.996 106.283 306.265V312.62Z" fill="#1C1B1F"/>
<path d="M139.575 310.613V305.616C139.575 304.694 138.831 303.95 137.909 303.95H131.722C130.8 303.95 130.056 304.694 130.056 305.616V311.803C130.056 312.725 130.8 313.469 131.722 313.469H136.719L139.575 310.613ZM131.722 312.517C131.328 312.517 131.008 312.197 131.008 311.803V305.616C131.008 305.222 131.328 304.902 131.722 304.902H137.909C138.303 304.902 138.623 305.222 138.623 305.616V310.137H137.909C136.988 310.137 136.243 310.882 136.243 311.803V312.517H131.722ZM133.751 307.654C133.625 307.212 133.167 306.953 132.725 307.078C132.284 307.204 132.024 307.662 132.15 308.108C132.185 308.229 132.245 308.337 132.323 308.428L133.768 308.021C133.79 307.9 133.786 307.775 133.751 307.654ZM136.728 306.814C136.607 306.373 136.144 306.113 135.702 306.239C135.261 306.364 135.001 306.823 135.127 307.269C135.162 307.39 135.222 307.498 135.3 307.589L136.745 307.182C136.767 307.061 136.763 306.935 136.728 306.814ZM137.152 308.303L132.565 309.596C133.184 310.414 134.257 310.812 135.3 310.518C136.343 310.224 137.048 309.32 137.152 308.303Z" fill="#1C1B1F"/>
<path fill-rule="evenodd" clip-rule="evenodd" d="M170.835 307.68C170.269 307.68 169.806 308.144 169.806 308.71C169.806 309.276 170.269 309.739 170.835 309.739C171.401 309.739 171.864 309.276 171.864 308.71C171.864 308.144 171.401 307.68 170.835 307.68ZM177.01 307.68C176.444 307.68 175.981 308.144 175.981 308.71C175.981 309.276 176.444 309.739 177.01 309.739C177.576 309.739 178.039 309.276 178.039 308.71C178.039 308.144 177.576 307.68 177.01 307.68ZM172.893 308.71C172.893 308.144 173.356 307.68 173.922 307.68C174.488 307.68 174.952 308.144 174.952 308.71C174.952 309.276 174.488 309.739 173.922 309.739C173.356 309.739 172.893 309.276 172.893 308.71Z" fill="#1C1B1F"/>
<path fill-rule="evenodd" clip-rule="evenodd" d="M203.253 308.452C203.253 309.306 202.563 309.996 201.709 309.996C200.855 309.996 200.165 309.306 200.165 308.452V305.365C200.165 304.511 200.855 303.821 201.709 303.821C202.563 303.821 203.253 304.511 203.253 305.365V308.452ZM201.709 311.025C203.129 311.025 204.282 309.872 204.282 308.452H205.311C205.311 310.269 203.968 311.761 202.223 312.013V313.598H201.194V312.013C199.45 311.761 198.107 310.269 198.107 308.452H199.136C199.136 309.872 200.289 311.025 201.709 311.025Z" fill="#1C1B1F"/>
<rect x="154.369" y="302.535" width="0.514563" height="12.3495" fill="#EBF9FF"/>
<g clip-path="url(#clip4_2637_6344)">
<path d="M57.2189 79.7252H55.6932V78.9241H57.2189C57.4845 78.9241 57.6992 78.8812 57.863 78.7953C58.0267 78.7094 58.1461 78.5913 58.2212 78.4411C58.2991 78.2881 58.338 78.1136 58.338 77.9177C58.338 77.7326 58.2991 77.5595 58.2212 77.3984C58.1461 77.2347 58.0267 77.1032 57.863 77.0039C57.6992 76.9046 57.4845 76.855 57.2189 76.855H56.0031V81.9111H54.9927V76.0498H57.2189C57.6724 76.0498 58.0575 76.1304 58.3742 76.2914C58.6936 76.4497 58.9364 76.6698 59.1028 76.9516C59.2692 77.2307 59.3524 77.5501 59.3524 77.9097C59.3524 78.2881 59.2692 78.6128 59.1028 78.8839C58.9364 79.1549 58.6936 79.3629 58.3742 79.5078C58.0575 79.6528 57.6724 79.7252 57.2189 79.7252ZM62.8411 80.8846V77.5554H63.8153V81.9111H62.8975L62.8411 80.8846ZM62.978 79.9788L63.3041 79.9708C63.3041 80.2633 63.2719 80.533 63.2075 80.7799C63.1431 81.0242 63.0438 81.2375 62.9096 81.42C62.7754 81.5998 62.6036 81.7407 62.3943 81.8427C62.185 81.942 61.934 81.9916 61.6415 81.9916C61.4295 81.9916 61.2349 81.9608 61.0578 81.8991C60.8807 81.8373 60.7277 81.7421 60.5989 81.6132C60.4727 81.4844 60.3748 81.3167 60.305 81.11C60.2352 80.9034 60.2003 80.6565 60.2003 80.3693V77.5554H61.1705V80.3774C61.1705 80.5357 61.1893 80.6686 61.2269 80.7759C61.2644 80.8806 61.3154 80.9651 61.3798 81.0295C61.4442 81.0939 61.5194 81.1396 61.6053 81.1664C61.6912 81.1932 61.7824 81.2067 61.879 81.2067C62.1554 81.2067 62.3728 81.153 62.5312 81.0456C62.6922 80.9356 62.8062 80.788 62.8733 80.6028C62.9431 80.4176 62.978 80.2096 62.978 79.9788ZM65.8307 78.4853V81.9111H64.8605V77.5554H65.7743L65.8307 78.4853ZM65.6576 79.5723L65.3436 79.5682C65.3463 79.2596 65.3892 78.9765 65.4724 78.7188C65.5583 78.4612 65.6764 78.2398 65.8266 78.0546C65.9796 77.8694 66.1621 77.7272 66.3741 77.6279C66.5861 77.5259 66.8223 77.4749 67.0826 77.4749C67.292 77.4749 67.4812 77.5044 67.6502 77.5635C67.822 77.6198 67.9683 77.7124 68.089 77.8412C68.2125 77.9701 68.3064 78.1378 68.3708 78.3444C68.4352 78.5484 68.4674 78.7993 68.4674 79.0972V81.9111H67.4932V79.0932C67.4932 78.8839 67.4624 78.7188 67.4007 78.5981C67.3416 78.4746 67.2544 78.3874 67.139 78.3364C67.0263 78.2827 66.8854 78.2559 66.7163 78.2559C66.5499 78.2559 66.401 78.2908 66.2695 78.3605C66.138 78.4303 66.0266 78.5256 65.9353 78.6464C65.8468 78.7671 65.7783 78.9067 65.73 79.065C65.6817 79.2234 65.6576 79.3924 65.6576 79.5723Z" fill="#00658B"/>
<path d="M85.0776 77.7334L88.0221 80.6778L90.9665 77.7334H85.0776Z" fill="#00658B"/>
</g>
<rect x="40.3389" y="67.4277" width="75.6556" height="22.9667" rx="4.41667" stroke="#C0C7CD" stroke-width="0.588889"/>
<path d="M187.098 49.1111V43.7522H188.973C189.392 43.7522 189.739 43.8236 190.015 43.9666C190.29 44.1044 190.494 44.2957 190.627 44.5407C190.765 44.7806 190.834 45.0536 190.834 45.3599C190.834 45.6508 190.767 45.9187 190.635 46.1637C190.507 46.4036 190.305 46.595 190.03 46.7379C189.754 46.8808 189.402 46.9522 188.973 46.9522H187.909V49.1111H187.098ZM187.909 46.2862H188.935C189.318 46.2862 189.591 46.2045 189.754 46.0412C189.923 45.8728 190.007 45.6457 190.007 45.3599C190.007 45.0638 189.923 44.8342 189.754 44.6709C189.591 44.5024 189.318 44.4182 188.935 44.4182H187.909V46.2862ZM193.268 49.203C192.905 49.203 192.579 49.1213 192.288 48.958C192.002 48.7896 191.775 48.5573 191.606 48.2613C191.438 47.9602 191.354 47.6106 191.354 47.2125C191.354 46.8144 191.438 46.4674 191.606 46.1714C191.78 45.8702 192.012 45.638 192.303 45.4747C192.594 45.3063 192.918 45.2221 193.275 45.2221C193.638 45.2221 193.962 45.3063 194.248 45.4747C194.538 45.638 194.768 45.8702 194.937 46.1714C195.11 46.4674 195.197 46.8144 195.197 47.2125C195.197 47.6106 195.11 47.9602 194.937 48.2613C194.768 48.5573 194.538 48.7896 194.248 48.958C193.957 49.1213 193.63 49.203 193.268 49.203ZM193.268 48.5063C193.462 48.5063 193.64 48.4578 193.804 48.3608C193.972 48.2639 194.107 48.121 194.209 47.9321C194.311 47.7382 194.362 47.4983 194.362 47.2125C194.362 46.9267 194.311 46.6894 194.209 46.5005C194.112 46.3066 193.98 46.1611 193.811 46.0642C193.648 45.9672 193.469 45.9187 193.275 45.9187C193.081 45.9187 192.9 45.9672 192.732 46.0642C192.568 46.1611 192.436 46.3066 192.334 46.5005C192.232 46.6894 192.181 46.9267 192.181 47.2125C192.181 47.4983 192.232 47.7382 192.334 47.9321C192.436 48.121 192.568 48.2639 192.732 48.3608C192.895 48.4578 193.074 48.5063 193.268 48.5063ZM197.686 49.203C197.206 49.203 196.811 49.0856 196.499 48.8508C196.188 48.616 196.009 48.3047 195.963 47.9168H196.783C196.823 48.0903 196.92 48.2409 197.073 48.3685C197.227 48.491 197.428 48.5522 197.678 48.5522C197.923 48.5522 198.102 48.5012 198.214 48.3991C198.326 48.297 198.383 48.1797 198.383 48.047C198.383 47.853 198.303 47.7229 198.145 47.6565C197.992 47.5851 197.778 47.5213 197.502 47.4651C197.288 47.4192 197.073 47.358 196.859 47.2814C196.65 47.2049 196.474 47.0977 196.331 46.9599C196.193 46.817 196.124 46.6256 196.124 46.3857C196.124 46.054 196.252 45.7784 196.507 45.5589C196.762 45.3343 197.119 45.2221 197.579 45.2221C198.002 45.2221 198.344 45.3241 198.605 45.5283C198.87 45.7324 199.026 46.0208 199.072 46.3934H198.291C198.265 46.23 198.189 46.1025 198.061 46.0106C197.939 45.9187 197.773 45.8728 197.563 45.8728C197.359 45.8728 197.201 45.9162 197.089 46.0029C196.977 46.0846 196.92 46.1918 196.92 46.3245C196.92 46.4572 196.997 46.5618 197.15 46.6383C197.308 46.7149 197.515 46.7838 197.77 46.845C198.025 46.9012 198.26 46.9675 198.474 47.0441C198.694 47.1155 198.87 47.2227 199.003 47.3656C199.135 47.5085 199.202 47.7178 199.202 47.9934C199.207 48.3404 199.072 48.6288 198.796 48.8585C198.525 49.0881 198.155 49.203 197.686 49.203ZM201.634 49.1111C201.261 49.1111 200.965 49.0218 200.746 48.8431C200.526 48.6594 200.416 48.3353 200.416 47.8709V45.9953H199.766V45.3139H200.416L200.516 44.3493H201.228V45.3139H202.3V45.9953H201.228V47.8709C201.228 48.0801 201.271 48.2256 201.358 48.3073C201.45 48.3838 201.606 48.4221 201.825 48.4221H202.261V49.1111H201.634Z" fill="#00658B" fill-opacity="0.08"/>
<path d="M12.5364 49.203C12.0056 49.203 11.5463 49.0881 11.1584 48.8585C10.7756 48.6237 10.4796 48.2996 10.2703 47.8862C10.0611 47.4677 9.95645 46.9854 9.95645 46.4393C9.95645 45.8881 10.0611 45.4058 10.2703 44.9924C10.4796 44.5739 10.7756 44.2473 11.1584 44.0125C11.5463 43.7777 12.0056 43.6603 12.5364 43.6603C13.1641 43.6603 13.6771 43.8134 14.0751 44.1197C14.4732 44.4259 14.7259 44.8546 14.833 45.4058H13.9297C13.8582 45.0945 13.7051 44.8469 13.4704 44.6632C13.2356 44.4795 12.9217 44.3876 12.5287 44.3876C11.9928 44.3876 11.5692 44.5713 11.2579 44.9388C10.9466 45.3012 10.7909 45.8013 10.7909 46.4393C10.7909 47.0722 10.9466 47.5698 11.2579 47.9321C11.5692 48.2945 11.9928 48.4757 12.5287 48.4757C12.9217 48.4757 13.2356 48.3889 13.4704 48.2154C13.7051 48.0419 13.8582 47.8045 13.9297 47.5034H14.833C14.7259 48.0342 14.4732 48.4502 14.0751 48.7513C13.6771 49.0524 13.1641 49.203 12.5364 49.203ZM17.0762 49.203C16.7547 49.203 16.4893 49.1494 16.2801 49.0422C16.0708 48.935 15.9151 48.7947 15.8131 48.6211C15.711 48.4425 15.66 48.2486 15.66 48.0393C15.66 47.6718 15.8029 47.3809 16.0887 47.1666C16.3745 46.9522 16.7828 46.845 17.3136 46.845H18.3088V46.7761C18.3088 46.4801 18.2271 46.2581 18.0638 46.1101C17.9056 45.9621 17.6989 45.8881 17.4437 45.8881C17.2191 45.8881 17.0226 45.9442 16.8542 46.0565C16.6909 46.1637 16.5914 46.3245 16.5557 46.5388H15.7442C15.7697 46.2632 15.8616 46.0284 16.0198 45.8345C16.1831 45.6355 16.3872 45.4849 16.6322 45.3828C16.8823 45.2757 17.1553 45.2221 17.4514 45.2221C17.9821 45.2221 18.393 45.3624 18.6839 45.6431C18.9748 45.9187 19.1203 46.2964 19.1203 46.7761V49.1111H18.416L18.3471 48.4604C18.2399 48.6696 18.0842 48.8457 17.8801 48.9886C17.6759 49.1315 17.408 49.203 17.0762 49.203ZM17.237 48.5446C17.4565 48.5446 17.6402 48.4935 17.7882 48.3915C17.9413 48.2843 18.0587 48.1439 18.1404 47.9704C18.2271 47.7969 18.2807 47.6055 18.3011 47.3962H17.3978C17.0762 47.3962 16.8466 47.4524 16.7088 47.5647C16.5761 47.6769 16.5097 47.8173 16.5097 47.9857C16.5097 48.1592 16.5735 48.297 16.7011 48.3991C16.8338 48.4961 17.0124 48.5446 17.237 48.5446ZM20.1621 49.1111V45.3139H20.8818L20.943 45.98C21.0604 45.7452 21.2314 45.5615 21.4559 45.4288C21.6856 45.291 21.9484 45.2221 22.2445 45.2221C22.7038 45.2221 23.0636 45.365 23.3239 45.6508C23.5893 45.9366 23.722 46.3627 23.722 46.9293V49.1111H22.9181V47.0135C22.9181 46.2785 22.617 45.9111 22.0148 45.9111C21.7137 45.9111 21.4636 46.0182 21.2645 46.2326C21.0706 46.447 20.9736 46.7532 20.9736 47.1513V49.1111H20.1621ZM26.5725 49.203C26.1999 49.203 25.8656 49.1187 25.5696 48.9503C25.2787 48.7819 25.049 48.5497 24.8806 48.2537C24.7173 47.9525 24.6356 47.6055 24.6356 47.2125C24.6356 46.8195 24.7173 46.475 24.8806 46.179C25.049 45.8779 25.2787 45.6431 25.5696 45.4747C25.8656 45.3063 26.1999 45.2221 26.5725 45.2221C27.042 45.2221 27.435 45.3446 27.7514 45.5895C28.073 45.8345 28.2797 46.1662 28.3715 46.5848H27.5218C27.4707 46.3755 27.3584 46.2122 27.1849 46.0948C27.0114 45.9774 26.8072 45.9187 26.5725 45.9187C26.3734 45.9187 26.1897 45.9698 26.0213 46.0718C25.8529 46.1688 25.7176 46.3143 25.6155 46.5082C25.5135 46.697 25.4624 46.9318 25.4624 47.2125C25.4624 47.4932 25.5135 47.7305 25.6155 47.9245C25.7176 48.1133 25.8529 48.2588 26.0213 48.3608C26.1897 48.4629 26.3734 48.514 26.5725 48.514C26.8072 48.514 27.0114 48.4553 27.1849 48.3379C27.3584 48.2205 27.4707 48.0546 27.5218 47.8403H28.3715C28.2848 48.2486 28.0806 48.5777 27.7591 48.8278C27.4376 49.0779 27.042 49.203 26.5725 49.203ZM31.1234 49.203C30.7508 49.203 30.4191 49.1213 30.1282 48.958C29.8424 48.7896 29.6178 48.5573 29.4545 48.2613C29.2912 47.9653 29.2095 47.6208 29.2095 47.2278C29.2095 46.8297 29.2886 46.4801 29.4468 46.179C29.6102 45.8779 29.8347 45.6431 30.1205 45.4747C30.4114 45.3063 30.7483 45.2221 31.1311 45.2221C31.5036 45.2221 31.8277 45.3063 32.1033 45.4747C32.3789 45.638 32.5933 45.8575 32.7464 46.1331C32.8995 46.4087 32.9761 46.7123 32.9761 47.0441C32.9761 47.0951 32.9735 47.1513 32.9684 47.2125C32.9684 47.2686 32.9658 47.3324 32.9607 47.4039H30.0057C30.0312 47.7714 30.1512 48.0521 30.3655 48.246C30.585 48.4348 30.8376 48.5293 31.1234 48.5293C31.3531 48.5293 31.5445 48.4782 31.6976 48.3762C31.8558 48.269 31.9732 48.1261 32.0497 47.9474H32.8612C32.7591 48.3047 32.555 48.6033 32.2488 48.8431C31.9477 49.083 31.5725 49.203 31.1234 49.203ZM31.1234 45.8881C30.8529 45.8881 30.613 45.9698 30.4038 46.1331C30.1945 46.2913 30.0669 46.5312 30.021 46.8527H32.1646C32.1493 46.5567 32.0446 46.3219 31.8507 46.1484C31.6567 45.9749 31.4143 45.8881 31.1234 45.8881ZM33.9137 49.1111V43.5991H34.7252V49.1111H33.9137Z" fill="#00070A"/>
<path d="M9.42212 103.645V113.067" stroke="#00658B" stroke-width="0.588889" stroke-linecap="square"/>
<path d="M9.71656 151.933C9.71656 149.494 11.694 147.517 14.1332 147.517H197.867C200.306 147.517 202.283 149.494 202.283 151.933V175.489C202.283 177.928 200.306 179.905 197.867 179.905H14.1332C11.694 179.905 9.71656 177.928 9.71656 175.489V151.933Z" stroke="#C0C7CD" stroke-width="0.588889"/>
<path d="M20.8983 166.721L19.0892 160.116H19.9372L21.36 165.778L22.9806 160.116H23.8569L25.4304 165.778L26.872 160.116H27.72L25.8732 166.711H24.9687L23.3952 161.265L21.784 166.711L20.8983 166.721ZM28.6509 166.711V159.927H29.4423V162.839C29.5994 162.55 29.8224 162.327 30.1113 162.17C30.4003 162.006 30.7143 161.925 31.0535 161.925C31.5937 161.925 32.0272 162.094 32.3538 162.433C32.6804 162.766 32.8437 163.281 32.8437 163.979V166.711H32.0617V164.064C32.0617 163.09 31.6691 162.603 30.8839 162.603C30.4756 162.603 30.1333 162.751 29.8569 163.046C29.5805 163.335 29.4423 163.749 29.4423 164.29V166.711H28.6509ZM36.2194 166.824C35.7797 166.824 35.384 166.724 35.0322 166.523C34.6804 166.322 34.4009 166.039 34.1936 165.675C33.9926 165.304 33.8921 164.871 33.8921 164.374C33.8921 163.878 33.9958 163.448 34.203 163.084C34.4103 162.713 34.6899 162.427 35.0416 162.226C35.3997 162.025 35.7985 161.925 36.2383 161.925C36.678 161.925 37.0737 162.025 37.4254 162.226C37.7772 162.427 38.0536 162.713 38.2546 163.084C38.4619 163.448 38.5655 163.878 38.5655 164.374C38.5655 164.871 38.4619 165.304 38.2546 165.675C38.0473 166.039 37.7647 166.322 37.4066 166.523C37.0548 166.724 36.6591 166.824 36.2194 166.824ZM36.2194 166.146C36.4895 166.146 36.7408 166.08 36.9732 165.948C37.2056 165.816 37.394 165.618 37.5385 165.354C37.683 165.091 37.7552 164.764 37.7552 164.374C37.7552 163.985 37.683 163.658 37.5385 163.395C37.4003 163.131 37.215 162.933 36.9826 162.801C36.7502 162.669 36.5021 162.603 36.2383 162.603C35.9681 162.603 35.7169 162.669 35.4845 162.801C35.2521 162.933 35.0636 163.131 34.9191 163.395C34.7747 163.658 34.7024 163.985 34.7024 164.374C34.7024 164.764 34.7747 165.091 34.9191 165.354C35.0636 165.618 35.2489 165.816 35.475 165.948C35.7075 166.08 35.9556 166.146 36.2194 166.146ZM44.4021 166.824C43.9561 166.824 43.5541 166.724 43.196 166.523C42.8443 166.315 42.5648 166.03 42.3575 165.665C42.1565 165.295 42.056 164.864 42.056 164.374C42.056 163.885 42.1565 163.457 42.3575 163.093C42.5648 162.722 42.8443 162.437 43.196 162.236C43.5541 162.028 43.9561 161.925 44.4021 161.925C44.9549 161.925 45.4197 162.069 45.7966 162.358C46.1797 162.647 46.4216 163.033 46.5221 163.517H45.7118C45.649 163.228 45.4951 163.005 45.2501 162.848C45.0051 162.685 44.7193 162.603 44.3927 162.603C44.1288 162.603 43.8807 162.669 43.6483 162.801C43.4159 162.933 43.2275 163.131 43.083 163.395C42.9385 163.658 42.8663 163.985 42.8663 164.374C42.8663 164.764 42.9385 165.091 43.083 165.354C43.2275 165.618 43.4159 165.819 43.6483 165.957C43.8807 166.089 44.1288 166.155 44.3927 166.155C44.7193 166.155 45.0051 166.077 45.2501 165.92C45.4951 165.756 45.649 165.527 45.7118 165.232H46.5221C46.4279 165.703 46.1892 166.086 45.806 166.381C45.4228 166.677 44.9549 166.824 44.4021 166.824ZM47.6745 166.711V162.038H48.3906L48.4566 162.933C48.6011 162.625 48.8209 162.38 49.1161 162.198C49.4114 162.016 49.7757 161.925 50.2091 161.925V162.754H49.9924C49.716 162.754 49.4616 162.804 49.2292 162.905C48.9968 162.999 48.8115 163.162 48.6733 163.395C48.5351 163.627 48.466 163.947 48.466 164.356V166.711H47.6745ZM53.0709 166.824C52.6249 166.824 52.2292 166.724 51.8837 166.523C51.5382 166.315 51.265 166.03 51.064 165.665C50.8692 165.301 50.7719 164.871 50.7719 164.374C50.7719 163.885 50.8692 163.457 51.064 163.093C51.2587 162.722 51.5288 162.437 51.8743 162.236C52.226 162.028 52.6312 161.925 53.0897 161.925C53.542 161.925 53.9315 162.028 54.2581 162.236C54.591 162.437 54.8454 162.704 55.0213 163.037C55.1972 163.369 55.2851 163.727 55.2851 164.111C55.2851 164.18 55.282 164.249 55.2757 164.318C55.2757 164.387 55.2757 164.466 55.2757 164.553H51.5539C51.5728 164.912 51.6544 165.21 51.7989 165.449C51.9497 165.681 52.135 165.857 52.3548 165.976C52.5809 166.096 52.8196 166.155 53.0709 166.155C53.3975 166.155 53.6708 166.08 53.8906 165.929C54.1105 165.778 54.2707 165.574 54.3712 165.317H55.1532C55.0276 165.75 54.7857 166.111 54.4277 166.4C54.0759 166.683 53.6237 166.824 53.0709 166.824ZM53.0709 162.594C52.694 162.594 52.358 162.71 52.0627 162.942C51.7738 163.168 51.6073 163.501 51.5633 163.941H54.5031C54.4842 163.52 54.3398 163.19 54.0697 162.952C53.7996 162.713 53.4666 162.594 53.0709 162.594ZM57.9359 166.824C57.5465 166.824 57.223 166.758 56.9654 166.626C56.7079 166.494 56.5163 166.319 56.3907 166.099C56.2651 165.879 56.2022 165.64 56.2022 165.383C56.2022 164.905 56.3844 164.538 56.7487 164.28C57.1131 164.023 57.6093 163.894 58.2374 163.894H59.5V163.837C59.5 163.429 59.3932 163.121 59.1797 162.914C58.9661 162.7 58.6803 162.594 58.3222 162.594C58.0145 162.594 57.7475 162.672 57.5214 162.829C57.3015 162.98 57.1633 163.203 57.1068 163.498H56.2965C56.3279 163.159 56.4409 162.873 56.6357 162.641C56.8367 162.408 57.0848 162.232 57.38 162.113C57.6753 161.988 57.9893 161.925 58.3222 161.925C58.9755 161.925 59.4655 162.101 59.7921 162.452C60.125 162.798 60.2915 163.26 60.2915 163.837V166.711H59.5848L59.5377 165.873C59.4058 166.136 59.2111 166.363 58.9535 166.551C58.7023 166.733 58.3631 166.824 57.9359 166.824ZM58.0584 166.155C58.3599 166.155 58.6175 166.077 58.831 165.92C59.0509 165.763 59.2174 165.559 59.3304 165.307C59.4435 165.056 59.5 164.792 59.5 164.516V164.506H58.3034C57.8386 164.506 57.5088 164.588 57.3141 164.751C57.1256 164.908 57.0314 165.106 57.0314 165.345C57.0314 165.59 57.1193 165.788 57.2952 165.939C57.4774 166.083 57.7318 166.155 58.0584 166.155ZM63.2439 166.711C62.8167 166.711 62.4807 166.608 62.2357 166.4C61.9907 166.193 61.8682 165.819 61.8682 165.279V162.707H61.0579V162.038H61.8682L61.9719 160.917H62.6597V162.038H64.0353V162.707H62.6597V165.279C62.6597 165.574 62.7194 165.775 62.8387 165.882C62.9581 165.983 63.1685 166.033 63.47 166.033H63.96V166.711H63.2439ZM67.0603 166.824C66.6143 166.824 66.2186 166.724 65.8731 166.523C65.5276 166.315 65.2544 166.03 65.0534 165.665C64.8587 165.301 64.7613 164.871 64.7613 164.374C64.7613 163.885 64.8587 163.457 65.0534 163.093C65.2481 162.722 65.5182 162.437 65.8637 162.236C66.2155 162.028 66.6206 161.925 67.0792 161.925C67.5314 161.925 67.9209 162.028 68.2475 162.236C68.5804 162.437 68.8348 162.704 69.0107 163.037C69.1866 163.369 69.2745 163.727 69.2745 164.111C69.2745 164.18 69.2714 164.249 69.2651 164.318C69.2651 164.387 69.2651 164.466 69.2651 164.553H65.5433C65.5622 164.912 65.6439 165.21 65.7883 165.449C65.9391 165.681 66.1244 165.857 66.3442 165.976C66.5704 166.096 66.8091 166.155 67.0603 166.155C67.387 166.155 67.6602 166.08 67.8801 165.929C68.0999 165.778 68.2601 165.574 68.3606 165.317H69.1426C69.017 165.75 68.7752 166.111 68.4171 166.4C68.0654 166.683 67.6131 166.824 67.0603 166.824ZM67.0603 162.594C66.6834 162.594 66.3474 162.71 66.0521 162.942C65.7632 163.168 65.5967 163.501 65.5528 163.941H68.4925C68.4737 163.52 68.3292 163.19 68.0591 162.952C67.789 162.713 67.4561 162.594 67.0603 162.594ZM72.4907 166.824C72.0259 166.824 71.6176 166.717 71.2658 166.504C70.9203 166.29 70.6502 165.998 70.4555 165.628C70.267 165.257 70.1728 164.836 70.1728 164.365C70.1728 163.894 70.2702 163.476 70.4649 163.112C70.6596 162.741 70.9297 162.452 71.2752 162.245C71.6207 162.031 72.029 161.925 72.5001 161.925C72.8833 161.925 73.2225 162.003 73.5177 162.16C73.8129 162.317 74.0422 162.537 74.2055 162.82V159.927H74.997V166.711H74.2809L74.2055 165.939C74.0548 166.165 73.8381 166.369 73.5554 166.551C73.2727 166.733 72.9178 166.824 72.4907 166.824ZM72.5755 166.136C72.8896 166.136 73.166 166.064 73.4046 165.92C73.6496 165.769 73.8381 165.562 73.97 165.298C74.1082 165.034 74.1773 164.726 74.1773 164.374C74.1773 164.023 74.1082 163.715 73.97 163.451C73.8381 163.187 73.6496 162.983 73.4046 162.839C73.166 162.688 72.8896 162.613 72.5755 162.613C72.2677 162.613 71.9913 162.688 71.7463 162.839C71.5076 162.983 71.3192 163.187 71.181 163.451C71.0491 163.715 70.9831 164.023 70.9831 164.374C70.9831 164.726 71.0491 165.034 71.181 165.298C71.3192 165.562 71.5076 165.769 71.7463 165.92C71.9913 166.064 72.2677 166.136 72.5755 166.136ZM79.3555 161.001C79.1985 161.001 79.0666 160.951 78.9598 160.851C78.8593 160.744 78.809 160.612 78.809 160.455C78.809 160.304 78.8593 160.178 78.9598 160.078C79.0666 159.977 79.1985 159.927 79.3555 159.927C79.5063 159.927 79.635 159.977 79.7418 160.078C79.8486 160.178 79.902 160.304 79.902 160.455C79.902 160.612 79.8486 160.744 79.7418 160.851C79.635 160.951 79.5063 161.001 79.3555 161.001ZM78.9598 166.711V162.038H79.7512V166.711H78.9598ZM83.0232 166.711C82.596 166.711 82.26 166.608 82.015 166.4C81.77 166.193 81.6475 165.819 81.6475 165.279V162.707H80.8372V162.038H81.6475L81.7512 160.917H82.439V162.038H83.8147V162.707H82.439V165.279C82.439 165.574 82.4987 165.775 82.618 165.882C82.7374 165.983 82.9478 166.033 83.2493 166.033H83.7393V166.711H83.0232ZM85.6399 164.864L85.6022 163.347H85.8943C86.2461 163.347 86.5727 163.313 86.8742 163.244C87.182 163.175 87.4301 163.04 87.6186 162.839C87.807 162.638 87.9013 162.336 87.9013 161.934C87.9013 161.545 87.7788 161.237 87.5338 161.011C87.2951 160.785 86.9779 160.672 86.5821 160.672C86.1801 160.672 85.8629 160.781 85.6305 161.001C85.3981 161.221 85.2819 161.516 85.2819 161.887H84.5281C84.5281 161.51 84.6129 161.18 84.7825 160.898C84.9584 160.615 85.2002 160.395 85.508 160.238C85.8158 160.081 86.1738 160.003 86.5821 160.003C86.9904 160.003 87.3516 160.081 87.6657 160.238C87.9798 160.395 88.2247 160.618 88.4006 160.907C88.5765 161.196 88.6645 161.538 88.6645 161.934C88.6645 162.399 88.5639 162.776 88.3629 163.065C88.1682 163.354 87.895 163.564 87.5432 163.696C87.1977 163.828 86.802 163.894 86.356 163.894L86.3277 164.864H85.6399ZM85.9791 166.758C85.8221 166.758 85.6902 166.708 85.5834 166.608C85.4829 166.501 85.4326 166.372 85.4326 166.221C85.4326 166.07 85.4829 165.945 85.5834 165.844C85.6902 165.738 85.8221 165.684 85.9791 165.684C86.1362 165.684 86.2649 165.738 86.3654 165.844C86.4659 165.945 86.5162 166.07 86.5162 166.221C86.5162 166.372 86.4659 166.501 86.3654 166.608C86.2649 166.708 86.1362 166.758 85.9791 166.758Z" fill="#8B9297"/>
<path d="M9.6671 138.378L12.098 131.782H13.191L15.6031 138.378H14.5478L13.9825 136.766H11.2877L10.7224 138.378H9.6671ZM11.5704 135.975H13.6998L12.6351 132.969L11.5704 135.975ZM16.4993 138.378V133.704H17.3944L17.4792 134.59C17.6425 134.282 17.8687 134.04 18.1576 133.864C18.4529 133.682 18.8078 133.591 19.2223 133.591V134.637H18.9491C18.6727 134.637 18.4246 134.684 18.2047 134.778C17.9912 134.866 17.8184 135.02 17.6865 135.24C17.5609 135.454 17.4981 135.752 17.4981 136.135V138.378H16.4993ZM22.0526 138.378C21.5941 138.378 21.2297 138.268 20.9596 138.048C20.6895 137.822 20.5545 137.423 20.5545 136.851V134.543H19.7536V133.704H20.5545L20.677 132.517H21.5532V133.704H22.8723V134.543H21.5532V136.851C21.5532 137.109 21.6066 137.288 21.7134 137.388C21.8265 137.483 22.0181 137.53 22.2882 137.53H22.8252V138.378H22.0526ZM24.4816 132.819C24.2932 132.819 24.1361 132.762 24.0105 132.649C23.8912 132.53 23.8315 132.382 23.8315 132.206C23.8315 132.03 23.8912 131.886 24.0105 131.773C24.1361 131.653 24.2932 131.594 24.4816 131.594C24.6701 131.594 24.824 131.653 24.9433 131.773C25.0689 131.886 25.1318 132.03 25.1318 132.206C25.1318 132.382 25.0689 132.53 24.9433 132.649C24.824 132.762 24.6701 132.819 24.4816 132.819ZM23.9823 138.378V133.704H24.981V138.378H23.9823ZM28.1792 138.491C27.5887 138.491 27.1019 138.346 26.7187 138.057C26.3356 137.768 26.1157 137.385 26.0592 136.908H27.0674C27.1176 137.121 27.237 137.307 27.4254 137.464C27.6139 137.614 27.862 137.69 28.1698 137.69C28.4713 137.69 28.6911 137.627 28.8293 137.501C28.9675 137.376 29.0366 137.231 29.0366 137.068C29.0366 136.829 28.9392 136.669 28.7445 136.587C28.5561 136.5 28.2923 136.421 27.9531 136.352C27.6892 136.295 27.4254 136.22 27.1616 136.126C26.904 136.032 26.6873 135.9 26.5115 135.73C26.3419 135.554 26.2571 135.319 26.2571 135.023C26.2571 134.615 26.4141 134.276 26.7282 134.006C27.0422 133.729 27.4819 133.591 28.0473 133.591C28.5686 133.591 28.9895 133.717 29.3099 133.968C29.6365 134.219 29.8281 134.574 29.8846 135.033H28.9235C28.8921 134.832 28.7979 134.675 28.6409 134.562C28.4901 134.449 28.286 134.392 28.0284 134.392C27.7772 134.392 27.5824 134.445 27.4443 134.552C27.3061 134.653 27.237 134.785 27.237 134.948C27.237 135.111 27.3312 135.24 27.5196 135.334C27.7144 135.429 27.9688 135.513 28.2828 135.589C28.5969 135.658 28.8859 135.739 29.1497 135.834C29.4198 135.922 29.6365 136.054 29.7998 136.229C29.9631 136.405 30.0448 136.663 30.0448 137.002C30.0511 137.429 29.8846 137.784 29.5454 138.067C29.2125 138.349 28.7571 138.491 28.1792 138.491ZM32.9342 138.378C32.4757 138.378 32.1114 138.268 31.8413 138.048C31.5712 137.822 31.4361 137.423 31.4361 136.851V134.543H30.6352V133.704H31.4361L31.5586 132.517H32.4349V133.704H33.754V134.543H32.4349V136.851C32.4349 137.109 32.4883 137.288 32.595 137.388C32.7081 137.483 32.8997 137.53 33.1698 137.53H33.7069V138.378H32.9342ZM36.8643 138.491C36.4057 138.491 35.9974 138.39 35.6394 138.189C35.2876 137.982 35.0112 137.696 34.8102 137.332C34.6092 136.967 34.5087 136.543 34.5087 136.06C34.5087 135.57 34.6061 135.14 34.8008 134.769C35.0018 134.398 35.2782 134.109 35.63 133.902C35.988 133.695 36.4026 133.591 36.8737 133.591C37.3322 133.591 37.7311 133.695 38.0703 133.902C38.4095 134.103 38.6733 134.373 38.8618 134.712C39.0502 135.052 39.1444 135.425 39.1444 135.834C39.1444 135.897 39.1413 135.966 39.135 136.041C39.135 136.11 39.1319 136.189 39.1256 136.277H35.4886C35.52 136.729 35.6676 137.074 35.9315 137.313C36.2016 137.545 36.5125 137.662 36.8643 137.662C37.1469 137.662 37.3825 137.599 37.5709 137.473C37.7657 137.341 37.9101 137.165 38.0044 136.946H39.0031C38.8775 137.385 38.6262 137.753 38.2493 138.048C37.8787 138.343 37.417 138.491 36.8643 138.491ZM36.8643 134.411C36.5313 134.411 36.2361 134.511 35.9786 134.712C35.721 134.907 35.564 135.202 35.5075 135.598H38.1457C38.1268 135.234 37.9981 134.945 37.7594 134.731C37.5207 134.518 37.2223 134.411 36.8643 134.411Z" fill="#00070A"/>
<path d="M41.2658 134.986L41.4165 133.601L40.3047 134.42L39.909 133.742L41.1904 133.205L39.9184 132.687L40.2859 132.027L41.4259 132.847L41.2658 131.452H42.0195L41.8594 132.847L42.99 132.027L43.3481 132.677L42.0761 133.214L43.3575 133.742L42.9712 134.411L41.8594 133.601L42.0101 134.986H41.2658Z" fill="#BA1A1A"/>
</g>
<defs>
<clipPath id="clip0_2637_6344">
<rect width="212" height="471.111" rx="17.6667" fill="white"/>
</clipPath>
<clipPath id="clip1_2637_6344">
<rect width="212" height="28.4889" fill="white"/>
</clipPath>
<clipPath id="clip2_2637_6344">
<rect width="23.5556" height="23.5556" fill="white" transform="translate(9.42212 67.1333)"/>
</clipPath>
<clipPath id="clip3_2637_6344">
<rect x="9.42212" y="67.1333" width="23.5556" height="23.5556" rx="11.7778" fill="white"/>
</clipPath>
<clipPath id="clip4_2637_6344">
<rect x="40.0444" y="67.1333" width="76.2444" height="23.5556" rx="4.71111" fill="white"/>
</clipPath>
</defs>
</svg>
