<svg width="212" height="472" viewBox="0 0 212 472" fill="none" xmlns="http://www.w3.org/2000/svg">
<g clip-path="url(#clip0_2637_6319)">
<rect width="212" height="471.111" rx="17.6667" fill="#F9F9FC"/>
<g clip-path="url(#clip1_2637_6319)">
<rect width="212" height="28.4889" fill="#F0F1F3"/>
<path d="M15.3571 16.4795H15.4376C15.808 16.4795 16.1166 16.4312 16.3635 16.3346C16.6131 16.2353 16.8117 16.0984 16.9593 15.924C17.1069 15.7495 17.2129 15.5442 17.2773 15.3081C17.3417 15.0719 17.3739 14.8156 17.3739 14.5392V13.5287C17.3739 13.2899 17.3484 13.0806 17.2974 12.9008C17.2491 12.7183 17.1793 12.5666 17.0881 12.4459C16.9995 12.3224 16.8962 12.2298 16.7781 12.1681C16.6627 12.1064 16.5379 12.0755 16.4037 12.0755C16.2561 12.0755 16.1233 12.1091 16.0052 12.1761C15.8898 12.2406 15.7919 12.3305 15.7113 12.4459C15.6335 12.5586 15.5731 12.6914 15.5302 12.8444C15.4899 12.9947 15.4698 13.1557 15.4698 13.3275C15.4698 13.4885 15.4886 13.6441 15.5262 13.7944C15.5664 13.942 15.6255 14.0735 15.7033 14.1889C15.7811 14.3043 15.8791 14.3956 15.9972 14.4627C16.1152 14.5298 16.2535 14.5633 16.4118 14.5633C16.5621 14.5633 16.7003 14.5352 16.8264 14.4788C16.9526 14.4198 17.0626 14.3406 17.1565 14.2413C17.2505 14.142 17.3243 14.0306 17.3779 13.9072C17.4316 13.7837 17.4611 13.6576 17.4665 13.5287L17.8369 13.6415C17.8369 13.8454 17.7939 14.0467 17.708 14.2453C17.6248 14.4412 17.5081 14.621 17.3578 14.7847C17.2102 14.9458 17.0371 15.0746 16.8385 15.1712C16.6426 15.2678 16.4292 15.3161 16.1984 15.3161C15.9193 15.3161 15.6724 15.2638 15.4577 15.1591C15.2457 15.0518 15.0686 14.9068 14.9263 14.7244C14.7868 14.5419 14.6821 14.3325 14.6123 14.0964C14.5426 13.8602 14.5077 13.6119 14.5077 13.3516C14.5077 13.0698 14.5506 12.8055 14.6365 12.5586C14.7224 12.3117 14.8472 12.0943 15.0109 11.9064C15.1746 11.7159 15.3732 11.5683 15.6067 11.4636C15.8428 11.3563 16.1099 11.3026 16.4078 11.3026C16.7245 11.3026 17.0022 11.3643 17.2411 11.4878C17.4799 11.6112 17.6812 11.7816 17.8449 11.999C18.0086 12.2164 18.1321 12.4687 18.2153 12.7558C18.2985 13.043 18.3401 13.3516 18.3401 13.6817V14.0239C18.3401 14.3701 18.3092 14.7042 18.2475 15.0263C18.1857 15.3456 18.0851 15.6422 17.9456 15.9159C17.8087 16.187 17.6275 16.4258 17.4021 16.6325C17.1793 16.8365 16.9056 16.9961 16.5809 17.1115C16.2588 17.2243 15.8804 17.2806 15.4456 17.2806H15.3571V16.4795ZM19.4933 16.7613C19.4933 16.611 19.5443 16.4849 19.6463 16.3829C19.7483 16.2782 19.8865 16.2259 20.0609 16.2259C20.2381 16.2259 20.3763 16.2782 20.4756 16.3829C20.5775 16.4849 20.6285 16.611 20.6285 16.7613C20.6285 16.9116 20.5775 17.0377 20.4756 17.1397C20.3763 17.2417 20.2381 17.2927 20.0609 17.2927C19.8865 17.2927 19.7483 17.2417 19.6463 17.1397C19.5443 17.0377 19.4933 16.9116 19.4933 16.7613ZM19.4973 13.3315C19.4973 13.1812 19.5483 13.0551 19.6503 12.9531C19.7523 12.8484 19.8905 12.7961 20.065 12.7961C20.2421 12.7961 20.3803 12.8484 20.4796 12.9531C20.5816 13.0551 20.6326 13.1812 20.6326 13.3315C20.6326 13.4818 20.5816 13.6079 20.4796 13.7099C20.3803 13.8119 20.2421 13.8629 20.065 13.8629C19.8905 13.8629 19.7523 13.8119 19.6503 13.7099C19.5483 13.6079 19.4973 13.4818 19.4973 13.3315ZM22.8204 13.875H23.4001C23.6255 13.875 23.812 13.836 23.9596 13.7582C24.1099 13.6804 24.2213 13.573 24.2938 13.4362C24.3662 13.2993 24.4025 13.1423 24.4025 12.9652C24.4025 12.78 24.3689 12.6216 24.3018 12.4901C24.2374 12.356 24.1381 12.2526 24.0039 12.1802C23.8724 12.1077 23.7047 12.0715 23.5007 12.0715C23.329 12.0715 23.1733 12.1064 23.0338 12.1761C22.8969 12.2432 22.7882 12.3399 22.7077 12.466C22.6272 12.5894 22.5869 12.737 22.5869 12.9088H21.6127C21.6127 12.5975 21.6946 12.3211 21.8583 12.0795C22.022 11.838 22.2447 11.6488 22.5265 11.5119C22.811 11.3724 23.1304 11.3026 23.4846 11.3026C23.863 11.3026 24.1931 11.3657 24.4749 11.4918C24.7594 11.6152 24.9808 11.8004 25.1392 12.0473C25.2975 12.2942 25.3767 12.6002 25.3767 12.9652C25.3767 13.1316 25.3377 13.3006 25.2599 13.4724C25.1821 13.6441 25.0667 13.8011 24.9137 13.9434C24.7607 14.0829 24.5702 14.197 24.3421 14.2856C24.114 14.3714 23.8496 14.4144 23.549 14.4144H22.8204V13.875ZM22.8204 14.6318V14.1004H23.549C23.8926 14.1004 24.1851 14.1406 24.4266 14.2212C24.6708 14.3017 24.8694 14.413 25.0224 14.5553C25.1754 14.6948 25.2868 14.8545 25.3565 15.0343C25.429 15.2141 25.4652 15.4047 25.4652 15.606C25.4652 15.8797 25.4156 16.1239 25.3163 16.3386C25.2197 16.5506 25.0815 16.7304 24.9016 16.8781C24.7218 17.0257 24.5112 17.137 24.2696 17.2122C24.0308 17.2873 23.7704 17.3249 23.4887 17.3249C23.2364 17.3249 22.9948 17.29 22.764 17.2202C22.5332 17.1505 22.3266 17.0471 22.1441 16.9103C21.9616 16.7707 21.8167 16.5976 21.7093 16.391C21.6047 16.1816 21.5523 15.9401 21.5523 15.6663H22.5225C22.5225 15.8408 22.5628 15.9951 22.6433 16.1293C22.7265 16.2608 22.8419 16.3641 22.9895 16.4393C23.1398 16.5144 23.3115 16.552 23.5048 16.552C23.7087 16.552 23.8845 16.5157 24.0321 16.4433C24.1797 16.3708 24.2924 16.2635 24.3703 16.1212C24.4508 15.979 24.491 15.8072 24.491 15.606C24.491 15.3778 24.4467 15.1927 24.3582 15.0504C24.2696 14.9082 24.1435 14.8035 23.9798 14.7364C23.8161 14.6667 23.6228 14.6318 23.4001 14.6318H22.8204ZM30.3502 13.8226V14.7807C30.3502 15.2396 30.3046 15.6315 30.2133 15.9562C30.1248 16.2782 29.996 16.5399 29.8269 16.7412C29.6578 16.9425 29.4552 17.0901 29.219 17.184C28.9855 17.2779 28.7239 17.3249 28.434 17.3249C28.2032 17.3249 27.9885 17.2954 27.7899 17.2363C27.594 17.1773 27.4169 17.0847 27.2586 16.9586C27.1002 16.8324 26.9647 16.6701 26.852 16.4715C26.7419 16.2702 26.6561 16.03 26.5943 15.7509C26.5353 15.4718 26.5058 15.1484 26.5058 14.7807V13.8226C26.5058 13.361 26.5514 12.9719 26.6426 12.6552C26.7339 12.3358 26.864 12.0768 27.0331 11.8783C27.2022 11.677 27.4035 11.5307 27.637 11.4395C27.8731 11.3482 28.1361 11.3026 28.426 11.3026C28.6595 11.3026 28.8742 11.3321 29.0701 11.3912C29.2687 11.4475 29.4458 11.5374 29.6015 11.6609C29.7598 11.7843 29.894 11.9453 30.004 12.1439C30.1167 12.3399 30.2026 12.5774 30.2617 12.8565C30.3207 13.1329 30.3502 13.4549 30.3502 13.8226ZM29.38 14.9176V13.6777C29.38 13.4442 29.3666 13.2389 29.3398 13.0618C29.313 12.882 29.2727 12.7303 29.219 12.6069C29.168 12.4807 29.1036 12.3788 29.0258 12.3009C28.948 12.2204 28.8594 12.1627 28.7601 12.1278C28.6608 12.0903 28.5494 12.0715 28.426 12.0715C28.2757 12.0715 28.1415 12.101 28.0234 12.16C27.9053 12.2164 27.806 12.3076 27.7255 12.4338C27.645 12.5599 27.5833 12.7263 27.5403 12.933C27.5001 13.1369 27.48 13.3852 27.48 13.6777V14.9176C27.48 15.1538 27.4934 15.3617 27.5202 15.5416C27.5471 15.7214 27.5873 15.8757 27.641 16.0045C27.6947 16.1306 27.7591 16.2353 27.8342 16.3185C27.912 16.399 28.0006 16.458 28.0999 16.4956C28.2019 16.5332 28.3133 16.552 28.434 16.552C28.587 16.552 28.7225 16.5225 28.8406 16.4634C28.9587 16.4044 29.058 16.3104 29.1385 16.1816C29.219 16.0501 29.2794 15.8797 29.3197 15.6704C29.3599 15.461 29.38 15.2101 29.38 14.9176Z" fill="#1C1B1F"/>
<path opacity="0.1" d="M173.939 10.073C171.937 10.073 170.185 10.949 168.933 12.3255L173.939 18.4156L178.944 12.3255C177.693 10.949 175.941 10.073 173.939 10.073Z" fill="#1C1B1F"/>
<path d="M187.532 10.073L179.19 18.4156H187.532V10.073Z" fill="#1C1B1F"/>
<path opacity="0.3" d="M194.55 9.82764H192.783V10.711H191.9C191.575 10.711 191.311 11.0076 191.311 11.3735V17.9985C191.311 18.3644 191.575 18.661 191.9 18.661H195.433C195.758 18.661 196.022 18.3644 196.022 17.9985V11.3735C196.022 11.0076 195.758 10.711 195.433 10.711H194.55V9.82764Z" fill="#1C1B1F"/>
<path d="M191.311 14.5388C191.311 14.8823 191.311 17.6992 191.311 18.0427C191.311 18.3842 191.575 18.661 191.9 18.661H195.433C195.758 18.661 196.022 18.3842 196.022 18.0427C196.022 17.6992 196.022 14.8823 196.022 14.5388H191.311Z" fill="#1C1B1F"/>
</g>
<g clip-path="url(#clip2_2637_6319)">
<g clip-path="url(#clip3_2637_6319)">
<rect x="9.42212" y="67.1333" width="23.5556" height="23.5556" rx="11.7778" fill="#00658B"/>
<path d="M16.1972 82.3555V75.7599H17.196L20.5032 80.7254V75.7599H21.5019V82.3555H20.5032L17.196 77.39V82.3555H16.1972ZM22.8548 82.3555V75.7599H26.9911V76.5702H23.8535V78.6525H26.454V79.4534H23.8535V82.3555H22.8548Z" fill="#F9F9FC"/>
</g>
</g>
<rect width="212" height="173.922" transform="translate(0 297.389)" fill="#F9F9FC"/>
<rect width="212" height="9.42222" transform="translate(0 461.967)" fill="#F9F9FC"/>
<rect x="84.8" y="465.5" width="42.4" height="1.17778" rx="0.588889" fill="#1C1B1F"/>
<path fill-rule="evenodd" clip-rule="evenodd" d="M195.975 455.637H194.799V456.781H195.975V455.637ZM192.447 455.637H193.623V456.781H192.447V455.637ZM198.915 460.211H194.211V460.783H198.915V460.211ZM197.151 455.637H198.327V456.781H197.151V455.637ZM195.975 457.924H194.799V459.068H195.975V457.924ZM192.447 457.924H193.623V459.068H192.447V457.924ZM198.327 457.924H197.151V459.068H198.327V457.924ZM199.503 455.637H200.68V456.781H199.503V455.637ZM200.68 457.924H199.503V459.068H200.68V457.924Z" fill="#1C1B1F"/>
<path d="M15.4368 460.101L12.5596 457.228L13.1685 456.619L15.4368 458.892L17.7052 456.619L18.3141 457.228L15.4368 460.101Z" fill="#1C1B1F"/>
<rect x="4.11646" y="324.146" width="17.584" height="23.6699" rx="3.08738" fill="#F9F9FC"/>
<rect x="4.11646" y="324.146" width="17.584" height="23.6699" rx="3.08738" fill="#00658B" fill-opacity="0.05"/>
<path d="M14.1748 340.647V333.841L14.2592 332.743H15.1561V340.647H14.1748ZM10.3389 335.661V335.55C10.3389 335.114 10.3899 334.718 10.4919 334.363C10.5939 334.004 10.7434 333.696 10.9404 333.44C11.1374 333.183 11.3748 332.986 11.6527 332.849C11.9341 332.708 12.2542 332.638 12.613 332.638C12.9718 332.638 13.2866 332.701 13.5574 332.828C13.8318 332.951 14.064 333.132 14.2539 333.371C14.4474 333.607 14.6004 333.892 14.7129 334.226C14.8255 334.56 14.9029 334.938 14.9451 335.36V335.846C14.9064 336.264 14.8308 336.641 14.7182 336.975C14.6057 337.309 14.4526 337.594 14.2592 337.83C14.0692 338.065 13.8353 338.246 13.5574 338.373C13.2831 338.496 12.9647 338.558 12.6024 338.558C12.2507 338.558 11.9341 338.486 11.6527 338.341C11.3748 338.197 11.1374 337.995 10.9404 337.735C10.7469 337.474 10.5974 337.168 10.4919 336.817C10.3899 336.461 10.3389 336.076 10.3389 335.661ZM11.3203 335.55V335.661C11.3203 335.946 11.3502 336.215 11.41 336.468C11.4698 336.718 11.5612 336.94 11.6843 337.133C11.811 337.327 11.9693 337.48 12.1592 337.592C12.3527 337.701 12.5813 337.756 12.8451 337.756C13.1687 337.756 13.4378 337.685 13.6524 337.545C13.8705 337.404 14.0446 337.219 14.1748 336.991C14.3049 336.758 14.4052 336.51 14.4755 336.247V334.975C14.4368 334.782 14.3753 334.593 14.2908 334.411C14.2099 334.228 14.1044 334.064 13.9743 333.92C13.8441 333.772 13.6858 333.656 13.4994 333.572C13.3165 333.484 13.1019 333.44 12.8557 333.44C12.5884 333.44 12.358 333.496 12.1645 333.609C11.971 333.721 11.811 333.876 11.6843 334.073C11.5612 334.266 11.4698 334.49 11.41 334.743C11.3502 334.996 11.3203 335.265 11.3203 335.55Z" fill="#1C1B1F"/>
<rect x="24.8035" y="324.146" width="17.584" height="23.6699" rx="3.08738" fill="#F9F9FC"/>
<rect x="24.8035" y="324.146" width="17.584" height="23.6699" rx="3.08738" fill="#00658B" fill-opacity="0.05"/>
<path d="M31.7224 338.468L33.1892 333.772H33.8329L33.7063 334.706L32.2131 339.481H31.5852L31.7224 338.468ZM30.7357 333.772L31.9862 338.521L32.0759 339.481H31.4164L29.7596 333.772H30.7357ZM35.2364 338.484L36.4288 333.772H37.3997L35.7429 339.481H35.0886L35.2364 338.484ZM33.9754 333.772L35.4105 338.389L35.5741 339.481H34.9515L33.4161 334.696L33.2894 333.772H33.9754Z" fill="#1C1B1F"/>
<rect x="45.4905" y="324.146" width="17.584" height="23.6699" rx="3.08738" fill="#F9F9FC"/>
<rect x="45.4905" y="324.146" width="17.584" height="23.6699" rx="3.08738" fill="#00658B" fill-opacity="0.05"/>
<path d="M54.5305 339.587C54.133 339.587 53.7724 339.52 53.4488 339.386C53.1287 339.249 52.8526 339.057 52.6204 338.811C52.3918 338.565 52.2159 338.273 52.0928 337.935C51.9697 337.598 51.9081 337.228 51.9081 336.827V336.606C51.9081 336.141 51.9767 335.728 52.1139 335.366C52.2511 335 52.4375 334.69 52.6732 334.437C52.9089 334.184 53.1762 333.992 53.4752 333.862C53.7742 333.732 54.0837 333.667 54.4038 333.667C54.8119 333.667 55.1636 333.737 55.4591 333.878C55.7581 334.018 56.0025 334.215 56.1925 334.469C56.3824 334.718 56.5231 335.014 56.6146 335.355C56.706 335.693 56.7518 336.062 56.7518 336.463V336.901H52.4885V336.104H55.7757V336.031C55.7616 335.777 55.7088 335.531 55.6174 335.292C55.5294 335.053 55.3887 334.856 55.1953 334.701C55.0018 334.546 54.738 334.469 54.4038 334.469C54.1822 334.469 53.9782 334.516 53.7918 334.611C53.6053 334.703 53.4453 334.84 53.3116 335.023C53.178 335.206 53.0742 335.429 53.0003 335.693C52.9265 335.957 52.8895 336.261 52.8895 336.606V336.827C52.8895 337.098 52.9265 337.353 53.0003 337.592C53.0777 337.828 53.1885 338.035 53.3327 338.215C53.4805 338.394 53.6581 338.535 53.8656 338.637C54.0767 338.739 54.3159 338.79 54.5832 338.79C54.9279 338.79 55.2199 338.72 55.4591 338.579C55.6983 338.438 55.9076 338.25 56.087 338.014L56.6779 338.484C56.5548 338.67 56.3983 338.848 56.2083 339.017C56.0184 339.186 55.7845 339.323 55.5066 339.428C55.2322 339.534 54.9068 339.587 54.5305 339.587Z" fill="#1C1B1F"/>
<rect x="66.1775" y="324.146" width="17.584" height="23.6699" rx="3.08738" fill="#F9F9FC"/>
<rect x="66.1775" y="324.146" width="17.584" height="23.6699" rx="3.08738" fill="#00658B" fill-opacity="0.05"/>
<path d="M74.8587 334.669V339.481H73.8826V333.772H74.8323L74.8587 334.669ZM76.6421 333.741L76.6368 334.648C76.5559 334.631 76.4785 334.62 76.4046 334.616C76.3343 334.609 76.2534 334.606 76.1619 334.606C75.9368 334.606 75.7381 334.641 75.5657 334.711C75.3933 334.782 75.2474 334.88 75.1278 335.007C75.0082 335.134 74.9132 335.285 74.8429 335.461C74.776 335.633 74.732 335.823 74.7109 336.031L74.4366 336.189C74.4366 335.844 74.47 335.52 74.5368 335.218C74.6072 334.915 74.7145 334.648 74.8587 334.416C75.0029 334.18 75.1858 333.997 75.4074 333.867C75.6325 333.734 75.8999 333.667 76.2094 333.667C76.2798 333.667 76.3607 333.676 76.4521 333.693C76.5436 333.707 76.6069 333.723 76.6421 333.741Z" fill="#1C1B1F"/>
<rect x="86.8645" y="324.146" width="17.584" height="23.6699" rx="3.08738" fill="#F9F9FC"/>
<rect x="86.8645" y="324.146" width="17.584" height="23.6699" rx="3.08738" fill="#00658B" fill-opacity="0.05"/>
<path d="M97.0231 333.772V334.521H93.9364V333.772H97.0231ZM94.9811 332.385H95.9572V338.067C95.9572 338.261 95.9871 338.407 96.0469 338.505C96.1067 338.604 96.1841 338.669 96.2791 338.7C96.3741 338.732 96.4761 338.748 96.5851 338.748C96.666 338.748 96.7504 338.741 96.8384 338.727C96.9298 338.709 96.9984 338.695 97.0442 338.684L97.0494 339.481C96.972 339.506 96.87 339.529 96.7434 339.55C96.6203 339.574 96.4708 339.587 96.2949 339.587C96.0557 339.587 95.8359 339.539 95.6354 339.444C95.4349 339.349 95.2748 339.191 95.1552 338.969C95.0392 338.744 94.9811 338.442 94.9811 338.062V332.385Z" fill="#1C1B1F"/>
<rect x="107.552" y="324.146" width="17.584" height="23.6699" rx="3.08738" fill="#F9F9FC"/>
<rect x="107.552" y="324.146" width="17.584" height="23.6699" rx="3.08738" fill="#00658B" fill-opacity="0.05"/>
<path d="M116.132 338.89L117.721 333.772H118.765L116.475 340.362C116.423 340.503 116.352 340.654 116.264 340.816C116.18 340.981 116.071 341.138 115.937 341.286C115.804 341.433 115.642 341.553 115.452 341.644C115.265 341.739 115.042 341.787 114.782 341.787C114.704 341.787 114.606 341.776 114.486 341.755C114.367 341.734 114.282 341.717 114.233 341.703L114.228 340.911C114.256 340.915 114.3 340.918 114.36 340.922C114.423 340.929 114.467 340.932 114.492 340.932C114.713 340.932 114.901 340.902 115.056 340.842C115.211 340.786 115.341 340.689 115.447 340.552C115.556 340.419 115.649 340.234 115.726 339.998L116.132 338.89ZM114.966 333.772L116.449 338.204L116.702 339.233L116.001 339.592L113.901 333.772H114.966Z" fill="#1C1B1F"/>
<rect x="128.239" y="324.146" width="17.584" height="23.6699" rx="3.08738" fill="#F9F9FC"/>
<rect x="128.239" y="324.146" width="17.584" height="23.6699" rx="3.08738" fill="#00658B" fill-opacity="0.05"/>
<path d="M138.286 338.162V333.772H139.268V339.481H138.334L138.286 338.162ZM138.471 336.959L138.877 336.949C138.877 337.328 138.837 337.68 138.756 338.004C138.678 338.324 138.552 338.602 138.376 338.837C138.2 339.073 137.97 339.258 137.685 339.392C137.4 339.522 137.053 339.587 136.645 339.587C136.367 339.587 136.112 339.546 135.88 339.465C135.652 339.384 135.455 339.26 135.289 339.091C135.124 338.922 134.996 338.702 134.904 338.431C134.816 338.16 134.772 337.835 134.772 337.455V333.772H135.748V337.466C135.748 337.722 135.777 337.935 135.833 338.104C135.893 338.269 135.972 338.401 136.07 338.5C136.172 338.595 136.285 338.662 136.408 338.7C136.535 338.739 136.665 338.758 136.798 338.758C137.213 338.758 137.542 338.679 137.785 338.521C138.028 338.359 138.202 338.143 138.307 337.872C138.416 337.598 138.471 337.293 138.471 336.959Z" fill="#1C1B1F"/>
<rect x="148.926" y="324.146" width="17.584" height="23.6699" rx="3.08738" fill="#F9F9FC"/>
<rect x="148.926" y="324.146" width="17.584" height="23.6699" rx="3.08738" fill="#00658B" fill-opacity="0.05"/>
<path d="M158.208 333.772V339.481H157.227V333.772H158.208ZM157.153 332.258C157.153 332.1 157.2 331.966 157.295 331.857C157.394 331.748 157.538 331.693 157.728 331.693C157.915 331.693 158.057 331.748 158.155 331.857C158.257 331.966 158.308 332.1 158.308 332.258C158.308 332.409 158.257 332.539 158.155 332.648C158.057 332.754 157.915 332.807 157.728 332.807C157.538 332.807 157.394 332.754 157.295 332.648C157.2 332.539 157.153 332.409 157.153 332.258Z" fill="#1C1B1F"/>
<rect x="169.613" y="324.146" width="17.584" height="23.6699" rx="3.08738" fill="#F9F9FC"/>
<rect x="169.613" y="324.146" width="17.584" height="23.6699" rx="3.08738" fill="#00658B" fill-opacity="0.05"/>
<path d="M175.809 336.69V336.569C175.809 336.157 175.868 335.775 175.988 335.424C176.108 335.068 176.28 334.761 176.505 334.5C176.73 334.237 177.003 334.033 177.323 333.888C177.643 333.741 178.002 333.667 178.399 333.667C178.8 333.667 179.161 333.741 179.481 333.888C179.805 334.033 180.079 334.237 180.304 334.5C180.533 334.761 180.707 335.068 180.826 335.424C180.946 335.775 181.006 336.157 181.006 336.569V336.69C181.006 337.102 180.946 337.483 180.826 337.835C180.707 338.187 180.533 338.495 180.304 338.758C180.079 339.019 179.806 339.223 179.486 339.37C179.17 339.515 178.811 339.587 178.41 339.587C178.009 339.587 177.648 339.515 177.328 339.37C177.008 339.223 176.734 339.019 176.505 338.758C176.28 338.495 176.108 338.187 175.988 337.835C175.868 337.483 175.809 337.102 175.809 336.69ZM176.785 336.569V336.69C176.785 336.975 176.818 337.244 176.885 337.497C176.952 337.747 177.052 337.969 177.186 338.162C177.323 338.356 177.494 338.509 177.698 338.621C177.902 338.73 178.139 338.785 178.41 338.785C178.677 338.785 178.911 338.73 179.112 338.621C179.316 338.509 179.484 338.356 179.618 338.162C179.752 337.969 179.852 337.747 179.919 337.497C179.989 337.244 180.024 336.975 180.024 336.69V336.569C180.024 336.287 179.989 336.022 179.919 335.772C179.852 335.519 179.75 335.295 179.613 335.102C179.479 334.905 179.31 334.75 179.106 334.638C178.906 334.525 178.67 334.469 178.399 334.469C178.132 334.469 177.896 334.525 177.692 334.638C177.492 334.75 177.323 334.905 177.186 335.102C177.052 335.295 176.952 335.519 176.885 335.772C176.818 336.022 176.785 336.287 176.785 336.569Z" fill="#1C1B1F"/>
<rect x="190.3" y="324.146" width="17.584" height="23.6699" rx="3.08738" fill="#F9F9FC"/>
<rect x="190.3" y="324.146" width="17.584" height="23.6699" rx="3.08738" fill="#00658B" fill-opacity="0.05"/>
<path d="M197.778 334.87V341.676H196.796V333.772H197.693L197.778 334.87ZM201.624 336.579V336.69C201.624 337.105 201.575 337.49 201.476 337.846C201.378 338.197 201.234 338.503 201.044 338.764C200.857 339.024 200.627 339.226 200.353 339.37C200.078 339.515 199.763 339.587 199.408 339.587C199.046 339.587 198.726 339.527 198.448 339.407C198.17 339.288 197.934 339.114 197.741 338.885C197.547 338.656 197.393 338.382 197.277 338.062C197.164 337.742 197.087 337.381 197.044 336.98V336.389C197.087 335.967 197.166 335.589 197.282 335.255C197.398 334.921 197.551 334.636 197.741 334.4C197.934 334.161 198.168 333.98 198.443 333.857C198.717 333.73 199.034 333.667 199.392 333.667C199.751 333.667 200.069 333.737 200.347 333.878C200.625 334.015 200.859 334.212 201.049 334.469C201.239 334.726 201.381 335.033 201.476 335.392C201.575 335.747 201.624 336.143 201.624 336.579ZM200.643 336.69V336.579C200.643 336.294 200.613 336.027 200.553 335.777C200.493 335.524 200.4 335.302 200.273 335.112C200.15 334.919 199.992 334.768 199.799 334.659C199.605 334.546 199.375 334.49 199.107 334.49C198.861 334.49 198.647 334.532 198.464 334.616C198.284 334.701 198.131 334.815 198.005 334.959C197.878 335.1 197.774 335.262 197.693 335.445C197.616 335.624 197.558 335.811 197.519 336.004V337.371C197.59 337.617 197.688 337.849 197.815 338.067C197.941 338.282 198.11 338.456 198.321 338.59C198.532 338.72 198.798 338.785 199.118 338.785C199.382 338.785 199.609 338.73 199.799 338.621C199.992 338.509 200.15 338.356 200.273 338.162C200.4 337.969 200.493 337.747 200.553 337.497C200.613 337.244 200.643 336.975 200.643 336.69Z" fill="#1C1B1F"/>
<rect x="14.9224" y="353.991" width="17.4951" height="23.6699" rx="3.08738" fill="#F9F9FC"/>
<rect x="14.9224" y="353.991" width="17.4951" height="23.6699" rx="3.08738" fill="#00658B" fill-opacity="0.05"/>
<path d="M24.8413 368.35V365.411C24.8413 365.186 24.7955 364.99 24.7041 364.825C24.6161 364.656 24.4825 364.526 24.3031 364.435C24.1237 364.343 23.9021 364.297 23.6383 364.297C23.392 364.297 23.1757 364.34 22.9893 364.424C22.8064 364.508 22.6622 364.619 22.5566 364.756C22.4546 364.894 22.4036 365.041 22.4036 365.2H21.4275C21.4275 364.996 21.4803 364.793 21.5858 364.593C21.6913 364.392 21.8426 364.211 22.0396 364.049C22.24 363.884 22.4792 363.754 22.7571 363.659C23.0385 363.56 23.3516 363.511 23.6963 363.511C24.1114 363.511 24.4772 363.582 24.7938 363.722C25.1139 363.863 25.3636 364.076 25.543 364.361C25.7259 364.642 25.8174 364.996 25.8174 365.421V368.08C25.8174 368.27 25.8332 368.473 25.8649 368.687C25.9 368.902 25.951 369.086 26.0179 369.241V369.326H24.9995C24.9503 369.213 24.9116 369.064 24.8835 368.877C24.8553 368.687 24.8413 368.511 24.8413 368.35ZM25.0101 365.864L25.0206 366.55H24.034C23.7561 366.55 23.5081 366.573 23.29 366.619C23.0719 366.661 22.889 366.726 22.7413 366.814C22.5936 366.902 22.481 367.013 22.4036 367.147C22.3262 367.277 22.2875 367.43 22.2875 367.606C22.2875 367.785 22.328 367.949 22.4089 368.096C22.4898 368.244 22.6111 368.362 22.773 368.45C22.9383 368.534 23.1405 368.576 23.3797 368.576C23.6787 368.576 23.9425 368.513 24.1712 368.387C24.3998 368.26 24.581 368.105 24.7146 367.922C24.8518 367.739 24.9257 367.562 24.9362 367.389L25.3531 367.859C25.3284 368.007 25.2616 368.17 25.1526 368.35C25.0435 368.529 24.8975 368.701 24.7146 368.867C24.5352 369.028 24.3207 369.164 24.0709 369.273C23.8247 369.378 23.5468 369.431 23.2373 369.431C22.8503 369.431 22.5109 369.356 22.2189 369.204C21.9305 369.053 21.7054 368.851 21.5436 368.598C21.3853 368.341 21.3061 368.054 21.3061 367.738C21.3061 367.431 21.3659 367.162 21.4855 366.93C21.6051 366.695 21.7775 366.499 22.0026 366.345C22.2277 366.186 22.4986 366.067 22.8152 365.986C23.1317 365.905 23.4853 365.864 23.8757 365.864H25.0101Z" fill="#1C1B1F"/>
<rect x="35.5049" y="353.991" width="17.4951" height="23.6699" rx="3.08738" fill="#F9F9FC"/>
<rect x="35.5049" y="353.991" width="17.4951" height="23.6699" rx="3.08738" fill="#00658B" fill-opacity="0.05"/>
<path d="M45.5293 367.811C45.5293 367.671 45.4976 367.541 45.4343 367.421C45.3745 367.298 45.2497 367.187 45.0597 367.089C44.8733 366.987 44.5919 366.899 44.2155 366.825C43.8989 366.758 43.6123 366.679 43.3555 366.587C43.1022 366.496 42.8859 366.385 42.7065 366.255C42.5306 366.125 42.3952 365.972 42.3002 365.796C42.2052 365.62 42.1578 365.414 42.1578 365.179C42.1578 364.953 42.207 364.741 42.3055 364.54C42.4075 364.34 42.55 364.162 42.7329 364.007C42.9193 363.852 43.1427 363.731 43.403 363.643C43.6633 363.555 43.9535 363.511 44.2735 363.511C44.7308 363.511 45.1213 363.592 45.4449 363.754C45.7685 363.916 46.0165 364.132 46.1888 364.403C46.3612 364.67 46.4474 364.967 46.4474 365.295H45.4713C45.4713 365.136 45.4238 364.983 45.3288 364.836C45.2373 364.684 45.1019 364.559 44.9225 364.461C44.7467 364.362 44.5303 364.313 44.2735 364.313C44.0027 364.313 43.7829 364.355 43.614 364.44C43.4487 364.521 43.3273 364.625 43.2499 364.751C43.1761 364.878 43.1391 365.011 43.1391 365.152C43.1391 365.258 43.1567 365.353 43.1919 365.437C43.2306 365.518 43.2974 365.594 43.3924 365.664C43.4874 365.731 43.621 365.794 43.7934 365.854C43.9658 365.914 44.1856 365.973 44.4529 366.033C44.9208 366.139 45.3059 366.265 45.6084 366.413C45.911 366.561 46.1361 366.742 46.2838 366.957C46.4315 367.171 46.5054 367.431 46.5054 367.738C46.5054 367.987 46.4527 368.216 46.3471 368.423C46.2451 368.631 46.0956 368.81 45.8986 368.962C45.7052 369.109 45.473 369.225 45.2022 369.31C44.9348 369.391 44.6341 369.431 44.2999 369.431C43.7969 369.431 43.3713 369.342 43.0231 369.162C42.6748 368.983 42.411 368.751 42.2316 368.466C42.0522 368.181 41.9625 367.88 41.9625 367.563H42.9439C42.958 367.831 43.0354 368.044 43.1761 368.202C43.3168 368.357 43.4891 368.467 43.6932 368.534C43.8972 368.598 44.0994 368.629 44.2999 368.629C44.5673 368.629 44.7906 368.594 44.97 368.524C45.1529 368.453 45.2919 368.357 45.3868 368.233C45.4818 368.11 45.5293 367.97 45.5293 367.811Z" fill="#1C1B1F"/>
<rect x="56.0874" y="353.991" width="17.4951" height="23.6699" rx="3.08738" fill="#F9F9FC"/>
<rect x="56.0874" y="353.991" width="17.4951" height="23.6699" rx="3.08738" fill="#00658B" fill-opacity="0.05"/>
<path d="M66.1276 368.218V361.221H67.109V369.326H66.2121L66.1276 368.218ZM62.2865 366.535V366.424C62.2865 365.988 62.3393 365.592 62.4448 365.237C62.5538 364.878 62.7069 364.57 62.9038 364.313C63.1043 364.056 63.3418 363.859 63.6161 363.722C63.894 363.582 64.2036 363.511 64.5448 363.511C64.9036 363.511 65.2166 363.575 65.4839 363.701C65.7548 363.824 65.9834 364.005 66.1699 364.245C66.3598 364.48 66.5093 364.765 66.6183 365.099C66.7274 365.434 66.803 365.812 66.8452 366.234V366.719C66.8065 367.138 66.7309 367.514 66.6183 367.848C66.5093 368.182 66.3598 368.467 66.1699 368.703C65.9834 368.939 65.7548 369.12 65.4839 369.247C65.2131 369.37 64.8965 369.431 64.5342 369.431C64.2 369.431 63.894 369.359 63.6161 369.215C63.3418 369.071 63.1043 368.868 62.9038 368.608C62.7069 368.348 62.5538 368.042 62.4448 367.69C62.3393 367.335 62.2865 366.95 62.2865 366.535ZM63.2679 366.424V366.535C63.2679 366.819 63.296 367.087 63.3523 367.337C63.4121 367.586 63.5036 367.806 63.6267 367.996C63.7498 368.186 63.9063 368.336 64.0963 368.445C64.2862 368.55 64.5131 368.603 64.7769 368.603C65.1005 368.603 65.3661 368.534 65.5736 368.397C65.7847 368.26 65.9535 368.079 66.0802 367.854C66.2068 367.628 66.3053 367.384 66.3756 367.12V365.849C66.3334 365.655 66.2719 365.469 66.191 365.289C66.1136 365.106 66.0116 364.945 65.8849 364.804C65.7618 364.66 65.6088 364.545 65.4259 364.461C65.2465 364.377 65.0337 364.334 64.7875 364.334C64.5201 364.334 64.2897 364.391 64.0963 364.503C63.9063 364.612 63.7498 364.763 63.6267 364.957C63.5036 365.147 63.4121 365.368 63.3523 365.622C63.296 365.871 63.2679 366.139 63.2679 366.424Z" fill="#1C1B1F"/>
<rect x="76.6699" y="353.991" width="17.4951" height="23.6699" rx="3.08738" fill="#F9F9FC"/>
<rect x="76.6699" y="353.991" width="17.4951" height="23.6699" rx="3.08738" fill="#00658B" fill-opacity="0.05"/>
<path d="M85.7393 369.326H84.7632V363.015C84.7632 362.604 84.8371 362.257 84.9848 361.976C85.1361 361.691 85.3524 361.476 85.6338 361.332C85.9152 361.184 86.2494 361.111 86.6363 361.111C86.7489 361.111 86.8614 361.118 86.974 361.132C87.0901 361.146 87.2026 361.167 87.3117 361.195L87.2589 361.992C87.185 361.974 87.1006 361.962 87.0056 361.955C86.9142 361.948 86.8227 361.944 86.7313 361.944C86.5237 361.944 86.3443 361.986 86.1931 362.071C86.0454 362.152 85.9328 362.271 85.8554 362.43C85.778 362.588 85.7393 362.783 85.7393 363.015V369.326ZM86.9529 363.617V364.366H83.861V363.617H86.9529Z" fill="#1C1B1F"/>
<rect x="97.2524" y="353.991" width="17.4951" height="23.6699" rx="3.08738" fill="#F9F9FC"/>
<rect x="97.2524" y="353.991" width="17.4951" height="23.6699" rx="3.08738" fill="#00658B" fill-opacity="0.05"/>
<path d="M107.409 363.617H108.295V369.204C108.295 369.707 108.193 370.136 107.989 370.492C107.785 370.847 107.5 371.116 107.134 371.299C106.772 371.485 106.354 371.579 105.879 371.579C105.682 371.579 105.45 371.547 105.182 371.484C104.918 371.424 104.658 371.32 104.401 371.172C104.148 371.028 103.935 370.833 103.763 370.587L104.275 370.006C104.514 370.295 104.764 370.495 105.024 370.608C105.288 370.72 105.548 370.777 105.805 370.777C106.114 370.777 106.382 370.719 106.607 370.603C106.832 370.486 107.006 370.314 107.129 370.085C107.256 369.86 107.319 369.582 107.319 369.252V364.873L107.409 363.617ZM103.478 366.535V366.424C103.478 365.988 103.529 365.592 103.631 365.237C103.736 364.878 103.886 364.57 104.079 364.313C104.276 364.056 104.514 363.859 104.792 363.722C105.07 363.582 105.383 363.511 105.731 363.511C106.09 363.511 106.403 363.575 106.67 363.701C106.941 363.824 107.17 364.005 107.356 364.245C107.546 364.48 107.695 364.765 107.804 365.099C107.914 365.434 107.989 365.812 108.031 366.234V366.719C107.993 367.138 107.917 367.514 107.804 367.848C107.695 368.182 107.546 368.467 107.356 368.703C107.17 368.939 106.941 369.12 106.67 369.247C106.399 369.37 106.083 369.431 105.72 369.431C105.379 369.431 105.07 369.359 104.792 369.215C104.517 369.071 104.282 368.868 104.085 368.608C103.888 368.348 103.736 368.042 103.631 367.69C103.529 367.335 103.478 366.95 103.478 366.535ZM104.454 366.424V366.535C104.454 366.819 104.482 367.087 104.538 367.337C104.598 367.586 104.688 367.806 104.808 367.996C104.931 368.186 105.087 368.336 105.277 368.445C105.467 368.55 105.694 368.603 105.958 368.603C106.281 368.603 106.549 368.534 106.76 368.397C106.971 368.26 107.138 368.079 107.261 367.854C107.388 367.628 107.486 367.384 107.557 367.12V365.849C107.518 365.655 107.458 365.469 107.377 365.289C107.3 365.106 107.198 364.945 107.071 364.804C106.948 364.66 106.795 364.545 106.612 364.461C106.429 364.377 106.215 364.334 105.968 364.334C105.701 364.334 105.471 364.391 105.277 364.503C105.087 364.612 104.931 364.763 104.808 364.957C104.688 365.147 104.598 365.368 104.538 365.622C104.482 365.871 104.454 366.139 104.454 366.424Z" fill="#1C1B1F"/>
<rect x="117.835" y="353.991" width="17.4951" height="23.6699" rx="3.08738" fill="#F9F9FC"/>
<rect x="117.835" y="353.991" width="17.4951" height="23.6699" rx="3.08738" fill="#00658B" fill-opacity="0.05"/>
<path d="M125.327 361.221V369.326H124.351V361.221H125.327ZM125.095 366.255L124.688 366.239C124.692 365.849 124.75 365.488 124.862 365.157C124.975 364.823 125.133 364.533 125.337 364.287C125.541 364.041 125.784 363.851 126.065 363.717C126.35 363.58 126.665 363.511 127.01 363.511C127.291 363.511 127.545 363.55 127.77 363.627C127.995 363.701 128.187 363.821 128.345 363.986C128.507 364.151 128.63 364.366 128.714 364.63C128.799 364.89 128.841 365.208 128.841 365.585V369.326H127.859V365.574C127.859 365.275 127.815 365.036 127.727 364.857C127.64 364.674 127.511 364.542 127.342 364.461C127.173 364.377 126.966 364.334 126.72 364.334C126.477 364.334 126.255 364.385 126.055 364.487C125.858 364.589 125.687 364.73 125.543 364.909C125.402 365.089 125.292 365.295 125.211 365.527C125.133 365.755 125.095 365.998 125.095 366.255Z" fill="#1C1B1F"/>
<rect x="138.417" y="353.991" width="17.4951" height="23.6699" rx="3.08738" fill="#F9F9FC"/>
<rect x="138.417" y="353.991" width="17.4951" height="23.6699" rx="3.08738" fill="#00658B" fill-opacity="0.05"/>
<path d="M146.643 363.617H147.624V370.006C147.624 370.355 147.568 370.65 147.455 370.893C147.346 371.135 147.181 371.318 146.959 371.441C146.741 371.568 146.465 371.631 146.131 371.631C146.043 371.631 145.941 371.623 145.825 371.605C145.705 371.587 145.605 371.566 145.524 371.542L145.529 370.756C145.596 370.77 145.672 370.78 145.756 370.787C145.841 370.798 145.915 370.803 145.978 370.803C146.122 370.803 146.243 370.777 146.342 370.724C146.44 370.671 146.514 370.587 146.564 370.471C146.616 370.355 146.643 370.2 146.643 370.006V363.617ZM146.542 362.102C146.542 361.944 146.592 361.81 146.69 361.701C146.789 361.592 146.931 361.538 147.118 361.538C147.307 361.538 147.452 361.592 147.55 361.701C147.649 361.81 147.698 361.944 147.698 362.102C147.698 362.254 147.649 362.384 147.55 362.493C147.452 362.598 147.307 362.651 147.118 362.651C146.931 362.651 146.789 362.598 146.69 362.493C146.592 362.384 146.542 362.254 146.542 362.102Z" fill="#1C1B1F"/>
<rect x="159" y="353.991" width="17.4951" height="23.6699" rx="3.08738" fill="#F9F9FC"/>
<rect x="159" y="353.991" width="17.4951" height="23.6699" rx="3.08738" fill="#00658B" fill-opacity="0.05"/>
<path d="M166.735 361.221V369.326H165.753V361.221H166.735ZM170.222 363.617L167.732 366.281L166.339 367.727L166.26 366.688L167.257 365.495L169.03 363.617H170.222ZM169.33 369.326L167.294 366.603L167.8 365.733L170.481 369.326H169.33Z" fill="#1C1B1F"/>
<rect x="179.583" y="353.991" width="17.4951" height="23.6699" rx="3.08738" fill="#F9F9FC"/>
<rect x="179.583" y="353.991" width="17.4951" height="23.6699" rx="3.08738" fill="#00658B" fill-opacity="0.05"/>
<path d="M188.821 361.221V369.326H187.839V361.221H188.821Z" fill="#1C1B1F"/>
<rect x="4.11646" y="383.835" width="28.301" height="23.6699" rx="3.08738" fill="#D6F4FF"/>
<path fill-rule="evenodd" clip-rule="evenodd" d="M22.2717 396.154C22.7502 396.154 22.9696 395.558 22.6053 395.248L18.2668 391.554L13.9283 395.248C13.564 395.558 13.7834 396.154 14.2619 396.154H15.5653V399.272C15.5653 399.557 15.7957 399.787 16.0799 399.787H20.4537C20.7379 399.787 20.9683 399.557 20.9683 399.272V396.154H22.2717Z" stroke="#49454F" stroke-width="1.02913"/>
<rect x="35.5049" y="383.835" width="17.4951" height="23.6699" rx="3.08738" fill="#F9F9FC"/>
<rect x="35.5049" y="383.835" width="17.4951" height="23.6699" rx="3.08738" fill="#00658B" fill-opacity="0.05"/>
<path d="M46.5687 398.368V399.17H42.4163V398.368H46.5687ZM46.4157 394.153L42.6379 399.17H42.0417V398.453L45.7931 393.461H46.4157V394.153ZM45.9831 393.461V394.269H42.0839V393.461H45.9831Z" fill="#1C1B1F"/>
<rect x="56.0874" y="383.835" width="17.4951" height="23.6699" rx="3.08738" fill="#F9F9FC"/>
<rect x="56.0874" y="383.835" width="17.4951" height="23.6699" rx="3.08738" fill="#00658B" fill-opacity="0.05"/>
<path d="M63.5581 393.461L64.8086 395.54L66.0749 393.461H67.2198L65.352 396.279L67.2779 399.17H66.1488L64.8297 397.028L63.5106 399.17H62.3762L64.2968 396.279L62.4343 393.461H63.5581Z" fill="#1C1B1F"/>
<rect x="76.6699" y="383.835" width="17.4951" height="23.6699" rx="3.08738" fill="#F9F9FC"/>
<rect x="76.6699" y="383.835" width="17.4951" height="23.6699" rx="3.08738" fill="#00658B" fill-opacity="0.05"/>
<path d="M85.618 398.474C85.8501 398.474 86.0647 398.426 86.2617 398.331C86.4587 398.237 86.6205 398.106 86.7471 397.941C86.8737 397.772 86.9458 397.58 86.9634 397.366H87.8921C87.8745 397.704 87.7601 398.018 87.5491 398.31C87.3416 398.599 87.069 398.833 86.7313 399.012C86.3936 399.188 86.0225 399.276 85.618 399.276C85.1888 399.276 84.8142 399.2 84.4941 399.049C84.1776 398.898 83.9137 398.69 83.7027 398.426C83.4952 398.163 83.3386 397.86 83.2331 397.519C83.1311 397.174 83.0801 396.81 83.0801 396.427V396.205C83.0801 395.822 83.1311 395.459 83.2331 395.118C83.3386 394.774 83.4952 394.469 83.7027 394.205C83.9137 393.942 84.1776 393.734 84.4941 393.583C84.8142 393.432 85.1888 393.356 85.618 393.356C86.0647 393.356 86.4551 393.447 86.7893 393.63C87.1235 393.81 87.3855 394.056 87.5755 394.369C87.7689 394.679 87.8745 395.03 87.8921 395.424H86.9634C86.9458 395.189 86.879 394.976 86.7629 394.786C86.6504 394.596 86.4956 394.445 86.2986 394.332C86.1052 394.216 85.8783 394.158 85.618 394.158C85.319 394.158 85.0675 394.218 84.8635 394.337C84.663 394.453 84.5029 394.612 84.3833 394.812C84.2673 395.009 84.1828 395.229 84.1301 395.472C84.0808 395.711 84.0562 395.955 84.0562 396.205V396.427C84.0562 396.676 84.0808 396.923 84.1301 397.165C84.1793 397.408 84.262 397.628 84.3781 397.825C84.4976 398.022 84.6577 398.18 84.8582 398.3C85.0622 398.416 85.3155 398.474 85.618 398.474Z" fill="#1C1B1F"/>
<rect x="97.2524" y="383.835" width="17.4951" height="23.6699" rx="3.08738" fill="#F9F9FC"/>
<rect x="97.2524" y="383.835" width="17.4951" height="23.6699" rx="3.08738" fill="#00658B" fill-opacity="0.05"/>
<path d="M105.863 398.289L107.425 393.461H108.422L106.369 399.17H105.715L105.863 398.289ZM104.56 393.461L106.169 398.316L106.28 399.17H105.625L103.557 393.461H104.56Z" fill="#1C1B1F"/>
<rect x="117.835" y="383.835" width="17.4951" height="23.6699" rx="3.08738" fill="#F9F9FC"/>
<rect x="117.835" y="383.835" width="17.4951" height="23.6699" rx="3.08738" fill="#00658B" fill-opacity="0.05"/>
<path d="M124.287 391.066H125.269V398.062L125.184 399.17H124.287V391.066ZM129.126 396.268V396.379C129.126 396.794 129.076 397.179 128.978 397.535C128.879 397.887 128.735 398.193 128.545 398.453C128.355 398.713 128.123 398.915 127.849 399.06C127.574 399.204 127.26 399.276 126.904 399.276C126.542 399.276 126.224 399.214 125.949 399.091C125.679 398.965 125.45 398.783 125.263 398.548C125.077 398.312 124.928 398.027 124.815 397.693C124.706 397.359 124.63 396.983 124.588 396.564V396.079C124.63 395.656 124.706 395.278 124.815 394.944C124.928 394.61 125.077 394.325 125.263 394.089C125.45 393.85 125.679 393.669 125.949 393.546C126.22 393.419 126.535 393.356 126.894 393.356C127.253 393.356 127.571 393.426 127.849 393.567C128.127 393.704 128.359 393.901 128.545 394.158C128.735 394.415 128.879 394.723 128.978 395.081C129.076 395.437 129.126 395.832 129.126 396.268ZM128.144 396.379V396.268C128.144 395.984 128.118 395.716 128.065 395.466C128.012 395.213 127.928 394.992 127.812 394.802C127.696 394.608 127.543 394.457 127.353 394.348C127.163 394.235 126.929 394.179 126.651 394.179C126.405 394.179 126.19 394.221 126.007 394.306C125.828 394.39 125.675 394.504 125.548 394.649C125.422 394.789 125.318 394.951 125.237 395.134C125.16 395.313 125.102 395.5 125.063 395.693V396.965C125.119 397.211 125.211 397.449 125.337 397.677C125.467 397.902 125.64 398.087 125.854 398.231C126.072 398.375 126.342 398.448 126.662 398.448C126.925 398.448 127.151 398.395 127.337 398.289C127.527 398.18 127.68 398.031 127.796 397.841C127.916 397.651 128.004 397.431 128.06 397.181C128.116 396.932 128.144 396.664 128.144 396.379Z" fill="#1C1B1F"/>
<rect x="138.417" y="383.835" width="17.4951" height="23.6699" rx="3.08738" fill="#F9F9FC"/>
<rect x="138.417" y="383.835" width="17.4951" height="23.6699" rx="3.08738" fill="#00658B" fill-opacity="0.05"/>
<path d="M145.899 394.68V399.17H144.923V393.461H145.846L145.899 394.68ZM145.667 396.1L145.26 396.084C145.264 395.693 145.322 395.333 145.434 395.002C145.547 394.668 145.705 394.378 145.909 394.132C146.113 393.885 146.356 393.695 146.637 393.562C146.922 393.425 147.237 393.356 147.582 393.356C147.863 393.356 148.117 393.395 148.342 393.472C148.567 393.546 148.758 393.665 148.917 393.831C149.079 393.996 149.202 394.211 149.286 394.475C149.371 394.735 149.413 395.053 149.413 395.43V399.17H148.431V395.419C148.431 395.12 148.387 394.881 148.299 394.701C148.212 394.518 148.083 394.387 147.914 394.306C147.745 394.221 147.538 394.179 147.292 394.179C147.049 394.179 146.827 394.23 146.627 394.332C146.43 394.434 146.259 394.575 146.115 394.754C145.974 394.934 145.864 395.139 145.783 395.371C145.705 395.6 145.667 395.843 145.667 396.1Z" fill="#1C1B1F"/>
<rect x="159" y="383.835" width="17.4951" height="23.6699" rx="3.08738" fill="#F9F9FC"/>
<rect x="159" y="383.835" width="17.4951" height="23.6699" rx="3.08738" fill="#00658B" fill-opacity="0.05"/>
<path d="M164.724 394.596V399.17H163.743V393.461H164.671L164.724 394.596ZM164.524 396.1L164.07 396.084C164.074 395.693 164.125 395.333 164.223 395.002C164.321 394.668 164.467 394.378 164.661 394.132C164.854 393.885 165.095 393.695 165.384 393.562C165.672 393.425 166.006 393.356 166.386 393.356C166.654 393.356 166.9 393.395 167.125 393.472C167.35 393.546 167.545 393.664 167.711 393.826C167.876 393.987 168.004 394.195 168.096 394.448C168.187 394.701 168.233 395.007 168.233 395.366V399.17H167.257V395.414C167.257 395.115 167.206 394.876 167.104 394.696C167.005 394.517 166.865 394.387 166.682 394.306C166.499 394.221 166.284 394.179 166.038 394.179C165.75 394.179 165.509 394.23 165.315 394.332C165.122 394.434 164.967 394.575 164.851 394.754C164.735 394.934 164.65 395.139 164.598 395.371C164.548 395.6 164.524 395.843 164.524 396.1ZM168.222 395.561L167.568 395.762C167.572 395.449 167.623 395.148 167.721 394.86C167.823 394.571 167.969 394.314 168.159 394.089C168.353 393.864 168.59 393.687 168.871 393.556C169.153 393.423 169.475 393.356 169.837 393.356C170.143 393.356 170.414 393.396 170.65 393.477C170.889 393.558 171.089 393.683 171.251 393.852C171.416 394.017 171.541 394.23 171.626 394.49C171.71 394.751 171.752 395.06 171.752 395.419V399.17H170.771V395.408C170.771 395.088 170.72 394.84 170.618 394.664C170.519 394.485 170.379 394.36 170.196 394.29C170.016 394.216 169.802 394.179 169.552 394.179C169.337 394.179 169.148 394.216 168.982 394.29C168.817 394.364 168.678 394.466 168.565 394.596C168.453 394.723 168.367 394.868 168.307 395.034C168.251 395.199 168.222 395.375 168.222 395.561Z" fill="#1C1B1F"/>
<rect x="179.583" y="383.835" width="28.301" height="23.6699" rx="3.08738" fill="#D6F4FF"/>
<path fill-rule="evenodd" clip-rule="evenodd" d="M191.442 391.039H198.461C199.264 391.039 199.908 391.673 199.908 392.448V398.893C199.908 399.668 199.264 400.301 198.461 400.301H191.442C190.954 400.301 190.539 400.063 190.267 399.669L187.558 395.668L190.269 391.664C190.538 391.275 190.954 391.039 191.442 391.039ZM198.887 392.447C198.887 392.205 198.694 392.014 198.462 392.014H191.443C191.315 392.014 191.21 392.073 191.125 392.196L188.775 395.668L188.596 395.403V395.933L188.775 395.668L191.122 399.136C191.212 399.265 191.318 399.326 191.443 399.326H198.462C198.694 399.326 198.887 399.136 198.887 398.893V392.447Z" fill="#49454F"/>
<path fill-rule="evenodd" clip-rule="evenodd" d="M197.102 397.221L196.427 397.864L194.716 396.233L193.005 397.864L192.33 397.221L194.041 395.59L192.33 393.958L193.005 393.315L194.716 394.946L196.427 393.315L197.102 393.958L195.391 395.59L197.102 397.221Z" fill="#49454F"/>
<rect x="4.11646" y="413.68" width="28.301" height="23.6699" rx="11.835" fill="#57D1FF"/>
<path d="M12.2894 426.506H11.505C11.5074 426.288 11.5261 426.105 11.5613 425.957C11.5965 425.807 11.6551 425.671 11.7372 425.549C11.8216 425.427 11.933 425.298 12.0713 425.162C12.1792 425.059 12.2765 424.962 12.3633 424.87C12.4501 424.777 12.5192 424.678 12.5708 424.575C12.6224 424.469 12.6482 424.349 12.6482 424.213C12.6482 424.065 12.6236 423.94 12.5743 423.836C12.5251 423.733 12.4524 423.655 12.3563 423.601C12.2625 423.547 12.1452 423.52 12.0045 423.52C11.8873 423.52 11.777 423.543 11.6739 423.59C11.5707 423.635 11.4874 423.705 11.4241 423.801C11.3608 423.895 11.3268 424.019 11.3221 424.174H10.4744C10.4791 423.879 10.5494 423.63 10.6854 423.428C10.8214 423.227 11.0044 423.075 11.2342 422.975C11.464 422.874 11.7208 422.823 12.0045 422.823C12.3187 422.823 12.5872 422.877 12.81 422.985C13.0328 423.091 13.2028 423.245 13.3201 423.449C13.4396 423.651 13.4994 423.895 13.4994 424.181C13.4994 424.387 13.4584 424.575 13.3763 424.744C13.2943 424.91 13.1876 425.066 13.0562 425.212C12.9249 425.355 12.783 425.498 12.6306 425.641C12.4993 425.76 12.4102 425.891 12.3633 426.031C12.3164 426.17 12.2918 426.328 12.2894 426.506ZM11.4347 427.604C11.4347 427.477 11.478 427.37 11.5648 427.283C11.6516 427.194 11.77 427.15 11.9201 427.15C12.0702 427.15 12.1886 427.194 12.2754 427.283C12.3621 427.37 12.4055 427.477 12.4055 427.604C12.4055 427.73 12.3621 427.838 12.2754 427.927C12.1886 428.014 12.0702 428.057 11.9201 428.057C11.77 428.057 11.6516 428.014 11.5648 427.927C11.478 427.838 11.4347 427.73 11.4347 427.604ZM16.4718 422.876V428.015H15.624V423.882L14.3683 424.308V423.608L16.3697 422.876H16.4718ZM21.6847 427.34V428.015H18.2516V427.435L19.9189 425.616C20.1018 425.41 20.2461 425.232 20.3516 425.082C20.4571 424.931 20.531 424.797 20.5732 424.677C20.6177 424.555 20.64 424.437 20.64 424.322C20.64 424.16 20.6095 424.018 20.5486 423.896C20.4899 423.772 20.4032 423.675 20.2883 423.604C20.1734 423.531 20.0338 423.495 19.8697 423.495C19.6797 423.495 19.5203 423.536 19.3913 423.618C19.2623 423.7 19.165 423.814 19.0993 423.959C19.0337 424.102 19.0009 424.267 19.0009 424.452H18.1531C18.1531 424.154 18.2211 423.882 18.3571 423.636C18.4932 423.387 18.6901 423.19 18.9481 423.045C19.206 422.897 19.5168 422.823 19.8802 422.823C20.2226 422.823 20.5134 422.881 20.7526 422.996C20.9918 423.111 21.1735 423.274 21.2978 423.485C21.4244 423.696 21.4877 423.945 21.4877 424.234C21.4877 424.393 21.4619 424.552 21.4104 424.709C21.3588 424.866 21.2849 425.023 21.1887 425.18C21.0949 425.335 20.9836 425.491 20.8546 425.648C20.7256 425.803 20.5837 425.96 20.429 426.119L19.3209 427.34H21.6847ZM23.3415 425.071H23.848C24.045 425.071 24.208 425.037 24.3369 424.969C24.4683 424.901 24.5656 424.807 24.6289 424.688C24.6922 424.568 24.7239 424.431 24.7239 424.276C24.7239 424.114 24.6945 423.976 24.6359 423.861C24.5796 423.744 24.4929 423.653 24.3756 423.59C24.2607 423.527 24.1142 423.495 23.9359 423.495C23.7859 423.495 23.6498 423.526 23.5279 423.587C23.4083 423.645 23.3133 423.73 23.243 423.84C23.1726 423.948 23.1375 424.077 23.1375 424.227H22.2862C22.2862 423.955 22.3577 423.713 22.5008 423.502C22.6438 423.291 22.8385 423.126 23.0847 423.006C23.3333 422.884 23.6123 422.823 23.9219 422.823C24.2525 422.823 24.5409 422.878 24.7872 422.989C25.0357 423.096 25.2292 423.258 25.3676 423.474C25.5059 423.69 25.5751 423.957 25.5751 424.276C25.5751 424.421 25.5411 424.569 25.4731 424.719C25.4051 424.869 25.3042 425.006 25.1706 425.131C25.0369 425.253 24.8704 425.352 24.6711 425.43C24.4718 425.505 24.2408 425.542 23.9781 425.542H23.3415V425.071ZM23.3415 425.732V425.268H23.9781C24.2783 425.268 24.5339 425.303 24.745 425.373C24.9584 425.444 25.1319 425.541 25.2656 425.665C25.3992 425.787 25.4965 425.927 25.5575 426.084C25.6208 426.241 25.6525 426.408 25.6525 426.584C25.6525 426.823 25.6091 427.036 25.5223 427.224C25.4379 427.409 25.3171 427.566 25.16 427.695C25.0029 427.824 24.8188 427.921 24.6078 427.987C24.3991 428.053 24.1716 428.085 23.9254 428.085C23.7049 428.085 23.4939 428.055 23.2922 427.994C23.0906 427.933 22.91 427.843 22.7505 427.723C22.5911 427.601 22.4644 427.45 22.3706 427.269C22.2792 427.087 22.2335 426.875 22.2335 426.636H23.0812C23.0812 426.789 23.1164 426.924 23.1867 427.041C23.2594 427.156 23.3602 427.246 23.4892 427.312C23.6205 427.377 23.7706 427.41 23.9395 427.41C24.1177 427.41 24.2713 427.378 24.4002 427.315C24.5292 427.252 24.6277 427.158 24.6957 427.034C24.7661 426.909 24.8012 426.759 24.8012 426.584C24.8012 426.384 24.7626 426.222 24.6852 426.098C24.6078 425.974 24.4976 425.882 24.3545 425.824C24.2115 425.763 24.0426 425.732 23.848 425.732H23.3415Z" fill="#1D192B"/>
<rect x="35.5049" y="413.68" width="17.4951" height="23.6699" rx="3.08738" fill="#D6F4FF"/>
<path d="M44.817 429.723V430.509C44.817 430.83 44.7361 431.167 44.5743 431.522C44.4125 431.881 44.1856 432.18 43.8937 432.419L43.3397 432.034C43.4522 431.879 43.5472 431.721 43.6246 431.559C43.702 431.401 43.76 431.236 43.7987 431.063C43.8409 430.895 43.862 430.715 43.862 430.525V429.723H44.817Z" fill="#49454F"/>
<path fill-rule="evenodd" clip-rule="evenodd" d="M44.2526 419.444C42.8907 419.444 41.7826 420.552 41.7826 421.913C41.7826 423.275 42.8907 424.383 44.2526 424.383C45.6144 424.383 46.7225 423.275 46.7225 421.913C46.7225 420.552 45.6144 419.444 44.2526 419.444ZM44.2524 425.001C42.55 425.001 41.165 423.616 41.165 421.913C41.165 420.211 42.55 418.826 44.2524 418.826C45.9548 418.826 47.3398 420.211 47.3398 421.913C47.3398 423.616 45.9548 425.001 44.2524 425.001Z" fill="#49454F"/>
<path fill-rule="evenodd" clip-rule="evenodd" d="M43.6303 421.451C43.6303 421.706 43.4229 421.914 43.1671 421.914C42.9112 421.914 42.7039 421.706 42.7039 421.451C42.7039 421.195 42.9112 420.987 43.1671 420.987C43.4229 420.987 43.6303 421.195 43.6303 421.451ZM44.2476 423.662C43.7572 423.662 43.2896 423.451 42.9646 423.084C42.8658 422.972 42.8763 422.801 42.9879 422.702C43.0997 422.604 43.2704 422.614 43.3694 422.726C43.5917 422.977 43.9118 423.121 44.2476 423.121C44.5833 423.121 44.9035 422.977 45.1258 422.726C45.2248 422.614 45.3956 422.604 45.5072 422.702C45.6189 422.801 45.6294 422.972 45.5306 423.084C45.2056 423.451 44.738 423.662 44.2476 423.662ZM45.3285 421.914C45.5843 421.914 45.7917 421.706 45.7917 421.451C45.7917 421.195 45.5843 420.987 45.3285 420.987C45.0726 420.987 44.8653 421.195 44.8653 421.451C44.8653 421.706 45.0726 421.914 45.3285 421.914Z" fill="#49454F"/>
<rect x="56.0874" y="413.68" width="17.4951" height="23.6699" rx="3.08738" fill="#F9F9FC"/>
<rect x="56.0874" y="413.68" width="17.4951" height="23.6699" rx="3.08738" fill="#00658B" fill-opacity="0.05"/>
<path fill-rule="evenodd" clip-rule="evenodd" d="M59.6892 425.515C59.6892 422.675 61.9893 420.369 64.8297 420.369C67.6752 420.369 69.9805 422.675 69.9805 425.515C69.9805 428.355 67.6752 430.661 64.8297 430.661C61.9893 430.661 59.6892 428.355 59.6892 425.515ZM66.8777 423.457H68.3956C67.9016 422.608 67.1144 421.949 66.1676 421.625C66.4763 422.196 66.713 422.814 66.8777 423.457ZM64.8348 421.419C65.2619 422.037 65.5964 422.721 65.8177 423.457H63.852C64.0733 422.721 64.4078 422.037 64.8348 421.419ZM60.7183 425.515C60.7183 425.87 60.7698 426.215 60.8521 426.544H62.5913C62.5502 426.205 62.5193 425.865 62.5193 425.515C62.5193 425.165 62.5502 424.826 62.5913 424.486H60.8521C60.7698 424.815 60.7183 425.16 60.7183 425.515ZM61.2741 427.573H62.792C62.9567 428.216 63.1934 428.834 63.5021 429.405C62.5553 429.081 61.768 428.427 61.2741 427.573ZM61.2741 423.457H62.792C62.9567 422.814 63.1934 422.196 63.5021 421.625C62.5553 421.949 61.768 422.603 61.2741 423.457ZM64.8348 429.611C64.4078 428.993 64.0733 428.309 63.852 427.573H65.8177C65.5964 428.309 65.2619 428.993 64.8348 429.611ZM63.5484 425.515C63.5484 425.865 63.5845 426.205 63.6308 426.544H66.0389C66.0852 426.205 66.1212 425.865 66.1212 425.515C66.1212 425.165 66.0852 424.82 66.0389 424.486H63.6308C63.5845 424.82 63.5484 425.165 63.5484 425.515ZM66.1676 429.405C66.4763 428.834 66.713 428.216 66.8777 427.573H68.3956C67.9016 428.422 67.1144 429.081 66.1676 429.405ZM67.1504 425.515C67.1504 425.865 67.1195 426.205 67.0783 426.544H68.8176C68.8999 426.215 68.9513 425.87 68.9513 425.515C68.9513 425.16 68.8999 424.815 68.8176 424.486H67.0783C67.1195 424.826 67.1504 425.165 67.1504 425.515Z" fill="#1C1B1F"/>
<path fill-rule="evenodd" clip-rule="evenodd" d="M76.6699 416.768C76.6699 415.062 78.0522 413.68 79.7573 413.68H152.825C154.53 413.68 155.913 415.062 155.913 416.768V434.263C155.913 435.968 154.53 437.35 152.825 437.35H128.083H79.7573C78.0522 437.35 76.6699 435.968 76.6699 434.263V416.768Z" fill="#F9F9FC"/>
<path fill-rule="evenodd" clip-rule="evenodd" d="M76.6699 416.768C76.6699 415.062 78.0522 413.68 79.7573 413.68H152.825C154.53 413.68 155.913 415.062 155.913 416.768V434.263C155.913 435.968 154.53 437.35 152.825 437.35H128.083H79.7573C78.0522 437.35 76.6699 435.968 76.6699 434.263V416.768Z" fill="#00658B" fill-opacity="0.05"/>
<rect x="159" y="413.68" width="17.4951" height="23.6699" rx="3.08738" fill="#D6F4FF"/>
<path d="M167.083 428.498C167.083 428.333 167.134 428.194 167.236 428.081C167.341 427.965 167.493 427.907 167.69 427.907C167.887 427.907 168.036 427.965 168.138 428.081C168.244 428.194 168.296 428.333 168.296 428.498C168.296 428.66 168.244 428.797 168.138 428.91C168.036 429.022 167.887 429.078 167.69 429.078C167.493 429.078 167.341 429.022 167.236 428.91C167.134 428.797 167.083 428.66 167.083 428.498Z" fill="#49454F"/>
<rect x="179.583" y="413.68" width="28.301" height="23.6699" rx="11.835" fill="#00658B" fill-opacity="0.8"/>
<path d="M197.335 422.942V425.001H191.073L192.915 423.153L192.189 422.428L189.102 425.515L192.189 428.602L192.915 427.877L191.073 426.03H198.364V422.942H197.335Z" fill="#21005D"/>
<rect x="4.11646" y="302.02" width="13.3786" height="13.3786" rx="6.68932" fill="#57D1FF"/>
<path d="M11.9869 311.797L12.7124 311.071L10.3557 308.709L12.7124 306.347L11.9869 305.622L8.89949 308.709L11.9869 311.797Z" fill="#21005D"/>
<path d="M35.5784 306.137H36.9016V311.429H35.5784V306.137ZM33.3732 306.137H30.7268C30.1976 306.137 29.8447 306.578 29.8447 307.019V310.547C29.8447 310.988 30.1976 311.429 30.7268 311.429H33.3732C33.9024 311.429 34.2553 310.988 34.2553 310.547V308.783H32.9321V310.106H31.1679V307.46H34.2553V307.019C34.2553 306.578 33.9024 306.137 33.3732 306.137ZM42.1942 307.46V306.137H38.2248V311.429H39.5479V309.665H41.3121V308.342H39.5479V307.46H42.1942Z" fill="#1C1B1F"/>
<path d="M72.7749 309.214C72.7955 309.049 72.8109 308.884 72.8109 308.709C72.8109 308.534 72.7955 308.37 72.7749 308.205L73.8606 307.356C73.9584 307.279 73.9841 307.14 73.9223 307.027L72.8932 305.246C72.8315 305.133 72.6925 305.092 72.5793 305.133L71.2981 305.648C71.0305 305.442 70.7423 305.272 70.4285 305.143L70.2329 303.78C70.2175 303.656 70.1094 303.564 69.9808 303.564H67.9225C67.7939 303.564 67.6858 303.656 67.6704 303.78L67.4749 305.143C67.161 305.272 66.8728 305.447 66.6053 305.648L65.324 305.133C65.2056 305.087 65.0719 305.133 65.0101 305.246L63.981 307.027C63.9141 307.14 63.945 307.279 64.0427 307.356L65.1285 308.205C65.1079 308.37 65.0924 308.54 65.0924 308.709C65.0924 308.879 65.1079 309.049 65.1285 309.214L64.0427 310.063C63.945 310.14 63.9192 310.279 63.981 310.392L65.0101 312.172C65.0719 312.286 65.2108 312.327 65.324 312.286L66.6053 311.771C66.8728 311.977 67.161 312.147 67.4749 312.275L67.6704 313.639C67.6858 313.762 67.7939 313.855 67.9225 313.855H69.9808C70.1094 313.855 70.2175 313.762 70.2329 313.639L70.4285 312.275C70.7423 312.147 71.0305 311.972 71.2981 311.771L72.5793 312.286C72.6977 312.332 72.8315 312.286 72.8932 312.172L73.9223 310.392C73.9841 310.279 73.9584 310.14 73.8606 310.063L72.7749 309.214ZM68.9517 310.51C67.9586 310.51 67.1507 309.702 67.1507 308.709C67.1507 307.716 67.9586 306.908 68.9517 306.908C69.9448 306.908 70.7526 307.716 70.7526 308.709C70.7526 309.702 69.9448 310.51 68.9517 310.51Z" fill="#1C1B1F"/>
<path d="M105.794 305.288H101.336L100.906 303.821H97.973C97.4353 303.821 96.9954 304.261 96.9954 304.799V311.154C96.9954 311.691 97.4353 312.131 97.973 312.131H101.395L101.884 313.598H105.794C106.332 313.598 106.772 313.158 106.772 312.62V306.265C106.772 305.728 106.332 305.288 105.794 305.288ZM99.5226 309.975C98.4228 309.975 97.5233 309.081 97.5233 307.976C97.5233 306.871 98.4179 305.977 99.5226 305.977C100.031 305.977 100.495 306.158 100.862 306.5L100.896 306.529L100.295 307.106L100.266 307.082C100.124 306.95 99.8844 306.793 99.5226 306.793C98.8823 306.793 98.3592 307.326 98.3592 307.976C98.3592 308.626 98.8823 309.159 99.5226 309.159C100.192 309.159 100.481 308.734 100.559 308.445H99.4786V307.688H101.41L101.414 307.722C101.434 307.825 101.439 307.917 101.439 308.02C101.439 309.169 100.652 309.975 99.5226 309.975ZM102.47 309.14C102.632 309.433 102.832 309.716 103.052 309.971L102.788 310.23L102.47 309.14ZM102.847 308.768H102.363L102.211 308.26H104.162C104.162 308.26 103.995 308.9 103.399 309.599C103.145 309.296 102.964 308.998 102.847 308.768ZM106.283 312.62C106.283 312.889 106.063 313.109 105.794 313.109H102.373L103.35 312.131L102.954 310.777L103.404 310.327L104.714 311.642L105.071 311.286L103.746 309.975C104.186 309.472 104.528 308.876 104.685 308.26H105.306V307.751H103.526V307.243H103.018V307.751H102.06L101.483 305.776H105.794C106.063 305.776 106.283 305.996 106.283 306.265V312.62Z" fill="#1C1B1F"/>
<path d="M139.575 310.613V305.616C139.575 304.694 138.831 303.95 137.909 303.95H131.722C130.8 303.95 130.056 304.694 130.056 305.616V311.803C130.056 312.725 130.8 313.469 131.722 313.469H136.72L139.575 310.613ZM131.722 312.517C131.328 312.517 131.008 312.197 131.008 311.803V305.616C131.008 305.222 131.328 304.902 131.722 304.902H137.909C138.303 304.902 138.623 305.222 138.623 305.616V310.137H137.909C136.988 310.137 136.244 310.882 136.244 311.803V312.517H131.722ZM133.751 307.654C133.626 307.212 133.167 306.953 132.726 307.078C132.284 307.204 132.025 307.662 132.15 308.108C132.185 308.229 132.245 308.337 132.323 308.428L133.768 308.021C133.79 307.9 133.786 307.775 133.751 307.654ZM136.728 306.814C136.607 306.373 136.144 306.113 135.703 306.239C135.261 306.364 135.002 306.823 135.127 307.269C135.162 307.39 135.222 307.498 135.3 307.589L136.745 307.182C136.767 307.061 136.763 306.935 136.728 306.814ZM137.152 308.303L132.566 309.596C133.184 310.414 134.257 310.812 135.3 310.518C136.343 310.224 137.048 309.32 137.152 308.303Z" fill="#1C1B1F"/>
<path fill-rule="evenodd" clip-rule="evenodd" d="M170.835 307.68C170.269 307.68 169.806 308.144 169.806 308.71C169.806 309.276 170.269 309.739 170.835 309.739C171.401 309.739 171.864 309.276 171.864 308.71C171.864 308.144 171.401 307.68 170.835 307.68ZM177.01 307.68C176.444 307.68 175.981 308.144 175.981 308.71C175.981 309.276 176.444 309.739 177.01 309.739C177.576 309.739 178.039 309.276 178.039 308.71C178.039 308.144 177.576 307.68 177.01 307.68ZM172.893 308.71C172.893 308.144 173.356 307.68 173.922 307.68C174.488 307.68 174.952 308.144 174.952 308.71C174.952 309.276 174.488 309.739 173.922 309.739C173.356 309.739 172.893 309.276 172.893 308.71Z" fill="#1C1B1F"/>
<path fill-rule="evenodd" clip-rule="evenodd" d="M203.253 308.452C203.253 309.306 202.563 309.996 201.709 309.996C200.855 309.996 200.165 309.306 200.165 308.452V305.365C200.165 304.511 200.855 303.821 201.709 303.821C202.563 303.821 203.253 304.511 203.253 305.365V308.452ZM201.709 311.025C203.129 311.025 204.282 309.872 204.282 308.452H205.311C205.311 310.269 203.968 311.761 202.223 312.013V313.598H201.194V312.013C199.45 311.761 198.107 310.269 198.107 308.452H199.136C199.136 309.872 200.289 311.025 201.709 311.025Z" fill="#1C1B1F"/>
<rect x="154.369" y="302.535" width="0.514563" height="12.3495" fill="#EBF9FF"/>
<g clip-path="url(#clip4_2637_6319)">
<path d="M57.2189 79.7252H55.6932V78.9241H57.2189C57.4845 78.9241 57.6992 78.8812 57.863 78.7953C58.0267 78.7094 58.1461 78.5913 58.2212 78.4411C58.2991 78.2881 58.338 78.1136 58.338 77.9177C58.338 77.7326 58.2991 77.5595 58.2212 77.3984C58.1461 77.2347 58.0267 77.1032 57.863 77.0039C57.6992 76.9046 57.4845 76.855 57.2189 76.855H56.0031V81.9111H54.9927V76.0498H57.2189C57.6724 76.0498 58.0575 76.1304 58.3742 76.2914C58.6936 76.4497 58.9364 76.6698 59.1028 76.9516C59.2692 77.2307 59.3524 77.5501 59.3524 77.9097C59.3524 78.2881 59.2692 78.6128 59.1028 78.8839C58.9364 79.1549 58.6936 79.3629 58.3742 79.5078C58.0575 79.6528 57.6724 79.7252 57.2189 79.7252ZM62.8411 80.8846V77.5554H63.8153V81.9111H62.8975L62.8411 80.8846ZM62.978 79.9788L63.3041 79.9708C63.3041 80.2633 63.2719 80.533 63.2075 80.7799C63.1431 81.0242 63.0438 81.2375 62.9096 81.42C62.7754 81.5998 62.6036 81.7407 62.3943 81.8427C62.185 81.942 61.934 81.9916 61.6415 81.9916C61.4295 81.9916 61.2349 81.9608 61.0578 81.8991C60.8807 81.8373 60.7277 81.7421 60.5989 81.6132C60.4727 81.4844 60.3748 81.3167 60.305 81.11C60.2352 80.9034 60.2003 80.6565 60.2003 80.3693V77.5554H61.1705V80.3774C61.1705 80.5357 61.1893 80.6686 61.2269 80.7759C61.2644 80.8806 61.3154 80.9651 61.3798 81.0295C61.4442 81.0939 61.5194 81.1396 61.6053 81.1664C61.6912 81.1932 61.7824 81.2067 61.879 81.2067C62.1554 81.2067 62.3728 81.153 62.5312 81.0456C62.6922 80.9356 62.8062 80.788 62.8733 80.6028C62.9431 80.4176 62.978 80.2096 62.978 79.9788ZM65.8307 78.4853V81.9111H64.8605V77.5554H65.7743L65.8307 78.4853ZM65.6576 79.5723L65.3436 79.5682C65.3463 79.2596 65.3892 78.9765 65.4724 78.7188C65.5583 78.4612 65.6764 78.2398 65.8266 78.0546C65.9796 77.8694 66.1621 77.7272 66.3741 77.6279C66.5861 77.5259 66.8223 77.4749 67.0826 77.4749C67.292 77.4749 67.4812 77.5044 67.6502 77.5635C67.822 77.6198 67.9683 77.7124 68.089 77.8412C68.2125 77.9701 68.3064 78.1378 68.3708 78.3444C68.4352 78.5484 68.4674 78.7993 68.4674 79.0972V81.9111H67.4932V79.0932C67.4932 78.8839 67.4624 78.7188 67.4007 78.5981C67.3416 78.4746 67.2544 78.3874 67.139 78.3364C67.0263 78.2827 66.8854 78.2559 66.7163 78.2559C66.5499 78.2559 66.401 78.2908 66.2695 78.3605C66.138 78.4303 66.0266 78.5256 65.9353 78.6464C65.8468 78.7671 65.7783 78.9067 65.73 79.065C65.6817 79.2234 65.6576 79.3924 65.6576 79.5723Z" fill="#00658B"/>
<path d="M85.0779 77.7334L88.0223 80.6778L90.9668 77.7334H85.0779Z" fill="#00658B"/>
</g>
<rect x="40.3389" y="67.4277" width="75.6556" height="22.9667" rx="4.41667" stroke="#C0C7CD" stroke-width="0.588889"/>
<path d="M187.098 49.1111V43.7522H188.973C189.392 43.7522 189.739 43.8236 190.015 43.9666C190.29 44.1044 190.494 44.2957 190.627 44.5407C190.765 44.7806 190.834 45.0536 190.834 45.3599C190.834 45.6508 190.767 45.9187 190.635 46.1637C190.507 46.4036 190.305 46.595 190.03 46.7379C189.754 46.8808 189.402 46.9522 188.973 46.9522H187.909V49.1111H187.098ZM187.909 46.2862H188.935C189.318 46.2862 189.591 46.2045 189.754 46.0412C189.923 45.8728 190.007 45.6457 190.007 45.3599C190.007 45.0638 189.923 44.8342 189.754 44.6709C189.591 44.5024 189.318 44.4182 188.935 44.4182H187.909V46.2862ZM193.268 49.203C192.905 49.203 192.579 49.1213 192.288 48.958C192.002 48.7896 191.775 48.5573 191.606 48.2613C191.438 47.9602 191.354 47.6106 191.354 47.2125C191.354 46.8144 191.438 46.4674 191.606 46.1714C191.78 45.8702 192.012 45.638 192.303 45.4747C192.594 45.3063 192.918 45.2221 193.275 45.2221C193.638 45.2221 193.962 45.3063 194.248 45.4747C194.538 45.638 194.768 45.8702 194.937 46.1714C195.11 46.4674 195.197 46.8144 195.197 47.2125C195.197 47.6106 195.11 47.9602 194.937 48.2613C194.768 48.5573 194.538 48.7896 194.248 48.958C193.957 49.1213 193.63 49.203 193.268 49.203ZM193.268 48.5063C193.462 48.5063 193.64 48.4578 193.804 48.3608C193.972 48.2639 194.107 48.121 194.209 47.9321C194.311 47.7382 194.362 47.4983 194.362 47.2125C194.362 46.9267 194.311 46.6894 194.209 46.5005C194.112 46.3066 193.98 46.1611 193.811 46.0642C193.648 45.9672 193.469 45.9187 193.275 45.9187C193.081 45.9187 192.9 45.9672 192.732 46.0642C192.568 46.1611 192.436 46.3066 192.334 46.5005C192.232 46.6894 192.181 46.9267 192.181 47.2125C192.181 47.4983 192.232 47.7382 192.334 47.9321C192.436 48.121 192.568 48.2639 192.732 48.3608C192.895 48.4578 193.074 48.5063 193.268 48.5063ZM197.686 49.203C197.206 49.203 196.811 49.0856 196.499 48.8508C196.188 48.616 196.009 48.3047 195.963 47.9168H196.783C196.823 48.0903 196.92 48.2409 197.073 48.3685C197.227 48.491 197.428 48.5522 197.678 48.5522C197.923 48.5522 198.102 48.5012 198.214 48.3991C198.326 48.297 198.383 48.1797 198.383 48.047C198.383 47.853 198.303 47.7229 198.145 47.6565C197.992 47.5851 197.778 47.5213 197.502 47.4651C197.288 47.4192 197.073 47.358 196.859 47.2814C196.65 47.2049 196.474 47.0977 196.331 46.9599C196.193 46.817 196.124 46.6256 196.124 46.3857C196.124 46.054 196.252 45.7784 196.507 45.5589C196.762 45.3343 197.119 45.2221 197.579 45.2221C198.002 45.2221 198.344 45.3241 198.605 45.5283C198.87 45.7324 199.026 46.0208 199.072 46.3934H198.291C198.265 46.23 198.189 46.1025 198.061 46.0106C197.939 45.9187 197.773 45.8728 197.563 45.8728C197.359 45.8728 197.201 45.9162 197.089 46.0029C196.977 46.0846 196.92 46.1918 196.92 46.3245C196.92 46.4572 196.997 46.5618 197.15 46.6383C197.308 46.7149 197.515 46.7838 197.77 46.845C198.025 46.9012 198.26 46.9675 198.474 47.0441C198.694 47.1155 198.87 47.2227 199.003 47.3656C199.135 47.5085 199.202 47.7178 199.202 47.9934C199.207 48.3404 199.072 48.6288 198.796 48.8585C198.525 49.0881 198.155 49.203 197.686 49.203ZM201.634 49.1111C201.261 49.1111 200.965 49.0218 200.746 48.8431C200.526 48.6594 200.416 48.3353 200.416 47.8709V45.9953H199.766V45.3139H200.416L200.516 44.3493H201.228V45.3139H202.3V45.9953H201.228V47.8709C201.228 48.0801 201.271 48.2256 201.358 48.3073C201.45 48.3838 201.606 48.4221 201.825 48.4221H202.261V49.1111H201.634Z" fill="#00658B"/>
<path d="M12.5364 49.203C12.0056 49.203 11.5463 49.0881 11.1584 48.8585C10.7756 48.6237 10.4796 48.2996 10.2703 47.8862C10.0611 47.4677 9.95645 46.9854 9.95645 46.4393C9.95645 45.8881 10.0611 45.4058 10.2703 44.9924C10.4796 44.5739 10.7756 44.2473 11.1584 44.0125C11.5463 43.7777 12.0056 43.6603 12.5364 43.6603C13.1641 43.6603 13.6771 43.8134 14.0751 44.1197C14.4732 44.4259 14.7259 44.8546 14.833 45.4058H13.9297C13.8582 45.0945 13.7051 44.8469 13.4704 44.6632C13.2356 44.4795 12.9217 44.3876 12.5287 44.3876C11.9928 44.3876 11.5692 44.5713 11.2579 44.9388C10.9466 45.3012 10.7909 45.8013 10.7909 46.4393C10.7909 47.0722 10.9466 47.5698 11.2579 47.9321C11.5692 48.2945 11.9928 48.4757 12.5287 48.4757C12.9217 48.4757 13.2356 48.3889 13.4704 48.2154C13.7051 48.0419 13.8582 47.8045 13.9297 47.5034H14.833C14.7259 48.0342 14.4732 48.4502 14.0751 48.7513C13.6771 49.0524 13.1641 49.203 12.5364 49.203ZM17.0762 49.203C16.7547 49.203 16.4893 49.1494 16.2801 49.0422C16.0708 48.935 15.9151 48.7947 15.8131 48.6211C15.711 48.4425 15.66 48.2486 15.66 48.0393C15.66 47.6718 15.8029 47.3809 16.0887 47.1666C16.3745 46.9522 16.7828 46.845 17.3136 46.845H18.3088V46.7761C18.3088 46.4801 18.2271 46.2581 18.0638 46.1101C17.9056 45.9621 17.6989 45.8881 17.4437 45.8881C17.2191 45.8881 17.0226 45.9442 16.8542 46.0565C16.6909 46.1637 16.5914 46.3245 16.5557 46.5388H15.7442C15.7697 46.2632 15.8616 46.0284 16.0198 45.8345C16.1831 45.6355 16.3872 45.4849 16.6322 45.3828C16.8823 45.2757 17.1553 45.2221 17.4514 45.2221C17.9821 45.2221 18.393 45.3624 18.6839 45.6431C18.9748 45.9187 19.1203 46.2964 19.1203 46.7761V49.1111H18.416L18.3471 48.4604C18.2399 48.6696 18.0842 48.8457 17.8801 48.9886C17.6759 49.1315 17.408 49.203 17.0762 49.203ZM17.237 48.5446C17.4565 48.5446 17.6402 48.4935 17.7882 48.3915C17.9413 48.2843 18.0587 48.1439 18.1404 47.9704C18.2271 47.7969 18.2807 47.6055 18.3011 47.3962H17.3978C17.0762 47.3962 16.8466 47.4524 16.7088 47.5647C16.5761 47.6769 16.5097 47.8173 16.5097 47.9857C16.5097 48.1592 16.5735 48.297 16.7011 48.3991C16.8338 48.4961 17.0124 48.5446 17.237 48.5446ZM20.1621 49.1111V45.3139H20.8818L20.943 45.98C21.0604 45.7452 21.2314 45.5615 21.4559 45.4288C21.6856 45.291 21.9484 45.2221 22.2445 45.2221C22.7038 45.2221 23.0636 45.365 23.3239 45.6508C23.5893 45.9366 23.722 46.3627 23.722 46.9293V49.1111H22.9181V47.0135C22.9181 46.2785 22.617 45.9111 22.0148 45.9111C21.7137 45.9111 21.4636 46.0182 21.2645 46.2326C21.0706 46.447 20.9736 46.7532 20.9736 47.1513V49.1111H20.1621ZM26.5725 49.203C26.1999 49.203 25.8656 49.1187 25.5696 48.9503C25.2787 48.7819 25.049 48.5497 24.8806 48.2537C24.7173 47.9525 24.6356 47.6055 24.6356 47.2125C24.6356 46.8195 24.7173 46.475 24.8806 46.179C25.049 45.8779 25.2787 45.6431 25.5696 45.4747C25.8656 45.3063 26.1999 45.2221 26.5725 45.2221C27.042 45.2221 27.435 45.3446 27.7514 45.5895C28.073 45.8345 28.2797 46.1662 28.3715 46.5848H27.5218C27.4707 46.3755 27.3584 46.2122 27.1849 46.0948C27.0114 45.9774 26.8072 45.9187 26.5725 45.9187C26.3734 45.9187 26.1897 45.9698 26.0213 46.0718C25.8529 46.1688 25.7176 46.3143 25.6155 46.5082C25.5135 46.697 25.4624 46.9318 25.4624 47.2125C25.4624 47.4932 25.5135 47.7305 25.6155 47.9245C25.7176 48.1133 25.8529 48.2588 26.0213 48.3608C26.1897 48.4629 26.3734 48.514 26.5725 48.514C26.8072 48.514 27.0114 48.4553 27.1849 48.3379C27.3584 48.2205 27.4707 48.0546 27.5218 47.8403H28.3715C28.2848 48.2486 28.0806 48.5777 27.7591 48.8278C27.4376 49.0779 27.042 49.203 26.5725 49.203ZM31.1234 49.203C30.7508 49.203 30.4191 49.1213 30.1282 48.958C29.8424 48.7896 29.6178 48.5573 29.4545 48.2613C29.2912 47.9653 29.2095 47.6208 29.2095 47.2278C29.2095 46.8297 29.2886 46.4801 29.4468 46.179C29.6102 45.8779 29.8347 45.6431 30.1205 45.4747C30.4114 45.3063 30.7483 45.2221 31.1311 45.2221C31.5036 45.2221 31.8277 45.3063 32.1033 45.4747C32.3789 45.638 32.5933 45.8575 32.7464 46.1331C32.8995 46.4087 32.9761 46.7123 32.9761 47.0441C32.9761 47.0951 32.9735 47.1513 32.9684 47.2125C32.9684 47.2686 32.9658 47.3324 32.9607 47.4039H30.0057C30.0312 47.7714 30.1512 48.0521 30.3655 48.246C30.585 48.4348 30.8376 48.5293 31.1234 48.5293C31.3531 48.5293 31.5445 48.4782 31.6976 48.3762C31.8558 48.269 31.9732 48.1261 32.0497 47.9474H32.8612C32.7591 48.3047 32.555 48.6033 32.2488 48.8431C31.9477 49.083 31.5725 49.203 31.1234 49.203ZM31.1234 45.8881C30.8529 45.8881 30.613 45.9698 30.4038 46.1331C30.1945 46.2913 30.0669 46.5312 30.021 46.8527H32.1646C32.1493 46.5567 32.0446 46.3219 31.8507 46.1484C31.6567 45.9749 31.4143 45.8881 31.1234 45.8881ZM33.9137 49.1111V43.5991H34.7252V49.1111H33.9137Z" fill="#00070A"/>
<path d="M12.9555 111.58C12.3399 111.58 11.7997 111.438 11.3348 111.156C10.87 110.867 10.5088 110.468 10.2513 109.959C9.99373 109.444 9.86496 108.85 9.86496 108.178C9.86496 107.506 9.99373 106.912 10.2513 106.397C10.5151 105.882 10.8857 105.48 11.3631 105.191C11.8468 104.902 12.4152 104.758 13.0685 104.758C13.8097 104.758 14.4253 104.937 14.9153 105.295C15.4115 105.653 15.7319 106.146 15.8763 106.774H14.9624C14.8744 106.379 14.664 106.064 14.3311 105.832C14.0045 105.6 13.5836 105.483 13.0685 105.483C12.5848 105.483 12.164 105.593 11.8059 105.813C11.4479 106.027 11.1684 106.335 10.9674 106.737C10.7726 107.139 10.6753 107.619 10.6753 108.178C10.6753 108.737 10.7726 109.218 10.9674 109.62C11.1621 110.022 11.4322 110.333 11.7777 110.553C12.1232 110.766 12.5252 110.873 12.9837 110.873C13.6872 110.873 14.218 110.669 14.5761 110.261C14.9341 109.846 15.1383 109.281 15.1885 108.565H13.2852V107.943H15.9988V111.467H15.2733L15.2074 110.383C14.9687 110.766 14.6766 111.061 14.3311 111.269C13.9856 111.476 13.5271 111.58 12.9555 111.58ZM19.3799 111.58C18.9402 111.58 18.5444 111.479 18.1927 111.278C17.8409 111.077 17.5614 110.794 17.3541 110.43C17.1531 110.06 17.0526 109.626 17.0526 109.13C17.0526 108.634 17.1562 108.203 17.3635 107.839C17.5708 107.468 17.8503 107.183 18.2021 106.982C18.5601 106.781 18.959 106.68 19.3987 106.68C19.8384 106.68 20.2341 106.781 20.5859 106.982C20.9377 107.183 21.2141 107.468 21.4151 107.839C21.6224 108.203 21.726 108.634 21.726 109.13C21.726 109.626 21.6224 110.06 21.4151 110.43C21.2078 110.794 20.9251 111.077 20.5671 111.278C20.2153 111.479 19.8196 111.58 19.3799 111.58ZM19.3799 110.901C19.65 110.901 19.9012 110.835 20.1336 110.703C20.3661 110.571 20.5545 110.374 20.699 110.11C20.8434 109.846 20.9157 109.519 20.9157 109.13C20.9157 108.74 20.8434 108.414 20.699 108.15C20.5608 107.886 20.3755 107.688 20.1431 107.556C19.9106 107.424 19.6625 107.358 19.3987 107.358C19.1286 107.358 18.8773 107.424 18.6449 107.556C18.4125 107.688 18.2241 107.886 18.0796 108.15C17.9351 108.414 17.8629 108.74 17.8629 109.13C17.8629 109.519 17.9351 109.846 18.0796 110.11C18.2241 110.374 18.4094 110.571 18.6355 110.703C18.8679 110.835 19.116 110.901 19.3799 110.901ZM24.5363 111.467C24.1092 111.467 23.7731 111.363 23.5281 111.156C23.2832 110.948 23.1607 110.575 23.1607 110.034V107.462H22.3504V106.793H23.1607L23.2643 105.672H23.9521V106.793H25.3278V107.462H23.9521V110.034C23.9521 110.33 24.0118 110.531 24.1312 110.637C24.2505 110.738 24.4609 110.788 24.7625 110.788H25.2524V111.467H24.5363ZM28.9211 111.467V106.793H29.6372L29.6937 107.472C29.8445 107.22 30.0455 107.026 30.2968 106.887C30.548 106.749 30.8307 106.68 31.1448 106.68C31.5154 106.68 31.8326 106.755 32.0964 106.906C32.3665 107.057 32.5738 107.286 32.7183 107.594C32.8816 107.311 33.1046 107.088 33.3872 106.925C33.6762 106.762 33.9871 106.68 34.32 106.68C34.8791 106.68 35.3251 106.85 35.658 107.189C35.9909 107.522 36.1574 108.037 36.1574 108.734V111.467H35.3753V108.819C35.3753 108.335 35.278 107.971 35.0832 107.726C34.8885 107.481 34.609 107.358 34.2447 107.358C33.8678 107.358 33.5537 107.506 33.3024 107.801C33.0575 108.09 32.935 108.505 32.935 109.045V111.467H32.1435V108.819C32.1435 108.335 32.0462 107.971 31.8514 107.726C31.6567 107.481 31.3772 107.358 31.0128 107.358C30.6422 107.358 30.3313 107.506 30.08 107.801C29.8351 108.09 29.7126 108.505 29.7126 109.045V111.467H28.9211ZM39.4979 111.58C39.0519 111.58 38.6561 111.479 38.3107 111.278C37.9652 111.071 37.6919 110.785 37.4909 110.421C37.2962 110.056 37.1988 109.626 37.1988 109.13C37.1988 108.64 37.2962 108.213 37.4909 107.848C37.6856 107.478 37.9557 107.192 38.3012 106.991C38.653 106.784 39.0581 106.68 39.5167 106.68C39.969 106.68 40.3584 106.784 40.6851 106.991C41.018 107.192 41.2724 107.459 41.4483 107.792C41.6241 108.125 41.7121 108.483 41.7121 108.866C41.7121 108.935 41.7089 109.004 41.7027 109.073C41.7027 109.142 41.7027 109.221 41.7027 109.309H37.9809C37.9997 109.667 38.0814 109.965 38.2259 110.204C38.3766 110.436 38.5619 110.612 38.7818 110.732C39.0079 110.851 39.2466 110.911 39.4979 110.911C39.8245 110.911 40.0977 110.835 40.3176 110.685C40.5374 110.534 40.6976 110.33 40.7981 110.072H41.5802C41.4545 110.505 41.2127 110.867 40.8547 111.156C40.5029 111.438 40.0506 111.58 39.4979 111.58ZM39.4979 107.349C39.121 107.349 38.7849 107.465 38.4897 107.698C38.2007 107.924 38.0343 108.257 37.9903 108.696H40.93C40.9112 108.276 40.7667 107.946 40.4966 107.707C40.2265 107.468 39.8936 107.349 39.4979 107.349ZM47.8458 111.58C47.4626 111.58 47.1203 111.501 46.8188 111.344C46.5235 111.187 46.2974 110.967 46.1404 110.685L46.065 111.467H45.3489V104.683H46.1404V107.566C46.2911 107.34 46.5047 107.135 46.7811 106.953C47.0638 106.771 47.4218 106.68 47.8552 106.68C48.32 106.68 48.7252 106.787 49.0707 107C49.4162 107.214 49.6831 107.506 49.8716 107.877C50.0663 108.247 50.1637 108.668 50.1637 109.139C50.1637 109.61 50.0663 110.031 49.8716 110.402C49.6831 110.766 49.413 111.055 49.0613 111.269C48.7158 111.476 48.3106 111.58 47.8458 111.58ZM47.761 110.892C48.0751 110.892 48.3515 110.82 48.5902 110.675C48.8288 110.524 49.0173 110.317 49.1555 110.053C49.2937 109.789 49.3628 109.482 49.3628 109.13C49.3628 108.778 49.2937 108.47 49.1555 108.206C49.0173 107.943 48.8288 107.738 48.5902 107.594C48.3515 107.443 48.0751 107.368 47.761 107.368C47.4469 107.368 47.1705 107.443 46.9318 107.594C46.6931 107.738 46.5047 107.943 46.3665 108.206C46.2283 108.47 46.1592 108.778 46.1592 109.13C46.1592 109.482 46.2283 109.789 46.3665 110.053C46.5047 110.317 46.6931 110.524 46.9318 110.675C47.1705 110.82 47.4469 110.892 47.761 110.892ZM51.3125 111.467V104.683H52.104V111.467H51.3125ZM55.1538 111.58C54.601 111.58 54.1613 111.413 53.8346 111.08C53.508 110.741 53.3447 110.223 53.3447 109.526V106.793H54.1362V109.441C54.1362 110.414 54.535 110.901 55.3328 110.901C55.7411 110.901 56.0771 110.757 56.341 110.468C56.6111 110.173 56.7461 109.755 56.7461 109.215V106.793H57.5376V111.467H56.8215L56.765 110.628C56.6205 110.923 56.4038 111.156 56.1148 111.325C55.8322 111.495 55.5118 111.58 55.1538 111.58ZM60.9886 111.58C60.5426 111.58 60.1469 111.479 59.8014 111.278C59.4559 111.071 59.1827 110.785 58.9817 110.421C58.787 110.056 58.6896 109.626 58.6896 109.13C58.6896 108.64 58.787 108.213 58.9817 107.848C59.1764 107.478 59.4465 107.192 59.792 106.991C60.1438 106.784 60.5489 106.68 61.0075 106.68C61.4597 106.68 61.8492 106.784 62.1758 106.991C62.5087 107.192 62.7631 107.459 62.939 107.792C63.1149 108.125 63.2028 108.483 63.2028 108.866C63.2028 108.935 63.1997 109.004 63.1934 109.073C63.1934 109.142 63.1934 109.221 63.1934 109.309H59.4716C59.4905 109.667 59.5721 109.965 59.7166 110.204C59.8674 110.436 60.0527 110.612 60.2725 110.732C60.4987 110.851 60.7374 110.911 60.9886 110.911C61.3153 110.911 61.5885 110.835 61.8083 110.685C62.0282 110.534 62.1884 110.33 62.2889 110.072H63.0709C62.9453 110.505 62.7035 110.867 62.3454 111.156C61.9937 111.438 61.5414 111.58 60.9886 111.58ZM60.9886 107.349C60.6117 107.349 60.2757 107.465 59.9804 107.698C59.6915 107.924 59.525 108.257 59.4811 108.696H62.4208C62.4019 108.276 62.2575 107.946 61.9874 107.707C61.7173 107.468 61.3843 107.349 60.9886 107.349ZM69.3366 111.58C68.9534 111.58 68.611 111.501 68.3095 111.344C68.0143 111.187 67.7882 110.967 67.6311 110.685L67.5558 111.467H66.8397V104.683H67.6311V107.566C67.7819 107.34 67.9955 107.135 68.2718 106.953C68.5545 106.771 68.9126 106.68 69.346 106.68C69.8108 106.68 70.216 106.787 70.5614 107C70.9069 107.214 71.1739 107.506 71.3623 107.877C71.5571 108.247 71.6544 108.668 71.6544 109.139C71.6544 109.61 71.5571 110.031 71.3623 110.402C71.1739 110.766 70.9038 111.055 70.552 111.269C70.2065 111.476 69.8014 111.58 69.3366 111.58ZM69.2518 110.892C69.5658 110.892 69.8422 110.82 70.0809 110.675C70.3196 110.524 70.5081 110.317 70.6462 110.053C70.7844 109.789 70.8535 109.482 70.8535 109.13C70.8535 108.778 70.7844 108.47 70.6462 108.206C70.5081 107.943 70.3196 107.738 70.0809 107.594C69.8422 107.443 69.5658 107.368 69.2518 107.368C68.9377 107.368 68.6613 107.443 68.4226 107.594C68.1839 107.738 67.9955 107.943 67.8573 108.206C67.7191 108.47 67.65 108.778 67.65 109.13C67.65 109.482 67.7191 109.789 67.8573 110.053C67.9955 110.317 68.1839 110.524 68.4226 110.675C68.6613 110.82 68.9377 110.892 69.2518 110.892ZM73.2838 105.757C73.1268 105.757 72.9949 105.706 72.8881 105.606C72.7876 105.499 72.7373 105.367 72.7373 105.21C72.7373 105.059 72.7876 104.934 72.8881 104.833C72.9949 104.733 73.1268 104.683 73.2838 104.683C73.4346 104.683 73.5633 104.733 73.6701 104.833C73.7769 104.934 73.8303 105.059 73.8303 105.21C73.8303 105.367 73.7769 105.499 73.6701 105.606C73.5633 105.706 73.4346 105.757 73.2838 105.757ZM72.8881 111.467V106.793H73.6795V111.467H72.8881ZM75.1047 111.467V106.793H75.8208L75.8679 107.632C76.0187 107.336 76.2354 107.104 76.5181 106.934C76.8007 106.765 77.1211 106.68 77.4791 106.68C78.0319 106.68 78.4716 106.85 78.7982 107.189C79.1312 107.522 79.2976 108.037 79.2976 108.734V111.467H78.5061V108.819C78.5061 107.845 78.1041 107.358 77.3001 107.358C76.8981 107.358 76.562 107.506 76.2919 107.801C76.0281 108.09 75.8962 108.505 75.8962 109.045V111.467H75.1047ZM82.0985 111.58C81.7091 111.58 81.3856 111.514 81.128 111.382C80.8705 111.25 80.6789 111.074 80.5533 110.854C80.4276 110.634 80.3648 110.396 80.3648 110.138C80.3648 109.661 80.547 109.293 80.9113 109.036C81.2756 108.778 81.7719 108.649 82.4 108.649H83.6626V108.593C83.6626 108.184 83.5558 107.877 83.3422 107.669C83.1287 107.456 82.8429 107.349 82.4848 107.349C82.177 107.349 81.9101 107.428 81.6839 107.585C81.4641 107.735 81.3259 107.958 81.2694 108.254H80.459C80.4905 107.914 80.6035 107.629 80.7982 107.396C80.9993 107.164 81.2474 106.988 81.5426 106.869C81.8378 106.743 82.1519 106.68 82.4848 106.68C83.1381 106.68 83.6281 106.856 83.9547 107.208C84.2876 107.553 84.4541 108.015 84.4541 108.593V111.467H83.7474L83.7003 110.628C83.5684 110.892 83.3737 111.118 83.1161 111.306C82.8649 111.489 82.5257 111.58 82.0985 111.58ZM82.221 110.911C82.5225 110.911 82.7801 110.832 82.9936 110.675C83.2135 110.518 83.3799 110.314 83.493 110.063C83.6061 109.811 83.6626 109.548 83.6626 109.271V109.262H82.466C82.0012 109.262 81.6714 109.343 81.4766 109.507C81.2882 109.664 81.194 109.862 81.194 110.1C81.194 110.345 81.2819 110.543 81.4578 110.694C81.64 110.838 81.8944 110.911 82.221 110.911ZM90.076 111.467C89.6488 111.467 89.3128 111.363 89.0678 111.156C88.8228 110.948 88.7003 110.575 88.7003 110.034V107.462H87.89V106.793H88.7003L88.804 105.672H89.4918V106.793H90.8674V107.462H89.4918V110.034C89.4918 110.33 89.5515 110.531 89.6708 110.637C89.7902 110.738 90.0006 110.788 90.3021 110.788H90.7921V111.467H90.076ZM91.9201 111.467V104.683H92.7115V107.594C92.8686 107.305 93.0916 107.082 93.3805 106.925C93.6695 106.762 93.9835 106.68 94.3227 106.68C94.863 106.68 95.2964 106.85 95.623 107.189C95.9496 107.522 96.113 108.037 96.113 108.734V111.467H95.3309V108.819C95.3309 107.845 94.9383 107.358 94.1531 107.358C93.7448 107.358 93.4025 107.506 93.1261 107.801C92.8497 108.09 92.7115 108.505 92.7115 109.045V111.467H91.9201ZM99.0646 111.58C98.5119 111.58 98.0721 111.413 97.7455 111.08C97.4189 110.741 97.2556 110.223 97.2556 109.526V106.793H98.047V109.441C98.047 110.414 98.4459 110.901 99.2436 110.901C99.6519 110.901 99.988 110.757 100.252 110.468C100.522 110.173 100.657 109.755 100.657 109.215V106.793H101.448V111.467H100.732L100.676 110.628C100.531 110.923 100.315 111.156 100.026 111.325C99.743 111.495 99.4227 111.58 99.0646 111.58ZM102.798 111.467V106.793H103.514L103.58 107.688C103.725 107.38 103.945 107.135 104.24 106.953C104.535 106.771 104.899 106.68 105.333 106.68V107.509H105.116C104.84 107.509 104.585 107.559 104.353 107.66C104.121 107.754 103.935 107.918 103.797 108.15C103.659 108.382 103.59 108.703 103.59 109.111V111.467H102.798ZM107.823 111.58C107.434 111.58 107.11 111.514 106.853 111.382C106.595 111.25 106.403 111.074 106.278 110.854C106.152 110.634 106.089 110.396 106.089 110.138C106.089 109.661 106.271 109.293 106.636 109.036C107 108.778 107.496 108.649 108.125 108.649H109.387V108.593C109.387 108.184 109.28 107.877 109.067 107.669C108.853 107.456 108.567 107.349 108.209 107.349C107.902 107.349 107.635 107.428 107.408 107.585C107.189 107.735 107.05 107.958 106.994 108.254H106.184C106.215 107.914 106.328 107.629 106.523 107.396C106.724 107.164 106.972 106.988 107.267 106.869C107.562 106.743 107.876 106.68 108.209 106.68C108.863 106.68 109.353 106.856 109.679 107.208C110.012 107.553 110.179 108.015 110.179 108.593V111.467H109.472L109.425 110.628C109.293 110.892 109.098 111.118 108.841 111.306C108.589 111.489 108.25 111.58 107.823 111.58ZM107.946 110.911C108.247 110.911 108.505 110.832 108.718 110.675C108.938 110.518 109.104 110.314 109.218 110.063C109.331 109.811 109.387 109.548 109.387 109.271V109.262H108.19C107.726 109.262 107.396 109.343 107.201 109.507C107.013 109.664 106.918 109.862 106.918 110.1C106.918 110.345 107.006 110.543 107.182 110.694C107.364 110.838 107.619 110.911 107.946 110.911ZM111.784 113.539L112.943 111.014H112.67L110.813 106.793H111.671L113.216 110.43L114.855 106.793H115.675L112.613 113.539H111.784ZM117.818 111.58C117.428 111.58 117.105 111.514 116.847 111.382C116.59 111.25 116.398 111.074 116.273 110.854C116.147 110.634 116.084 110.396 116.084 110.138C116.084 109.661 116.266 109.293 116.631 109.036C116.995 108.778 117.491 108.649 118.119 108.649H119.382V108.593C119.382 108.184 119.275 107.877 119.062 107.669C118.848 107.456 118.562 107.349 118.204 107.349C117.896 107.349 117.629 107.428 117.403 107.585C117.184 107.735 117.045 107.958 116.989 108.254H116.178C116.21 107.914 116.323 107.629 116.518 107.396C116.719 107.164 116.967 106.988 117.262 106.869C117.557 106.743 117.871 106.68 118.204 106.68C118.858 106.68 119.347 106.856 119.674 107.208C120.007 107.553 120.173 108.015 120.173 108.593V111.467H119.467L119.42 110.628C119.288 110.892 119.093 111.118 118.836 111.306C118.584 111.489 118.245 111.58 117.818 111.58ZM117.94 110.911C118.242 110.911 118.499 110.832 118.713 110.675C118.933 110.518 119.099 110.314 119.212 110.063C119.325 109.811 119.382 109.548 119.382 109.271V109.262H118.185C117.721 109.262 117.391 109.343 117.196 109.507C117.008 109.664 116.913 109.862 116.913 110.1C116.913 110.345 117.001 110.543 117.177 110.694C117.359 110.838 117.614 110.911 117.94 110.911ZM121.681 111.514C121.524 111.514 121.392 111.463 121.285 111.363C121.185 111.256 121.135 111.127 121.135 110.977C121.135 110.826 121.185 110.7 121.285 110.6C121.392 110.493 121.524 110.44 121.681 110.44C121.832 110.44 121.958 110.493 122.058 110.6C122.165 110.7 122.218 110.826 122.218 110.977C122.218 111.127 122.165 111.256 122.058 111.363C121.958 111.463 121.832 111.514 121.681 111.514ZM123.569 111.514C123.412 111.514 123.28 111.463 123.173 111.363C123.072 111.256 123.022 111.127 123.022 110.977C123.022 110.826 123.072 110.7 123.173 110.6C123.28 110.493 123.412 110.44 123.569 110.44C123.719 110.44 123.845 110.493 123.945 110.6C124.052 110.7 124.106 110.826 124.106 110.977C124.106 111.127 124.052 111.256 123.945 111.363C123.845 111.463 123.719 111.514 123.569 111.514ZM125.456 111.514C125.299 111.514 125.167 111.463 125.06 111.363C124.96 111.256 124.909 111.127 124.909 110.977C124.909 110.826 124.96 110.7 125.06 110.6C125.167 110.493 125.299 110.44 125.456 110.44C125.607 110.44 125.732 110.493 125.833 110.6C125.94 110.7 125.993 110.826 125.993 110.977C125.993 111.127 125.94 111.256 125.833 111.363C125.732 111.463 125.607 111.514 125.456 111.514ZM126.439 112.588L126.985 110.505H127.805L126.985 112.588H126.439Z" fill="#1C1B1F"/>
<path d="M128.422 103.755V113.178" stroke="#00658B" stroke-width="0.588889" stroke-linecap="square"/>
<path d="M9.71656 151.933C9.71656 149.494 11.694 147.517 14.1332 147.517H197.867C200.306 147.517 202.283 149.494 202.283 151.933V175.489C202.283 177.928 200.306 179.905 197.867 179.905H14.1332C11.694 179.905 9.71656 177.928 9.71656 175.489V151.933Z" stroke="#00070A" stroke-width="0.588889"/>
<path d="M19.5415 166.711V160.116H20.4649L22.8393 164.714L25.1948 160.116H26.1276V166.711H25.3361V161.529L23.1313 165.769H22.5377L20.3329 161.538V166.711H19.5415ZM29.0738 166.824C28.6843 166.824 28.3608 166.758 28.1033 166.626C27.8457 166.494 27.6541 166.319 27.5285 166.099C27.4029 165.879 27.3401 165.64 27.3401 165.383C27.3401 164.905 27.5222 164.538 27.8866 164.28C28.2509 164.023 28.7471 163.894 29.3753 163.894H30.6378V163.837C30.6378 163.429 30.5311 163.121 30.3175 162.914C30.1039 162.7 29.8181 162.594 29.4601 162.594C29.1523 162.594 28.8853 162.672 28.6592 162.829C28.4393 162.98 28.3011 163.203 28.2446 163.498H27.4343C27.4657 163.159 27.5788 162.873 27.7735 162.641C27.9745 162.408 28.2226 162.232 28.5178 162.113C28.8131 161.988 29.1271 161.925 29.4601 161.925C30.1133 161.925 30.6033 162.101 30.9299 162.452C31.2629 162.798 31.4293 163.26 31.4293 163.837V166.711H30.7226L30.6755 165.873C30.5436 166.136 30.3489 166.363 30.0914 166.551C29.8401 166.733 29.5009 166.824 29.0738 166.824ZM29.1962 166.155C29.4978 166.155 29.7553 166.077 29.9689 165.92C30.1887 165.763 30.3552 165.559 30.4682 165.307C30.5813 165.056 30.6378 164.792 30.6378 164.516V164.506H29.4412C28.9764 164.506 28.6466 164.588 28.4519 164.751C28.2634 164.908 28.1692 165.106 28.1692 165.345C28.1692 165.59 28.2572 165.788 28.433 165.939C28.6152 166.083 28.8696 166.155 29.1962 166.155ZM33.0345 168.784L34.1935 166.259H33.9202L32.0641 162.038H32.9215L34.4667 165.675L36.1062 162.038H36.9259L33.8637 168.784H33.0345ZM39.4962 166.824C39.0565 166.824 38.6608 166.724 38.309 166.523C37.9572 166.322 37.6777 166.039 37.4704 165.675C37.2694 165.304 37.1689 164.871 37.1689 164.374C37.1689 163.878 37.2726 163.448 37.4798 163.084C37.6871 162.713 37.9667 162.427 38.3184 162.226C38.6765 162.025 39.0753 161.925 39.515 161.925C39.9548 161.925 40.3505 162.025 40.7022 162.226C41.054 162.427 41.3304 162.713 41.5314 163.084C41.7387 163.448 41.8423 163.878 41.8423 164.374C41.8423 164.871 41.7387 165.304 41.5314 165.675C41.3241 166.039 41.0414 166.322 40.6834 166.523C40.3316 166.724 39.9359 166.824 39.4962 166.824ZM39.4962 166.146C39.7663 166.146 40.0176 166.08 40.25 165.948C40.4824 165.816 40.6708 165.618 40.8153 165.354C40.9598 165.091 41.032 164.764 41.032 164.374C41.032 163.985 40.9598 163.658 40.8153 163.395C40.6771 163.131 40.4918 162.933 40.2594 162.801C40.027 162.669 39.7789 162.603 39.515 162.603C39.2449 162.603 38.9937 162.669 38.7613 162.801C38.5289 162.933 38.3404 163.131 38.1959 163.395C38.0515 163.658 37.9792 163.985 37.9792 164.374C37.9792 164.764 38.0515 165.091 38.1959 165.354C38.3404 165.618 38.5257 165.816 38.7518 165.948C38.9843 166.08 39.2324 166.146 39.4962 166.146ZM42.9899 166.711V162.038H43.706L43.772 162.933C43.9165 162.625 44.1363 162.38 44.4315 162.198C44.7268 162.016 45.0911 161.925 45.5245 161.925V162.754H45.3078C45.0314 162.754 44.777 162.804 44.5446 162.905C44.3122 162.999 44.1269 163.162 43.9887 163.395C43.8505 163.627 43.7814 163.947 43.7814 164.356V166.711H42.9899ZM46.46 166.711V159.927H47.2514V164.007L49.1641 162.038H50.1346L48.0617 164.148L50.3985 166.711H49.3903L47.2514 164.29V166.711H46.46ZM52.9604 166.824C52.4076 166.824 51.9679 166.658 51.6413 166.325C51.3147 165.986 51.1513 165.467 51.1513 164.77V162.038H51.9428V164.685C51.9428 165.659 52.3417 166.146 53.1394 166.146C53.5477 166.146 53.8838 166.001 54.1476 165.712C54.4177 165.417 54.5528 164.999 54.5528 164.459V162.038H55.3442V166.711H54.6281L54.5716 165.873C54.4271 166.168 54.2104 166.4 53.9215 166.57C53.6388 166.739 53.3185 166.824 52.9604 166.824ZM56.6941 166.711V162.038H57.4102L57.4573 162.876C57.6081 162.581 57.8248 162.349 58.1074 162.179C58.3901 162.009 58.7105 161.925 59.0685 161.925C59.6213 161.925 60.061 162.094 60.3876 162.433C60.7205 162.766 60.887 163.281 60.887 163.979V166.711H60.0955V164.064C60.0955 163.09 59.6935 162.603 58.8895 162.603C58.4875 162.603 58.1514 162.751 57.8813 163.046C57.6175 163.335 57.4856 163.749 57.4856 164.29V166.711H56.6941Z" fill="#00070A"/>
<path d="M9.6671 138.378L12.098 131.782H13.191L15.6031 138.378H14.5478L13.9825 136.766H11.2877L10.7224 138.378H9.6671ZM11.5704 135.975H13.6998L12.6351 132.969L11.5704 135.975ZM16.4993 138.378V133.704H17.3944L17.4792 134.59C17.6425 134.282 17.8687 134.04 18.1576 133.864C18.4529 133.682 18.8078 133.591 19.2223 133.591V134.637H18.9491C18.6727 134.637 18.4246 134.684 18.2047 134.778C17.9912 134.866 17.8184 135.02 17.6865 135.24C17.5609 135.454 17.4981 135.752 17.4981 136.135V138.378H16.4993ZM22.0526 138.378C21.5941 138.378 21.2297 138.268 20.9596 138.048C20.6895 137.822 20.5545 137.423 20.5545 136.851V134.543H19.7536V133.704H20.5545L20.677 132.517H21.5532V133.704H22.8723V134.543H21.5532V136.851C21.5532 137.109 21.6066 137.288 21.7134 137.388C21.8265 137.483 22.0181 137.53 22.2882 137.53H22.8252V138.378H22.0526ZM24.4816 132.819C24.2932 132.819 24.1361 132.762 24.0105 132.649C23.8912 132.53 23.8315 132.382 23.8315 132.206C23.8315 132.03 23.8912 131.886 24.0105 131.773C24.1361 131.653 24.2932 131.594 24.4816 131.594C24.6701 131.594 24.824 131.653 24.9433 131.773C25.0689 131.886 25.1318 132.03 25.1318 132.206C25.1318 132.382 25.0689 132.53 24.9433 132.649C24.824 132.762 24.6701 132.819 24.4816 132.819ZM23.9823 138.378V133.704H24.981V138.378H23.9823ZM28.1792 138.491C27.5887 138.491 27.1019 138.346 26.7187 138.057C26.3356 137.768 26.1157 137.385 26.0592 136.908H27.0674C27.1176 137.121 27.237 137.307 27.4254 137.464C27.6139 137.614 27.862 137.69 28.1698 137.69C28.4713 137.69 28.6911 137.627 28.8293 137.501C28.9675 137.376 29.0366 137.231 29.0366 137.068C29.0366 136.829 28.9392 136.669 28.7445 136.587C28.5561 136.5 28.2923 136.421 27.9531 136.352C27.6892 136.295 27.4254 136.22 27.1616 136.126C26.904 136.032 26.6873 135.9 26.5115 135.73C26.3419 135.554 26.2571 135.319 26.2571 135.023C26.2571 134.615 26.4141 134.276 26.7282 134.006C27.0422 133.729 27.4819 133.591 28.0473 133.591C28.5686 133.591 28.9895 133.717 29.3099 133.968C29.6365 134.219 29.8281 134.574 29.8846 135.033H28.9235C28.8921 134.832 28.7979 134.675 28.6409 134.562C28.4901 134.449 28.286 134.392 28.0284 134.392C27.7772 134.392 27.5824 134.445 27.4443 134.552C27.3061 134.653 27.237 134.785 27.237 134.948C27.237 135.111 27.3312 135.24 27.5196 135.334C27.7144 135.429 27.9688 135.513 28.2828 135.589C28.5969 135.658 28.8859 135.739 29.1497 135.834C29.4198 135.922 29.6365 136.054 29.7998 136.229C29.9631 136.405 30.0448 136.663 30.0448 137.002C30.0511 137.429 29.8846 137.784 29.5454 138.067C29.2125 138.349 28.7571 138.491 28.1792 138.491ZM32.9342 138.378C32.4757 138.378 32.1114 138.268 31.8413 138.048C31.5712 137.822 31.4361 137.423 31.4361 136.851V134.543H30.6352V133.704H31.4361L31.5586 132.517H32.4349V133.704H33.754V134.543H32.4349V136.851C32.4349 137.109 32.4883 137.288 32.595 137.388C32.7081 137.483 32.8997 137.53 33.1698 137.53H33.7069V138.378H32.9342ZM36.8643 138.491C36.4057 138.491 35.9974 138.39 35.6394 138.189C35.2876 137.982 35.0112 137.696 34.8102 137.332C34.6092 136.967 34.5087 136.543 34.5087 136.06C34.5087 135.57 34.6061 135.14 34.8008 134.769C35.0018 134.398 35.2782 134.109 35.63 133.902C35.988 133.695 36.4026 133.591 36.8737 133.591C37.3322 133.591 37.7311 133.695 38.0703 133.902C38.4095 134.103 38.6733 134.373 38.8618 134.712C39.0502 135.052 39.1444 135.425 39.1444 135.834C39.1444 135.897 39.1413 135.966 39.135 136.041C39.135 136.11 39.1319 136.189 39.1256 136.277H35.4886C35.52 136.729 35.6676 137.074 35.9315 137.313C36.2016 137.545 36.5125 137.662 36.8643 137.662C37.1469 137.662 37.3825 137.599 37.5709 137.473C37.7657 137.341 37.9101 137.165 38.0044 136.946H39.0031C38.8775 137.385 38.6262 137.753 38.2493 138.048C37.8787 138.343 37.417 138.491 36.8643 138.491ZM36.8643 134.411C36.5313 134.411 36.2361 134.511 35.9786 134.712C35.721 134.907 35.564 135.202 35.5075 135.598H38.1457C38.1268 135.234 37.9981 134.945 37.7594 134.731C37.5207 134.518 37.2223 134.411 36.8643 134.411Z" fill="#00070A"/>
<path d="M41.2658 134.986L41.4165 133.601L40.3047 134.42L39.909 133.742L41.1904 133.205L39.9184 132.687L40.2859 132.027L41.4259 132.847L41.2658 131.452H42.0195L41.8594 132.847L42.99 132.027L43.3481 132.677L42.0761 133.214L43.3575 133.742L42.9712 134.411L41.8594 133.601L42.0101 134.986H41.2658Z" fill="#BA1A1A"/>
</g>
<defs>
<clipPath id="clip0_2637_6319">
<rect width="212" height="471.111" rx="17.6667" fill="white"/>
</clipPath>
<clipPath id="clip1_2637_6319">
<rect width="212" height="28.4889" fill="white"/>
</clipPath>
<clipPath id="clip2_2637_6319">
<rect width="23.5556" height="23.5556" fill="white" transform="translate(9.42212 67.1333)"/>
</clipPath>
<clipPath id="clip3_2637_6319">
<rect x="9.42212" y="67.1333" width="23.5556" height="23.5556" rx="11.7778" fill="white"/>
</clipPath>
<clipPath id="clip4_2637_6319">
<rect x="40.0444" y="67.1333" width="76.2444" height="23.5556" rx="4.71111" fill="white"/>
</clipPath>
</defs>
</svg>
