<svg width="212" height="472" viewBox="0 0 212 472" fill="none" xmlns="http://www.w3.org/2000/svg">
<g clip-path="url(#clip0_2637_6361)">
<rect width="212" height="471.111" rx="17.6667" fill="#F9F9FC"/>
<g clip-path="url(#clip1_2637_6361)">
<rect width="212" height="28.4889" fill="#F0F1F3"/>
<path d="M15.3571 16.4795H15.4376C15.808 16.4795 16.1166 16.4312 16.3635 16.3346C16.6131 16.2353 16.8117 16.0984 16.9593 15.924C17.1069 15.7495 17.2129 15.5442 17.2773 15.3081C17.3417 15.0719 17.3739 14.8156 17.3739 14.5392V13.5287C17.3739 13.2899 17.3484 13.0806 17.2974 12.9008C17.2491 12.7183 17.1793 12.5666 17.0881 12.4459C16.9995 12.3224 16.8962 12.2298 16.7781 12.1681C16.6627 12.1064 16.5379 12.0755 16.4037 12.0755C16.2561 12.0755 16.1233 12.1091 16.0052 12.1761C15.8898 12.2406 15.7919 12.3305 15.7113 12.4459C15.6335 12.5586 15.5731 12.6914 15.5302 12.8444C15.4899 12.9947 15.4698 13.1557 15.4698 13.3275C15.4698 13.4885 15.4886 13.6441 15.5262 13.7944C15.5664 13.942 15.6255 14.0735 15.7033 14.1889C15.7811 14.3043 15.8791 14.3956 15.9972 14.4627C16.1152 14.5298 16.2535 14.5633 16.4118 14.5633C16.5621 14.5633 16.7003 14.5352 16.8264 14.4788C16.9526 14.4198 17.0626 14.3406 17.1565 14.2413C17.2505 14.142 17.3243 14.0306 17.3779 13.9072C17.4316 13.7837 17.4611 13.6576 17.4665 13.5287L17.8369 13.6415C17.8369 13.8454 17.7939 14.0467 17.708 14.2453C17.6248 14.4412 17.5081 14.621 17.3578 14.7847C17.2102 14.9458 17.0371 15.0746 16.8385 15.1712C16.6426 15.2678 16.4292 15.3161 16.1984 15.3161C15.9193 15.3161 15.6724 15.2638 15.4577 15.1591C15.2457 15.0518 15.0686 14.9068 14.9263 14.7244C14.7868 14.5419 14.6821 14.3325 14.6123 14.0964C14.5426 13.8602 14.5077 13.6119 14.5077 13.3516C14.5077 13.0698 14.5506 12.8055 14.6365 12.5586C14.7224 12.3117 14.8472 12.0943 15.0109 11.9064C15.1746 11.7159 15.3732 11.5683 15.6067 11.4636C15.8428 11.3563 16.1099 11.3026 16.4078 11.3026C16.7245 11.3026 17.0022 11.3643 17.2411 11.4878C17.4799 11.6112 17.6812 11.7816 17.8449 11.999C18.0086 12.2164 18.1321 12.4687 18.2153 12.7558C18.2985 13.043 18.3401 13.3516 18.3401 13.6817V14.0239C18.3401 14.3701 18.3092 14.7042 18.2475 15.0263C18.1857 15.3456 18.0851 15.6422 17.9456 15.9159C17.8087 16.187 17.6275 16.4258 17.4021 16.6325C17.1793 16.8365 16.9056 16.9961 16.5809 17.1115C16.2588 17.2243 15.8804 17.2806 15.4456 17.2806H15.3571V16.4795ZM19.4933 16.7613C19.4933 16.611 19.5443 16.4849 19.6463 16.3829C19.7483 16.2782 19.8865 16.2259 20.0609 16.2259C20.2381 16.2259 20.3763 16.2782 20.4756 16.3829C20.5775 16.4849 20.6285 16.611 20.6285 16.7613C20.6285 16.9116 20.5775 17.0377 20.4756 17.1397C20.3763 17.2417 20.2381 17.2927 20.0609 17.2927C19.8865 17.2927 19.7483 17.2417 19.6463 17.1397C19.5443 17.0377 19.4933 16.9116 19.4933 16.7613ZM19.4973 13.3315C19.4973 13.1812 19.5483 13.0551 19.6503 12.9531C19.7523 12.8484 19.8905 12.7961 20.065 12.7961C20.2421 12.7961 20.3803 12.8484 20.4796 12.9531C20.5816 13.0551 20.6326 13.1812 20.6326 13.3315C20.6326 13.4818 20.5816 13.6079 20.4796 13.7099C20.3803 13.8119 20.2421 13.8629 20.065 13.8629C19.8905 13.8629 19.7523 13.8119 19.6503 13.7099C19.5483 13.6079 19.4973 13.4818 19.4973 13.3315ZM22.8204 13.875H23.4001C23.6255 13.875 23.812 13.836 23.9596 13.7582C24.1099 13.6804 24.2213 13.573 24.2938 13.4362C24.3662 13.2993 24.4025 13.1423 24.4025 12.9652C24.4025 12.78 24.3689 12.6216 24.3018 12.4901C24.2374 12.356 24.1381 12.2526 24.0039 12.1802C23.8724 12.1077 23.7047 12.0715 23.5007 12.0715C23.329 12.0715 23.1733 12.1064 23.0338 12.1761C22.8969 12.2432 22.7882 12.3399 22.7077 12.466C22.6272 12.5894 22.5869 12.737 22.5869 12.9088H21.6127C21.6127 12.5975 21.6946 12.3211 21.8583 12.0795C22.022 11.838 22.2447 11.6488 22.5265 11.5119C22.811 11.3724 23.1304 11.3026 23.4846 11.3026C23.863 11.3026 24.1931 11.3657 24.4749 11.4918C24.7594 11.6152 24.9808 11.8004 25.1392 12.0473C25.2975 12.2942 25.3767 12.6002 25.3767 12.9652C25.3767 13.1316 25.3377 13.3006 25.2599 13.4724C25.1821 13.6441 25.0667 13.8011 24.9137 13.9434C24.7607 14.0829 24.5702 14.197 24.3421 14.2856C24.114 14.3714 23.8496 14.4144 23.549 14.4144H22.8204V13.875ZM22.8204 14.6318V14.1004H23.549C23.8926 14.1004 24.1851 14.1406 24.4266 14.2212C24.6708 14.3017 24.8694 14.413 25.0224 14.5553C25.1754 14.6948 25.2868 14.8545 25.3565 15.0343C25.429 15.2141 25.4652 15.4047 25.4652 15.606C25.4652 15.8797 25.4156 16.1239 25.3163 16.3386C25.2197 16.5506 25.0815 16.7304 24.9016 16.8781C24.7218 17.0257 24.5112 17.137 24.2696 17.2122C24.0308 17.2873 23.7704 17.3249 23.4887 17.3249C23.2364 17.3249 22.9948 17.29 22.764 17.2202C22.5332 17.1505 22.3266 17.0471 22.1441 16.9103C21.9616 16.7707 21.8167 16.5976 21.7093 16.391C21.6047 16.1816 21.5523 15.9401 21.5523 15.6663H22.5225C22.5225 15.8408 22.5628 15.9951 22.6433 16.1293C22.7265 16.2608 22.8419 16.3641 22.9895 16.4393C23.1398 16.5144 23.3115 16.552 23.5048 16.552C23.7087 16.552 23.8845 16.5157 24.0321 16.4433C24.1797 16.3708 24.2924 16.2635 24.3703 16.1212C24.4508 15.979 24.491 15.8072 24.491 15.606C24.491 15.3778 24.4467 15.1927 24.3582 15.0504C24.2696 14.9082 24.1435 14.8035 23.9798 14.7364C23.8161 14.6667 23.6228 14.6318 23.4001 14.6318H22.8204ZM30.3502 13.8226V14.7807C30.3502 15.2396 30.3046 15.6315 30.2133 15.9562C30.1248 16.2782 29.996 16.5399 29.8269 16.7412C29.6578 16.9425 29.4552 17.0901 29.219 17.184C28.9855 17.2779 28.7239 17.3249 28.434 17.3249C28.2032 17.3249 27.9885 17.2954 27.7899 17.2363C27.594 17.1773 27.4169 17.0847 27.2586 16.9586C27.1002 16.8324 26.9647 16.6701 26.852 16.4715C26.7419 16.2702 26.6561 16.03 26.5943 15.7509C26.5353 15.4718 26.5058 15.1484 26.5058 14.7807V13.8226C26.5058 13.361 26.5514 12.9719 26.6426 12.6552C26.7339 12.3358 26.864 12.0768 27.0331 11.8783C27.2022 11.677 27.4035 11.5307 27.637 11.4395C27.8731 11.3482 28.1361 11.3026 28.426 11.3026C28.6595 11.3026 28.8742 11.3321 29.0701 11.3912C29.2687 11.4475 29.4458 11.5374 29.6015 11.6609C29.7598 11.7843 29.894 11.9453 30.004 12.1439C30.1167 12.3399 30.2026 12.5774 30.2617 12.8565C30.3207 13.1329 30.3502 13.4549 30.3502 13.8226ZM29.38 14.9176V13.6777C29.38 13.4442 29.3666 13.2389 29.3398 13.0618C29.313 12.882 29.2727 12.7303 29.219 12.6069C29.168 12.4807 29.1036 12.3788 29.0258 12.3009C28.948 12.2204 28.8594 12.1627 28.7601 12.1278C28.6608 12.0903 28.5494 12.0715 28.426 12.0715C28.2757 12.0715 28.1415 12.101 28.0234 12.16C27.9053 12.2164 27.806 12.3076 27.7255 12.4338C27.645 12.5599 27.5833 12.7263 27.5403 12.933C27.5001 13.1369 27.48 13.3852 27.48 13.6777V14.9176C27.48 15.1538 27.4934 15.3617 27.5202 15.5416C27.5471 15.7214 27.5873 15.8757 27.641 16.0045C27.6947 16.1306 27.7591 16.2353 27.8342 16.3185C27.912 16.399 28.0006 16.458 28.0999 16.4956C28.2019 16.5332 28.3133 16.552 28.434 16.552C28.587 16.552 28.7225 16.5225 28.8406 16.4634C28.9587 16.4044 29.058 16.3104 29.1385 16.1816C29.219 16.0501 29.2794 15.8797 29.3197 15.6704C29.3599 15.461 29.38 15.2101 29.38 14.9176Z" fill="#1C1B1F"/>
<path opacity="0.1" d="M173.939 10.073C171.937 10.073 170.185 10.949 168.933 12.3255L173.939 18.4156L178.944 12.3255C177.693 10.949 175.941 10.073 173.939 10.073Z" fill="#1C1B1F"/>
<path d="M187.533 10.073L179.19 18.4156H187.533V10.073Z" fill="#1C1B1F"/>
<path opacity="0.3" d="M194.55 9.82764H192.783V10.711H191.9C191.575 10.711 191.311 11.0076 191.311 11.3735V17.9985C191.311 18.3644 191.575 18.661 191.9 18.661H195.433C195.758 18.661 196.022 18.3644 196.022 17.9985V11.3735C196.022 11.0076 195.758 10.711 195.433 10.711H194.55V9.82764Z" fill="#1C1B1F"/>
<path d="M191.311 14.5388C191.311 14.8823 191.311 17.6992 191.311 18.0427C191.311 18.3842 191.575 18.661 191.9 18.661H195.434C195.759 18.661 196.022 18.3842 196.022 18.0427C196.022 17.6992 196.022 14.8823 196.022 14.5388H191.311Z" fill="#1C1B1F"/>
</g>
<g clip-path="url(#clip2_2637_6361)">
<g clip-path="url(#clip3_2637_6361)">
<rect x="9.42212" y="67.1333" width="23.5556" height="23.5556" rx="11.7778" fill="#00658B"/>
<path d="M16.1972 82.3555V75.7599H17.196L20.5032 80.7254V75.7599H21.5019V82.3555H20.5032L17.196 77.39V82.3555H16.1972ZM22.8548 82.3555V75.7599H26.9911V76.5702H23.8535V78.6525H26.454V79.4534H23.8535V82.3555H22.8548Z" fill="#F9F9FC"/>
</g>
</g>
<g clip-path="url(#clip4_2637_6361)">
<path d="M57.3665 79.7252H55.8408V78.9241H57.3665C57.6322 78.9241 57.8469 78.8812 58.0106 78.7953C58.1743 78.7094 58.2938 78.5913 58.3689 78.4411C58.4467 78.2881 58.4857 78.1136 58.4857 77.9177C58.4857 77.7326 58.4467 77.5595 58.3689 77.3984C58.2938 77.2347 58.1743 77.1032 58.0106 77.0039C57.8469 76.9046 57.6322 76.855 57.3665 76.855H56.1508V81.9111H55.1404V76.0498H57.3665C57.8201 76.0498 58.2052 76.1304 58.5219 76.2914C58.8413 76.4497 59.0841 76.6698 59.2505 76.9516C59.4169 77.2307 59.5001 77.5501 59.5001 77.9097C59.5001 78.2881 59.4169 78.6128 59.2505 78.8839C59.0841 79.1549 58.8413 79.3629 58.5219 79.5078C58.2052 79.6528 57.8201 79.7252 57.3665 79.7252ZM60.1266 79.7816V79.689C60.1266 79.375 60.1722 79.0838 60.2635 78.8154C60.3547 78.5444 60.4862 78.3096 60.658 78.111C60.8324 77.9097 61.0444 77.754 61.294 77.644C61.5463 77.5313 61.8308 77.4749 62.1475 77.4749C62.4668 77.4749 62.7513 77.5313 63.0009 77.644C63.2532 77.754 63.4665 77.9097 63.641 78.111C63.8154 78.3096 63.9483 78.5444 64.0395 78.8154C64.1307 79.0838 64.1764 79.375 64.1764 79.689V79.7816C64.1764 80.0956 64.1307 80.3868 64.0395 80.6551C63.9483 80.9235 63.8154 81.1583 63.641 81.3596C63.4665 81.5582 63.2545 81.7139 63.0049 81.8266C62.7553 81.9366 62.4722 81.9916 62.1555 81.9916C61.8362 81.9916 61.5503 81.9366 61.2981 81.8266C61.0485 81.7139 60.8365 81.5582 60.662 81.3596C60.4876 81.1583 60.3547 80.9235 60.2635 80.6551C60.1722 80.3868 60.1266 80.0956 60.1266 79.7816ZM61.0968 79.689V79.7816C61.0968 79.9775 61.1169 80.1627 61.1572 80.3371C61.1974 80.5116 61.2605 80.6645 61.3464 80.796C61.4322 80.9275 61.5423 81.0309 61.6765 81.106C61.8107 81.1812 61.9703 81.2187 62.1555 81.2187C62.3353 81.2187 62.491 81.1812 62.6225 81.106C62.7567 81.0309 62.8667 80.9275 62.9526 80.796C63.0385 80.6645 63.1015 80.5116 63.1418 80.3371C63.1847 80.1627 63.2062 79.9775 63.2062 79.7816V79.689C63.2062 79.4958 63.1847 79.3133 63.1418 79.1415C63.1015 78.9671 63.0371 78.8128 62.9486 78.6786C62.8627 78.5444 62.7526 78.4397 62.6185 78.3646C62.487 78.2867 62.33 78.2478 62.1475 78.2478C61.965 78.2478 61.8066 78.2867 61.6724 78.3646C61.5409 78.4397 61.4322 78.5444 61.3464 78.6786C61.2605 78.8128 61.1974 78.9671 61.1572 79.1415C61.1169 79.3133 61.0968 79.4958 61.0968 79.689ZM66.087 75.7278V81.9111H65.1128V75.7278H66.087ZM68.2473 75.7278V81.9111H67.2731V75.7278H68.2473Z" fill="#00658B"/>
<path d="M85.0776 77.7334L88.0221 80.6778L90.9665 77.7334H85.0776Z" fill="#00658B"/>
</g>
<rect x="40.3389" y="67.4277" width="75.6556" height="22.9667" rx="4.41667" stroke="#C0C7CD" stroke-width="0.588889"/>
<path d="M187.098 49.1111V43.7522H188.973C189.392 43.7522 189.739 43.8236 190.015 43.9666C190.29 44.1044 190.494 44.2957 190.627 44.5407C190.765 44.7806 190.834 45.0536 190.834 45.3599C190.834 45.6508 190.767 45.9187 190.635 46.1637C190.507 46.4036 190.305 46.595 190.03 46.7379C189.754 46.8808 189.402 46.9522 188.973 46.9522H187.909V49.1111H187.098ZM187.909 46.2862H188.935C189.318 46.2862 189.591 46.2045 189.754 46.0412C189.923 45.8728 190.007 45.6457 190.007 45.3599C190.007 45.0638 189.923 44.8342 189.754 44.6709C189.591 44.5024 189.318 44.4182 188.935 44.4182H187.909V46.2862ZM193.268 49.203C192.905 49.203 192.579 49.1213 192.288 48.958C192.002 48.7896 191.775 48.5573 191.606 48.2613C191.438 47.9602 191.354 47.6106 191.354 47.2125C191.354 46.8144 191.438 46.4674 191.606 46.1714C191.78 45.8702 192.012 45.638 192.303 45.4747C192.594 45.3063 192.918 45.2221 193.275 45.2221C193.638 45.2221 193.962 45.3063 194.248 45.4747C194.538 45.638 194.768 45.8702 194.937 46.1714C195.11 46.4674 195.197 46.8144 195.197 47.2125C195.197 47.6106 195.11 47.9602 194.937 48.2613C194.768 48.5573 194.538 48.7896 194.248 48.958C193.957 49.1213 193.63 49.203 193.268 49.203ZM193.268 48.5063C193.462 48.5063 193.64 48.4578 193.804 48.3608C193.972 48.2639 194.107 48.121 194.209 47.9321C194.311 47.7382 194.362 47.4983 194.362 47.2125C194.362 46.9267 194.311 46.6894 194.209 46.5005C194.112 46.3066 193.98 46.1611 193.811 46.0642C193.648 45.9672 193.469 45.9187 193.275 45.9187C193.081 45.9187 192.9 45.9672 192.732 46.0642C192.568 46.1611 192.436 46.3066 192.334 46.5005C192.232 46.6894 192.181 46.9267 192.181 47.2125C192.181 47.4983 192.232 47.7382 192.334 47.9321C192.436 48.121 192.568 48.2639 192.732 48.3608C192.895 48.4578 193.074 48.5063 193.268 48.5063ZM197.686 49.203C197.206 49.203 196.811 49.0856 196.499 48.8508C196.188 48.616 196.009 48.3047 195.963 47.9168H196.783C196.823 48.0903 196.92 48.2409 197.073 48.3685C197.227 48.491 197.428 48.5522 197.678 48.5522C197.923 48.5522 198.102 48.5012 198.214 48.3991C198.326 48.297 198.383 48.1797 198.383 48.047C198.383 47.853 198.303 47.7229 198.145 47.6565C197.992 47.5851 197.778 47.5213 197.502 47.4651C197.288 47.4192 197.073 47.358 196.859 47.2814C196.65 47.2049 196.474 47.0977 196.331 46.9599C196.193 46.817 196.124 46.6256 196.124 46.3857C196.124 46.054 196.252 45.7784 196.507 45.5589C196.762 45.3343 197.119 45.2221 197.579 45.2221C198.002 45.2221 198.344 45.3241 198.605 45.5283C198.87 45.7324 199.026 46.0208 199.072 46.3934H198.291C198.265 46.23 198.189 46.1025 198.061 46.0106C197.939 45.9187 197.773 45.8728 197.563 45.8728C197.359 45.8728 197.201 45.9162 197.089 46.0029C196.977 46.0846 196.92 46.1918 196.92 46.3245C196.92 46.4572 196.997 46.5618 197.15 46.6383C197.308 46.7149 197.515 46.7838 197.77 46.845C198.025 46.9012 198.26 46.9675 198.474 47.0441C198.694 47.1155 198.87 47.2227 199.003 47.3656C199.135 47.5085 199.202 47.7178 199.202 47.9934C199.207 48.3404 199.072 48.6288 198.796 48.8585C198.525 49.0881 198.155 49.203 197.686 49.203ZM201.634 49.1111C201.261 49.1111 200.965 49.0218 200.746 48.8431C200.526 48.6594 200.416 48.3353 200.416 47.8709V45.9953H199.766V45.3139H200.416L200.516 44.3493H201.228V45.3139H202.3V45.9953H201.228V47.8709C201.228 48.0801 201.271 48.2256 201.358 48.3073C201.45 48.3838 201.606 48.4221 201.825 48.4221H202.261V49.1111H201.634Z" fill="#00658B" fill-opacity="0.08"/>
<path d="M12.5364 49.203C12.0056 49.203 11.5463 49.0881 11.1584 48.8585C10.7756 48.6237 10.4796 48.2996 10.2703 47.8862C10.0611 47.4677 9.95645 46.9854 9.95645 46.4393C9.95645 45.8881 10.0611 45.4058 10.2703 44.9924C10.4796 44.5739 10.7756 44.2473 11.1584 44.0125C11.5463 43.7777 12.0056 43.6603 12.5364 43.6603C13.1641 43.6603 13.6771 43.8134 14.0751 44.1197C14.4732 44.4259 14.7259 44.8546 14.833 45.4058H13.9297C13.8582 45.0945 13.7051 44.8469 13.4704 44.6632C13.2356 44.4795 12.9217 44.3876 12.5287 44.3876C11.9928 44.3876 11.5692 44.5713 11.2579 44.9388C10.9466 45.3012 10.7909 45.8013 10.7909 46.4393C10.7909 47.0722 10.9466 47.5698 11.2579 47.9321C11.5692 48.2945 11.9928 48.4757 12.5287 48.4757C12.9217 48.4757 13.2356 48.3889 13.4704 48.2154C13.7051 48.0419 13.8582 47.8045 13.9297 47.5034H14.833C14.7259 48.0342 14.4732 48.4502 14.0751 48.7513C13.6771 49.0524 13.1641 49.203 12.5364 49.203ZM17.0762 49.203C16.7547 49.203 16.4893 49.1494 16.2801 49.0422C16.0708 48.935 15.9151 48.7947 15.8131 48.6211C15.711 48.4425 15.66 48.2486 15.66 48.0393C15.66 47.6718 15.8029 47.3809 16.0887 47.1666C16.3745 46.9522 16.7828 46.845 17.3136 46.845H18.3088V46.7761C18.3088 46.4801 18.2271 46.2581 18.0638 46.1101C17.9056 45.9621 17.6989 45.8881 17.4437 45.8881C17.2191 45.8881 17.0226 45.9442 16.8542 46.0565C16.6909 46.1637 16.5914 46.3245 16.5557 46.5388H15.7442C15.7697 46.2632 15.8616 46.0284 16.0198 45.8345C16.1831 45.6355 16.3872 45.4849 16.6322 45.3828C16.8823 45.2757 17.1553 45.2221 17.4514 45.2221C17.9821 45.2221 18.393 45.3624 18.6839 45.6431C18.9748 45.9187 19.1203 46.2964 19.1203 46.7761V49.1111H18.416L18.3471 48.4604C18.2399 48.6696 18.0842 48.8457 17.8801 48.9886C17.6759 49.1315 17.408 49.203 17.0762 49.203ZM17.237 48.5446C17.4565 48.5446 17.6402 48.4935 17.7882 48.3915C17.9413 48.2843 18.0587 48.1439 18.1404 47.9704C18.2271 47.7969 18.2807 47.6055 18.3011 47.3962H17.3978C17.0762 47.3962 16.8466 47.4524 16.7088 47.5647C16.5761 47.6769 16.5097 47.8173 16.5097 47.9857C16.5097 48.1592 16.5735 48.297 16.7011 48.3991C16.8338 48.4961 17.0124 48.5446 17.237 48.5446ZM20.1621 49.1111V45.3139H20.8818L20.943 45.98C21.0604 45.7452 21.2314 45.5615 21.4559 45.4288C21.6856 45.291 21.9484 45.2221 22.2445 45.2221C22.7038 45.2221 23.0636 45.365 23.3239 45.6508C23.5893 45.9366 23.722 46.3627 23.722 46.9293V49.1111H22.9181V47.0135C22.9181 46.2785 22.617 45.9111 22.0148 45.9111C21.7137 45.9111 21.4636 46.0182 21.2645 46.2326C21.0706 46.447 20.9736 46.7532 20.9736 47.1513V49.1111H20.1621ZM26.5725 49.203C26.1999 49.203 25.8656 49.1187 25.5696 48.9503C25.2787 48.7819 25.049 48.5497 24.8806 48.2537C24.7173 47.9525 24.6356 47.6055 24.6356 47.2125C24.6356 46.8195 24.7173 46.475 24.8806 46.179C25.049 45.8779 25.2787 45.6431 25.5696 45.4747C25.8656 45.3063 26.1999 45.2221 26.5725 45.2221C27.042 45.2221 27.435 45.3446 27.7514 45.5895C28.073 45.8345 28.2797 46.1662 28.3715 46.5848H27.5218C27.4707 46.3755 27.3584 46.2122 27.1849 46.0948C27.0114 45.9774 26.8072 45.9187 26.5725 45.9187C26.3734 45.9187 26.1897 45.9698 26.0213 46.0718C25.8529 46.1688 25.7176 46.3143 25.6155 46.5082C25.5135 46.697 25.4624 46.9318 25.4624 47.2125C25.4624 47.4932 25.5135 47.7305 25.6155 47.9245C25.7176 48.1133 25.8529 48.2588 26.0213 48.3608C26.1897 48.4629 26.3734 48.514 26.5725 48.514C26.8072 48.514 27.0114 48.4553 27.1849 48.3379C27.3584 48.2205 27.4707 48.0546 27.5218 47.8403H28.3715C28.2848 48.2486 28.0806 48.5777 27.7591 48.8278C27.4376 49.0779 27.042 49.203 26.5725 49.203ZM31.1234 49.203C30.7508 49.203 30.4191 49.1213 30.1282 48.958C29.8424 48.7896 29.6178 48.5573 29.4545 48.2613C29.2912 47.9653 29.2095 47.6208 29.2095 47.2278C29.2095 46.8297 29.2886 46.4801 29.4468 46.179C29.6102 45.8779 29.8347 45.6431 30.1205 45.4747C30.4114 45.3063 30.7483 45.2221 31.1311 45.2221C31.5036 45.2221 31.8277 45.3063 32.1033 45.4747C32.3789 45.638 32.5933 45.8575 32.7464 46.1331C32.8995 46.4087 32.9761 46.7123 32.9761 47.0441C32.9761 47.0951 32.9735 47.1513 32.9684 47.2125C32.9684 47.2686 32.9658 47.3324 32.9607 47.4039H30.0057C30.0312 47.7714 30.1512 48.0521 30.3655 48.246C30.585 48.4348 30.8376 48.5293 31.1234 48.5293C31.3531 48.5293 31.5445 48.4782 31.6976 48.3762C31.8558 48.269 31.9732 48.1261 32.0497 47.9474H32.8612C32.7591 48.3047 32.555 48.6033 32.2488 48.8431C31.9477 49.083 31.5725 49.203 31.1234 49.203ZM31.1234 45.8881C30.8529 45.8881 30.613 45.9698 30.4038 46.1331C30.1945 46.2913 30.0669 46.5312 30.021 46.8527H32.1646C32.1493 46.5567 32.0446 46.3219 31.8507 46.1484C31.6567 45.9749 31.4143 45.8881 31.1234 45.8881ZM33.9137 49.1111V43.5991H34.7252V49.1111H33.9137Z" fill="#00070A"/>
<path d="M9.42212 103.645V113.067" stroke="#00658B" stroke-width="0.588889" stroke-linecap="square"/>
<path d="M9.71656 151.933C9.71656 149.494 11.694 147.517 14.1332 147.517H197.867C200.306 147.517 202.283 149.494 202.283 151.933V175.489C202.283 177.928 200.306 179.905 197.867 179.905H14.1332C11.694 179.905 9.71656 177.928 9.71656 175.489V151.933Z" stroke="#C0C7CD" stroke-width="0.588889"/>
<path d="M19.5415 166.711V160.116H23.5553V160.766H20.3329V163.084H23.0748V163.724H20.3329V166.711H19.5415ZM25.0552 161.001C24.8981 161.001 24.7662 160.951 24.6594 160.851C24.5589 160.744 24.5087 160.612 24.5087 160.455C24.5087 160.304 24.5589 160.178 24.6594 160.078C24.7662 159.977 24.8981 159.927 25.0552 159.927C25.2059 159.927 25.3347 159.977 25.4415 160.078C25.5483 160.178 25.6017 160.304 25.6017 160.455C25.6017 160.612 25.5483 160.744 25.4415 160.851C25.3347 160.951 25.2059 161.001 25.0552 161.001ZM24.6594 166.711V162.038H25.4509V166.711H24.6594ZM26.8761 166.711V162.038H27.5922L27.6581 162.933C27.8026 162.625 28.0225 162.38 28.3177 162.198C28.6129 162.016 28.9772 161.925 29.4107 161.925V162.754H29.194C28.9176 162.754 28.6632 162.804 28.4308 162.905C28.1983 162.999 28.013 163.162 27.8748 163.395C27.7367 163.627 27.6676 163.947 27.6676 164.356V166.711H26.8761ZM32.1363 166.824C31.5773 166.824 31.1125 166.683 30.7419 166.4C30.3712 166.118 30.1545 165.734 30.0917 165.251H30.902C30.9523 165.496 31.0811 165.709 31.2883 165.891C31.5019 166.067 31.7877 166.155 32.1458 166.155C32.4787 166.155 32.7237 166.086 32.8807 165.948C33.0377 165.804 33.1163 165.634 33.1163 165.439C33.1163 165.157 33.0126 164.968 32.8053 164.874C32.6043 164.78 32.3185 164.695 31.9479 164.619C31.6966 164.569 31.4454 164.497 31.1941 164.403C30.9429 164.309 30.7324 164.177 30.5628 164.007C30.3932 163.831 30.3084 163.602 30.3084 163.319C30.3084 162.911 30.4592 162.578 30.7607 162.32C31.0685 162.057 31.4831 161.925 32.0044 161.925C32.5007 161.925 32.9058 162.05 33.2199 162.302C33.5403 162.547 33.7256 162.898 33.7758 163.357H32.9938C32.9624 163.118 32.8587 162.933 32.6828 162.801C32.5132 162.663 32.284 162.594 31.995 162.594C31.7123 162.594 31.4925 162.653 31.3355 162.773C31.1847 162.892 31.1093 163.049 31.1093 163.244C31.1093 163.432 31.2067 163.58 31.4014 163.687C31.6024 163.793 31.8725 163.885 32.2117 163.96C32.5007 164.023 32.7739 164.101 33.0315 164.195C33.2953 164.283 33.5088 164.418 33.6722 164.601C33.8418 164.776 33.9266 165.034 33.9266 165.373C33.9328 165.794 33.7727 166.143 33.446 166.419C33.1257 166.689 32.6891 166.824 32.1363 166.824ZM36.7395 166.711C36.3123 166.711 35.9763 166.608 35.7313 166.4C35.4863 166.193 35.3638 165.819 35.3638 165.279V162.707H34.5535V162.038H35.3638L35.4675 160.917H36.1553V162.038H37.5309V162.707H36.1553V165.279C36.1553 165.574 36.215 165.775 36.3343 165.882C36.4537 165.983 36.6641 166.033 36.9656 166.033H37.4556V166.711H36.7395ZM41.1243 168.784V162.038H41.8403L41.9157 162.81C42.0665 162.584 42.2801 162.38 42.5564 162.198C42.8391 162.016 43.1971 161.925 43.6306 161.925C44.0954 161.925 44.5006 162.031 44.846 162.245C45.1915 162.459 45.4585 162.751 45.6469 163.121C45.8417 163.492 45.939 163.913 45.939 164.384C45.939 164.855 45.8417 165.276 45.6469 165.646C45.4585 166.011 45.1884 166.3 44.8366 166.513C44.4911 166.721 44.086 166.824 43.6211 166.824C43.238 166.824 42.8956 166.746 42.5941 166.589C42.2989 166.432 42.0728 166.212 41.9157 165.929V168.784H41.1243ZM43.5363 166.136C43.8504 166.136 44.1268 166.064 44.3655 165.92C44.6042 165.769 44.7926 165.562 44.9308 165.298C45.069 165.034 45.1381 164.726 45.1381 164.374C45.1381 164.023 45.069 163.715 44.9308 163.451C44.7926 163.187 44.6042 162.983 44.3655 162.839C44.1268 162.688 43.8504 162.613 43.5363 162.613C43.2223 162.613 42.9459 162.688 42.7072 162.839C42.4685 162.983 42.2801 163.187 42.1419 163.451C42.0037 163.715 41.9346 164.023 41.9346 164.374C41.9346 164.726 42.0037 165.034 42.1419 165.298C42.2801 165.562 42.4685 165.769 42.7072 165.92C42.9459 166.064 43.2223 166.136 43.5363 166.136ZM48.7933 166.824C48.2405 166.824 47.8008 166.658 47.4742 166.325C47.1475 165.986 46.9842 165.467 46.9842 164.77V162.038H47.7757V164.685C47.7757 165.659 48.1746 166.146 48.9723 166.146C49.3806 166.146 49.7167 166.001 49.9805 165.712C50.2506 165.417 50.3856 164.999 50.3856 164.459V162.038H51.1771V166.711H50.461L50.4045 165.873C50.26 166.168 50.0433 166.4 49.7544 166.57C49.4717 166.739 49.1513 166.824 48.7933 166.824ZM52.527 166.711V162.038H53.2431L53.2902 162.876C53.4409 162.581 53.6577 162.349 53.9403 162.179C54.223 162.009 54.5433 161.925 54.9014 161.925C55.4542 161.925 55.8939 162.094 56.2205 162.433C56.5534 162.766 56.7199 163.281 56.7199 163.979V166.711H55.9284V164.064C55.9284 163.09 55.5264 162.603 54.7224 162.603C54.3204 162.603 53.9843 162.751 53.7142 163.046C53.4504 163.335 53.3185 163.749 53.3185 164.29V166.711H52.527ZM60.1144 166.824C59.6684 166.824 59.2664 166.724 58.9083 166.523C58.5566 166.315 58.277 166.03 58.0698 165.665C57.8688 165.295 57.7682 164.864 57.7682 164.374C57.7682 163.885 57.8688 163.457 58.0698 163.093C58.277 162.722 58.5566 162.437 58.9083 162.236C59.2664 162.028 59.6684 161.925 60.1144 161.925C60.6672 161.925 61.132 162.069 61.5089 162.358C61.892 162.647 62.1339 163.033 62.2344 163.517H61.4241C61.3613 163.228 61.2074 163.005 60.9624 162.848C60.7174 162.685 60.4316 162.603 60.105 162.603C59.8411 162.603 59.593 162.669 59.3606 162.801C59.1282 162.933 58.9397 163.131 58.7953 163.395C58.6508 163.658 58.5786 163.985 58.5786 164.374C58.5786 164.764 58.6508 165.091 58.7953 165.354C58.9397 165.618 59.1282 165.819 59.3606 165.957C59.593 166.089 59.8411 166.155 60.105 166.155C60.4316 166.155 60.7174 166.077 60.9624 165.92C61.2074 165.756 61.3613 165.527 61.4241 165.232H62.2344C62.1402 165.703 61.9015 166.086 61.5183 166.381C61.1351 166.677 60.6672 166.824 60.1144 166.824ZM63.3868 166.711V159.927H64.1783V162.839C64.3353 162.55 64.5583 162.327 64.8473 162.17C65.1362 162.006 65.4503 161.925 65.7895 161.925C66.3297 161.925 66.7631 162.094 67.0898 162.433C67.4164 162.766 67.5797 163.281 67.5797 163.979V166.711H66.7977V164.064C66.7977 163.09 66.4051 162.603 65.6199 162.603C65.2116 162.603 64.8693 162.751 64.5929 163.046C64.3165 163.335 64.1783 163.749 64.1783 164.29V166.711H63.3868ZM68.826 166.711V159.927H69.6174V166.711H68.826ZM71.4423 161.001C71.2853 161.001 71.1534 160.951 71.0466 160.851C70.9461 160.744 70.8958 160.612 70.8958 160.455C70.8958 160.304 70.9461 160.178 71.0466 160.078C71.1534 159.977 71.2853 159.927 71.4423 159.927C71.5931 159.927 71.7218 159.977 71.8286 160.078C71.9354 160.178 71.9888 160.304 71.9888 160.455C71.9888 160.612 71.9354 160.744 71.8286 160.851C71.7218 160.951 71.5931 161.001 71.4423 161.001ZM71.0466 166.711V162.038H71.8381V166.711H71.0466ZM73.2632 166.711V162.038H73.9793L74.0264 162.876C74.1772 162.581 74.3939 162.349 74.6766 162.179C74.9592 162.009 75.2796 161.925 75.6376 161.925C76.1904 161.925 76.6301 162.094 76.9568 162.433C77.2897 162.766 77.4561 163.281 77.4561 163.979V166.711H76.6647V164.064C76.6647 163.09 76.2626 162.603 75.4586 162.603C75.0566 162.603 74.7205 162.751 74.4504 163.046C74.1866 163.335 74.0547 163.749 74.0547 164.29V166.711H73.2632ZM80.8035 166.824C80.3575 166.824 79.9618 166.724 79.6163 166.523C79.2708 166.315 78.9976 166.03 78.7966 165.665C78.6019 165.301 78.5045 164.871 78.5045 164.374C78.5045 163.885 78.6019 163.457 78.7966 163.093C78.9913 162.722 79.2614 162.437 79.6069 162.236C79.9587 162.028 80.3638 161.925 80.8224 161.925C81.2746 161.925 81.6641 162.028 81.9907 162.236C82.3236 162.437 82.578 162.704 82.7539 163.037C82.9298 163.369 83.0177 163.727 83.0177 164.111C83.0177 164.18 83.0146 164.249 83.0083 164.318C83.0083 164.387 83.0083 164.466 83.0083 164.553H79.2865C79.3054 164.912 79.387 165.21 79.5315 165.449C79.6823 165.681 79.8676 165.857 80.0874 165.976C80.3136 166.096 80.5523 166.155 80.8035 166.155C81.1302 166.155 81.4034 166.08 81.6233 165.929C81.8431 165.778 82.0033 165.574 82.1038 165.317H82.8858C82.7602 165.75 82.5184 166.111 82.1603 166.4C81.8086 166.683 81.3563 166.824 80.8035 166.824ZM80.8035 162.594C80.4266 162.594 80.0906 162.71 79.7953 162.942C79.5064 163.168 79.3399 163.501 79.296 163.941H82.2357C82.2169 163.52 82.0724 163.19 81.8023 162.952C81.5322 162.713 81.1993 162.594 80.8035 162.594ZM84.3871 166.758C84.2301 166.758 84.0982 166.708 83.9914 166.608C83.8909 166.501 83.8406 166.372 83.8406 166.221C83.8406 166.07 83.8909 165.945 83.9914 165.844C84.0982 165.738 84.2301 165.684 84.3871 165.684C84.5379 165.684 84.6635 165.738 84.764 165.844C84.8708 165.945 84.9242 166.07 84.9242 166.221C84.9242 166.372 84.8708 166.501 84.764 166.608C84.6635 166.708 84.5379 166.758 84.3871 166.758ZM86.2745 166.758C86.1175 166.758 85.9856 166.708 85.8788 166.608C85.7783 166.501 85.728 166.372 85.728 166.221C85.728 166.07 85.7783 165.945 85.8788 165.844C85.9856 165.738 86.1175 165.684 86.2745 165.684C86.4253 165.684 86.5509 165.738 86.6514 165.844C86.7582 165.945 86.8116 166.07 86.8116 166.221C86.8116 166.372 86.7582 166.501 86.6514 166.608C86.5509 166.708 86.4253 166.758 86.2745 166.758ZM88.1619 166.758C88.0049 166.758 87.873 166.708 87.7662 166.608C87.6657 166.501 87.6154 166.372 87.6154 166.221C87.6154 166.07 87.6657 165.945 87.7662 165.844C87.873 165.738 88.0049 165.684 88.1619 165.684C88.3127 165.684 88.4383 165.738 88.5388 165.844C88.6456 165.945 88.699 166.07 88.699 166.221C88.699 166.372 88.6456 166.501 88.5388 166.608C88.4383 166.708 88.3127 166.758 88.1619 166.758Z" fill="#8B9297"/>
<path d="M9.71656 208.467C9.71656 206.027 11.694 204.05 14.1332 204.05H197.867C200.306 204.05 202.283 206.027 202.283 208.467V232.022C202.283 234.462 200.306 236.439 197.867 236.439H14.1332C11.694 236.439 9.71656 234.462 9.71656 232.022V208.467Z" stroke="#C0C7CD" stroke-width="0.588889"/>
<path d="M20.8983 223.254L19.0892 216.649H19.9372L21.36 222.312L22.9806 216.649H23.8569L25.4304 222.312L26.872 216.649H27.72L25.8732 223.245H24.9687L23.3952 217.799L21.784 223.245L20.8983 223.254ZM28.6509 223.245V216.461H29.4423V219.372C29.5994 219.083 29.8224 218.86 30.1113 218.703C30.4003 218.54 30.7143 218.458 31.0535 218.458C31.5937 218.458 32.0272 218.628 32.3538 218.967C32.6804 219.3 32.8437 219.815 32.8437 220.512V223.245H32.0617V220.597C32.0617 219.623 31.6691 219.137 30.8839 219.137C30.4756 219.137 30.1333 219.284 29.8569 219.579C29.5805 219.868 29.4423 220.283 29.4423 220.823V223.245H28.6509ZM36.2194 223.358C35.7797 223.358 35.384 223.257 35.0322 223.056C34.6804 222.855 34.4009 222.573 34.1936 222.208C33.9926 221.838 33.8921 221.404 33.8921 220.908C33.8921 220.412 33.9958 219.981 34.203 219.617C34.4103 219.246 34.6899 218.961 35.0416 218.76C35.3997 218.559 35.7985 218.458 36.2383 218.458C36.678 218.458 37.0737 218.559 37.4254 218.76C37.7772 218.961 38.0536 219.246 38.2546 219.617C38.4619 219.981 38.5655 220.412 38.5655 220.908C38.5655 221.404 38.4619 221.838 38.2546 222.208C38.0473 222.573 37.7647 222.855 37.4066 223.056C37.0548 223.257 36.6591 223.358 36.2194 223.358ZM36.2194 222.679C36.4895 222.679 36.7408 222.613 36.9732 222.481C37.2056 222.35 37.394 222.152 37.5385 221.888C37.683 221.624 37.7552 221.297 37.7552 220.908C37.7552 220.518 37.683 220.192 37.5385 219.928C37.4003 219.664 37.215 219.466 36.9826 219.334C36.7502 219.202 36.5021 219.137 36.2383 219.137C35.9681 219.137 35.7169 219.202 35.4845 219.334C35.2521 219.466 35.0636 219.664 34.9191 219.928C34.7747 220.192 34.7024 220.518 34.7024 220.908C34.7024 221.297 34.7747 221.624 34.9191 221.888C35.0636 222.152 35.2489 222.35 35.475 222.481C35.7075 222.613 35.9556 222.679 36.2194 222.679ZM44.4021 223.358C43.9561 223.358 43.5541 223.257 43.196 223.056C42.8443 222.849 42.5648 222.563 42.3575 222.199C42.1565 221.828 42.056 221.398 42.056 220.908C42.056 220.418 42.1565 219.991 42.3575 219.626C42.5648 219.256 42.8443 218.97 43.196 218.769C43.5541 218.562 43.9561 218.458 44.4021 218.458C44.9549 218.458 45.4197 218.603 45.7966 218.892C46.1797 219.181 46.4216 219.567 46.5221 220.05H45.7118C45.649 219.762 45.4951 219.539 45.2501 219.382C45.0051 219.218 44.7193 219.137 44.3927 219.137C44.1288 219.137 43.8807 219.202 43.6483 219.334C43.4159 219.466 43.2275 219.664 43.083 219.928C42.9385 220.192 42.8663 220.518 42.8663 220.908C42.8663 221.297 42.9385 221.624 43.083 221.888C43.2275 222.152 43.4159 222.353 43.6483 222.491C43.8807 222.623 44.1288 222.689 44.3927 222.689C44.7193 222.689 45.0051 222.61 45.2501 222.453C45.4951 222.29 45.649 222.061 45.7118 221.765H46.5221C46.4279 222.236 46.1892 222.62 45.806 222.915C45.4228 223.21 44.9549 223.358 44.4021 223.358ZM47.6745 223.245V218.571H48.3906L48.4566 219.466C48.6011 219.159 48.8209 218.914 49.1161 218.731C49.4114 218.549 49.7757 218.458 50.2091 218.458V219.287H49.9924C49.716 219.287 49.4616 219.338 49.2292 219.438C48.9968 219.532 48.8115 219.696 48.6733 219.928C48.5351 220.16 48.466 220.481 48.466 220.889V223.245H47.6745ZM53.0709 223.358C52.6249 223.358 52.2292 223.257 51.8837 223.056C51.5382 222.849 51.265 222.563 51.064 222.199C50.8692 221.834 50.7719 221.404 50.7719 220.908C50.7719 220.418 50.8692 219.991 51.064 219.626C51.2587 219.256 51.5288 218.97 51.8743 218.769C52.226 218.562 52.6312 218.458 53.0897 218.458C53.542 218.458 53.9315 218.562 54.2581 218.769C54.591 218.97 54.8454 219.237 55.0213 219.57C55.1972 219.903 55.2851 220.261 55.2851 220.644C55.2851 220.713 55.282 220.782 55.2757 220.851C55.2757 220.92 55.2757 220.999 55.2757 221.087H51.5539C51.5728 221.445 51.6544 221.743 51.7989 221.982C51.9497 222.214 52.135 222.39 52.3548 222.51C52.5809 222.629 52.8196 222.689 53.0709 222.689C53.3975 222.689 53.6708 222.613 53.8906 222.463C54.1105 222.312 54.2707 222.108 54.3712 221.85H55.1532C55.0276 222.284 54.7857 222.645 54.4277 222.934C54.0759 223.216 53.6237 223.358 53.0709 223.358ZM53.0709 219.127C52.694 219.127 52.358 219.243 52.0627 219.476C51.7738 219.702 51.6073 220.035 51.5633 220.474H54.5031C54.4842 220.054 54.3398 219.724 54.0697 219.485C53.7996 219.246 53.4666 219.127 53.0709 219.127ZM57.9359 223.358C57.5465 223.358 57.223 223.292 56.9654 223.16C56.7079 223.028 56.5163 222.852 56.3907 222.632C56.2651 222.412 56.2022 222.174 56.2022 221.916C56.2022 221.439 56.3844 221.071 56.7487 220.814C57.1131 220.556 57.6093 220.427 58.2374 220.427H59.5V220.371C59.5 219.963 59.3932 219.655 59.1797 219.447C58.9661 219.234 58.6803 219.127 58.3222 219.127C58.0145 219.127 57.7475 219.206 57.5214 219.363C57.3015 219.513 57.1633 219.736 57.1068 220.032H56.2965C56.3279 219.692 56.4409 219.407 56.6357 219.174C56.8367 218.942 57.0848 218.766 57.38 218.647C57.6753 218.521 57.9893 218.458 58.3222 218.458C58.9755 218.458 59.4655 218.634 59.7921 218.986C60.125 219.331 60.2915 219.793 60.2915 220.371V223.245H59.5848L59.5377 222.406C59.4058 222.67 59.2111 222.896 58.9535 223.084C58.7023 223.267 58.3631 223.358 57.9359 223.358ZM58.0584 222.689C58.3599 222.689 58.6175 222.61 58.831 222.453C59.0509 222.296 59.2174 222.092 59.3304 221.841C59.4435 221.589 59.5 221.326 59.5 221.049V221.04H58.3034C57.8386 221.04 57.5088 221.121 57.3141 221.285C57.1256 221.442 57.0314 221.64 57.0314 221.878C57.0314 222.123 57.1193 222.321 57.2952 222.472C57.4774 222.616 57.7318 222.689 58.0584 222.689ZM63.2439 223.245C62.8167 223.245 62.4807 223.141 62.2357 222.934C61.9907 222.726 61.8682 222.353 61.8682 221.812V219.24H61.0579V218.571H61.8682L61.9719 217.45H62.6597V218.571H64.0353V219.24H62.6597V221.812C62.6597 222.108 62.7194 222.309 62.8387 222.415C62.9581 222.516 63.1685 222.566 63.47 222.566H63.96V223.245H63.2439ZM67.0603 223.358C66.6143 223.358 66.2186 223.257 65.8731 223.056C65.5276 222.849 65.2544 222.563 65.0534 222.199C64.8587 221.834 64.7613 221.404 64.7613 220.908C64.7613 220.418 64.8587 219.991 65.0534 219.626C65.2481 219.256 65.5182 218.97 65.8637 218.769C66.2155 218.562 66.6206 218.458 67.0792 218.458C67.5314 218.458 67.9209 218.562 68.2475 218.769C68.5804 218.97 68.8348 219.237 69.0107 219.57C69.1866 219.903 69.2745 220.261 69.2745 220.644C69.2745 220.713 69.2714 220.782 69.2651 220.851C69.2651 220.92 69.2651 220.999 69.2651 221.087H65.5433C65.5622 221.445 65.6439 221.743 65.7883 221.982C65.9391 222.214 66.1244 222.39 66.3442 222.51C66.5704 222.629 66.8091 222.689 67.0603 222.689C67.387 222.689 67.6602 222.613 67.8801 222.463C68.0999 222.312 68.2601 222.108 68.3606 221.85H69.1426C69.017 222.284 68.7752 222.645 68.4171 222.934C68.0654 223.216 67.6131 223.358 67.0603 223.358ZM67.0603 219.127C66.6834 219.127 66.3474 219.243 66.0521 219.476C65.7632 219.702 65.5967 220.035 65.5528 220.474H68.4925C68.4737 220.054 68.3292 219.724 68.0591 219.485C67.789 219.246 67.4561 219.127 67.0603 219.127ZM72.4907 223.358C72.0259 223.358 71.6176 223.251 71.2658 223.037C70.9203 222.824 70.6502 222.532 70.4555 222.161C70.267 221.79 70.1728 221.37 70.1728 220.898C70.1728 220.427 70.2702 220.01 70.4649 219.645C70.6596 219.275 70.9297 218.986 71.2752 218.778C71.6207 218.565 72.029 218.458 72.5001 218.458C72.8833 218.458 73.2225 218.537 73.5177 218.694C73.8129 218.851 74.0422 219.071 74.2055 219.353V216.461H74.997V223.245H74.2809L74.2055 222.472C74.0548 222.698 73.8381 222.902 73.5554 223.084C73.2727 223.267 72.9178 223.358 72.4907 223.358ZM72.5755 222.67C72.8896 222.67 73.166 222.598 73.4046 222.453C73.6496 222.302 73.8381 222.095 73.97 221.831C74.1082 221.567 74.1773 221.26 74.1773 220.908C74.1773 220.556 74.1082 220.248 73.97 219.985C73.8381 219.721 73.6496 219.517 73.4046 219.372C73.166 219.221 72.8896 219.146 72.5755 219.146C72.2677 219.146 71.9913 219.221 71.7463 219.372C71.5076 219.517 71.3192 219.721 71.181 219.985C71.0491 220.248 70.9831 220.556 70.9831 220.908C70.9831 221.26 71.0491 221.567 71.181 221.831C71.3192 222.095 71.5076 222.302 71.7463 222.453C71.9913 222.598 72.2677 222.67 72.5755 222.67ZM79.3555 217.535C79.1985 217.535 79.0666 217.485 78.9598 217.384C78.8593 217.277 78.809 217.145 78.809 216.988C78.809 216.838 78.8593 216.712 78.9598 216.611C79.0666 216.511 79.1985 216.461 79.3555 216.461C79.5063 216.461 79.635 216.511 79.7418 216.611C79.8486 216.712 79.902 216.838 79.902 216.988C79.902 217.145 79.8486 217.277 79.7418 217.384C79.635 217.485 79.5063 217.535 79.3555 217.535ZM78.9598 223.245V218.571H79.7512V223.245H78.9598ZM83.0232 223.245C82.596 223.245 82.26 223.141 82.015 222.934C81.77 222.726 81.6475 222.353 81.6475 221.812V219.24H80.8372V218.571H81.6475L81.7512 217.45H82.439V218.571H83.8147V219.24H82.439V221.812C82.439 222.108 82.4987 222.309 82.618 222.415C82.7374 222.516 82.9478 222.566 83.2493 222.566H83.7393V223.245H83.0232ZM85.6399 221.398L85.6022 219.881H85.8943C86.2461 219.881 86.5727 219.846 86.8742 219.777C87.182 219.708 87.4301 219.573 87.6186 219.372C87.807 219.171 87.9013 218.87 87.9013 218.468C87.9013 218.078 87.7788 217.77 87.5338 217.544C87.2951 217.318 86.9779 217.205 86.5821 217.205C86.1801 217.205 85.8629 217.315 85.6305 217.535C85.3981 217.755 85.2819 218.05 85.2819 218.42H84.5281C84.5281 218.044 84.6129 217.714 84.7825 217.431C84.9584 217.148 85.2002 216.929 85.508 216.772C85.8158 216.615 86.1738 216.536 86.5821 216.536C86.9904 216.536 87.3516 216.615 87.6657 216.772C87.9798 216.929 88.2247 217.152 88.4006 217.441C88.5765 217.729 88.6645 218.072 88.6645 218.468C88.6645 218.932 88.5639 219.309 88.3629 219.598C88.1682 219.887 87.895 220.098 87.5432 220.23C87.1977 220.361 86.802 220.427 86.356 220.427L86.3277 221.398H85.6399ZM85.9791 223.292C85.8221 223.292 85.6902 223.241 85.5834 223.141C85.4829 223.034 85.4326 222.905 85.4326 222.755C85.4326 222.604 85.4829 222.478 85.5834 222.378C85.6902 222.271 85.8221 222.218 85.9791 222.218C86.1362 222.218 86.2649 222.271 86.3654 222.378C86.4659 222.478 86.5162 222.604 86.5162 222.755C86.5162 222.905 86.4659 223.034 86.3654 223.141C86.2649 223.241 86.1362 223.292 85.9791 223.292Z" fill="#8B9297"/>
<path d="M9.71656 269.711C9.71656 267.272 11.694 265.294 14.1332 265.294H197.867C200.306 265.294 202.283 267.272 202.283 269.711V293.267C202.283 295.706 200.306 297.683 197.867 297.683H14.1332C11.694 297.683 9.71656 295.706 9.71656 293.267V269.711Z" stroke="#C0C7CD" stroke-width="0.588889"/>
<path d="M21.6426 284.602C21.159 284.602 20.7381 284.514 20.3801 284.338C20.022 284.162 19.7456 283.917 19.5509 283.603C19.3562 283.289 19.2588 282.925 19.2588 282.51H20.088C20.088 282.768 20.1476 283.007 20.267 283.226C20.3863 283.44 20.5591 283.613 20.7852 283.745C21.0176 283.87 21.3034 283.933 21.6426 283.933C22.0886 283.933 22.4341 283.826 22.6791 283.613C22.9241 283.399 23.0465 283.132 23.0465 282.812C23.0465 282.548 22.99 282.338 22.8769 282.181C22.7639 282.017 22.61 281.885 22.4153 281.785C22.2268 281.684 22.007 281.596 21.7557 281.521C21.5107 281.446 21.2532 281.361 20.9831 281.267C20.4743 281.091 20.0974 280.874 19.8524 280.616C19.6074 280.353 19.4849 280.01 19.4849 279.589C19.4787 279.238 19.5603 278.927 19.7299 278.657C19.8995 278.38 20.1382 278.167 20.446 278.016C20.7601 277.859 21.1307 277.78 21.5578 277.78C21.9787 277.78 22.343 277.859 22.6508 278.016C22.9649 278.173 23.2067 278.39 23.3763 278.666C23.5522 278.942 23.6433 279.257 23.6496 279.608H22.8204C22.8204 279.426 22.7733 279.247 22.6791 279.071C22.5849 278.889 22.4404 278.741 22.2457 278.628C22.0572 278.515 21.8185 278.459 21.5296 278.459C21.1715 278.453 20.8763 278.544 20.6439 278.732C20.4177 278.92 20.3047 279.181 20.3047 279.514C20.3047 279.797 20.3832 280.013 20.5402 280.164C20.7036 280.315 20.9297 280.441 21.2186 280.541C21.5076 280.635 21.8405 280.745 22.2174 280.871C22.5315 280.984 22.8141 281.116 23.0654 281.267C23.3167 281.417 23.5114 281.612 23.6496 281.851C23.794 282.089 23.8663 282.394 23.8663 282.765C23.8663 283.079 23.7846 283.377 23.6213 283.66C23.458 283.936 23.2099 284.162 22.8769 284.338C22.5503 284.514 22.1389 284.602 21.6426 284.602ZM27.0899 284.602C26.6439 284.602 26.2481 284.502 25.9027 284.301C25.5572 284.093 25.2839 283.807 25.0829 283.443C24.8882 283.079 24.7908 282.649 24.7908 282.152C24.7908 281.662 24.8882 281.235 25.0829 280.871C25.2777 280.5 25.5478 280.214 25.8932 280.013C26.245 279.806 26.6502 279.703 27.1087 279.703C27.561 279.703 27.9504 279.806 28.2771 280.013C28.61 280.214 28.8644 280.481 29.0403 280.814C29.2161 281.147 29.3041 281.505 29.3041 281.888C29.3041 281.958 29.3009 282.027 29.2947 282.096C29.2947 282.165 29.2947 282.243 29.2947 282.331H25.5729C25.5917 282.689 25.6734 282.988 25.8179 283.226C25.9686 283.459 26.1539 283.635 26.3738 283.754C26.5999 283.873 26.8386 283.933 27.0899 283.933C27.4165 283.933 27.6897 283.858 27.9096 283.707C28.1294 283.556 28.2896 283.352 28.3901 283.095H29.1722C29.0465 283.528 28.8047 283.889 28.4467 284.178C28.0949 284.461 27.6426 284.602 27.0899 284.602ZM27.0899 280.372C26.713 280.372 26.3769 280.488 26.0817 280.72C25.7927 280.946 25.6263 281.279 25.5823 281.719H28.522C28.5032 281.298 28.3587 280.968 28.0886 280.73C27.8185 280.491 27.4856 280.372 27.0899 280.372ZM32.5485 284.602C32.1025 284.602 31.7005 284.502 31.3424 284.301C30.9907 284.093 30.7112 283.807 30.5039 283.443C30.3029 283.073 30.2024 282.642 30.2024 282.152C30.2024 281.662 30.3029 281.235 30.5039 280.871C30.7112 280.5 30.9907 280.214 31.3424 280.013C31.7005 279.806 32.1025 279.703 32.5485 279.703C33.1013 279.703 33.5661 279.847 33.943 280.136C34.3262 280.425 34.568 280.811 34.6685 281.295H33.8582C33.7954 281.006 33.6415 280.783 33.3965 280.626C33.1515 280.463 32.8657 280.381 32.5391 280.381C32.2752 280.381 32.0271 280.447 31.7947 280.579C31.5623 280.711 31.3739 280.909 31.2294 281.172C31.0849 281.436 31.0127 281.763 31.0127 282.152C31.0127 282.542 31.0849 282.868 31.2294 283.132C31.3739 283.396 31.5623 283.597 31.7947 283.735C32.0271 283.867 32.2752 283.933 32.5391 283.933C32.8657 283.933 33.1515 283.855 33.3965 283.698C33.6415 283.534 33.7954 283.305 33.8582 283.01H34.6685C34.5743 283.481 34.3356 283.864 33.9524 284.159C33.5692 284.454 33.1013 284.602 32.5485 284.602ZM37.9504 284.602C37.5107 284.602 37.1149 284.502 36.7632 284.301C36.4114 284.1 36.1319 283.817 35.9246 283.453C35.7236 283.082 35.6231 282.649 35.6231 282.152C35.6231 281.656 35.7267 281.226 35.934 280.861C36.1413 280.491 36.4208 280.205 36.7726 280.004C37.1306 279.803 37.5295 279.703 37.9692 279.703C38.4089 279.703 38.8047 279.803 39.1564 280.004C39.5082 280.205 39.7846 280.491 39.9856 280.861C40.1929 281.226 40.2965 281.656 40.2965 282.152C40.2965 282.649 40.1929 283.082 39.9856 283.453C39.7783 283.817 39.4956 284.1 39.1376 284.301C38.7858 284.502 38.3901 284.602 37.9504 284.602ZM37.9504 283.924C38.2205 283.924 38.4717 283.858 38.7041 283.726C38.9366 283.594 39.125 283.396 39.2695 283.132C39.414 282.868 39.4862 282.542 39.4862 282.152C39.4862 281.763 39.414 281.436 39.2695 281.172C39.1313 280.909 38.946 280.711 38.7136 280.579C38.4812 280.447 38.233 280.381 37.9692 280.381C37.6991 280.381 37.4479 280.447 37.2154 280.579C36.983 280.711 36.7946 280.909 36.6501 281.172C36.5056 281.436 36.4334 281.763 36.4334 282.152C36.4334 282.542 36.5056 282.868 36.6501 283.132C36.7946 283.396 36.9799 283.594 37.206 283.726C37.4384 283.858 37.6865 283.924 37.9504 283.924ZM41.4441 284.489V279.816H42.1602L42.2073 280.654C42.3581 280.359 42.5748 280.127 42.8574 279.957C43.1401 279.787 43.4605 279.703 43.8185 279.703C44.3713 279.703 44.811 279.872 45.1376 280.211C45.4705 280.544 45.637 281.059 45.637 281.757V284.489H44.8455V281.841C44.8455 280.868 44.4435 280.381 43.6395 280.381C43.2375 280.381 42.9014 280.529 42.6313 280.824C42.3675 281.113 42.2356 281.527 42.2356 282.068V284.489H41.4441ZM49.0032 284.602C48.5384 284.602 48.1301 284.495 47.7783 284.282C47.4329 284.068 47.1628 283.776 46.968 283.405C46.7796 283.035 46.6854 282.614 46.6854 282.143C46.6854 281.672 46.7827 281.254 46.9774 280.89C47.1722 280.519 47.4423 280.23 47.7878 280.023C48.1332 279.809 48.5415 279.703 49.0126 279.703C49.3958 279.703 49.735 279.781 50.0302 279.938C50.3255 280.095 50.5548 280.315 50.7181 280.598V277.705H51.5095V284.489H50.7934L50.7181 283.716C50.5673 283.943 50.3506 284.147 50.0679 284.329C49.7853 284.511 49.4304 284.602 49.0032 284.602ZM49.088 283.914C49.4021 283.914 49.6785 283.842 49.9172 283.698C50.1622 283.547 50.3506 283.34 50.4825 283.076C50.6207 282.812 50.6898 282.504 50.6898 282.152C50.6898 281.801 50.6207 281.493 50.4825 281.229C50.3506 280.965 50.1622 280.761 49.9172 280.616C49.6785 280.466 49.4021 280.39 49.088 280.39C48.7802 280.39 48.5038 280.466 48.2589 280.616C48.0202 280.761 47.8317 280.965 47.6935 281.229C47.5616 281.493 47.4957 281.801 47.4957 282.152C47.4957 282.504 47.5616 282.812 47.6935 283.076C47.8317 283.34 48.0202 283.547 48.2589 283.698C48.5038 283.842 48.7802 283.914 49.088 283.914ZM55.3875 286.562V279.816H56.1036L56.179 280.588C56.3297 280.362 56.5433 280.158 56.8197 279.976C57.1024 279.794 57.4604 279.703 57.8938 279.703C58.3587 279.703 58.7638 279.809 59.1093 280.023C59.4548 280.236 59.7217 280.529 59.9102 280.899C60.1049 281.27 60.2023 281.691 60.2023 282.162C60.2023 282.633 60.1049 283.054 59.9102 283.424C59.7217 283.789 59.4516 284.078 59.0999 284.291C58.7544 284.498 58.3492 284.602 57.8844 284.602C57.5012 284.602 57.1589 284.524 56.8574 284.367C56.5622 284.209 56.336 283.99 56.179 283.707V286.562H55.3875ZM57.7996 283.914C58.1137 283.914 58.3901 283.842 58.6288 283.698C58.8675 283.547 59.0559 283.34 59.1941 283.076C59.3323 282.812 59.4014 282.504 59.4014 282.152C59.4014 281.801 59.3323 281.493 59.1941 281.229C59.0559 280.965 58.8675 280.761 58.6288 280.616C58.3901 280.466 58.1137 280.39 57.7996 280.39C57.4855 280.39 57.2091 280.466 56.9705 280.616C56.7318 280.761 56.5433 280.965 56.4051 281.229C56.2669 281.493 56.1978 281.801 56.1978 282.152C56.1978 282.504 56.2669 282.812 56.4051 283.076C56.5433 283.34 56.7318 283.547 56.9705 283.698C57.2091 283.842 57.4855 283.914 57.7996 283.914ZM63.0565 284.602C62.5038 284.602 62.0641 284.436 61.7374 284.103C61.4108 283.764 61.2475 283.245 61.2475 282.548V279.816H62.0389V282.463C62.0389 283.437 62.4378 283.924 63.2356 283.924C63.6439 283.924 63.9799 283.779 64.2437 283.49C64.5138 283.195 64.6489 282.777 64.6489 282.237V279.816H65.4404V284.489H64.7243L64.6677 283.65C64.5233 283.946 64.3066 284.178 64.0176 284.348C63.7349 284.517 63.4146 284.602 63.0565 284.602ZM66.7902 284.489V279.816H67.5063L67.5534 280.654C67.7042 280.359 67.9209 280.127 68.2036 279.957C68.4862 279.787 68.8066 279.703 69.1646 279.703C69.7174 279.703 70.1571 279.872 70.4838 280.211C70.8167 280.544 70.9831 281.059 70.9831 281.757V284.489H70.1917V281.841C70.1917 280.868 69.7897 280.381 68.9856 280.381C68.5836 280.381 68.2476 280.529 67.9774 280.824C67.7136 281.113 67.5817 281.527 67.5817 282.068V284.489H66.7902ZM74.3776 284.602C73.9317 284.602 73.5296 284.502 73.1716 284.301C72.8198 284.093 72.5403 283.807 72.333 283.443C72.132 283.073 72.0315 282.642 72.0315 282.152C72.0315 281.662 72.132 281.235 72.333 280.871C72.5403 280.5 72.8198 280.214 73.1716 280.013C73.5296 279.806 73.9317 279.703 74.3776 279.703C74.9304 279.703 75.3952 279.847 75.7721 280.136C76.1553 280.425 76.3971 280.811 76.4976 281.295H75.6873C75.6245 281.006 75.4706 280.783 75.2256 280.626C74.9807 280.463 74.6949 280.381 74.3682 280.381C74.1044 280.381 73.8563 280.447 73.6239 280.579C73.3914 280.711 73.203 280.909 73.0585 281.172C72.9141 281.436 72.8418 281.763 72.8418 282.152C72.8418 282.542 72.9141 282.868 73.0585 283.132C73.203 283.396 73.3914 283.597 73.6239 283.735C73.8563 283.867 74.1044 283.933 74.3682 283.933C74.6949 283.933 74.9807 283.855 75.2256 283.698C75.4706 283.534 75.6245 283.305 75.6873 283.01H76.4976C76.4034 283.481 76.1647 283.864 75.7816 284.159C75.3984 284.454 74.9304 284.602 74.3776 284.602ZM77.6501 284.489V277.705H78.4416V280.616C78.5986 280.328 78.8216 280.105 79.1105 279.948C79.3995 279.784 79.7136 279.703 80.0528 279.703C80.593 279.703 81.0264 279.872 81.353 280.211C81.6797 280.544 81.843 281.059 81.843 281.757V284.489H81.0609V281.841C81.0609 280.868 80.6683 280.381 79.8832 280.381C79.4749 280.381 79.1325 280.529 78.8561 280.824C78.5798 281.113 78.4416 281.527 78.4416 282.068V284.489H77.6501ZM83.0892 284.489V277.705H83.8807V284.489H83.0892ZM85.7056 278.779C85.5485 278.779 85.4166 278.729 85.3098 278.628C85.2093 278.522 85.1591 278.39 85.1591 278.233C85.1591 278.082 85.2093 277.956 85.3098 277.856C85.4166 277.755 85.5485 277.705 85.7056 277.705C85.8563 277.705 85.9851 277.755 86.0919 277.856C86.1987 277.956 86.2521 278.082 86.2521 278.233C86.2521 278.39 86.1987 278.522 86.0919 278.628C85.9851 278.729 85.8563 278.779 85.7056 278.779ZM85.3098 284.489V279.816H86.1013V284.489H85.3098ZM87.5265 284.489V279.816H88.2426L88.2897 280.654C88.4405 280.359 88.6572 280.127 88.9398 279.957C89.2225 279.787 89.5429 279.703 89.9009 279.703C90.4537 279.703 90.8934 279.872 91.22 280.211C91.5529 280.544 91.7194 281.059 91.7194 281.757V284.489H90.9279V281.841C90.9279 280.868 90.5259 280.381 89.7219 280.381C89.3199 280.381 88.9838 280.529 88.7137 280.824C88.4499 281.113 88.318 281.527 88.318 282.068V284.489H87.5265ZM95.0668 284.602C94.6208 284.602 94.2251 284.502 93.8796 284.301C93.5341 284.093 93.2609 283.807 93.0598 283.443C92.8651 283.079 92.7678 282.649 92.7678 282.152C92.7678 281.662 92.8651 281.235 93.0598 280.871C93.2546 280.5 93.5247 280.214 93.8702 280.013C94.2219 279.806 94.6271 279.703 95.0856 279.703C95.5379 279.703 95.9273 279.806 96.254 280.013C96.5869 280.214 96.8413 280.481 97.0172 280.814C97.1931 281.147 97.281 281.505 97.281 281.888C97.281 281.958 97.2779 282.027 97.2716 282.096C97.2716 282.165 97.2716 282.243 97.2716 282.331H93.5498C93.5686 282.689 93.6503 282.988 93.7948 283.226C93.9455 283.459 94.1308 283.635 94.3507 283.754C94.5768 283.873 94.8155 283.933 95.0668 283.933C95.3934 283.933 95.6667 283.858 95.8865 283.707C96.1064 283.556 96.2665 283.352 96.367 283.095H97.1491C97.0235 283.528 96.7816 283.889 96.4236 284.178C96.0718 284.461 95.6196 284.602 95.0668 284.602ZM95.0668 280.372C94.6899 280.372 94.3538 280.488 94.0586 280.72C93.7697 280.946 93.6032 281.279 93.5592 281.719H96.499C96.4801 281.298 96.3356 280.968 96.0655 280.73C95.7954 280.491 95.4625 280.372 95.0668 280.372ZM98.6504 284.536C98.4933 284.536 98.3614 284.486 98.2546 284.385C98.1541 284.279 98.1039 284.15 98.1039 283.999C98.1039 283.848 98.1541 283.723 98.2546 283.622C98.3614 283.515 98.4933 283.462 98.6504 283.462C98.8011 283.462 98.9268 283.515 99.0273 283.622C99.1341 283.723 99.1874 283.848 99.1874 283.999C99.1874 284.15 99.1341 284.279 99.0273 284.385C98.9268 284.486 98.8011 284.536 98.6504 284.536ZM100.538 284.536C100.381 284.536 100.249 284.486 100.142 284.385C100.042 284.279 99.9913 284.15 99.9913 283.999C99.9913 283.848 100.042 283.723 100.142 283.622C100.249 283.515 100.381 283.462 100.538 283.462C100.689 283.462 100.814 283.515 100.915 283.622C101.021 283.723 101.075 283.848 101.075 283.999C101.075 284.15 101.021 284.279 100.915 284.385C100.814 284.486 100.689 284.536 100.538 284.536ZM102.425 284.536C102.268 284.536 102.136 284.486 102.029 284.385C101.929 284.279 101.879 284.15 101.879 283.999C101.879 283.848 101.929 283.723 102.029 283.622C102.136 283.515 102.268 283.462 102.425 283.462C102.576 283.462 102.702 283.515 102.802 283.622C102.909 283.723 102.962 283.848 102.962 283.999C102.962 284.15 102.909 284.279 102.802 284.385C102.702 284.486 102.576 284.536 102.425 284.536Z" fill="#8B9297"/>
<path d="M9.71656 326.244C9.71656 323.805 11.694 321.828 14.1332 321.828H197.867C200.306 321.828 202.283 323.805 202.283 326.244V349.8C202.283 352.239 200.306 354.217 197.867 354.217H14.1332C11.694 354.217 9.71656 352.239 9.71656 349.8V326.244Z" stroke="#C0C7CD" stroke-width="0.588889"/>
<path d="M20.8983 341.032L19.0892 334.427H19.9372L21.36 340.089L22.9806 334.427H23.8569L25.4304 340.089L26.872 334.427H27.72L25.8732 341.022H24.9687L23.3952 335.576L21.784 341.022L20.8983 341.032ZM28.6509 341.022V334.238H29.4423V337.15C29.5994 336.861 29.8224 336.638 30.1113 336.481C30.4003 336.317 30.7143 336.236 31.0535 336.236C31.5937 336.236 32.0272 336.405 32.3538 336.745C32.6804 337.077 32.8437 337.593 32.8437 338.29V341.022H32.0617V338.375C32.0617 337.401 31.6691 336.914 30.8839 336.914C30.4756 336.914 30.1333 337.062 29.8569 337.357C29.5805 337.646 29.4423 338.06 29.4423 338.601V341.022H28.6509ZM36.2194 341.135C35.7797 341.135 35.384 341.035 35.0322 340.834C34.6804 340.633 34.4009 340.35 34.1936 339.986C33.9926 339.615 33.8921 339.182 33.8921 338.686C33.8921 338.189 33.9958 337.759 34.203 337.395C34.4103 337.024 34.6899 336.738 35.0416 336.537C35.3997 336.336 35.7985 336.236 36.2383 336.236C36.678 336.236 37.0737 336.336 37.4254 336.537C37.7772 336.738 38.0536 337.024 38.2546 337.395C38.4619 337.759 38.5655 338.189 38.5655 338.686C38.5655 339.182 38.4619 339.615 38.2546 339.986C38.0473 340.35 37.7647 340.633 37.4066 340.834C37.0548 341.035 36.6591 341.135 36.2194 341.135ZM36.2194 340.457C36.4895 340.457 36.7408 340.391 36.9732 340.259C37.2056 340.127 37.394 339.929 37.5385 339.665C37.683 339.402 37.7552 339.075 37.7552 338.686C37.7552 338.296 37.683 337.969 37.5385 337.706C37.4003 337.442 37.215 337.244 36.9826 337.112C36.7502 336.98 36.5021 336.914 36.2383 336.914C35.9681 336.914 35.7169 336.98 35.4845 337.112C35.2521 337.244 35.0636 337.442 34.9191 337.706C34.7747 337.969 34.7024 338.296 34.7024 338.686C34.7024 339.075 34.7747 339.402 34.9191 339.665C35.0636 339.929 35.2489 340.127 35.475 340.259C35.7075 340.391 35.9556 340.457 36.2194 340.457ZM44.4021 341.135C43.9561 341.135 43.5541 341.035 43.196 340.834C42.8443 340.626 42.5648 340.341 42.3575 339.976C42.1565 339.606 42.056 339.175 42.056 338.686C42.056 338.196 42.1565 337.768 42.3575 337.404C42.5648 337.033 42.8443 336.748 43.196 336.547C43.5541 336.339 43.9561 336.236 44.4021 336.236C44.9549 336.236 45.4197 336.38 45.7966 336.669C46.1797 336.958 46.4216 337.344 46.5221 337.828H45.7118C45.649 337.539 45.4951 337.316 45.2501 337.159C45.0051 336.996 44.7193 336.914 44.3927 336.914C44.1288 336.914 43.8807 336.98 43.6483 337.112C43.4159 337.244 43.2275 337.442 43.083 337.706C42.9385 337.969 42.8663 338.296 42.8663 338.686C42.8663 339.075 42.9385 339.402 43.083 339.665C43.2275 339.929 43.4159 340.13 43.6483 340.268C43.8807 340.4 44.1288 340.466 44.3927 340.466C44.7193 340.466 45.0051 340.388 45.2501 340.231C45.4951 340.067 45.649 339.838 45.7118 339.543H46.5221C46.4279 340.014 46.1892 340.397 45.806 340.692C45.4228 340.988 44.9549 341.135 44.4021 341.135ZM47.6745 341.022V336.349H48.3906L48.4566 337.244C48.6011 336.936 48.8209 336.691 49.1161 336.509C49.4114 336.327 49.7757 336.236 50.2091 336.236V337.065H49.9924C49.716 337.065 49.4616 337.115 49.2292 337.216C48.9968 337.31 48.8115 337.473 48.6733 337.706C48.5351 337.938 48.466 338.258 48.466 338.667V341.022H47.6745ZM53.0709 341.135C52.6249 341.135 52.2292 341.035 51.8837 340.834C51.5382 340.626 51.265 340.341 51.064 339.976C50.8692 339.612 50.7719 339.182 50.7719 338.686C50.7719 338.196 50.8692 337.768 51.064 337.404C51.2587 337.033 51.5288 336.748 51.8743 336.547C52.226 336.339 52.6312 336.236 53.0897 336.236C53.542 336.236 53.9315 336.339 54.2581 336.547C54.591 336.748 54.8454 337.015 55.0213 337.348C55.1972 337.68 55.2851 338.039 55.2851 338.422C55.2851 338.491 55.282 338.56 55.2757 338.629C55.2757 338.698 55.2757 338.777 55.2757 338.865H51.5539C51.5728 339.223 51.6544 339.521 51.7989 339.76C51.9497 339.992 52.135 340.168 52.3548 340.287C52.5809 340.407 52.8196 340.466 53.0709 340.466C53.3975 340.466 53.6708 340.391 53.8906 340.24C54.1105 340.089 54.2707 339.885 54.3712 339.628H55.1532C55.0276 340.061 54.7857 340.422 54.4277 340.711C54.0759 340.994 53.6237 341.135 53.0709 341.135ZM53.0709 336.905C52.694 336.905 52.358 337.021 52.0627 337.253C51.7738 337.479 51.6073 337.812 51.5633 338.252H54.5031C54.4842 337.831 54.3398 337.501 54.0697 337.263C53.7996 337.024 53.4666 336.905 53.0709 336.905ZM57.9359 341.135C57.5465 341.135 57.223 341.069 56.9654 340.937C56.7079 340.806 56.5163 340.63 56.3907 340.41C56.2651 340.19 56.2022 339.951 56.2022 339.694C56.2022 339.216 56.3844 338.849 56.7487 338.591C57.1131 338.334 57.6093 338.205 58.2374 338.205H59.5V338.148C59.5 337.74 59.3932 337.432 59.1797 337.225C58.9661 337.011 58.6803 336.905 58.3222 336.905C58.0145 336.905 57.7475 336.983 57.5214 337.14C57.3015 337.291 57.1633 337.514 57.1068 337.809H56.2965C56.3279 337.47 56.4409 337.184 56.6357 336.952C56.8367 336.719 57.0848 336.544 57.38 336.424C57.6753 336.299 57.9893 336.236 58.3222 336.236C58.9755 336.236 59.4655 336.412 59.7921 336.763C60.125 337.109 60.2915 337.571 60.2915 338.148V341.022H59.5848L59.5377 340.184C59.4058 340.447 59.2111 340.674 58.9535 340.862C58.7023 341.044 58.3631 341.135 57.9359 341.135ZM58.0584 340.466C58.3599 340.466 58.6175 340.388 58.831 340.231C59.0509 340.074 59.2174 339.87 59.3304 339.618C59.4435 339.367 59.5 339.103 59.5 338.827V338.817H58.3034C57.8386 338.817 57.5088 338.899 57.3141 339.062C57.1256 339.219 57.0314 339.417 57.0314 339.656C57.0314 339.901 57.1193 340.099 57.2952 340.25C57.4774 340.394 57.7318 340.466 58.0584 340.466ZM63.2439 341.022C62.8167 341.022 62.4807 340.919 62.2357 340.711C61.9907 340.504 61.8682 340.13 61.8682 339.59V337.018H61.0579V336.349H61.8682L61.9719 335.228H62.6597V336.349H64.0353V337.018H62.6597V339.59C62.6597 339.885 62.7194 340.086 62.8387 340.193C62.9581 340.294 63.1685 340.344 63.47 340.344H63.96V341.022H63.2439ZM67.0603 341.135C66.6143 341.135 66.2186 341.035 65.8731 340.834C65.5276 340.626 65.2544 340.341 65.0534 339.976C64.8587 339.612 64.7613 339.182 64.7613 338.686C64.7613 338.196 64.8587 337.768 65.0534 337.404C65.2481 337.033 65.5182 336.748 65.8637 336.547C66.2155 336.339 66.6206 336.236 67.0792 336.236C67.5314 336.236 67.9209 336.339 68.2475 336.547C68.5804 336.748 68.8348 337.015 69.0107 337.348C69.1866 337.68 69.2745 338.039 69.2745 338.422C69.2745 338.491 69.2714 338.56 69.2651 338.629C69.2651 338.698 69.2651 338.777 69.2651 338.865H65.5433C65.5622 339.223 65.6439 339.521 65.7883 339.76C65.9391 339.992 66.1244 340.168 66.3442 340.287C66.5704 340.407 66.8091 340.466 67.0603 340.466C67.387 340.466 67.6602 340.391 67.8801 340.24C68.0999 340.089 68.2601 339.885 68.3606 339.628H69.1426C69.017 340.061 68.7752 340.422 68.4171 340.711C68.0654 340.994 67.6131 341.135 67.0603 341.135ZM67.0603 336.905C66.6834 336.905 66.3474 337.021 66.0521 337.253C65.7632 337.479 65.5967 337.812 65.5528 338.252H68.4925C68.4737 337.831 68.3292 337.501 68.0591 337.263C67.789 337.024 67.4561 336.905 67.0603 336.905ZM72.4907 341.135C72.0259 341.135 71.6176 341.028 71.2658 340.815C70.9203 340.601 70.6502 340.309 70.4555 339.939C70.267 339.568 70.1728 339.147 70.1728 338.676C70.1728 338.205 70.2702 337.787 70.4649 337.423C70.6596 337.052 70.9297 336.763 71.2752 336.556C71.6207 336.343 72.029 336.236 72.5001 336.236C72.8833 336.236 73.2225 336.314 73.5177 336.471C73.8129 336.628 74.0422 336.848 74.2055 337.131V334.238H74.997V341.022H74.2809L74.2055 340.25C74.0548 340.476 73.8381 340.68 73.5554 340.862C73.2727 341.044 72.9178 341.135 72.4907 341.135ZM72.5755 340.447C72.8896 340.447 73.166 340.375 73.4046 340.231C73.6496 340.08 73.8381 339.873 73.97 339.609C74.1082 339.345 74.1773 339.037 74.1773 338.686C74.1773 338.334 74.1082 338.026 73.97 337.762C73.8381 337.498 73.6496 337.294 73.4046 337.15C73.166 336.999 72.8896 336.924 72.5755 336.924C72.2677 336.924 71.9913 336.999 71.7463 337.15C71.5076 337.294 71.3192 337.498 71.181 337.762C71.0491 338.026 70.9831 338.334 70.9831 338.686C70.9831 339.037 71.0491 339.345 71.181 339.609C71.3192 339.873 71.5076 340.08 71.7463 340.231C71.9913 340.375 72.2677 340.447 72.5755 340.447ZM79.3555 335.312C79.1985 335.312 79.0666 335.262 78.9598 335.162C78.8593 335.055 78.809 334.923 78.809 334.766C78.809 334.615 78.8593 334.489 78.9598 334.389C79.0666 334.288 79.1985 334.238 79.3555 334.238C79.5063 334.238 79.635 334.288 79.7418 334.389C79.8486 334.489 79.902 334.615 79.902 334.766C79.902 334.923 79.8486 335.055 79.7418 335.162C79.635 335.262 79.5063 335.312 79.3555 335.312ZM78.9598 341.022V336.349H79.7512V341.022H78.9598ZM83.0232 341.022C82.596 341.022 82.26 340.919 82.015 340.711C81.77 340.504 81.6475 340.13 81.6475 339.59V337.018H80.8372V336.349H81.6475L81.7512 335.228H82.439V336.349H83.8147V337.018H82.439V339.59C82.439 339.885 82.4987 340.086 82.618 340.193C82.7374 340.294 82.9478 340.344 83.2493 340.344H83.7393V341.022H83.0232ZM85.6399 339.175L85.6022 337.658H85.8943C86.2461 337.658 86.5727 337.624 86.8742 337.555C87.182 337.486 87.4301 337.351 87.6186 337.15C87.807 336.949 87.9013 336.647 87.9013 336.245C87.9013 335.856 87.7788 335.548 87.5338 335.322C87.2951 335.096 86.9779 334.983 86.5821 334.983C86.1801 334.983 85.8629 335.092 85.6305 335.312C85.3981 335.532 85.2819 335.827 85.2819 336.198H84.5281C84.5281 335.821 84.6129 335.491 84.7825 335.209C84.9584 334.926 85.2002 334.706 85.508 334.549C85.8158 334.392 86.1738 334.314 86.5821 334.314C86.9904 334.314 87.3516 334.392 87.6657 334.549C87.9798 334.706 88.2247 334.929 88.4006 335.218C88.5765 335.507 88.6645 335.849 88.6645 336.245C88.6645 336.71 88.5639 337.087 88.3629 337.376C88.1682 337.665 87.895 337.875 87.5432 338.007C87.1977 338.139 86.802 338.205 86.356 338.205L86.3277 339.175H85.6399ZM85.9791 341.069C85.8221 341.069 85.6902 341.019 85.5834 340.919C85.4829 340.812 85.4326 340.683 85.4326 340.532C85.4326 340.382 85.4829 340.256 85.5834 340.155C85.6902 340.049 85.8221 339.995 85.9791 339.995C86.1362 339.995 86.2649 340.049 86.3654 340.155C86.4659 340.256 86.5162 340.382 86.5162 340.532C86.5162 340.683 86.4659 340.812 86.3654 340.919C86.2649 341.019 86.1362 341.069 85.9791 341.069Z" fill="#8B9297"/>
<path d="M10.0911 138.378V131.782H14.2275V132.592H11.0899V134.675H13.6904V135.476H11.0899V138.378H10.0911ZM15.7488 132.819C15.5604 132.819 15.4034 132.762 15.2777 132.649C15.1584 132.53 15.0987 132.382 15.0987 132.206C15.0987 132.03 15.1584 131.886 15.2777 131.773C15.4034 131.653 15.5604 131.594 15.7488 131.594C15.9373 131.594 16.0912 131.653 16.2105 131.773C16.3362 131.886 16.399 132.03 16.399 132.206C16.399 132.382 16.3362 132.53 16.2105 132.649C16.0912 132.762 15.9373 132.819 15.7488 132.819ZM15.2495 138.378V133.704H16.2482V138.378H15.2495ZM17.5808 138.378V133.704H18.4759L18.5607 134.59C18.724 134.282 18.9502 134.04 19.2391 133.864C19.5343 133.682 19.8893 133.591 20.3038 133.591V134.637H20.0306C19.7542 134.637 19.5061 134.684 19.2862 134.778C19.0727 134.866 18.8999 135.02 18.768 135.24C18.6424 135.454 18.5796 135.752 18.5796 136.135V138.378H17.5808ZM23.0399 138.491C22.4494 138.491 21.9626 138.346 21.5794 138.057C21.1963 137.768 20.9764 137.385 20.9199 136.908H21.9281C21.9783 137.121 22.0977 137.307 22.2861 137.464C22.4745 137.614 22.7227 137.69 23.0305 137.69C23.332 137.69 23.5518 137.627 23.69 137.501C23.8282 137.376 23.8973 137.231 23.8973 137.068C23.8973 136.829 23.7999 136.669 23.6052 136.587C23.4168 136.5 23.1529 136.421 22.8137 136.352C22.5499 136.295 22.2861 136.22 22.0223 136.126C21.7647 136.032 21.548 135.9 21.3721 135.73C21.2025 135.554 21.1177 135.319 21.1177 135.023C21.1177 134.615 21.2748 134.276 21.5889 134.006C21.9029 133.729 22.3426 133.591 22.908 133.591C23.4293 133.591 23.8502 133.717 24.1705 133.968C24.4972 134.219 24.6888 134.574 24.7453 135.033H23.7842C23.7528 134.832 23.6586 134.675 23.5016 134.562C23.3508 134.449 23.1467 134.392 22.8891 134.392C22.6379 134.392 22.4431 134.445 22.3049 134.552C22.1668 134.653 22.0977 134.785 22.0977 134.948C22.0977 135.111 22.1919 135.24 22.3803 135.334C22.5751 135.429 22.8295 135.513 23.1435 135.589C23.4576 135.658 23.7465 135.739 24.0104 135.834C24.2805 135.922 24.4972 136.054 24.6605 136.229C24.8238 136.405 24.9055 136.663 24.9055 137.002C24.9118 137.429 24.7453 137.784 24.4061 138.067C24.0732 138.349 23.6178 138.491 23.0399 138.491ZM27.7949 138.378C27.3364 138.378 26.9721 138.268 26.702 138.048C26.4319 137.822 26.2968 137.423 26.2968 136.851V134.543H25.4959V133.704H26.2968L26.4193 132.517H27.2956V133.704H28.6147V134.543H27.2956V136.851C27.2956 137.109 27.349 137.288 27.4557 137.388C27.5688 137.483 27.7604 137.53 28.0305 137.53H28.5676V138.378H27.7949ZM32.0844 138.378V131.782H34.3928C34.9079 131.782 35.3351 131.87 35.6743 132.046C36.0135 132.216 36.2647 132.451 36.428 132.753C36.5976 133.048 36.6824 133.384 36.6824 133.761C36.6824 134.119 36.6008 134.449 36.4375 134.75C36.2804 135.045 36.0323 135.281 35.6931 135.457C35.3539 135.633 34.9205 135.721 34.3928 135.721H33.0832V138.378H32.0844ZM33.0832 134.901H34.3457C34.8168 134.901 35.1529 134.8 35.3539 134.599C35.5612 134.392 35.6648 134.113 35.6648 133.761C35.6648 133.396 35.5612 133.114 35.3539 132.913C35.1529 132.706 34.8168 132.602 34.3457 132.602H33.0832V134.901ZM39.3704 138.491C38.805 138.491 38.359 138.315 38.0324 137.963C37.712 137.611 37.5519 137.087 37.5519 136.39V133.704H38.5506V136.286C38.5506 137.19 38.9212 137.643 39.6624 137.643C40.0331 137.643 40.3377 137.511 40.5764 137.247C40.8151 136.983 40.9344 136.606 40.9344 136.116V133.704H41.9332V138.378H41.0475L40.9721 137.558C40.8277 137.847 40.6141 138.076 40.3314 138.246C40.055 138.409 39.7347 138.491 39.3704 138.491ZM43.2179 138.378V133.704H44.1036L44.1789 134.524C44.3234 134.235 44.5338 134.009 44.8102 133.846C45.0929 133.676 45.4164 133.591 45.7807 133.591C46.346 133.591 46.7889 133.767 47.1092 134.119C47.4359 134.471 47.5992 134.995 47.5992 135.692V138.378H46.6099V135.796C46.6099 134.891 46.2393 134.439 45.498 134.439C45.1274 134.439 44.8196 134.571 44.5747 134.835C44.336 135.099 44.2166 135.476 44.2166 135.966V138.378H43.2179ZM51.0039 138.491C50.5453 138.491 50.1339 138.387 49.7695 138.18C49.4115 137.973 49.1288 137.687 48.9215 137.322C48.7205 136.952 48.62 136.525 48.62 136.041C48.62 135.557 48.7205 135.133 48.9215 134.769C49.1288 134.398 49.4115 134.109 49.7695 133.902C50.1339 133.695 50.5453 133.591 51.0039 133.591C51.5818 133.591 52.0654 133.742 52.4549 134.043C52.8506 134.345 53.105 134.753 53.2181 135.268H52.1722C52.1094 135.011 51.9712 134.81 51.7576 134.665C51.5441 134.521 51.2928 134.449 51.0039 134.449C50.7589 134.449 50.5327 134.511 50.3255 134.637C50.1182 134.756 49.9517 134.935 49.8261 135.174C49.7005 135.407 49.6376 135.695 49.6376 136.041C49.6376 136.386 49.7005 136.679 49.8261 136.917C49.9517 137.15 50.1182 137.329 50.3255 137.454C50.5327 137.58 50.7589 137.643 51.0039 137.643C51.2928 137.643 51.5441 137.571 51.7576 137.426C51.9712 137.282 52.1094 137.077 52.1722 136.814H53.2181C53.1113 137.316 52.86 137.721 52.4643 138.029C52.0686 138.337 51.5818 138.491 51.0039 138.491ZM54.3154 138.378V131.594H55.3142V134.458C55.4712 134.188 55.6879 133.978 55.9643 133.827C56.247 133.67 56.5579 133.591 56.8971 133.591C57.4561 133.591 57.8958 133.767 58.2162 134.119C58.5366 134.471 58.6967 134.995 58.6967 135.692V138.378H57.7074V135.796C57.7074 134.891 57.3462 134.439 56.6238 134.439C56.247 134.439 55.9329 134.571 55.6816 134.835C55.4366 135.099 55.3142 135.476 55.3142 135.966V138.378H54.3154ZM59.8872 138.378V131.594H60.8859V138.378H59.8872ZM62.7302 132.819C62.5417 132.819 62.3847 132.762 62.2591 132.649C62.1397 132.53 62.08 132.382 62.08 132.206C62.08 132.03 62.1397 131.886 62.2591 131.773C62.3847 131.653 62.5417 131.594 62.7302 131.594C62.9186 131.594 63.0725 131.653 63.1919 131.773C63.3175 131.886 63.3803 132.03 63.3803 132.206C63.3803 132.382 63.3175 132.53 63.1919 132.649C63.0725 132.762 62.9186 132.819 62.7302 132.819ZM62.2308 138.378V133.704H63.2296V138.378H62.2308ZM64.5621 138.378V133.704H65.4478L65.5232 134.524C65.6677 134.235 65.8781 134.009 66.1545 133.846C66.4372 133.676 66.7607 133.591 67.125 133.591C67.6903 133.591 68.1332 133.767 68.4535 134.119C68.7802 134.471 68.9435 134.995 68.9435 135.692V138.378H67.9541V135.796C67.9541 134.891 67.5835 134.439 66.8423 134.439C66.4717 134.439 66.1639 134.571 65.9189 134.835C65.6802 135.099 65.5609 135.476 65.5609 135.966V138.378H64.5621ZM72.3199 138.491C71.8613 138.491 71.453 138.39 71.095 138.189C70.7432 137.982 70.4668 137.696 70.2658 137.332C70.0648 136.967 69.9643 136.543 69.9643 136.06C69.9643 135.57 70.0617 135.14 70.2564 134.769C70.4574 134.398 70.7338 134.109 71.0856 133.902C71.4436 133.695 71.8582 133.591 72.3293 133.591C72.7878 133.591 73.1867 133.695 73.5259 133.902C73.8651 134.103 74.1289 134.373 74.3174 134.712C74.5058 135.052 74.6 135.425 74.6 135.834C74.6 135.897 74.5969 135.966 74.5906 136.041C74.5906 136.11 74.5875 136.189 74.5812 136.277H70.9442C70.9756 136.729 71.1232 137.074 71.3871 137.313C71.6572 137.545 71.9681 137.662 72.3199 137.662C72.6025 137.662 72.8381 137.599 73.0265 137.473C73.2213 137.341 73.3657 137.165 73.46 136.946H74.4587C74.3331 137.385 74.0818 137.753 73.7049 138.048C73.3343 138.343 72.8726 138.491 72.3199 138.491ZM72.3199 134.411C71.987 134.411 71.6917 134.511 71.4342 134.712C71.1766 134.907 71.0196 135.202 70.9631 135.598H73.6013C73.5824 135.234 73.4537 134.945 73.215 134.731C72.9763 134.518 72.6779 134.411 72.3199 134.411Z" fill="#00070A"/>
<path d="M76.7214 134.986L76.8721 133.601L75.7603 134.42L75.3646 133.742L76.646 133.205L75.374 132.687L75.7415 132.027L76.8816 132.847L76.7214 131.452H77.4752L77.315 132.847L78.4456 132.027L78.8037 132.677L77.5317 133.214L78.8131 133.742L78.4268 134.411L77.315 133.601L77.4657 134.986H76.7214Z" fill="#BA1A1A"/>
<path d="M9.6671 194.911L12.098 188.316H13.191L15.6031 194.911H14.5478L13.9825 193.3H11.2877L10.7224 194.911H9.6671ZM11.5704 192.508H13.6998L12.6351 189.503L11.5704 192.508ZM16.4993 194.911V190.238H17.3944L17.4792 191.123C17.6425 190.816 17.8687 190.574 18.1576 190.398C18.4529 190.216 18.8078 190.125 19.2223 190.125V191.171H18.9491C18.6727 191.171 18.4246 191.218 18.2047 191.312C17.9912 191.4 17.8184 191.554 17.6865 191.774C17.5609 191.987 17.4981 192.285 17.4981 192.669V194.911H16.4993ZM22.0526 194.911C21.5941 194.911 21.2297 194.801 20.9596 194.581C20.6895 194.355 20.5545 193.956 20.5545 193.385V191.076H19.7536V190.238H20.5545L20.677 189.051H21.5532V190.238H22.8723V191.076H21.5532V193.385C21.5532 193.642 21.6066 193.821 21.7134 193.922C21.8265 194.016 22.0181 194.063 22.2882 194.063H22.8252V194.911H22.0526ZM24.4816 189.352C24.2932 189.352 24.1361 189.295 24.0105 189.182C23.8912 189.063 23.8315 188.915 23.8315 188.74C23.8315 188.564 23.8912 188.419 24.0105 188.306C24.1361 188.187 24.2932 188.127 24.4816 188.127C24.6701 188.127 24.824 188.187 24.9433 188.306C25.0689 188.419 25.1318 188.564 25.1318 188.74C25.1318 188.915 25.0689 189.063 24.9433 189.182C24.824 189.295 24.6701 189.352 24.4816 189.352ZM23.9823 194.911V190.238H24.981V194.911H23.9823ZM28.1792 195.024C27.5887 195.024 27.1019 194.88 26.7187 194.591C26.3356 194.302 26.1157 193.919 26.0592 193.441H27.0674C27.1176 193.655 27.237 193.84 27.4254 193.997C27.6139 194.148 27.862 194.223 28.1698 194.223C28.4713 194.223 28.6911 194.16 28.8293 194.035C28.9675 193.909 29.0366 193.765 29.0366 193.601C29.0366 193.363 28.9392 193.203 28.7445 193.121C28.5561 193.033 28.2923 192.954 27.9531 192.885C27.6892 192.829 27.4254 192.753 27.1616 192.659C26.904 192.565 26.6873 192.433 26.5115 192.263C26.3419 192.088 26.2571 191.852 26.2571 191.557C26.2571 191.149 26.4141 190.809 26.7282 190.539C27.0422 190.263 27.4819 190.125 28.0473 190.125C28.5686 190.125 28.9895 190.25 29.3099 190.502C29.6365 190.753 29.8281 191.108 29.8846 191.566H28.9235C28.8921 191.365 28.7979 191.208 28.6409 191.095C28.4901 190.982 28.286 190.926 28.0284 190.926C27.7772 190.926 27.5824 190.979 27.4443 191.086C27.3061 191.186 27.237 191.318 27.237 191.481C27.237 191.645 27.3312 191.774 27.5196 191.868C27.7144 191.962 27.9688 192.047 28.2828 192.122C28.5969 192.191 28.8859 192.273 29.1497 192.367C29.4198 192.455 29.6365 192.587 29.7998 192.763C29.9631 192.939 30.0448 193.196 30.0448 193.535C30.0511 193.963 29.8846 194.318 29.5454 194.6C29.2125 194.883 28.7571 195.024 28.1792 195.024ZM32.9342 194.911C32.4757 194.911 32.1114 194.801 31.8413 194.581C31.5712 194.355 31.4361 193.956 31.4361 193.385V191.076H30.6352V190.238H31.4361L31.5586 189.051H32.4349V190.238H33.754V191.076H32.4349V193.385C32.4349 193.642 32.4883 193.821 32.595 193.922C32.7081 194.016 32.8997 194.063 33.1698 194.063H33.7069V194.911H32.9342ZM36.8643 195.024C36.4057 195.024 35.9974 194.924 35.6394 194.723C35.2876 194.515 35.0112 194.23 34.8102 193.865C34.6092 193.501 34.5087 193.077 34.5087 192.593C34.5087 192.103 34.6061 191.673 34.8008 191.302C35.0018 190.932 35.2782 190.643 35.63 190.436C35.988 190.228 36.4026 190.125 36.8737 190.125C37.3322 190.125 37.7311 190.228 38.0703 190.436C38.4095 190.637 38.6733 190.907 38.8618 191.246C39.0502 191.585 39.1444 191.959 39.1444 192.367C39.1444 192.43 39.1413 192.499 39.135 192.574C39.135 192.644 39.1319 192.722 39.1256 192.81H35.4886C35.52 193.262 35.6676 193.608 35.9315 193.846C36.2016 194.079 36.5125 194.195 36.8643 194.195C37.1469 194.195 37.3825 194.132 37.5709 194.007C37.7657 193.875 37.9101 193.699 38.0044 193.479H39.0031C38.8775 193.919 38.6262 194.286 38.2493 194.581C37.8787 194.877 37.417 195.024 36.8643 195.024ZM36.8643 190.944C36.5313 190.944 36.2361 191.045 35.9786 191.246C35.721 191.441 35.564 191.736 35.5075 192.132H38.1457C38.1268 191.767 37.9981 191.478 37.7594 191.265C37.5207 191.051 37.2223 190.944 36.8643 190.944Z" fill="#00070A"/>
<path d="M41.2658 191.519L41.4165 190.134L40.3047 190.954L39.909 190.275L41.1904 189.738L39.9184 189.22L40.2859 188.561L41.4259 189.38L41.2658 187.986H42.0195L41.8594 189.38L42.99 188.561L43.3481 189.211L42.0761 189.748L43.3575 190.275L42.9712 190.944L41.8594 190.134L42.0101 191.519H41.2658Z" fill="#BA1A1A"/>
<path d="M12.2676 256.269C11.784 256.269 11.36 256.184 10.9956 256.014C10.6313 255.845 10.3455 255.603 10.1382 255.289C9.9372 254.975 9.83356 254.601 9.82727 254.167H10.8826C10.8888 254.519 11.0113 254.818 11.25 255.063C11.4887 255.308 11.8248 255.43 12.2582 255.43C12.6414 255.43 12.9397 255.339 13.1533 255.157C13.3732 254.968 13.4831 254.73 13.4831 254.441C13.4831 254.208 13.4297 254.02 13.3229 253.875C13.2224 253.731 13.0811 253.612 12.8989 253.517C12.723 253.423 12.5189 253.338 12.2865 253.263C12.0541 253.188 11.8091 253.106 11.5515 253.018C11.0427 252.848 10.6596 252.628 10.402 252.358C10.1508 252.088 10.0251 251.733 10.0251 251.294C10.0189 250.923 10.1037 250.6 10.2795 250.323C10.4617 250.047 10.713 249.833 11.0333 249.682C11.36 249.525 11.74 249.447 12.1734 249.447C12.6005 249.447 12.9743 249.525 13.2947 249.682C13.6213 249.839 13.8757 250.059 14.0579 250.342C14.24 250.618 14.3342 250.942 14.3405 251.312H13.2852C13.2852 251.143 13.2413 250.983 13.1533 250.832C13.0654 250.675 12.9366 250.546 12.767 250.446C12.5974 250.345 12.3901 250.295 12.1451 250.295C11.8311 250.289 11.5704 250.367 11.3631 250.53C11.1621 250.694 11.0616 250.92 11.0616 251.209C11.0616 251.466 11.137 251.664 11.2877 251.802C11.4385 251.941 11.6458 252.057 11.9096 252.151C12.1734 252.239 12.4749 252.343 12.8141 252.462C13.1408 252.569 13.4328 252.698 13.6904 252.848C13.9479 252.999 14.1521 253.197 14.3028 253.442C14.4599 253.687 14.5384 253.998 14.5384 254.375C14.5384 254.708 14.4536 255.019 14.284 255.308C14.1144 255.59 13.86 255.823 13.5208 256.005C13.1816 256.181 12.7639 256.269 12.2676 256.269ZM17.7927 256.269C17.3342 256.269 16.9259 256.168 16.5678 255.967C16.2161 255.76 15.9397 255.474 15.7387 255.11C15.5377 254.745 15.4372 254.321 15.4372 253.838C15.4372 253.348 15.5345 252.917 15.7293 252.547C15.9303 252.176 16.2067 251.887 16.5584 251.68C16.9165 251.473 17.331 251.369 17.8022 251.369C18.2607 251.369 18.6596 251.473 18.9988 251.68C19.338 251.881 19.6018 252.151 19.7902 252.49C19.9787 252.829 20.0729 253.203 20.0729 253.612C20.0729 253.674 20.0698 253.743 20.0635 253.819C20.0635 253.888 20.0603 253.966 20.0541 254.054H16.4171C16.4485 254.507 16.5961 254.852 16.8599 255.091C17.13 255.323 17.441 255.439 17.7927 255.439C18.0754 255.439 18.311 255.377 18.4994 255.251C18.6941 255.119 18.8386 254.943 18.9328 254.723H19.9316C19.8059 255.163 19.5547 255.531 19.1778 255.826C18.8072 256.121 18.3455 256.269 17.7927 256.269ZM17.7927 252.189C17.4598 252.189 17.1646 252.289 16.907 252.49C16.6495 252.685 16.4925 252.98 16.4359 253.376H19.0742C19.0553 253.012 18.9265 252.723 18.6878 252.509C18.4491 252.296 18.1508 252.189 17.7927 252.189ZM23.3376 256.269C22.879 256.269 22.4676 256.165 22.1033 255.958C21.7452 255.75 21.4625 255.465 21.2553 255.1C21.0542 254.73 20.9537 254.302 20.9537 253.819C20.9537 253.335 21.0542 252.911 21.2553 252.547C21.4625 252.176 21.7452 251.887 22.1033 251.68C22.4676 251.473 22.879 251.369 23.3376 251.369C23.9155 251.369 24.3991 251.52 24.7886 251.821C25.1843 252.123 25.4387 252.531 25.5518 253.046H24.5059C24.4431 252.789 24.3049 252.588 24.0913 252.443C23.8778 252.299 23.6265 252.226 23.3376 252.226C23.0926 252.226 22.8665 252.289 22.6592 252.415C22.4519 252.534 22.2854 252.713 22.1598 252.952C22.0342 253.184 21.9713 253.473 21.9713 253.819C21.9713 254.164 22.0342 254.456 22.1598 254.695C22.2854 254.927 22.4519 255.107 22.6592 255.232C22.8665 255.358 23.0926 255.421 23.3376 255.421C23.6265 255.421 23.8778 255.348 24.0913 255.204C24.3049 255.059 24.4431 254.855 24.5059 254.591H25.5518C25.445 255.094 25.1937 255.499 24.798 255.807C24.4023 256.115 23.9155 256.269 23.3376 256.269ZM28.8351 256.269C28.3891 256.269 27.9871 256.168 27.629 255.967C27.2773 255.76 26.9977 255.474 26.7904 255.11C26.5832 254.739 26.4795 254.309 26.4795 253.819C26.4795 253.329 26.5832 252.902 26.7904 252.537C27.004 252.167 27.2898 251.881 27.6479 251.68C28.0059 251.473 28.4048 251.369 28.8445 251.369C29.2905 251.369 29.6893 251.473 30.0411 251.68C30.3992 251.881 30.6818 252.167 30.8891 252.537C31.1027 252.902 31.2095 253.329 31.2095 253.819C31.2095 254.309 31.1027 254.739 30.8891 255.11C30.6818 255.474 30.3992 255.76 30.0411 255.967C29.6831 256.168 29.281 256.269 28.8351 256.269ZM28.8351 255.411C29.0738 255.411 29.2936 255.351 29.4946 255.232C29.7019 255.113 29.8684 254.937 29.994 254.704C30.1196 254.466 30.1824 254.171 30.1824 253.819C30.1824 253.467 30.1196 253.175 29.994 252.943C29.8746 252.704 29.7113 252.525 29.504 252.405C29.303 252.286 29.0832 252.226 28.8445 252.226C28.6058 252.226 28.3828 252.286 28.1755 252.405C27.9745 252.525 27.8112 252.704 27.6856 252.943C27.5599 253.175 27.4971 253.467 27.4971 253.819C27.4971 254.171 27.5599 254.466 27.6856 254.704C27.8112 254.937 27.9745 255.113 28.1755 255.232C28.3765 255.351 28.5964 255.411 28.8351 255.411ZM32.3037 256.156V251.482H33.1894L33.2648 252.302C33.4092 252.013 33.6197 251.787 33.896 251.623C34.1787 251.454 34.5022 251.369 34.8665 251.369C35.4319 251.369 35.8747 251.545 36.1951 251.897C36.5217 252.248 36.685 252.773 36.685 253.47V256.156H35.6957V253.574C35.6957 252.669 35.3251 252.217 34.5839 252.217C34.2133 252.217 33.9055 252.349 33.6605 252.613C33.4218 252.877 33.3024 253.253 33.3024 253.743V256.156H32.3037ZM40.0049 256.269C39.5526 256.269 39.1537 256.162 38.8083 255.948C38.4628 255.735 38.1927 255.443 37.998 255.072C37.8032 254.701 37.7059 254.28 37.7059 253.809C37.7059 253.338 37.8032 252.921 37.998 252.556C38.1927 252.186 38.4628 251.897 38.8083 251.689C39.16 251.476 39.562 251.369 40.0143 251.369C40.3849 251.369 40.7084 251.441 40.9848 251.586C41.2675 251.73 41.4873 251.934 41.6444 252.198V249.372H42.6431V256.156H41.748L41.6444 255.43C41.4936 255.65 41.2863 255.845 41.0225 256.014C40.7587 256.184 40.4195 256.269 40.0049 256.269ZM40.1839 255.402C40.611 255.402 40.9597 255.254 41.2298 254.959C41.5062 254.664 41.6444 254.284 41.6444 253.819C41.6444 253.348 41.5062 252.968 41.2298 252.679C40.9597 252.383 40.611 252.236 40.1839 252.236C39.7568 252.236 39.405 252.383 39.1286 252.679C38.8522 252.968 38.714 253.348 38.714 253.819C38.714 254.127 38.7769 254.4 38.9025 254.639C39.0281 254.877 39.2009 255.066 39.4207 255.204C39.6468 255.336 39.9012 255.402 40.1839 255.402ZM46.3423 256.156V249.56H48.6507C49.1658 249.56 49.593 249.648 49.9322 249.824C50.2714 249.993 50.5226 250.229 50.6859 250.53C50.8555 250.826 50.9403 251.162 50.9403 251.539C50.9403 251.897 50.8587 252.226 50.6954 252.528C50.5383 252.823 50.2902 253.059 49.951 253.235C49.6118 253.411 49.1784 253.498 48.6507 253.498H47.341V256.156H46.3423ZM47.341 252.679H48.6036C49.0747 252.679 49.4108 252.578 49.6118 252.377C49.8191 252.17 49.9227 251.89 49.9227 251.539C49.9227 251.174 49.8191 250.892 49.6118 250.691C49.4108 250.483 49.0747 250.38 48.6036 250.38H47.341V252.679ZM53.6282 256.269C53.0629 256.269 52.6169 256.093 52.2903 255.741C51.9699 255.389 51.8098 254.865 51.8098 254.167V251.482H52.8085V254.064C52.8085 254.968 53.1791 255.421 53.9203 255.421C54.2909 255.421 54.5956 255.289 54.8343 255.025C55.073 254.761 55.1923 254.384 55.1923 253.894V251.482H56.1911V256.156H55.3054L55.23 255.336C55.0855 255.625 54.872 255.854 54.5893 256.024C54.3129 256.187 53.9926 256.269 53.6282 256.269ZM57.4757 256.156V251.482H58.3614L58.4368 252.302C58.5813 252.013 58.7917 251.787 59.0681 251.623C59.3508 251.454 59.6743 251.369 60.0386 251.369C60.6039 251.369 61.0468 251.545 61.3671 251.897C61.6938 252.248 61.8571 252.773 61.8571 253.47V256.156H60.8677V253.574C60.8677 252.669 60.4971 252.217 59.7559 252.217C59.3853 252.217 59.0775 252.349 58.8325 252.613C58.5939 252.877 58.4745 253.253 58.4745 253.743V256.156H57.4757ZM65.2617 256.269C64.8032 256.269 64.3918 256.165 64.0274 255.958C63.6694 255.75 63.3867 255.465 63.1794 255.1C62.9784 254.73 62.8779 254.302 62.8779 253.819C62.8779 253.335 62.9784 252.911 63.1794 252.547C63.3867 252.176 63.6694 251.887 64.0274 251.68C64.3918 251.473 64.8032 251.369 65.2617 251.369C65.8396 251.369 66.3233 251.52 66.7128 251.821C67.1085 252.123 67.3629 252.531 67.476 253.046H66.4301C66.3673 252.789 66.2291 252.588 66.0155 252.443C65.8019 252.299 65.5507 252.226 65.2617 252.226C65.0168 252.226 64.7906 252.289 64.5833 252.415C64.3761 252.534 64.2096 252.713 64.084 252.952C63.9583 253.184 63.8955 253.473 63.8955 253.819C63.8955 254.164 63.9583 254.456 64.084 254.695C64.2096 254.927 64.3761 255.107 64.5833 255.232C64.7906 255.358 65.0168 255.421 65.2617 255.421C65.5507 255.421 65.8019 255.348 66.0155 255.204C66.2291 255.059 66.3673 254.855 66.4301 254.591H67.476C67.3692 255.094 67.1179 255.499 66.7222 255.807C66.3265 256.115 65.8396 256.269 65.2617 256.269ZM68.5733 256.156V249.372H69.572V252.236C69.7291 251.966 69.9458 251.755 70.2222 251.605C70.5048 251.448 70.8158 251.369 71.155 251.369C71.714 251.369 72.1537 251.545 72.4741 251.897C72.7944 252.248 72.9546 252.773 72.9546 253.47V256.156H71.9653V253.574C71.9653 252.669 71.6041 252.217 70.8817 252.217C70.5048 252.217 70.1908 252.349 69.9395 252.613C69.6945 252.877 69.572 253.253 69.572 253.743V256.156H68.5733ZM74.1451 256.156V249.372H75.1438V256.156H74.1451ZM76.9881 250.596C76.7996 250.596 76.6426 250.54 76.517 250.427C76.3976 250.307 76.3379 250.16 76.3379 249.984C76.3379 249.808 76.3976 249.664 76.517 249.551C76.6426 249.431 76.7996 249.372 76.9881 249.372C77.1765 249.372 77.3304 249.431 77.4498 249.551C77.5754 249.664 77.6382 249.808 77.6382 249.984C77.6382 250.16 77.5754 250.307 77.4498 250.427C77.3304 250.54 77.1765 250.596 76.9881 250.596ZM76.4887 256.156V251.482H77.4874V256.156H76.4887ZM78.82 256.156V251.482H79.7057L79.7811 252.302C79.9256 252.013 80.136 251.787 80.4124 251.623C80.695 251.454 81.0185 251.369 81.3829 251.369C81.9482 251.369 82.391 251.545 82.7114 251.897C83.038 252.248 83.2014 252.773 83.2014 253.47V256.156H82.212V253.574C82.212 252.669 81.8414 252.217 81.1002 252.217C80.7296 252.217 80.4218 252.349 80.1768 252.613C79.9381 252.877 79.8188 253.253 79.8188 253.743V256.156H78.82ZM86.5778 256.269C86.1192 256.269 85.7109 256.168 85.3529 255.967C85.0011 255.76 84.7247 255.474 84.5237 255.11C84.3227 254.745 84.2222 254.321 84.2222 253.838C84.2222 253.348 84.3196 252.917 84.5143 252.547C84.7153 252.176 84.9917 251.887 85.3434 251.68C85.7015 251.473 86.1161 251.369 86.5872 251.369C87.0457 251.369 87.4446 251.473 87.7838 251.68C88.123 251.881 88.3868 252.151 88.5753 252.49C88.7637 252.829 88.8579 253.203 88.8579 253.612C88.8579 253.674 88.8548 253.743 88.8485 253.819C88.8485 253.888 88.8454 253.966 88.8391 254.054H85.2021C85.2335 254.507 85.3811 254.852 85.645 255.091C85.9151 255.323 86.226 255.439 86.5778 255.439C86.8604 255.439 87.096 255.377 87.2844 255.251C87.4791 255.119 87.6236 254.943 87.7178 254.723H88.7166C88.591 255.163 88.3397 255.531 87.9628 255.826C87.5922 256.121 87.1305 256.269 86.5778 256.269ZM86.5778 252.189C86.2448 252.189 85.9496 252.289 85.6921 252.49C85.4345 252.685 85.2775 252.98 85.221 253.376H87.8592C87.8403 253.012 87.7116 252.723 87.4729 252.509C87.2342 252.296 86.9358 252.189 86.5778 252.189Z" fill="#00070A"/>
<path d="M90.9793 252.764L91.13 251.378L90.0182 252.198L89.6225 251.52L90.9039 250.983L89.6319 250.464L89.9993 249.805L91.1394 250.625L90.9793 249.23H91.733L91.5729 250.625L92.7035 249.805L93.0616 250.455L91.7896 250.992L93.071 251.52L92.6847 252.189L91.5729 251.378L91.7236 252.764H90.9793Z" fill="#BA1A1A"/>
<path d="M9.6671 312.689L12.098 306.093H13.191L15.6031 312.689H14.5478L13.9825 311.078H11.2877L10.7224 312.689H9.6671ZM11.5704 310.286H13.6998L12.6351 307.281L11.5704 310.286ZM16.4993 312.689V308.016H17.3944L17.4792 308.901C17.6425 308.593 17.8687 308.352 18.1576 308.176C18.4529 307.994 18.8078 307.902 19.2223 307.902V308.948H18.9491C18.6727 308.948 18.4246 308.995 18.2047 309.09C17.9912 309.178 17.8184 309.332 17.6865 309.551C17.5609 309.765 17.4981 310.063 17.4981 310.446V312.689H16.4993ZM22.0526 312.689C21.5941 312.689 21.2297 312.579 20.9596 312.359C20.6895 312.133 20.5545 311.734 20.5545 311.163V308.854H19.7536V308.016H20.5545L20.677 306.828H21.5532V308.016H22.8723V308.854H21.5532V311.163C21.5532 311.42 21.6066 311.599 21.7134 311.7C21.8265 311.794 22.0181 311.841 22.2882 311.841H22.8252V312.689H22.0526ZM24.4816 307.13C24.2932 307.13 24.1361 307.073 24.0105 306.96C23.8912 306.841 23.8315 306.693 23.8315 306.517C23.8315 306.342 23.8912 306.197 24.0105 306.084C24.1361 305.965 24.2932 305.905 24.4816 305.905C24.6701 305.905 24.824 305.965 24.9433 306.084C25.0689 306.197 25.1318 306.342 25.1318 306.517C25.1318 306.693 25.0689 306.841 24.9433 306.96C24.824 307.073 24.6701 307.13 24.4816 307.13ZM23.9823 312.689V308.016H24.981V312.689H23.9823ZM28.1792 312.802C27.5887 312.802 27.1019 312.658 26.7187 312.369C26.3356 312.08 26.1157 311.696 26.0592 311.219H27.0674C27.1176 311.433 27.237 311.618 27.4254 311.775C27.6139 311.926 27.862 312.001 28.1698 312.001C28.4713 312.001 28.6911 311.938 28.8293 311.813C28.9675 311.687 29.0366 311.543 29.0366 311.379C29.0366 311.141 28.9392 310.98 28.7445 310.899C28.5561 310.811 28.2923 310.732 27.9531 310.663C27.6892 310.607 27.4254 310.531 27.1616 310.437C26.904 310.343 26.6873 310.211 26.5115 310.041C26.3419 309.865 26.2571 309.63 26.2571 309.335C26.2571 308.926 26.4141 308.587 26.7282 308.317C27.0422 308.041 27.4819 307.902 28.0473 307.902C28.5686 307.902 28.9895 308.028 29.3099 308.279C29.6365 308.531 29.8281 308.886 29.8846 309.344H28.9235C28.8921 309.143 28.7979 308.986 28.6409 308.873C28.4901 308.76 28.286 308.703 28.0284 308.703C27.7772 308.703 27.5824 308.757 27.4443 308.864C27.3061 308.964 27.237 309.096 27.237 309.259C27.237 309.423 27.3312 309.551 27.5196 309.646C27.7144 309.74 27.9688 309.825 28.2828 309.9C28.5969 309.969 28.8859 310.051 29.1497 310.145C29.4198 310.233 29.6365 310.365 29.7998 310.541C29.9631 310.717 30.0448 310.974 30.0448 311.313C30.0511 311.74 29.8846 312.095 29.5454 312.378C29.2125 312.661 28.7571 312.802 28.1792 312.802ZM32.9342 312.689C32.4757 312.689 32.1114 312.579 31.8413 312.359C31.5712 312.133 31.4361 311.734 31.4361 311.163V308.854H30.6352V308.016H31.4361L31.5586 306.828H32.4349V308.016H33.754V308.854H32.4349V311.163C32.4349 311.42 32.4883 311.599 32.595 311.7C32.7081 311.794 32.8997 311.841 33.1698 311.841H33.7069V312.689H32.9342ZM36.8643 312.802C36.4057 312.802 35.9974 312.702 35.6394 312.501C35.2876 312.293 35.0112 312.007 34.8102 311.643C34.6092 311.279 34.5087 310.855 34.5087 310.371C34.5087 309.881 34.6061 309.451 34.8008 309.08C35.0018 308.71 35.2782 308.421 35.63 308.213C35.988 308.006 36.4026 307.902 36.8737 307.902C37.3322 307.902 37.7311 308.006 38.0703 308.213C38.4095 308.414 38.6733 308.685 38.8618 309.024C39.0502 309.363 39.1444 309.737 39.1444 310.145C39.1444 310.208 39.1413 310.277 39.135 310.352C39.135 310.421 39.1319 310.5 39.1256 310.588H35.4886C35.52 311.04 35.6676 311.386 35.9315 311.624C36.2016 311.857 36.5125 311.973 36.8643 311.973C37.1469 311.973 37.3825 311.91 37.5709 311.784C37.7657 311.653 37.9101 311.477 38.0044 311.257H39.0031C38.8775 311.696 38.6262 312.064 38.2493 312.359C37.8787 312.654 37.417 312.802 36.8643 312.802ZM36.8643 308.722C36.5313 308.722 36.2361 308.823 35.9786 309.024C35.721 309.218 35.564 309.514 35.5075 309.909H38.1457C38.1268 309.545 37.9981 309.256 37.7594 309.043C37.5207 308.829 37.2223 308.722 36.8643 308.722Z" fill="#00070A"/>
<path d="M41.2658 309.297L41.4165 307.912L40.3047 308.732L39.909 308.053L41.1904 307.516L39.9184 306.998L40.2859 306.338L41.4259 307.158L41.2658 305.764H42.0195L41.8594 307.158L42.99 306.338L43.3481 306.989L42.0761 307.526L43.3575 308.053L42.9712 308.722L41.8594 307.912L42.0101 309.297H41.2658Z" fill="#BA1A1A"/>
<path d="M9.70479 111.467L12.1357 104.871H12.9743L15.3958 111.467H14.5572L13.9542 109.771H11.1464L10.5339 111.467H9.70479ZM11.3819 109.13H13.7187L12.5503 105.87L11.3819 109.13ZM18.2387 111.58C17.7738 111.58 17.3655 111.473 17.0138 111.259C16.6683 111.046 16.3982 110.754 16.2035 110.383C16.015 110.012 15.9208 109.592 15.9208 109.12C15.9208 108.649 16.0182 108.232 16.2129 107.867C16.4076 107.497 16.6777 107.208 17.0232 107C17.3687 106.787 17.777 106.68 18.2481 106.68C18.6313 106.68 18.9705 106.759 19.2657 106.916C19.5609 107.073 19.7902 107.293 19.9535 107.575V104.683H20.745V111.467H20.0289L19.9535 110.694C19.8028 110.92 19.586 111.124 19.3034 111.306C19.0207 111.489 18.6658 111.58 18.2387 111.58ZM18.3235 110.892C18.6375 110.892 18.9139 110.82 19.1526 110.675C19.3976 110.524 19.586 110.317 19.718 110.053C19.8562 109.789 19.9252 109.482 19.9252 109.13C19.9252 108.778 19.8562 108.47 19.718 108.206C19.586 107.943 19.3976 107.738 19.1526 107.594C18.9139 107.443 18.6375 107.368 18.3235 107.368C18.0157 107.368 17.7393 107.443 17.4943 107.594C17.2556 107.738 17.0672 107.943 16.929 108.206C16.7971 108.47 16.7311 108.778 16.7311 109.13C16.7311 109.482 16.7971 109.789 16.929 110.053C17.0672 110.317 17.2556 110.524 17.4943 110.675C17.7393 110.82 18.0157 110.892 18.3235 110.892ZM24.2023 111.58C23.7374 111.58 23.3291 111.473 22.9774 111.259C22.6319 111.046 22.3618 110.754 22.1671 110.383C21.9786 110.012 21.8844 109.592 21.8844 109.12C21.8844 108.649 21.9818 108.232 22.1765 107.867C22.3712 107.497 22.6413 107.208 22.9868 107C23.3323 106.787 23.7406 106.68 24.2117 106.68C24.5949 106.68 24.9341 106.759 25.2293 106.916C25.5245 107.073 25.7538 107.293 25.9171 107.575V104.683H26.7086V111.467H25.9925L25.9171 110.694C25.7664 110.92 25.5497 111.124 25.267 111.306C24.9843 111.489 24.6294 111.58 24.2023 111.58ZM24.2871 110.892C24.6011 110.892 24.8775 110.82 25.1162 110.675C25.3612 110.524 25.5497 110.317 25.6816 110.053C25.8198 109.789 25.8889 109.482 25.8889 109.13C25.8889 108.778 25.8198 108.47 25.6816 108.206C25.5497 107.943 25.3612 107.738 25.1162 107.594C24.8775 107.443 24.6011 107.368 24.2871 107.368C23.9793 107.368 23.7029 107.443 23.4579 107.594C23.2192 107.738 23.0308 107.943 22.8926 108.206C22.7607 108.47 22.6947 108.778 22.6947 109.13C22.6947 109.482 22.7607 109.789 22.8926 110.053C23.0308 110.317 23.2192 110.524 23.4579 110.675C23.7029 110.82 23.9793 110.892 24.2871 110.892ZM32.1412 111.58C31.7518 111.58 31.4283 111.514 31.1707 111.382C30.9132 111.25 30.7216 111.074 30.596 110.854C30.4704 110.634 30.4075 110.396 30.4075 110.138C30.4075 109.661 30.5897 109.293 30.954 109.036C31.3184 108.778 31.8146 108.649 32.4427 108.649H33.7053V108.593C33.7053 108.184 33.5985 107.877 33.385 107.669C33.1714 107.456 32.8856 107.349 32.5275 107.349C32.2198 107.349 31.9528 107.428 31.7267 107.585C31.5068 107.735 31.3686 107.958 31.3121 108.254H30.5018C30.5332 107.914 30.6462 107.629 30.841 107.396C31.042 107.164 31.2901 106.988 31.5853 106.869C31.8806 106.743 32.1946 106.68 32.5275 106.68C33.1808 106.68 33.6708 106.856 33.9974 107.208C34.3303 107.553 34.4968 108.015 34.4968 108.593V111.467H33.7901L33.743 110.628C33.6111 110.892 33.4164 111.118 33.1588 111.306C32.9076 111.489 32.5684 111.58 32.1412 111.58ZM32.2637 110.911C32.5652 110.911 32.8228 110.832 33.0363 110.675C33.2562 110.518 33.4227 110.314 33.5357 110.063C33.6488 109.811 33.7053 109.548 33.7053 109.271V109.262H32.5087C32.0439 109.262 31.7141 109.343 31.5194 109.507C31.3309 109.664 31.2367 109.862 31.2367 110.1C31.2367 110.345 31.3246 110.543 31.5005 110.694C31.6827 110.838 31.9371 110.911 32.2637 110.911ZM40.1187 111.467C39.6915 111.467 39.3555 111.363 39.1105 111.156C38.8655 110.948 38.743 110.575 38.743 110.034V107.462H37.9327V106.793H38.743L38.8467 105.672H39.5345V106.793H40.9102V107.462H39.5345V110.034C39.5345 110.33 39.5942 110.531 39.7135 110.637C39.8329 110.738 40.0433 110.788 40.3448 110.788H40.8348V111.467H40.1187ZM42.4433 105.757C42.2863 105.757 42.1544 105.706 42.0476 105.606C41.9471 105.499 41.8968 105.367 41.8968 105.21C41.8968 105.059 41.9471 104.934 42.0476 104.833C42.1544 104.733 42.2863 104.683 42.4433 104.683C42.5941 104.683 42.7229 104.733 42.8296 104.833C42.9364 104.934 42.9898 105.059 42.9898 105.21C42.9898 105.367 42.9364 105.499 42.8296 105.606C42.7229 105.706 42.5941 105.757 42.4433 105.757ZM42.0476 111.467V106.793H42.8391V111.467H42.0476ZM46.111 111.467C45.6839 111.467 45.3478 111.363 45.1028 111.156C44.8578 110.948 44.7354 110.575 44.7354 110.034V107.462H43.925V106.793H44.7354L44.839 105.672H45.5268V106.793H46.9025V107.462H45.5268V110.034C45.5268 110.33 45.5865 110.531 45.7058 110.637C45.8252 110.738 46.0356 110.788 46.3371 110.788H46.8271V111.467H46.111ZM47.9551 111.467V104.683H48.7466V111.467H47.9551ZM52.1921 111.58C51.7461 111.58 51.3504 111.479 51.0049 111.278C50.6594 111.071 50.3862 110.785 50.1852 110.421C49.9904 110.056 49.8931 109.626 49.8931 109.13C49.8931 108.64 49.9904 108.213 50.1852 107.848C50.3799 107.478 50.65 107.192 50.9955 106.991C51.3472 106.784 51.7524 106.68 52.2109 106.68C52.6632 106.68 53.0527 106.784 53.3793 106.991C53.7122 107.192 53.9666 107.459 54.1425 107.792C54.3184 108.125 54.4063 108.483 54.4063 108.866C54.4063 108.935 54.4032 109.004 54.3969 109.073C54.3969 109.142 54.3969 109.221 54.3969 109.309H50.6751C50.694 109.667 50.7756 109.965 50.9201 110.204C51.0708 110.436 51.2561 110.612 51.476 110.732C51.7021 110.851 51.9408 110.911 52.1921 110.911C52.5187 110.911 52.792 110.835 53.0118 110.685C53.2317 110.534 53.3919 110.33 53.4924 110.072H54.2744C54.1488 110.505 53.9069 110.867 53.5489 111.156C53.1971 111.438 52.7449 111.58 52.1921 111.58ZM52.1921 107.349C51.8152 107.349 51.4791 107.465 51.1839 107.698C50.895 107.924 50.7285 108.257 50.6845 108.696H53.6243C53.6054 108.276 53.4609 107.946 53.1908 107.707C52.9207 107.468 52.5878 107.349 52.1921 107.349ZM55.7757 111.514C55.6187 111.514 55.4868 111.463 55.38 111.363C55.2795 111.256 55.2292 111.127 55.2292 110.977C55.2292 110.826 55.2795 110.7 55.38 110.6C55.4868 110.493 55.6187 110.44 55.7757 110.44C55.9265 110.44 56.0521 110.493 56.1526 110.6C56.2594 110.7 56.3128 110.826 56.3128 110.977C56.3128 111.127 56.2594 111.256 56.1526 111.363C56.0521 111.463 55.9265 111.514 55.7757 111.514ZM57.6631 111.514C57.506 111.514 57.3741 111.463 57.2674 111.363C57.1668 111.256 57.1166 111.127 57.1166 110.977C57.1166 110.826 57.1668 110.7 57.2674 110.6C57.3741 110.493 57.506 110.44 57.6631 110.44C57.8138 110.44 57.9395 110.493 58.04 110.6C58.1468 110.7 58.2002 110.826 58.2002 110.977C58.2002 111.127 58.1468 111.256 58.04 111.363C57.9395 111.463 57.8138 111.514 57.6631 111.514ZM59.5505 111.514C59.3934 111.514 59.2615 111.463 59.1547 111.363C59.0542 111.256 59.004 111.127 59.004 110.977C59.004 110.826 59.0542 110.7 59.1547 110.6C59.2615 110.493 59.3934 110.44 59.5505 110.44C59.7012 110.44 59.8269 110.493 59.9274 110.6C60.0341 110.7 60.0875 110.826 60.0875 110.977C60.0875 111.127 60.0341 111.256 59.9274 111.363C59.8269 111.463 59.7012 111.514 59.5505 111.514Z" fill="#8B9297"/>
<rect width="212" height="9.42222" transform="translate(0 462.867)" fill="#F9F9FC"/>
<rect x="84.8" y="466.4" width="42.4" height="0.755556" rx="0.377778" fill="#1C1B1F"/>
</g>
<defs>
<clipPath id="clip0_2637_6361">
<rect width="212" height="471.111" rx="17.6667" fill="white"/>
</clipPath>
<clipPath id="clip1_2637_6361">
<rect width="212" height="28.4889" fill="white"/>
</clipPath>
<clipPath id="clip2_2637_6361">
<rect width="23.5556" height="23.5556" fill="white" transform="translate(9.42212 67.1333)"/>
</clipPath>
<clipPath id="clip3_2637_6361">
<rect x="9.42212" y="67.1333" width="23.5556" height="23.5556" rx="11.7778" fill="white"/>
</clipPath>
<clipPath id="clip4_2637_6361">
<rect x="40.0444" y="67.1333" width="76.2444" height="23.5556" rx="4.71111" fill="white"/>
</clipPath>
</defs>
</svg>
